<svg version="1.1" id="bird" xmlns="http://www.w3.org/2000/svg" xmlns:xlink="http://www.w3.org/1999/xlink" x="0px" y="0px"
	 viewBox="0 0 126.6 72.5" style="enable-background:new 0 0 126.6 72.5;" xml:space="preserve">
<g id="body">
	<path fill="#42AA92" d="M112.6,8.8c2.3,6.8-1.4,14.1-8.1,16.4S90.4,23.8,88.1,17C85.8,10.3,89.4,3,96.2,0.7c0,0,0,0,0,0
		C103-1.6,110.3,2,112.6,8.8"/>
	<path fill="#42AA92" d="M22,35.1c10.7,17,33.7,24.7,55.6,17.4s42-30.6,33.6-47.1L22,35.1z"/>
	<polygon fill="#42AA92" points="1.2,54.5 24.6,35.6 0,36.1 	"/>
	<polygon fill="#403A3B" points="111.1,6.2 113,11.8 126.6,5.4 	"/>
	<polygon fill="#338D7A" points="0.7,46.6 1.3,54.3 22,37.7 	"/>
	<path fill="#403A3B" d="M100.7,10c0.8,1.1,2.3,1.5,3.4,0.7c1.1-0.8,1.5-2.3,0.7-3.4c-0.7-1.1-2.3-1.4-3.4-0.7
		C100.3,7.3,100,8.8,100.7,10C100.7,10,100.7,10,100.7,10"/>
</g>
<path id="wing" fill="#85CDB0" d="M34.8,65.6c6.4,2.5,13,4.5,19.7,6c3.1,0.5,6.2,0.8,9.3,0.9c19.8-0.2,44.7-17,32.5-43.8
	c-2.5-5-5.4-9.8-8.6-14.3L34.8,65.6z"/>
</svg>
