<svg xmlns="http://www.w3.org/2000/svg" xmlns:xlink="http://www.w3.org/1999/xlink" viewBox="0 0 170.18 33.49"><defs><style>.cls-1{fill:none;}.cls-2{clip-path:url(#clip-path);}.cls-3{fill:#bde6ee;}.cls-4{fill:#fff;}</style><clipPath id="clip-path"><rect class="cls-1" x="-767.89" y="399.74" width="1680.31" height="792.14"/></clipPath></defs><title>Dropbox</title><g id="Artwork"><g class="cls-2"><rect class="cls-3" x="-775.19" y="-356.44" width="1692.87" height="1517.31"/></g><path class="cls-4" d="M19.73,6.28,9.86,12.56l9.87,6.29L9.86,25.13,0,18.85l9.86-6.29L0,6.28,9.86,0ZM9.83,27.21l9.87-6.28,9.86,6.28L19.7,33.49Zm9.9-8.36,9.86-6.29L19.73,6.28,29.59,0l9.86,6.28-9.86,6.28,9.86,6.29-9.86,6.28Z"/><path class="cls-4" d="M47.18,6.28h8c5.11,0,9.28,3,9.28,9.69v1.44c0,6.75-3.94,9.8-9.16,9.8h-8.1Zm4.46,3.79v13.3h3.43c2.88,0,4.85-1.91,4.85-6.11V16.18c0-4.2-2-6.11-5-6.11Zm15.18.2h3.55l.56,3.94c.67-2.7,2.4-4.08,5.54-4.08h1.09v4.49H75.74c-3.64,0-4.52,1.26-4.52,4.84v7.75h-4.4ZM78.5,19.11v-.47c0-5.69,3.64-8.75,8.57-8.75s8.54,3.11,8.54,8.75v.47c0,5.58-3.43,8.54-8.54,8.54C81.61,27.65,78.5,24.69,78.5,19.11Zm12.65-.06v-.41c0-3.17-1.58-5-4.08-5S83,15.35,83,18.64v.41c0,3.05,1.56,4.76,4.08,4.76S91.15,22.13,91.15,19.05Zm6.78-8.78h3.7l.44,3.23a5.7,5.7,0,0,1,5.58-3.61c4.31,0,7.13,3.11,7.13,8.81v.47c0,5.58-3.14,8.48-7.13,8.48a5.49,5.49,0,0,1-5.4-3.17V33H97.93Zm12.39,8.81V18.7c0-3.38-1.73-5-4-5s-4.11,1.88-4.11,5V19c0,3,1.59,4.88,4,4.88S110.32,22.19,110.32,19.08Zm11,5.05-.35,3.08H117.1V4.61h4.32V13.3a5.52,5.52,0,0,1,5.49-3.41c4,0,7,2.82,7,8.46v.5c0,5.63-2.82,8.8-7.13,8.8A5.55,5.55,0,0,1,121.27,24.13Zm8.22-5.28v-.41c0-3.12-1.7-4.82-4.05-4.82s-4.11,2-4.11,4.87v.36c0,3.17,1.61,5,4,5S129.49,22.19,129.49,18.85Zm6.4.26v-.47c0-5.69,3.61-8.75,8.54-8.75S153,13,153,18.64v.47c0,5.58-3.46,8.54-8.57,8.54C139,27.65,135.89,24.69,135.89,19.11Zm12.65-.06v-.41c0-3.17-1.58-5-4.08-5s-4.11,1.73-4.11,5v.41c0,3.05,1.56,4.76,4.08,4.76S148.54,22.13,148.54,19.05Zm10.22-.61-5.93-8.17h5.08l3.43,5.08,3.47-5.08h5l-6,8.14,6.34,8.8h-5l-3.91-5.6-3.78,5.6h-5.17Z"/></g></svg>