<svg xmlns="http://www.w3.org/2000/svg" viewBox="0 0 127.33 36.9"><defs><style>.a{fill:#fff;}</style></defs><title>fedex</title><polygon class="a" points="109.81 35.61 104.87 30.07 99.98 35.61 89.69 35.61 99.75 24.31 89.69 13 100.31 13 105.29 18.49 110.09 13 120.33 13 110.32 24.26 120.47 35.61 109.81 35.61"/><polygon class="a" points="69.93 35.61 69.93 0 89.69 0 89.69 7.94 78.3 7.94 78.3 13 89.69 13 89.69 20.64 78.3 20.64 78.3 27.65 89.69 27.65 89.69 35.61 69.93 35.61"/><path class="a" d="M61.59,0V14.57H61.5a8.46,8.46,0,0,0-6.83-2.86c-5.48,0-9.61,3.73-11.06,8.66-1.65-5.43-5.92-8.76-12.24-8.76-5.13,0-9.18,2.31-11.3,6.06V13H9.46V7.94H21V0H0V35.61H9.46v-15h9.43a14.26,14.26,0,0,0-.43,3.52c0,7.43,5.67,12.64,12.91,12.64,6.09,0,10.11-2.86,12.23-8.07H35.49c-1.09,1.57-1.93,2-4.12,2a4.87,4.87,0,0,1-4.73-4.85H43.15c.71,5.9,5.31,11,11.61,11a8.09,8.09,0,0,0,6.74-3.6h.09v2.31h8.34V0ZM26.9,20.75A4.57,4.57,0,0,1,31.37,17a4.35,4.35,0,0,1,4.52,3.74Zm29.63,9.44c-3.07,0-5-2.87-5-5.86,0-3.19,1.66-6.26,5-6.26s4.82,3.07,4.82,6.26S59.89,30.19,56.53,30.19Z"/><path class="a" d="M122.75,33.32A2.29,2.29,0,1,1,125,35.61,2.29,2.29,0,0,1,122.75,33.32Zm4.18,0A1.89,1.89,0,1,0,125,35.21,1.89,1.89,0,0,0,126.93,33.32Zm-2.37.15v1.16h-.43V31.94H125c.49,0,1,.14,1,.74a.62.62,0,0,1-.55.63h0c.38.08.42.24.46.53a4,4,0,0,0,.16.78h-.54c0-.15-.07-.32-.09-.48s0-.45-.15-.57a.53.53,0,0,0-.39-.11Zm.44-.42c.4,0,.49-.18.49-.39s-.09-.3-.43-.3h-.5v.69Z"/></svg>