<svg xmlns="http://www.w3.org/2000/svg" viewBox="0 0 109.34 110.63"><defs><style>.a{fill:#fff;fill-rule:evenodd;}</style></defs><title>globe</title><path class="a" d="M99.59,71.92a9.48,9.48,0,0,1-9.81-9.67V45.7A9.53,9.53,0,0,1,99.59,36h9A59,59,0,0,0,89.05,10.39L74.33,24.91c0,.72-1.39,1.37-2.12,1.37h-.67a1.49,1.49,0,0,1-1.45-1.37V18a1.49,1.49,0,0,0-1.39-1.43H64.52a1.45,1.45,0,0,1-1.4-1.38V10.39L61.67,6.93V0H53.31L54,4.84c0,1.37-.66,2.09-1.39,1.37l-3.51-.65H43.49a1.32,1.32,0,0,1-.72-2.1l.72-2a24.9,24.9,0,0,0-7.75,2.75L42,8.3V9l8.42,1.37h.73l3.51,4.13a1.34,1.34,0,0,1,0,2.09l-1.39.71H51.92L46.28,16H44.89l-4.24,4.84v2c0,.72,0,1.43.72,1.43h1.4c.72,0,1.39,0,1.39.66L45.55,27c0,.66,0,.66.73.66A2.57,2.57,0,0,0,47.67,27V24.25l2.13-2.8c0-.66.66-.66,1.39-.66l2.12,1.37H54.7l2.79-2.81h.73l4.18,1.44c.72,0,.72,0,.72.66v6.92c0,.72,0,1.38-.72,1.38l-5.64,2.81a.64.64,0,0,0-.66.65L54.7,37.4c0,.65-.73.65-.73.65l-4.9,3.47-1.4,2.74V45.7l.67,4.78c.73.71,0,1.43-.67,1.43H46.28c-.73,0-.73,0-.73-.72l-1.39-3.46c0-.66-.67-.66-1.39-.66H38.53l-1.4,1.38V54c0,.66,0,2,.73,2a.67.67,0,0,0,.67.72v.66h2.12c.72,0,1.39,0,1.39.71V59.5c0,.71,0,1.37.73,1.37l2.78,1.38h.73l11.21-1.38h.73l4.9,2.75v.72l8.42,1.37.67.72,4.18,2.74c.73,0,.73,0,.73.72v8.25L73.6,85.78v.66l-8.42,4.9-.66.65-1.4,6.22a.7.7,0,0,1-.72.71l-5.64,2.75c-.66,0-.66.72-.66.72v3.4a1.55,1.55,0,0,1-1.4,1.38H53.31c-.73,0-.73,0-.73-.72l-1.39-4.06V83.69c0-.66-.73-.66-.73-1.37l-4.91-7.59V74l2.79-6.93c.73-.65,0-1.37-.67-1.37H44.89a2.7,2.7,0,0,1-2.12-.66l-7.7-4.84-8.42-4.83a.71.71,0,0,1-.72-.72V53.29l-2.79-6.22H21.75s-.73,0,0,.66l1.39,3.46c.67.72,0,1.38-.73,1.38L21,51.91,18.9,47.07a.67.67,0,0,1-.67-.71h-.72l-.73-.66-3.45-6.93V37.4l2.12-7.65a2.29,2.29,0,0,0-2.12-2.09H7.69A53.19,53.19,0,0,0,0,55.38c0,30.4,25.2,55.25,56.1,55.25a55.76,55.76,0,0,0,53.24-38.71Z"/></svg>