<svg xmlns="http://www.w3.org/2000/svg" viewBox="0 0 135.93 44.84"><defs><style>.a,.b{fill:#fff;}.a{fill-rule:evenodd;}</style></defs><title>google</title><path class="a" d="M25.92,8.34a12.51,12.51,0,0,0-4-2.5A12.48,12.48,0,0,0,8.59,8.6a12.59,12.59,0,0,0,0,17.68,12.3,12.3,0,0,0,8.77,3.64h.19a11.56,11.56,0,0,0,8.16-3,10.41,10.41,0,0,0,2.91-6.1H17.51v-5h16.2l0,2.47v.23h0c0,5.05-1.67,9.08-4.55,11.9A16.43,16.43,0,0,1,17.6,34.87h-.23A17.4,17.4,0,0,1,0,17.43,17.39,17.39,0,0,1,29.31,4.73L25.92,8.34ZM17.37,34.87s0,0,0,0ZM33.74,18.58Zm0,0c0-.08,0-.29,0,0Z"/><path class="a" d="M46.83,12.49a11.31,11.31,0,0,1,8,3.27,11,11,0,0,1,0,15.75,11.35,11.35,0,0,1-15.94,0,11,11,0,0,1,0-15.75,11.28,11.28,0,0,1,8-3.27Zm4.56,6.41a6.34,6.34,0,0,0-9.13,0,6.9,6.9,0,0,0,0,9.47,6.32,6.32,0,0,0,9.13,0,6.9,6.9,0,0,0,0-9.47Z"/><path class="a" d="M71.07,12.49a11.3,11.3,0,0,1,8,3.27,11,11,0,0,1,0,15.75,11.35,11.35,0,0,1-15.94,0,11,11,0,0,1,0-15.75,11.3,11.3,0,0,1,8-3.27Zm4.56,6.41a6.33,6.33,0,0,0-9.12,0,6.88,6.88,0,0,0,0,9.47,6.31,6.31,0,0,0,9.12,0,6.88,6.88,0,0,0,0-9.47Z"/><path class="a" d="M94.27,12.49a8.5,8.5,0,0,1,6.52,2.57V13.12h4.61V34.35a11.2,11.2,0,0,1-3.27,7.85,10.28,10.28,0,0,1-6.67,2.64,12,12,0,0,1-6.35-1.62,10.81,10.81,0,0,1-4.2-4.87l4.23-1.91c1.19,2.65,3,4,6.32,4a5.7,5.7,0,0,0,5.33-5.81V32.21a8.4,8.4,0,0,1-6.05,2.57,10.82,10.82,0,0,1-7.69-3.27,11.68,11.68,0,0,1-3-7.87c0-6.2,5.11-11.15,10.2-11.15Zm5.19,6.41a5.84,5.84,0,0,0-8.69,0A7,7,0,0,0,89,23.64c0,3.75,2.53,6.8,6.15,6.8a6,6,0,0,0,4.34-2.07,7.13,7.13,0,0,0,0-9.47Z"/><rect class="b" x="108.38" y="1.43" width="4.76" height="32.71"/><path class="a" d="M120.12,23.25l10.13-4.08c-1.79-2.31-4.38-3.42-7.81-1.08a6.36,6.36,0,0,0-2.32,5.16Zm.76,3.77c1.87,4.46,8.47,4.51,11,.34l3.77,2.53a11,11,0,0,1-9.33,5,10.68,10.68,0,0,1-7.85-3.19A11.77,11.77,0,0,1,118,15.9a10.33,10.33,0,0,1,11.19-2.77c2.8,1,5.08,3.48,6.74,7.76C130.91,22.93,125.9,25,120.88,27Z"/></svg>