<svg xmlns="http://www.w3.org/2000/svg" viewBox="0 0 90.32 37.05"><defs><style>.a{fill:#fff;fill-rule:evenodd;}</style></defs><title>hbo</title><path class="a" d="M71.78,25.52a7,7,0,1,0-7-7,7,7,0,0,0,7,7Z"/><path class="a" d="M71.87,0A18.45,18.45,0,0,0,54.44,12.41a18.47,18.47,0,0,0,.14-2.33,9.33,9.33,0,0,0-3.73-7.16A11,11,0,0,0,44.24.54h-16V36.93h15a13.46,13.46,0,0,0,8-2.9,9.5,9.5,0,0,0,3.83-7.47v-.39A18.46,18.46,0,1,0,71.87,0ZM37.6,8.43h3.9c1.91,0,3.91.33,3.91,2.76.14,2.2-1.18,3.5-3.81,3.5l-4,0V8.43ZM44.84,28a4.38,4.38,0,0,1-2.91.62H37.58V21.94h4c2.4,0,4.45.62,4.56,3.43A3.65,3.65,0,0,1,44.84,28Zm8.8-7a10.84,10.84,0,0,0-3.26-2.71,7,7,0,0,0,3.44-3.39,18.6,18.6,0,0,0-.18,6.1Zm18.14,7.11a9.62,9.62,0,1,1,9.6-9.61,9.6,9.6,0,0,1-9.6,9.61Z"/><polygon class="a" points="16.84 13.89 9.3 13.89 9.3 0.47 0 0.47 0 36.99 9.26 36.99 9.26 22.74 16.8 22.74 16.8 36.99 26.22 36.99 26.22 0.47 16.84 0.47 16.84 13.89 16.84 13.89"/><path class="a" d="M86.57,34.9A1.08,1.08,0,1,0,87.69,36a1.06,1.06,0,0,0-1.12-1.08Zm0,1.85a.77.77,0,1,1,.78-.77.77.77,0,0,1-.78.77Z"/><path class="a" d="M86.76,36.05a.27.27,0,0,0,.28-.3c0-.28-.18-.35-.48-.35h-.44v1.16h.29v-.5h0l.26.5h.34l-.3-.51Zm-.18-.18h-.17V35.6h.14c.09,0,.19,0,.19.12s-.06.15-.16.15Z"/></svg>