<svg xmlns="http://www.w3.org/2000/svg" viewBox="0 0 119.81 187.38"><defs><style>.a{fill:#4ca78f;}.b{fill:#286776;}.c{fill:#ce2021;}.d{fill:#fcfbe5;}.e{fill:#ec2e2e;}.f{fill:#fbc827;}.g{fill:#dfa10e;}.h{fill:#f83326;}.i{fill:#be392c;}.j{fill:#c08a58;}.k{fill:#e6e3c5;}</style></defs><title>hotairballoon</title><polygon class="a" points="85.62 155.18 85.17 155.18 85.2 147.9 119.04 60.29 0.65 60.15 34.9 147.97 34.9 155.18 34.45 155.18 34.45 148.01 0 59.7 119.69 59.84 119.57 60.15 85.62 148.01 85.62 155.18"/><polygon class="a" points="48.74 155.18 48.29 155.18 48.29 148.01 19.48 59.99 19.91 59.85 48.74 147.97 48.74 155.18"/><polygon class="a" points="71.78 155.18 71.33 155.18 71.35 147.9 100.17 59.85 100.59 59.99 71.78 148.01 71.78 155.18"/><path class="a" d="M59.9,90.76,8.1,89.06,25.85,126s6.57-8.25,15.22,0c0,0,10.33-10,18.83,0,8.51-10,18.63,0,18.63,0,8.67-8.25,15.61,0,15.61,0l17.57-36.89Z"/><path class="b" d="M59.61,90.76v34.88l.29.31c8.51-10,18.63,0,18.63,0,8.67-8.25,15.61,0,15.61,0l17.57-36.89L59.9,90.76Z"/><path class="c" d="M119.81,59.91A59.91,59.91,0,1,1,59.9,0,59.93,59.93,0,0,1,119.81,59.91Z"/><path class="d" d="M100.17,59.91c0,33.1-18,59.94-40.27,59.94S19.63,93,19.63,59.91,37.67,0,59.9,0,100.17,26.83,100.17,59.91Z"/><path class="e" d="M89.2,59.91c0,33.1-13.12,59.94-29.3,59.94S30.61,93,30.61,59.91,43.72,0,59.9,0,89.2,26.83,89.2,59.91Z"/><path class="d" d="M65.05,59.91c0,33.1-2.3,59.94-5.15,59.94S54.76,93,54.76,59.91,57.06,0,59.9,0,65.05,26.83,65.05,59.91Z"/><path class="f" d="M56.38,144.74c-.56-2-1-3.46-.45-5.52a4.39,4.39,0,0,0,.89,1.42c-.11-1.76.67-3.32,1.13-5,0,1.21-.11,2.62,1.11,3.6-.11-2.18,1.13-4.45,1.13-6.64A22.81,22.81,0,0,0,61.42,138a7.1,7.1,0,0,0,.66-2.05,5.37,5.37,0,0,1,.46,4c.34-.29.68-.64,1-.92h0a5.2,5.2,0,0,1-1.68,3.89,2.7,2.7,0,0,0,1.57-.85h0a16.44,16.44,0,0,1-.22,2.39,4.94,4.94,0,0,1-1.35-.83,7.84,7.84,0,0,0-1.13,1.25c-.66-.83.35-2.26-1-3a8.73,8.73,0,0,0-.9,3.25c-1.11,0-2.13.21-2.46-.5Z"/><path class="g" d="M62.54,139.94a5.37,5.37,0,0,0-.46-4,7.1,7.1,0,0,1-.66,2.05,22.81,22.81,0,0,1-1.23-5.45,9.56,9.56,0,0,1-.39,2.47v6.85c1.22.78.29,2.16.94,3a7.84,7.84,0,0,1,1.13-1.25,4.94,4.94,0,0,0,1.35.83,16.44,16.44,0,0,0,.22-2.39,2.7,2.7,0,0,1-1.57.85A5.2,5.2,0,0,0,63.55,139C63.22,139.3,62.88,139.65,62.54,139.94Z"/><path class="h" d="M63.78,141.52H55.45c-.71,0-1.29,1-1.29,2.21s.58,2.19,1.29,2.19h.28v12.16H63.3V145.92h.48c.71,0,1.27-1,1.27-2.19S64.49,141.52,63.78,141.52Z"/><path class="i" d="M63.78,141.52h-4V153h3.5v-7.09h.48c.71,0,1.27-1,1.27-2.19S64.49,141.52,63.78,141.52Z"/><path class="a" d="M89.68,154a6.28,6.28,0,0,0-6.28-6.28h-47a6.25,6.25,0,0,0-2.9,11.8,11.17,11.17,0,0,0-.36,2.79v13.72a11.31,11.31,0,0,0,11.33,11.32H74.62A11.32,11.32,0,0,0,86,176.06V162.34a11,11,0,0,0-.29-2.47A6.28,6.28,0,0,0,89.68,154Z"/><path class="b" d="M83.4,147.75H59.74v39.63H74.62A11.32,11.32,0,0,0,86,176.06V162.34a11,11,0,0,0-.29-2.47,6.27,6.27,0,0,0-2.26-12.12Z"/><path class="j" d="M30.13,154a6.24,6.24,0,0,0,3.37,5.52l0,.16H86a6.25,6.25,0,0,0-2.58-12h-47A6.26,6.26,0,0,0,30.13,154Z"/><path class="j" d="M86,159.71a6.5,6.5,0,0,0,1.5-1h0a7,7,0,0,0,.62-.6l0-.07a3.66,3.66,0,0,0,.48-.62s.06-.11.1-.15c.12-.19.24-.4.35-.6s.07-.21.11-.29a3.42,3.42,0,0,0,.21-.55,3.88,3.88,0,0,0,.11-.49,3.06,3.06,0,0,0,.1-.41,5.77,5.77,0,0,0,.08-.94,6.28,6.28,0,0,0-6.28-6.28H59.74v12Z"/><path class="d" d="M49.31,168.63a6.58,6.58,0,0,1-6.58,6.57h0a6.57,6.57,0,0,1-6.56-6.57v-3.32a6.56,6.56,0,0,1,6.56-6.56h0a6.57,6.57,0,0,1,6.58,6.56Z"/><path class="d" d="M47.15,157.44c0,1.25-.67,2.27-1.51,2.27a4.23,4.23,0,0,0-2.91-1,6.1,6.1,0,0,0-2.75,1c-.83,0-1.5-1-1.5-2.27h0c0-1.25.67-2.26,1.5-2.26a11.85,11.85,0,0,0,2.84,1,12.15,12.15,0,0,0,2.82-1c.84,0,1.51,1,1.51,2.26Z"/><path class="d" d="M66.56,169.21A6.57,6.57,0,0,1,60,175.79h0a6.58,6.58,0,0,1-6.58-6.58v-3.29A6.58,6.58,0,0,1,60,159.34h0a6.57,6.57,0,0,1,6.56,6.58Z"/><path class="d" d="M64.4,158c0,1.25-.67,2.25-1.51,2.25a4.22,4.22,0,0,0-2.89-.95,6.17,6.17,0,0,0-2.77.95c-.83,0-1.51-1-1.51-2.25h0c0-1.27.68-2.28,1.51-2.28a12.15,12.15,0,0,0,2.83,1,12.15,12.15,0,0,0,2.83-1c.84,0,1.51,1,1.51,2.28Z"/><path class="k" d="M70.36,168.91a6.58,6.58,0,0,0,6.58,6.57h0a6.57,6.57,0,0,0,6.56-6.57v-3.32A6.56,6.56,0,0,0,76.94,159h0a6.57,6.57,0,0,0-6.58,6.56Z"/><path class="k" d="M72.52,157.72c0,1.24.67,2.25,1.51,2.25a4.29,4.29,0,0,1,2.91-.94,6.35,6.35,0,0,1,2.76.94c.82,0,1.49-1,1.49-2.25h0c0-1.25-.67-2.27-1.49-2.27a12.27,12.27,0,0,1-2.84,1,12.34,12.34,0,0,1-2.83-1c-.84,0-1.51,1-1.51,2.27Z"/><path class="k" d="M62.89,155.76a12.15,12.15,0,0,1-2.83,1h0v2.55a4.35,4.35,0,0,1,2.85.95c.84,0,1.51-1,1.51-2.25S63.73,155.76,62.89,155.76Z"/><path class="k" d="M60,159.34h0v16.45h0a6.57,6.57,0,0,0,6.56-6.58v-3.29A6.57,6.57,0,0,0,60,159.34Z"/></svg>