<svg xmlns="http://www.w3.org/2000/svg" viewBox="0 0 425.13 73.2"><defs><style>.a{fill:red;}.b{fill:#fff;}.c{fill:#4e5052;}</style></defs><title>logo</title><rect class="a" width="200" height="73.2"/><path class="b" d="M158.34,42.54a5.93,5.93,0,0,1-5.69-4.3h15L169.76,35H152.65a5.92,5.92,0,0,1,5.69-4.32h10.34l2.07-3.22H158.11a9.15,9.15,0,1,0,0,18.29H169L171,42.54Zm-43,3.22a9.15,9.15,0,0,1,0-18.29H128l-2.07,3.22H115.54a5.93,5.93,0,0,0,0,11.85h12.69l-2.07,3.22Zm-66.8-3.22a5.93,5.93,0,1,0,0-11.85H38.36a5.93,5.93,0,0,0,0,11.85ZM38.13,45.76a9.15,9.15,0,1,1,0-18.29H48.75a9.15,9.15,0,0,1,0,18.29Zm37-5.91a6.19,6.19,0,0,0,0-12.38H59.77V45.76h3.52V30.69H74.93a3,3,0,0,1,0,5.93L65,36.6,75.5,45.76h5.11l-7-5.91Zm58.19,2.69V27.47h-3.51V44a1.71,1.71,0,0,0,.51,1.24,1.93,1.93,0,0,0,1.28.52h16.05l2.08-3.22ZM90.29,39.31h9.4l-5-8L85.62,45.76H81.48L92.55,28.42a2.67,2.67,0,0,1,4.32,0L108,45.76h-4.16l-1.95-3.23H92.36Z"/><path class="b" d="M174.23,29.27c.14,0,.3,0,.38-.13a.45.45,0,0,0,0-.2.3.3,0,0,0-.16-.29,1.68,1.68,0,0,0-.44,0h-.11v.65Zm-.18-1a1.48,1.48,0,0,1,.6.06.64.64,0,0,1,.46.64.87.87,0,0,1,0,.2.63.63,0,0,1-.29.39l-.11,0,.54,1h-.51l-.48-.88h-.3v.88h-.46v-2.3Zm.19,3.27a2.06,2.06,0,1,0-2-2.05,2,2,0,0,0,2,2.05m-1.59-2.05a1.62,1.62,0,0,1,1.59-1.63,1.62,1.62,0,1,1,0,3.24,1.62,1.62,0,0,1-1.59-1.61"/><path class="c" d="M220.76,26.89h2.51V45h-2.51Z"/><path class="c" d="M227.81,33.87l0-1.45h2.36l0,2a4.1,4.1,0,0,1,4-2.29c1.13,0,4.57.43,4.57,4.3V45h-2.41V37a2.84,2.84,0,0,0-.68-2.16,3.21,3.21,0,0,0-2.23-.85c-1.71,0-3.29,1.23-3.29,3.76V45h-2.36Z"/><path class="c" d="M241.14,32.37h2.23V29.73L245.7,29v3.39h2.82V34.1H245.7v7.55c0,.63,0,1.68,1.69,1.68a5.35,5.35,0,0,0,1.13-.12V45a11.26,11.26,0,0,1-2,.15c-2.16,0-3.19-.63-3.19-2.68V34.1h-2.23Z"/><path class="c" d="M252.86,39.14c-.05,2.61,1,4.55,3.61,4.55a2.74,2.74,0,0,0,3-2.61h2.36a4.25,4.25,0,0,1-1.07,2.63,5.47,5.47,0,0,1-4.35,1.68c-4,0-5.85-2.46-5.85-6.45,0-2.48.51-4.54,2.49-5.92a6,6,0,0,1,3.44-.93c5.65,0,5.52,5,5.47,7Zm6.65-1.65c0-1.21-.2-3.72-3.11-3.72-1.53,0-3.39.93-3.44,3.72Z"/><path class="c" d="M265.51,35c0-.86-.05-1.74-.13-2.56h2.39l.05,2.43a3.4,3.4,0,0,1,3-2.48,6.67,6.67,0,0,1,1.63,0v2.3a2.17,2.17,0,0,0-.45-.1,6.65,6.65,0,0,0-.68,0c-2.78,0-3.44,1.66-3.44,3.81V45h-2.38Z"/><path class="c" d="M275.22,33.87l0-1.45h2.36l0,2a4.11,4.11,0,0,1,4-2.29c1.13,0,4.57.43,4.57,4.3V45h-2.41V37a2.84,2.84,0,0,0-.68-2.16,3.21,3.21,0,0,0-2.23-.85c-1.71,0-3.29,1.23-3.29,3.76V45h-2.36Z"/><path class="c" d="M297.16,26.89h11.37V29h-8.86v5.64h8.43v2.11h-8.43v6h9.06V45H297.16Z"/><path class="c" d="M323.92,45H320.8L317.21,40,313.65,45h-2.76l5-6.61-4.72-6h3.09l3.37,4.74,3.51-4.74h2.79L319,38.57Z"/><path class="c" d="M326.68,34.47c0-.55,0-.85-.08-2H329L329,34.5a4.91,4.91,0,0,1,4.29-2.29c2.71,0,5.29,1.86,5.29,6.53s-2.73,6.75-5.74,6.75A4.37,4.37,0,0,1,329,43.61v6.25h-2.33Zm5.79,9.29a3.21,3.21,0,0,0,2.67-1.23,7.08,7.08,0,0,0,1-3.94c0-2.26-.67-4.62-3.46-4.62-3.76,0-3.76,4-3.76,5.12C328.94,40.62,329.16,43.76,332.47,43.76Z"/><path class="c" d="M343.52,39.14c0,2.61,1,4.55,3.61,4.55a2.76,2.76,0,0,0,3-2.61h2.35a4.25,4.25,0,0,1-1.07,2.63A5.47,5.47,0,0,1,347,45.39c-4,0-5.85-2.46-5.85-6.45,0-2.48.51-4.54,2.49-5.92a6,6,0,0,1,3.44-.93c5.65,0,5.52,5,5.47,7Zm6.65-1.65c0-1.21-.2-3.72-3.11-3.72-1.53,0-3.39.93-3.44,3.72Z"/><path class="c" d="M356.17,35c0-.86-.05-1.74-.13-2.56h2.39l.05,2.43a3.4,3.4,0,0,1,3-2.48,6.67,6.67,0,0,1,1.63,0v2.3a2.17,2.17,0,0,0-.45-.1,6.65,6.65,0,0,0-.68,0c-2.78,0-3.44,1.66-3.44,3.81V45h-2.38Z"/><path class="c" d="M365.58,26.94h2.84v2.59h-2.84Zm.25,5.48h2.36V45h-2.36Z"/><path class="c" d="M374.22,39.14c-.05,2.61,1,4.55,3.61,4.55a2.74,2.74,0,0,0,3-2.61h2.36a4.21,4.21,0,0,1-1.08,2.63,5.43,5.43,0,0,1-4.34,1.68c-4,0-5.85-2.46-5.85-6.45,0-2.48.5-4.54,2.49-5.92a6,6,0,0,1,3.44-.93c5.64,0,5.52,5,5.47,7Zm6.65-1.65c0-1.21-.2-3.72-3.11-3.72-1.54,0-3.39.93-3.44,3.72Z"/><path class="c" d="M386.82,33.87l0-1.45h2.36l0,2a4.1,4.1,0,0,1,4-2.29c1.13,0,4.57.43,4.57,4.3V45h-2.41V37a2.84,2.84,0,0,0-.68-2.16,3.22,3.22,0,0,0-2.24-.85c-1.7,0-3.28,1.23-3.28,3.76V45h-2.36Z"/><path class="c" d="M409.26,36.46a2.5,2.5,0,0,0-2.52-2.64c-3.26,0-3.26,3.79-3.26,4.75,0,2.58.63,5,3.14,5a2.63,2.63,0,0,0,2.74-2.74h2.38a4.76,4.76,0,0,1-5.1,4.52,5.66,5.66,0,0,1-4.14-1.63,6.85,6.85,0,0,1-1.5-4.82c0-5.24,3.21-6.8,5.72-6.8a5.1,5.1,0,0,1,3.87,1.56,4.38,4.38,0,0,1,1.05,2.81Z"/><path class="c" d="M416.06,39.14c-.05,2.61,1,4.55,3.61,4.55a2.74,2.74,0,0,0,3-2.61H425a4.21,4.21,0,0,1-1.08,2.63,5.43,5.43,0,0,1-4.34,1.68c-4,0-5.85-2.46-5.85-6.45,0-2.48.5-4.54,2.49-5.92a6,6,0,0,1,3.44-.93c5.64,0,5.52,5,5.47,7Zm6.65-1.65c0-1.21-.2-3.72-3.11-3.72-1.53,0-3.39.93-3.44,3.72Z"/></svg>