<svg xmlns="http://www.w3.org/2000/svg" viewBox="0 0 168.6 45.54"><defs><style>.a{fill:#fff;fill-rule:evenodd;}</style></defs><title>lululemon</title><path class="a" d="M145.83,0A22.77,22.77,0,1,0,168.6,22.77,22.78,22.78,0,0,0,145.83,0Zm15.64,35.56-.35.36-.35.34-.36.31-.36.28-.38.26-.37.24-.39.21-.38.18-.4.16-.39.13-.4.11-.41.09-.41.05-.41,0h-.42l-.43,0-.42,0-.43-.07-.44-.1-.44-.13-.44-.16-.45-.18-.44-.22-.45-.24-.46-.27-.45-.31-.46-.33L150,36l-.31-.29-.28-.29-.25-.3-.21-.3-.19-.31-.16-.3-.14-.32-.11-.31-.09-.33-.07-.33,0-.33,0-.34v-.7l0-.36,0-.36.06-.36.07-.37.09-.38.09-.37.11-.38.12-.38.12-.39.14-.38.14-.38.14-.39.15-.38.15-.38.15-.38.16-.38.15-.38.3-.77.31-.77.3-.77.29-.78.28-.76.27-.77.25-.76.23-.75.22-.75.19-.73.17-.72.14-.72.12-.69.08-.69,0-.67v-.65l0-.64-.08-.61-.13-.6-.17-.58-.24-.54-.29-.52L152,9.39l-.42-.45-.48-.4-.54-.35-.6-.3-.67-.25-.72-.21-.79-.15-.85-.11-.94,0-.94,0-.85.11-.78.15-.73.21-.66.25-.6.3-.54.35-.48.4-.42.45-.36.48-.29.52-.24.54-.18.58-.12.6-.08.61,0,.64V14l.05.67.08.69.11.69.15.72.17.72.19.73.21.75.24.75.25.76.27.77.28.76.29.78.3.77.3.77.31.77.15.38.16.38.15.38.15.38.15.38.14.39.14.38.14.38.12.39.12.38.11.38.09.37.09.38.07.37,0,.36.05.36,0,.36v.7l0,.34-.05.33-.06.33-.09.32-.12.32-.13.32-.16.3-.19.31-.22.3-.24.3-.28.29-.31.29-.35.29-.46.33-.45.31-.46.27-.45.24-.45.22-.44.18-.45.16-.43.13-.44.1-.43.07-.43,0-.42,0h-.42l-.41,0-.41-.05-.41-.09-.4-.11-.4-.13-.39-.16-.39-.18-.38-.21-.38-.24-.37-.26-.36-.28-.36-.31-.36-.34-.34-.36-.22-.25.25.08.27.07.26.07.26,0,.26.05.26,0,.26,0,.25,0H133l.25,0,.24,0,.24-.05.24,0,.23-.07.24-.07.22-.09.23-.1.22-.11.21-.13.21-.13.21-.14.21-.16.3-.26.27-.27.26-.27.23-.29.2-.3.18-.31.16-.31.13-.33.1-.33.08-.34.06-.35,0-.35v-.72l0-.37-.06-.37-.07-.38-.09-.39-.1-.39-.13-.4-.13-.4L137.2,27l-.17-.42-.18-.43-.2-.44-.22-.44-.22-.45-.24-.47-.25-.47-.26-.49-.28-.49-.28-.5-.58-1.06-.52-1-.45-1-.38-1-.33-.92-.26-.89-.2-.85-.14-.82-.08-.77,0-.75,0-.7.09-.67.15-.63.2-.6.26-.56.31-.54.36-.51.42-.47.48-.45.54-.42.6-.4.66-.36.72-.33.78-.31.84-.27.9-.24,1-.2,1-.17,1.09-.14,1.14-.1,1.19-.06,1.25,0,1.25,0,1.2.06,1.14.1,1.08.14,1,.17,1,.2.9.24.84.27.78.31.72.33.66.36.6.4.53.42.48.45.43.47.36.51.31.54.26.56.2.6.15.63.09.67,0,.7,0,.75-.08.77-.14.82-.2.85-.26.89-.33.92-.39,1-.45,1-.51,1L157,22.43l-.28.5-.27.49-.26.49-.25.47-.24.47-.23.45-.21.44-.2.44-.18.43-.17.42-.16.41-.14.4-.12.4-.11.39-.09.39-.07.38-.05.37,0,.37v.72l0,.35.05.35.08.34.11.33.13.33.15.31.18.31.21.3.23.29.25.27.28.27.3.26.21.16.2.14.21.13.22.13.22.11.22.1.23.09.23.07.24.07.24,0,.24.05.24,0,.24,0h.75l.26,0,.26,0,.25,0,.26-.05.27,0,.26-.07.27-.07.25-.08Z"/><path class="a" d="M4.66,28.69c-.91-.25-1.23-1-1.29-2V11L.05,12Q0,20,0,27.86c.49,1.82,1.3,2.4,2.22,2.45a2.32,2.32,0,0,0,2.44-1.62Z"/><path class="a" d="M10.37,16.34H7.21c0,3.08,0,6.17,0,9.25.12,2.74,1.55,4.21,4.56,4.25a5.73,5.73,0,0,0,3.92-1.25c0,.34,0,.67,0,1h3.17l0-13.24H15.68v9.14c-1.46,2.52-5,2-5.27,0l0-9.18Z"/><path class="a" d="M27,28.69c-.91-.25-1.23-1-1.29-2V11L22.37,12q0,7.92,0,15.83c.49,1.82,1.3,2.4,2.22,2.45A2.32,2.32,0,0,0,27,28.69Z"/><path class="a" d="M32.56,16.34H29.4c0,3.08,0,6.17,0,9.25.12,2.74,1.55,4.21,4.56,4.25a5.73,5.73,0,0,0,3.92-1.25c0,.34,0,.67,0,1H41l0-13.24H37.87v9.14c-1.46,2.52-5,2-5.27,0l0-9.18Z"/><path class="a" d="M49.25,28.69c-.91-.25-1.23-1-1.29-2V11L44.64,12q0,7.92,0,15.83c.49,1.82,1.3,2.4,2.22,2.45a2.32,2.32,0,0,0,2.44-1.62Z"/><path class="a" d="M54.25,21.65a3.19,3.19,0,0,1,6.35,0ZM54.18,24h9.38a7.83,7.83,0,0,0,.26-1.88c0-3.27-2.1-6-6.39-6-4.82,0-6.6,3.68-6.65,6.93-.06,4.27,2.1,6.68,6.72,6.79a6.94,6.94,0,0,0,4.87-1.37L61,26.09a5.28,5.28,0,0,1-3.21,1.08c-2.27,0-3.47-1.13-3.61-3.14Z"/><path class="a" d="M66,16.34l0,13.27h3.47c0-3.17,0-6.33,0-9.5.78-1.79,3.83-1.53,4.29.05v9.45h3.22c0-3.15,0-6.3,0-9.45a2.36,2.36,0,0,1,4.48.77l0,8.72h3.28v-10c-1.37-4.4-5.71-4.32-8.48-2.12-1.84-1.91-5.45-2-7.09-.15-.22-.35-.45-.7-.67-1.06Z"/><path class="a" d="M101.92,16.34l-.06,13.27h3.47c0-3.17,0-6.33,0-9.5.78-1.79,4.56-1.53,5,.05v9.45h3.23c0-3.15,0-6.26,0-9.41-.14-3.41-5-5.74-8.58-2.79l-.68-1.06Z"/><path class="a" d="M93.24,18.8c4.33,0,3.8,8.36,0,8.36s-4.29-8.38,0-8.36Zm0-2.72c8.41-.07,8.79,13.8-.06,13.8s-8.35-13.73.06-13.8Z"/></svg>