<svg xmlns="http://www.w3.org/2000/svg" xmlns:xlink="http://www.w3.org/1999/xlink" viewBox="0 0 1394.4 269.62"><defs><style>.a,.b,.c{fill:none;}.b,.c{stroke:#fff;stroke-miterlimit:10;}.b{stroke-width:3.8px;}.c{stroke-width:3.64px;}.d{clip-path:url(#a);}.e{fill:#d1d3d4;}.f{fill:#2e2e2e;}.g{fill:#9e0a11;}.h{fill:#020202;}.i{fill:#f80000;}.j{fill:#4f4f50;}.k,.o{fill:#fff;}.l{clip-path:url(#af);}.m{clip-path:url(#ag);}.n{fill:url(#ah);}.o{isolation:isolate;font-size:38px;font-family:UniversLTStd-BoldObl, Univers LT Std;font-weight:700;font-style:oblique;}.p{letter-spacing:-0.15em;}.q{letter-spacing:-0.04em;}.r{letter-spacing:-0.02em;}</style><clipPath id="a"><rect class="a" x="855.82" y="0.65" width="537.92" height="268.96"/></clipPath><clipPath id="af"><rect class="a" x="1379.35" y="80.49" width="13.74" height="114.52"/></clipPath><clipPath id="ag"><path class="a" d="M1390.47,138.73c-3.27,31.42-7.85,56.94-9.81,56.94s-1.31-26.18,2-57.59,7.85-56.93,9.82-56.93,1.31,25.52-2,57.58"/></clipPath><linearGradient id="ah" x1="3149.93" y1="5752.28" x2="3166.25" y2="5752.28" gradientTransform="translate(-38890.33 22250.61) rotate(-90) scale(7)" gradientUnits="userSpaceOnUse"><stop offset="0" stop-color="#302f2f"/><stop offset="0.18" stop-color="#595555"/><stop offset="0.37" stop-color="#878282"/><stop offset="0.55" stop-color="#b3afaf"/><stop offset="0.72" stop-color="#d7d4d4"/><stop offset="0.88" stop-color="#f0efef"/><stop offset="1" stop-color="#fff"/></linearGradient></defs><title>main-plane</title><line class="b" x1="783.18" y1="85.07" x2="886.58" y2="85.07"/><line class="c" x1="791.69" y1="174.07" x2="886.58" y2="174.07"/><g class="d"><polygon class="e" points="1280.53 261.11 1272.68 263.07 1249.78 149.86 1257.63 147.9 1280.53 261.11"/></g><g class="d"><polygon class="e" points="1200.04 162.29 1132.64 84.42 1130.67 86.38 1196.12 162.29 1200.04 162.29"/></g><g class="d"><path class="f" d="M908.83,208.1c0,4.58-3.27,8.51-7.85,8.51-3.93,0-7.86-3.93-7.86-8.51s3.28-8.51,7.86-8.51c4.58-.65,7.85,3.28,7.85,8.51"/></g><g class="d"><polygon class="g" points="902.29 211.37 899.01 208.1 940.24 159.02 943.51 162.29 902.29 211.37"/></g><g class="d"><polygon class="e" points="1222.29 102.09 1251.09 56.93 1249.78 56.28 1220.33 102.09 1222.29 102.09"/></g><g class="d"><polygon class="e" points="1250.43 99.47 1256.97 56.28 1255.66 55.62 1249.12 99.47 1250.43 99.47"/></g><g class="d"><polygon class="e" points="1272.68 232.31 1269.41 229.04 1331.58 146.59 1336.16 147.9 1272.68 232.31"/></g><g class="d"><path class="h" d="M1295.58,247.37c0,12.43-8.5,22.25-19.63,22.25-10.47,0-19.63-9.82-19.63-22.25s8.51-22.25,19.63-22.25,19.63,9.81,19.63,22.25"/></g><g class="d"><path class="i" d="M1276,99.47c-18.32,0-55,3.27-73.29,5.89C1144.42,113.87,971,155.09,971,155.09l-58.24,40.58s123.68,7.85,164.91,9.16C1283.8,214,1383.27,163,1383.27,163l7.2-58.9c-.65,0-87.69-5.23-114.52-4.58"/></g><g class="d"><path class="g" d="M944.82,172.11,912.1,195s123.69,7.86,164.91,9.16c206.14,9.17,305.61-41.88,305.61-41.88l1.31-9.81Z"/></g><g class="d"><path class="j" d="M1325.69,236.89c0,12.44-8.51,22.25-19.64,22.25-10.47,0-19.63-9.81-19.63-22.25s8.51-22.24,19.63-22.24c10.48,0,19.64,10.47,19.64,22.24"/></g><g class="d"><polygon class="e" points="1332.23 179.31 1298.86 230.35 1302.13 232.97 1337.47 179.31 1332.23 179.31"/></g><g class="d"><path class="i" d="M973,155.09,911.45,195s-30.1-9.81-39.27-25.52c-4.58-7.2-10.47-19-12.43-27.48-2.62-12.44-7.2-42.54-2.62-55,1.31-3.28,9.16-10.47,12.44-11.78,11.12-3.93,22.9,3.27,29.44,7.2,7.2,4.58,19,15.7,25.53,21.59,12.43,12.43,48.42,51,48.42,51"/></g><g class="d"><path class="g" d="M1313.91,50.39a32.44,32.44,0,0,1-15.71,7.85l-68.06,10.47c-5.23.66-5.89-2-2.61-5.89l36.64-38.61c3.93-3.92,10.47-8.5,15.71-9.81l35.34-9.82a165.52,165.52,0,0,1,17.67-3.27L1358.41,0c5.23,0,5.89,2.62,2,5.89Z"/></g><g class="d"><path class="g" d="M1243.89,63.48c2,2.61-.66,5.23-5.89,5.89L1120.2,90.31c-5.23.65-5.89-.66-.65-3.27l4.58-2.62a83.27,83.27,0,0,1,17.67-7.2l24.87-5.89c5.23-1.31,13.74-2.62,18.32-3.93l45.81-7.19c5.89,0,11.12,1.3,13.09,3.27"/></g><g class="d"><polygon class="e" points="1277.26 116.48 1327 37.96 1325.69 37.3 1275.3 116.48 1277.26 116.48"/></g><g class="d"><polygon class="e" points="1265.48 113.87 1264.17 113.21 1298.86 47.77 1300.16 48.43 1265.48 113.87"/></g><g class="d"><polygon class="e" points="1316.53 137.43 1308.67 135.46 1328.3 25.52 1336.81 23.56 1316.53 137.43"/></g><g class="d"><polygon class="e" points="1298.2 157.71 1294.28 159.68 1245.19 57.59 1249.12 55.62 1298.2 157.71"/></g><g class="d"><polygon class="e" points="1259.59 148.55 1251.74 147.24 1272.68 35.34 1279.88 35.34 1259.59 148.55"/></g><g class="d"><polygon class="e" points="1309.33 234.93 1302.13 240.17 1276.61 194.36 1284.46 191.74 1309.33 234.93"/></g><g class="d"><polygon class="e" points="1272.03 162.29 1239.31 62.82 1236.69 63.48 1268.75 162.29 1272.03 162.29"/></g><g class="d"><path class="k" d="M1390.47,134.81c-3.27,31.41-7.85,56.93-9.81,56.93s-1.31-26.18,2-57.59,7.85-56.93,9.82-56.93,1.31,26.18-2,57.59"/></g><g class="d"><path class="g" d="M900.32,181.27c0,2.62-7.2,4.58-15.7,4.58s-15.71-2-15.71-4.58,7.2-4.58,15.71-4.58c9.16,0,15.7,2,15.7,4.58"/></g><g class="d"><rect class="i" x="1344.01" y="170.15" width="3.27" height="16.36"/></g><g class="d"><rect class="i" x="1355.14" y="166.87" width="3.27" height="16.36"/></g><g class="d"><rect class="i" x="1366.26" y="165.56" width="3.27" height="16.36"/></g><g class="d"><rect class="i" x="1376.73" y="161.64" width="3.27" height="16.36"/></g><g class="d"><rect class="e" x="1307.36" y="43.85" width="1.31" height="55.62"/></g><g class="d"><polygon class="e" points="1300.16 99.47 1292.31 45.81 1290.35 46.46 1298.2 99.47 1300.16 99.47"/></g><g class="d"><g class="l"><g class="m"><rect class="n" x="1378.69" y="80.49" width="15.71" height="115.18"/></g></g></g><path class="k" d="M1153.58,144.62l9.16-.65-5.24-7.85-8.5,15h-3.93l10.47-17.67c.66-.66,1.31-1.31,2-1.31s2,.65,2,1.31l11.78,17h-3.93l-2-3.27-9.82.66Zm43.19,1.31-.66-15.05h-3.27l.66,16.36c0,.66,0,.66.65,1.31.66,0,.66.65,1.31.65l16.36-.65,2-3.27Zm-58.24,0c3.27,0,5.89-3.27,5.89-6.54s-3.28-5.89-6.55-5.89l-15.7.65.65,18.33h3.27l-.65-15,11.78-.66c2,0,3.27,1.31,3.27,2.62s-1.31,3.27-2.62,3.27l-9.81.65,11.12,8.51h5.24l-7.2-5.89Zm-36.65,7.86a9.19,9.19,0,1,1-1.31-18.33l10.47-.65a9.18,9.18,0,1,1,1.31,18.32Zm9.82-3.93a5.89,5.89,0,0,0,0-11.78l-10.47.65a5.89,5.89,0,0,0,0,11.78Zm67.4.65a9.18,9.18,0,1,1-1.31-18.32l12.43-.65-2,3.27-10.47.65a5.89,5.89,0,1,0,0,11.78l12.43-.65-2,3.27Zm42.54-5.23c-2.62,0-5.24-1.31-5.89-3.93l15-.65,2-3.27-17,.65c.65-2.62,2.61-4.58,5.23-4.58l10.47-.66,2-3.27-12.44.66a9.18,9.18,0,1,0,1.31,18.32l11.13-.65,2-3.28Z"/><polygon class="i" points="333.09 115.98 0 115.98 114.52 209.56 333.09 209.56 333.09 115.98"/><polygon class="g" points="153.13 176.18 333.09 209.56 333.09 174.22 153.13 176.18"/><path class="i" d="M799.89,173.56a44.7,44.7,0,0,1,0-87.69V83.26H153.13v92.92H799.89Z"/><text class="o" transform="translate(244.78 142.58)">WELCOME<tspan class="p" x="196.34" y="0"> </tspan><tspan class="q" x="201.21" y="0">T</tspan><tspan x="222.91" y="0">O OR</tspan><tspan class="r" x="317.94" y="0">A</tspan><tspan x="344.62" y="0">CLE</tspan></text></svg>