<?xml version="1.0" encoding="utf-8"?>
<!-- Generator: Adobe Illustrator 23.0.2, SVG Export Plug-In . SVG Version: 6.00 Build 0)  -->
<svg version="1.1" id="Layer_1" xmlns="http://www.w3.org/2000/svg" xmlns:xlink="http://www.w3.org/1999/xlink" x="0px" y="0px"
	 viewBox="0 0 1394.4 269.6" style="enable-background:new 0 0 1394.4 269.6;" xml:space="preserve">
<style type="text/css">
	.st0{fill:none;stroke:#FFFFFF;stroke-width:3.8;stroke-miterlimit:10;}
	.st1{fill:none;stroke:#FFFFFF;stroke-width:3.64;stroke-miterlimit:10;}
	.st2{clip-path:url(#SVGID_2_);}
	.st3{fill:#D1D3D4;}
	.st4{clip-path:url(#SVGID_4_);}
	.st5{clip-path:url(#SVGID_6_);}
	.st6{fill:#2E2E2E;}
	.st7{clip-path:url(#SVGID_8_);}
	.st8{fill:#9E0A11;}
	.st9{clip-path:url(#SVGID_10_);}
	.st10{clip-path:url(#SVGID_12_);}
	.st11{clip-path:url(#SVGID_14_);}
	.st12{clip-path:url(#SVGID_16_);}
	.st13{fill:#020202;}
	.st14{clip-path:url(#SVGID_18_);}
	.st15{fill:#F80000;}
	.st16{clip-path:url(#SVGID_20_);}
	.st17{clip-path:url(#SVGID_22_);}
	.st18{fill:#4F4F50;}
	.st19{clip-path:url(#SVGID_24_);}
	.st20{clip-path:url(#SVGID_26_);}
	.st21{clip-path:url(#SVGID_28_);}
	.st22{clip-path:url(#SVGID_30_);}
	.st23{clip-path:url(#SVGID_32_);}
	.st24{clip-path:url(#SVGID_34_);}
	.st25{clip-path:url(#SVGID_36_);}
	.st26{clip-path:url(#SVGID_38_);}
	.st27{clip-path:url(#SVGID_40_);}
	.st28{clip-path:url(#SVGID_42_);}
	.st29{clip-path:url(#SVGID_44_);}
	.st30{clip-path:url(#SVGID_46_);}
	.st31{fill:#FFFFFF;}
	.st32{clip-path:url(#SVGID_48_);}
	.st33{clip-path:url(#SVGID_50_);}
	.st34{clip-path:url(#SVGID_52_);}
	.st35{clip-path:url(#SVGID_54_);}
	.st36{clip-path:url(#SVGID_56_);}
	.st37{clip-path:url(#SVGID_58_);}
	.st38{clip-path:url(#SVGID_60_);}
	.st39{clip-path:url(#SVGID_62_);}
	.st40{clip-path:url(#SVGID_64_);}
	.st41{clip-path:url(#SVGID_66_);}
	.st42{fill:url(#SVGID_67_);}
	.st43{enable-background:new    ;}
</style>
<title>main-plane</title>
<line class="st0" x1="783.2" y1="85.1" x2="886.6" y2="85.1"/>
<line class="st1" x1="791.7" y1="174.1" x2="886.6" y2="174.1"/>
<g>
	<g>
		<g>
			<defs>
				<rect id="SVGID_1_" x="855.8" y="0.6" width="537.9" height="269"/>
			</defs>
			<clipPath id="SVGID_2_">
				<use xlink:href="#SVGID_1_"  style="overflow:visible;"/>
			</clipPath>
			<g class="st2">
				<polygon class="st3" points="1280.5,261.1 1272.7,263.1 1249.8,149.9 1257.6,147.9 				"/>
			</g>
		</g>
	</g>
</g>
<g>
	<g>
		<g>
			<defs>
				<rect id="SVGID_3_" x="855.8" y="0.6" width="537.9" height="269"/>
			</defs>
			<clipPath id="SVGID_4_">
				<use xlink:href="#SVGID_3_"  style="overflow:visible;"/>
			</clipPath>
			<g class="st4">
				<polygon class="st3" points="1200,162.3 1132.6,84.4 1130.7,86.4 1196.1,162.3 				"/>
			</g>
		</g>
	</g>
</g>
<g>
	<g>
		<g>
			<defs>
				<rect id="SVGID_5_" x="855.8" y="0.6" width="537.9" height="269"/>
			</defs>
			<clipPath id="SVGID_6_">
				<use xlink:href="#SVGID_5_"  style="overflow:visible;"/>
			</clipPath>
			<g class="st5">
				<path class="st6" d="M908.8,208.1c0,4.6-3.3,8.5-7.8,8.5c-3.9,0-7.9-3.9-7.9-8.5s3.3-8.5,7.9-8.5
					C905.6,198.9,908.8,202.9,908.8,208.1"/>
			</g>
		</g>
	</g>
</g>
<g>
	<g>
		<g>
			<defs>
				<rect id="SVGID_7_" x="855.8" y="0.6" width="537.9" height="269"/>
			</defs>
			<clipPath id="SVGID_8_">
				<use xlink:href="#SVGID_7_"  style="overflow:visible;"/>
			</clipPath>
			<g class="st7">
				<polygon class="st8" points="902.3,211.4 899,208.1 940.2,159 943.5,162.3 				"/>
			</g>
		</g>
	</g>
</g>
<g>
	<g>
		<g>
			<defs>
				<rect id="SVGID_9_" x="855.8" y="0.6" width="537.9" height="269"/>
			</defs>
			<clipPath id="SVGID_10_">
				<use xlink:href="#SVGID_9_"  style="overflow:visible;"/>
			</clipPath>
			<g class="st9">
				<polygon class="st3" points="1222.3,102.1 1251.1,56.9 1249.8,56.3 1220.3,102.1 				"/>
			</g>
		</g>
	</g>
</g>
<g>
	<g>
		<g>
			<defs>
				<rect id="SVGID_11_" x="855.8" y="0.6" width="537.9" height="269"/>
			</defs>
			<clipPath id="SVGID_12_">
				<use xlink:href="#SVGID_11_"  style="overflow:visible;"/>
			</clipPath>
			<g class="st10">
				<polygon class="st3" points="1250.4,99.5 1257,56.3 1255.7,55.6 1249.1,99.5 				"/>
			</g>
		</g>
	</g>
</g>
<g>
	<g>
		<g>
			<defs>
				<rect id="SVGID_13_" x="855.8" y="0.6" width="537.9" height="269"/>
			</defs>
			<clipPath id="SVGID_14_">
				<use xlink:href="#SVGID_13_"  style="overflow:visible;"/>
			</clipPath>
			<g class="st11">
				<polygon class="st3" points="1272.7,232.3 1269.4,229 1331.6,146.6 1336.2,147.9 				"/>
			</g>
		</g>
	</g>
</g>
<g>
	<g>
		<g>
			<defs>
				<rect id="SVGID_15_" x="855.8" y="0.6" width="537.9" height="269"/>
			</defs>
			<clipPath id="SVGID_16_">
				<use xlink:href="#SVGID_15_"  style="overflow:visible;"/>
			</clipPath>
			<g class="st12">
				<path class="st13" d="M1295.6,247.4c0,12.4-8.5,22.3-19.6,22.3c-10.5,0-19.6-9.8-19.6-22.3s8.5-22.3,19.6-22.3
					S1295.6,234.9,1295.6,247.4"/>
			</g>
		</g>
	</g>
</g>
<g>
	<g>
		<g>
			<defs>
				<rect id="SVGID_17_" x="855.8" y="0.6" width="537.9" height="269"/>
			</defs>
			<clipPath id="SVGID_18_">
				<use xlink:href="#SVGID_17_"  style="overflow:visible;"/>
			</clipPath>
			<g class="st14">
				<path class="st15" d="M1276,99.5c-18.3,0-55,3.3-73.3,5.9c-58.3,8.5-231.7,49.7-231.7,49.7l-58.2,40.6c0,0,123.7,7.9,164.9,9.2
					c206.1,9.2,305.6-41.8,305.6-41.8l7.2-58.9C1389.8,104.1,1302.8,98.9,1276,99.5"/>
			</g>
		</g>
	</g>
</g>
<g>
	<g>
		<g>
			<defs>
				<rect id="SVGID_19_" x="855.8" y="0.6" width="537.9" height="269"/>
			</defs>
			<clipPath id="SVGID_20_">
				<use xlink:href="#SVGID_19_"  style="overflow:visible;"/>
			</clipPath>
			<g class="st16">
				<path class="st8" d="M944.8,172.1L912.1,195c0,0,123.7,7.9,164.9,9.2c206.1,9.2,305.6-41.9,305.6-41.9l1.3-9.8L944.8,172.1z"/>
			</g>
		</g>
	</g>
</g>
<g>
	<g>
		<g>
			<defs>
				<rect id="SVGID_21_" x="855.8" y="0.6" width="537.9" height="269"/>
			</defs>
			<clipPath id="SVGID_22_">
				<use xlink:href="#SVGID_21_"  style="overflow:visible;"/>
			</clipPath>
			<g class="st17">
				<path class="st18" d="M1325.7,236.9c0,12.4-8.5,22.3-19.6,22.3c-10.5,0-19.6-9.8-19.6-22.3s8.5-22.2,19.6-22.2
					C1316.5,214.7,1325.7,225.1,1325.7,236.9"/>
			</g>
		</g>
	</g>
</g>
<g>
	<g>
		<g>
			<defs>
				<rect id="SVGID_23_" x="855.8" y="0.6" width="537.9" height="269"/>
			</defs>
			<clipPath id="SVGID_24_">
				<use xlink:href="#SVGID_23_"  style="overflow:visible;"/>
			</clipPath>
			<g class="st19">
				<polygon class="st3" points="1332.2,179.3 1298.9,230.4 1302.1,233 1337.5,179.3 				"/>
			</g>
		</g>
	</g>
</g>
<g>
	<g>
		<g>
			<defs>
				<rect id="SVGID_25_" x="855.8" y="0.6" width="537.9" height="269"/>
			</defs>
			<clipPath id="SVGID_26_">
				<use xlink:href="#SVGID_25_"  style="overflow:visible;"/>
			</clipPath>
			<g class="st20">
				<path class="st15" d="M973,155.1L911.5,195c0,0-30.1-9.8-39.3-25.5c-4.6-7.2-10.5-19-12.4-27.5c-2.6-12.4-7.2-42.5-2.6-55
					c1.3-3.3,9.2-10.5,12.4-11.8c11.1-3.9,22.9,3.3,29.4,7.2c7.2,4.6,19,15.7,25.5,21.6C937,116.4,973,155,973,155.1"/>
			</g>
		</g>
	</g>
</g>
<g>
	<g>
		<g>
			<defs>
				<rect id="SVGID_27_" x="855.8" y="0.6" width="537.9" height="269"/>
			</defs>
			<clipPath id="SVGID_28_">
				<use xlink:href="#SVGID_27_"  style="overflow:visible;"/>
			</clipPath>
			<g class="st21">
				<path class="st8" d="M1313.9,50.4c-4.4,4-9.9,6.7-15.7,7.8l-68.1,10.5c-5.2,0.7-5.9-2-2.6-5.9l36.6-38.6
					c3.9-3.9,10.5-8.5,15.7-9.8l35.3-9.8c5.8-1.4,11.7-2.5,17.7-3.3l25.5-1.3c5.2,0,5.9,2.6,2,5.9L1313.9,50.4z"/>
			</g>
		</g>
	</g>
</g>
<g>
	<g>
		<g>
			<defs>
				<rect id="SVGID_29_" x="855.8" y="0.6" width="537.9" height="269"/>
			</defs>
			<clipPath id="SVGID_30_">
				<use xlink:href="#SVGID_29_"  style="overflow:visible;"/>
			</clipPath>
			<g class="st22">
				<path class="st8" d="M1243.9,63.5c2,2.6-0.7,5.2-5.9,5.9l-117.8,20.9c-5.2,0.7-5.9-0.7-0.7-3.3l4.6-2.6
					c5.6-3.1,11.5-5.5,17.7-7.2l24.9-5.9c5.2-1.3,13.7-2.6,18.3-3.9l45.8-7.2C1236.7,60.2,1241.9,61.5,1243.9,63.5"/>
			</g>
		</g>
	</g>
</g>
<g>
	<g>
		<g>
			<defs>
				<rect id="SVGID_31_" x="855.8" y="0.6" width="537.9" height="269"/>
			</defs>
			<clipPath id="SVGID_32_">
				<use xlink:href="#SVGID_31_"  style="overflow:visible;"/>
			</clipPath>
			<g class="st23">
				<polygon class="st3" points="1277.3,116.5 1327,38 1325.7,37.3 1275.3,116.5 				"/>
			</g>
		</g>
	</g>
</g>
<g>
	<g>
		<g>
			<defs>
				<rect id="SVGID_33_" x="855.8" y="0.6" width="537.9" height="269"/>
			</defs>
			<clipPath id="SVGID_34_">
				<use xlink:href="#SVGID_33_"  style="overflow:visible;"/>
			</clipPath>
			<g class="st24">
				<polygon class="st3" points="1265.5,113.9 1264.2,113.2 1298.9,47.8 1300.2,48.4 				"/>
			</g>
		</g>
	</g>
</g>
<g>
	<g>
		<g>
			<defs>
				<rect id="SVGID_35_" x="855.8" y="0.6" width="537.9" height="269"/>
			</defs>
			<clipPath id="SVGID_36_">
				<use xlink:href="#SVGID_35_"  style="overflow:visible;"/>
			</clipPath>
			<g class="st25">
				<polygon class="st3" points="1316.5,137.4 1308.7,135.5 1328.3,25.5 1336.8,23.6 				"/>
			</g>
		</g>
	</g>
</g>
<g>
	<g>
		<g>
			<defs>
				<rect id="SVGID_37_" x="855.8" y="0.6" width="537.9" height="269"/>
			</defs>
			<clipPath id="SVGID_38_">
				<use xlink:href="#SVGID_37_"  style="overflow:visible;"/>
			</clipPath>
			<g class="st26">
				<polygon class="st3" points="1298.2,157.7 1294.3,159.7 1245.2,57.6 1249.1,55.6 				"/>
			</g>
		</g>
	</g>
</g>
<g>
	<g>
		<g>
			<defs>
				<rect id="SVGID_39_" x="855.8" y="0.6" width="537.9" height="269"/>
			</defs>
			<clipPath id="SVGID_40_">
				<use xlink:href="#SVGID_39_"  style="overflow:visible;"/>
			</clipPath>
			<g class="st27">
				<polygon class="st3" points="1259.6,148.6 1251.7,147.2 1272.7,35.3 1279.9,35.3 				"/>
			</g>
		</g>
	</g>
</g>
<g>
	<g>
		<g>
			<defs>
				<rect id="SVGID_41_" x="855.8" y="0.6" width="537.9" height="269"/>
			</defs>
			<clipPath id="SVGID_42_">
				<use xlink:href="#SVGID_41_"  style="overflow:visible;"/>
			</clipPath>
			<g class="st28">
				<polygon class="st3" points="1309.3,234.9 1302.1,240.2 1276.6,194.4 1284.5,191.7 				"/>
			</g>
		</g>
	</g>
</g>
<g>
	<g>
		<g>
			<defs>
				<rect id="SVGID_43_" x="855.8" y="0.6" width="537.9" height="269"/>
			</defs>
			<clipPath id="SVGID_44_">
				<use xlink:href="#SVGID_43_"  style="overflow:visible;"/>
			</clipPath>
			<g class="st29">
				<polygon class="st3" points="1272,162.3 1239.3,62.8 1236.7,63.5 1268.8,162.3 				"/>
			</g>
		</g>
	</g>
</g>
<g>
	<g>
		<g>
			<defs>
				<rect id="SVGID_45_" x="855.8" y="0.6" width="537.9" height="269"/>
			</defs>
			<clipPath id="SVGID_46_">
				<use xlink:href="#SVGID_45_"  style="overflow:visible;"/>
			</clipPath>
			<g class="st30">
				<path class="st31" d="M1390.5,134.8c-3.3,31.4-7.8,56.9-9.8,56.9s-1.3-26.2,2-57.6s7.8-56.9,9.8-56.9S1393.8,103.4,1390.5,134.8
					"/>
			</g>
		</g>
	</g>
</g>
<g>
	<g>
		<g>
			<defs>
				<rect id="SVGID_47_" x="855.8" y="0.6" width="537.9" height="269"/>
			</defs>
			<clipPath id="SVGID_48_">
				<use xlink:href="#SVGID_47_"  style="overflow:visible;"/>
			</clipPath>
			<g class="st32">
				<path class="st8" d="M900.3,181.3c0,2.6-7.2,4.6-15.7,4.6s-15.7-2-15.7-4.6s7.2-4.6,15.7-4.6
					C893.8,176.7,900.3,178.7,900.3,181.3"/>
			</g>
		</g>
	</g>
</g>
<g>
	<g>
		<g>
			<defs>
				<rect id="SVGID_49_" x="855.8" y="0.6" width="537.9" height="269"/>
			</defs>
			<clipPath id="SVGID_50_">
				<use xlink:href="#SVGID_49_"  style="overflow:visible;"/>
			</clipPath>
			<g class="st33">
				<rect x="1344" y="170.1" class="st15" width="3.3" height="16.4"/>
			</g>
		</g>
	</g>
</g>
<g>
	<g>
		<g>
			<defs>
				<rect id="SVGID_51_" x="855.8" y="0.6" width="537.9" height="269"/>
			</defs>
			<clipPath id="SVGID_52_">
				<use xlink:href="#SVGID_51_"  style="overflow:visible;"/>
			</clipPath>
			<g class="st34">
				<rect x="1355.1" y="166.9" class="st15" width="3.3" height="16.4"/>
			</g>
		</g>
	</g>
</g>
<g>
	<g>
		<g>
			<defs>
				<rect id="SVGID_53_" x="855.8" y="0.6" width="537.9" height="269"/>
			</defs>
			<clipPath id="SVGID_54_">
				<use xlink:href="#SVGID_53_"  style="overflow:visible;"/>
			</clipPath>
			<g class="st35">
				<rect x="1366.3" y="165.6" class="st15" width="3.3" height="16.4"/>
			</g>
		</g>
	</g>
</g>
<g>
	<g>
		<g>
			<defs>
				<rect id="SVGID_55_" x="855.8" y="0.6" width="537.9" height="269"/>
			</defs>
			<clipPath id="SVGID_56_">
				<use xlink:href="#SVGID_55_"  style="overflow:visible;"/>
			</clipPath>
			<g class="st36">
				<rect x="1376.7" y="161.6" class="st15" width="3.3" height="16.4"/>
			</g>
		</g>
	</g>
</g>
<g>
	<g>
		<g>
			<defs>
				<rect id="SVGID_57_" x="855.8" y="0.6" width="537.9" height="269"/>
			</defs>
			<clipPath id="SVGID_58_">
				<use xlink:href="#SVGID_57_"  style="overflow:visible;"/>
			</clipPath>
			<g class="st37">
				<rect x="1307.4" y="43.8" class="st3" width="1.3" height="55.6"/>
			</g>
		</g>
	</g>
</g>
<g>
	<g>
		<g>
			<defs>
				<rect id="SVGID_59_" x="855.8" y="0.6" width="537.9" height="269"/>
			</defs>
			<clipPath id="SVGID_60_">
				<use xlink:href="#SVGID_59_"  style="overflow:visible;"/>
			</clipPath>
			<g class="st38">
				<polygon class="st3" points="1300.2,99.5 1292.3,45.8 1290.3,46.5 1298.2,99.5 				"/>
			</g>
		</g>
	</g>
</g>
<g>
	<g>
		<g>
			<defs>
				<rect id="SVGID_61_" x="855.8" y="0.6" width="537.9" height="269"/>
			</defs>
			<clipPath id="SVGID_62_">
				<use xlink:href="#SVGID_61_"  style="overflow:visible;"/>
			</clipPath>
			<g class="st39">
				<g>
					<g>
						<g>
							<defs>
								<rect id="SVGID_63_" x="1379.3" y="80.5" width="13.7" height="114.5"/>
							</defs>
							<clipPath id="SVGID_64_">
								<use xlink:href="#SVGID_63_"  style="overflow:visible;"/>
							</clipPath>
							<g class="st40">
								<g>
									<g>
										<g>
											<defs>
												<path id="SVGID_65_" d="M1390.5,138.7c-3.3,31.4-7.8,56.9-9.8,56.9s-1.3-26.2,2-57.6s7.8-56.9,9.8-56.9
													S1393.8,106.7,1390.5,138.7"/>
											</defs>
											<clipPath id="SVGID_66_">
												<use xlink:href="#SVGID_65_"  style="overflow:visible;"/>
											</clipPath>
											<g class="st41">
												
													<linearGradient id="SVGID_67_" gradientUnits="userSpaceOnUse" x1="4134.3584" y1="-5157.1255" x2="4150.6787" y2="-5157.1255" gradientTransform="matrix(4.286264e-16 -7 -7 -4.286264e-16 -34713.3281 29141.6094)">
													<stop  offset="0" style="stop-color:#302F2F"/>
													<stop  offset="0.18" style="stop-color:#595555"/>
													<stop  offset="0.37" style="stop-color:#878282"/>
													<stop  offset="0.55" style="stop-color:#B3AFAF"/>
													<stop  offset="0.72" style="stop-color:#D7D4D4"/>
													<stop  offset="0.88" style="stop-color:#F0EFEF"/>
													<stop  offset="1" style="stop-color:#FFFFFF"/>
												</linearGradient>
												<rect x="1378.7" y="80.5" class="st42" width="15.7" height="115.2"/>
											</g>
										</g>
									</g>
								</g>
							</g>
						</g>
					</g>
				</g>
			</g>
		</g>
	</g>
</g>
<path class="st31" d="M1153.6,144.6l9.2-0.6l-5.2-7.9l-8.5,15h-3.9l10.5-17.7c0.7-0.7,1.3-1.3,2-1.3s2,0.6,2,1.3l11.8,17h-3.9
	l-2-3.3l-9.8,0.7L1153.6,144.6z M1196.8,145.9l-0.7-15.1h-3.3l0.7,16.4c0,0.7,0,0.7,0.7,1.3c0.7,0,0.7,0.6,1.3,0.6l16.4-0.6l2-3.3
	L1196.8,145.9z M1138.5,145.9c3.3,0,5.9-3.3,5.9-6.5s-3.3-5.9-6.6-5.9l-15.7,0.6l0.7,18.3h3.3l-0.7-15l11.8-0.7c2,0,3.3,1.3,3.3,2.6
	s-1.3,3.3-2.6,3.3l-9.8,0.6l11.1,8.5h5.2l-7.2-5.9L1138.5,145.9z M1101.9,153.8c-5.1,0.5-9.5-3.3-10-8.3c-0.5-5.1,3.3-9.5,8.3-10
	c0.1,0,0.2,0,0.3,0l10.5-0.6c5.1-0.4,9.5,3.4,9.8,8.5c0.4,5.1-3.4,9.5-8.5,9.8L1101.9,153.8z M1111.7,149.9c3.3,0,5.9-2.6,5.9-5.9
	c0-3.3-2.6-5.9-5.9-5.9l-10.5,0.6c-3.3,0-5.9,2.6-5.9,5.9c0,3.3,2.6,5.9,5.9,5.9L1111.7,149.9z M1179.1,150.5
	c-5.1,0.4-9.5-3.4-9.8-8.5c-0.4-5.1,3.4-9.5,8.5-9.8l12.4-0.6l-2,3.3l-10.5,0.6c-3.3,0-5.9,2.6-5.9,5.9c0,3.3,2.6,5.9,5.9,5.9l0,0
	l12.4-0.6l-2,3.3L1179.1,150.5z M1221.6,145.3c-2.6,0-5.2-1.3-5.9-3.9l15-0.6l2-3.3l-17,0.6c0.7-2.6,2.6-4.6,5.2-4.6l10.5-0.7l2-3.3
	l-12.4,0.7c-5.1,0.4-8.9,4.8-8.5,9.8c0.4,5.1,4.8,8.9,9.8,8.5l11.1-0.6l2-3.3L1221.6,145.3z"/>
<polygon class="st15" points="333.1,116 0,116 114.5,209.6 333.1,209.6 "/>
<polygon class="st8" points="153.1,176.2 333.1,209.6 333.1,174.2 "/>
<path class="st15" d="M799.9,173.6c-24.2-4.8-39.9-28.3-35.1-52.5c3.5-17.7,17.4-31.6,35.1-35.1v-2.6H153.1v92.9h646.8V173.6z"/>
<g>
	<g class="st43">
		<path class="st31" d="M220.6,116.6h6.3l0.4,19.5h0.1l8.3-19.5h5.3l-12.1,26h-6.2l-0.5-19.8h-0.1l-9.2,19.8h-6.3l-0.8-26h5.8
			l-0.2,19.5h0.1L220.6,116.6z"/>
		<path class="st31" d="M243.4,116.6h17.4l-0.9,4.3h-11.8l-1.3,6.1h11.1l-0.9,4.3h-11.1l-1.5,6.9h12.2l-0.9,4.3h-17.8L243.4,116.6z"
			/>
		<path class="st31" d="M260.3,142.6l5.5-26h5.6l-4.6,21.7h11.3l-0.9,4.3H260.3z"/>
		<path class="st31" d="M298.7,125c0.6-2.7-0.6-4.9-3.9-4.9c-4,0-6.2,5.9-7,9.5s-1,9.5,2.9,9.5c3.3,0,5.5-2.2,6-4.9h5.9
			c-1.6,6.5-6.8,9-12.8,9c-7.5,0-9.6-5.9-8-13.5c1.6-7.6,6.3-13.5,13.8-13.5c6,0,10.1,2.4,9,9H298.7z"/>
		<path class="st31" d="M306.1,129.6c1.6-7.7,6.8-13.5,15.4-13.5s11.2,5.9,9.6,13.5s-6.8,13.5-15.4,13.5S304.5,137.2,306.1,129.6z
			 M312,129.6c-0.9,4.5-1,9.5,4.5,9.5s7.6-5,8.6-9.5c0.9-4.5,1-9.5-4.5-9.5S313,125.1,312,129.6z"/>
		<path class="st31" d="M348.8,142.6h-4.6l-2.1-22.3l-0.1,0.1l-4.7,22.2H332l5.5-26h9.1l1.4,18.9h0.1l9.9-18.9h8.8l-5.5,26h-5.2
			l4.7-22.2l-0.1-0.1L348.8,142.6z"/>
		<path class="st31" d="M371.4,116.6h17.4l-0.9,4.3h-11.8l-1.3,6.1h11.1l-0.9,4.3h-11.1l-1.5,6.9h12.2l-0.9,4.3h-17.8L371.4,116.6z"
			/>
		<path class="st31" d="M401.8,116.6h21.1l-0.9,4.3h-7.7l-4.6,21.7H404l4.6-21.7h-7.7L401.8,116.6z"/>
		<path class="st31" d="M422.1,129.6c1.6-7.7,6.8-13.5,15.4-13.5s11.2,5.9,9.6,13.5s-6.8,13.5-15.4,13.5S420.5,137.2,422.1,129.6z
			 M428,129.6c-0.9,4.5-1,9.5,4.5,9.5s7.6-5,8.6-9.5c0.9-4.5,1-9.5-4.5-9.5S429,125.1,428,129.6z"/>
		<path class="st31" d="M461.8,116.6h21.1l-0.9,4.3h-7.7l-4.6,21.7h-5.6l4.6-21.7h-7.7L461.8,116.6z"/>
		<path class="st31" d="M485.4,116.6h17.4l-0.9,4.3h-11.8l-1.3,6.1h11.1l-0.9,4.3h-11.1l-1.5,6.9h12.2l-0.9,4.3h-17.8L485.4,116.6z"
			/>
		<path class="st31" d="M500.3,142.6l14.9-26h6.6l3.5,26h-5.6l-0.7-5.5h-10.3l-3.1,5.5H500.3z M518.6,132.7l-1.2-11.1h-0.1
			l-6.2,11.1H518.6z"/>
		<path class="st31" d="M544.8,142.6h-4.6l-2.1-22.3l-0.1,0.1l-4.7,22.2H528l5.5-26h9.1l1.4,18.9h0.1l9.9-18.9h8.8l-5.5,26h-5.2
			l4.7-22.2l-0.1-0.1L544.8,142.6z"/>
		<path class="st31" d="M574.1,129.6c1.6-7.7,6.8-13.5,15.4-13.5s11.2,5.9,9.6,13.5s-6.8,13.5-15.4,13.5S572.5,137.2,574.1,129.6z
			 M580,129.6c-0.9,4.5-1,9.5,4.5,9.5s7.6-5,8.6-9.5c0.9-4.5,1-9.5-4.5-9.5S581,125.1,580,129.6z"/>
		<path class="st31" d="M605.6,142.6H600l5.5-26h11.1c4.5,0,8.7,1.5,7.6,6.8c-0.7,3.4-3.4,5.6-6.7,6.3l0,0.1
			c4.2,0.5,3.6,3.1,3.3,6.7c-0.1,1.7-0.5,4.7,0.2,6.2h-6.2c0-2.3,0.3-4.6,0.5-7c0.2-1.4,0.2-3.4-1.6-3.5h-5.9L605.6,142.6z
			 M608.7,127.8h4.7c2.5,0,4.2-1.3,4.6-3.6s-0.7-3.3-3.2-3.3h-4.7L608.7,127.8z"/>
		<path class="st31" d="M622.3,142.6l14.9-26h6.6l3.5,26h-5.6l-0.7-5.5h-10.3l-3.1,5.5H622.3z M640.6,132.7l-1.2-11.1h-0.1
			l-6.2,11.1H640.6z"/>
		<path class="st31" d="M668.7,125c0.6-2.7-0.6-4.9-3.9-4.9c-4,0-6.2,5.9-7,9.5s-1,9.5,2.9,9.5c3.3,0,5.5-2.2,6-4.9h5.9
			c-1.6,6.5-6.8,9-12.8,9c-7.5,0-9.6-5.9-8-13.5c1.6-7.6,6.3-13.5,13.8-13.5c6,0,10.1,2.4,9,9H668.7z"/>
		<path class="st31" d="M674.3,142.6l5.5-26h5.6l-4.6,21.7h11.3l-0.9,4.3H674.3z"/>
		<path class="st31" d="M699.5,116.6h17.4l-0.9,4.3h-11.8l-1.3,6.1h11.1l-0.9,4.3h-11.1l-1.5,6.9h12.2l-0.9,4.3h-17.8L699.5,116.6z"
			/>
	</g>
</g>
</svg>
