<svg xmlns="http://www.w3.org/2000/svg" viewBox="0 0 131.74 34.3"><defs><style>.a{fill:#fff;fill-rule:evenodd;}</style></defs><title>nestle</title><path class="a" d="M99.58,2.36A1.9,1.9,0,0,0,97.67.45H94.85a1.91,1.91,0,0,0-1.91,1.91V31.93a1.91,1.91,0,0,0,1.91,1.91h2.82a1.91,1.91,0,0,0,1.91-1.91V2.36Z"/><path class="a" d="M103.18,3.15v1.4a1.06,1.06,0,0,0,1.06,1h19.5A1.61,1.61,0,0,0,125.35,4V1.61A1.55,1.55,0,0,0,123.74,0L104.28,1.92a1.21,1.21,0,0,0-1.1,1.23Z"/><path class="a" d="M87.4,33.84a7.66,7.66,0,0,1-7.91-7.77V14.24H78.1a1.34,1.34,0,0,1-1.34-1.34v-2A1.33,1.33,0,0,1,78.1,9.59h1.39V2.31A1.87,1.87,0,0,1,81.34.45H84.1A1.87,1.87,0,0,1,86,2.32V9.59h4.3a1.33,1.33,0,0,1,1.34,1.33v2a1.33,1.33,0,0,1-1.33,1.34H86V25.18a3.35,3.35,0,0,0,3.63,3.61H90a1.45,1.45,0,0,1,1.45,1.45v2.15A1.44,1.44,0,0,1,90,33.84Z"/><path class="a" d="M54.18,21.34C54.18,15,50.44,8.74,42,8.74c-7.84,0-12.24,6.13-12.24,12.6,0,6.89,4.71,13,12.29,13,5.19,0,10.31-2.73,11.27-7.22a1.16,1.16,0,0,0-1.13-1.41h-3.7a1.86,1.86,0,0,0-1.56.81A5.46,5.46,0,0,1,42,28.87a5.67,5.67,0,0,1-5.67-5.4H52.08a1.88,1.88,0,0,0,2.1-2.13ZM36.36,18.65a5.69,5.69,0,0,1,11.25,0Z"/><path class="a" d="M126,21.34c0-6.31-3.73-12.6-12.22-12.6-7.84,0-12.24,6.13-12.24,12.6,0,6.89,4.71,13,12.29,13,5.19,0,10.31-2.73,11.28-7.22A1.17,1.17,0,0,0,124,25.67h-3.7a1.86,1.86,0,0,0-1.56.81,5.46,5.46,0,0,1-4.91,2.39,5.67,5.67,0,0,1-5.67-5.4h15.77a1.88,1.88,0,0,0,2.1-2.13Zm-17.82-2.69a5.69,5.69,0,0,1,11.25,0Z"/><path class="a" d="M74.18.78H23.11A2.09,2.09,0,0,0,21,2.88l.17,20.06S10.18,3.06,9.6,2.05A3.72,3.72,0,0,0,6.3.22H2.1A2.1,2.1,0,0,0,0,2.32V31.74a2.1,2.1,0,0,0,2.1,2.1H4.8a2.11,2.11,0,0,0,2.1-2.11L6.73,11.11S17.84,31.19,18.31,32a3.71,3.71,0,0,0,3.3,1.86h3.86a2.1,2.1,0,0,0,2.1-2.1v-26H74.18a1.43,1.43,0,0,0,1.44-1.44V2.21A1.43,1.43,0,0,0,74.18.78Z"/><path class="a" d="M65.92,13.55c2.22,0,3.88.81,4.48,2.2.28.67.84.8,1.6.8h3.06a1.12,1.12,0,0,0,1.08-1.1c0-3.55-4.23-6.72-10.23-6.72-6.2,0-10.27,3-10.27,7.66,0,3.6,2.84,5.75,6.34,6.66,1.6.42,4.32,1.09,5.64,1.44s2.71.81,2.71,2c0,1.94-2,2.59-4.26,2.59s-4.21-.94-4.81-2.44c-.35-.87-1-1-1.88-1H56.27a1.2,1.2,0,0,0-1.16,1.18v.4c0,3.43,4.61,7,11,7,4.5,0,10.79-1.87,10.79-7.92,0-3.5-2.35-5.93-6.16-6.9L64.86,18c-1.39-.36-2.69-.81-2.69-2,0-1.81,1.67-2.42,3.75-2.42Z"/><path class="a" d="M128.22,32.6h-.69V29.36h1.21c.83,0,1.33.24,1.33,1a.75.75,0,0,1-.78.84l.82,1.42h-.82l-.74-1.36h-.33V32.6Zm.61-1.91c.31,0,.5-.06.5-.42s-.36-.36-.62-.36h-.49v.78Zm-.11,3.3a3,3,0,1,1,3-3,2.9,2.9,0,0,1-3,3Zm0-5.31a2.31,2.31,0,0,0,0,4.61h0a2.32,2.32,0,0,0,0-4.62Z"/></svg>