<?xml version="1.0" encoding="utf-8"?>
<!-- Generator: Adobe Illustrator 23.0.2, SVG Export Plug-In . SVG Version: 6.00 Build 0)  -->
<svg version="1.1" id="Layer_1" xmlns="http://www.w3.org/2000/svg" xmlns:xlink="http://www.w3.org/1999/xlink" x="0px" y="0px"
	 viewBox="0 0 130.8 68.4" style="enable-background:new 0 0 130.8 68.4;" xml:space="preserve">
<style type="text/css">
	.st0{fill:#FFFFFF;}
</style>
<title>Logo</title>
<g id="Artwork">
	<path class="st0" d="M21.9,41.8c-1,0-1.8,0.9-1.7,1.9c0,1,0.9,1.8,1.9,1.7c1,0,1.7-0.8,1.7-1.8c0-1-0.8-1.8-1.7-1.8
		C22,41.8,22,41.8,21.9,41.8z M21.9,44.9c-0.7,0-1.3-0.6-1.3-1.3s0.6-1.3,1.3-1.3c0.7,0,1.3,0.6,1.3,1.3
		C23.2,44.3,22.7,44.9,21.9,44.9C22,44.9,22,44.9,21.9,44.9z"/>
	<polygon class="st0" points="40,35.6 31,35.6 32,19.9 26.1,35.6 17.7,35.6 31,0.1 40,0.1 38.9,16 44.9,0.1 53.3,0.1 	"/>
	<polygon class="st0" points="41.1,35.6 54.4,0.1 62.8,0.1 49.5,35.6 	"/>
	<path class="st0" d="M16.8,23.4C5,37.1-6,55.4,3.8,63.9C13.2,72,25,67.2,33.1,64s97.2-42,97.2-42c0.9-0.4,0.7-1-0.4-0.7l-97,26.3
		C20.6,51.1,6.7,43.6,16.8,23.4z"/>
	<path class="st0" d="M22.2,43.8c0.2,0,0.5-0.2,0.5-0.4c0,0,0,0,0-0.1c0-0.5-0.3-0.6-0.8-0.6h-0.7v1.9h0.5v-0.8h0.1l0.4,0.8h0.6
		L22.2,43.8z M21.9,43.4h-0.3V43h0.2c0.1,0,0.3,0,0.3,0.2S22.1,43.5,21.9,43.4z"/>
	<path class="st0" d="M106.2,0c-1,0-1.8,0.7-1.9,1.7c0,0,0,0.1,0,0.1c0.1,1,1,1.8,2,1.7c0.9-0.1,1.7-0.8,1.7-1.7
		c0-1-0.8-1.8-1.7-1.8C106.3,0,106.3,0,106.2,0z M106.2,3.1c-0.7,0-1.3-0.5-1.3-1.2c0,0,0,0,0-0.1c0.1-0.7,0.7-1.2,1.4-1.2
		c0.6,0.1,1.1,0.6,1.2,1.2C107.5,2.5,107,3.1,106.2,3.1C106.3,3.1,106.2,3.1,106.2,3.1z"/>
	<path class="st0" d="M106.5,1.9c0.3,0,0.5-0.2,0.5-0.4c0,0,0,0,0-0.1c0-0.5-0.3-0.6-0.8-0.6h-0.7v1.9h0.5V1.9l0,0l0.4,0.8h0.6
		L106.5,1.9z M106.2,1.6H106V1.2h0.2c0.1,0,0.3,0,0.3,0.2S106.4,1.6,106.2,1.6z"/>
	<path class="st0" d="M100.7,6l2.3-5.9H77.4l-8.8,10.6l4.1-10.6h-8.5L51,35.6h8.4L65,20.8l0.4,14.8h25.7l2.4-6.8h-9.8l3.2-8.7h8
		l2.5-6.6h-8L92.2,6H100.7z M73.7,33.2l-0.5-18.5L85.8,0.8L73.7,33.2z"/>
</g>
</svg>
