<svg xmlns="http://www.w3.org/2000/svg" viewBox="0 0 56.07 68.23"><defs><style>.a{fill:#fff;fill-rule:evenodd;}</style></defs><title>patents</title><path class="a" d="M52,54.9,53.09,57,51.25,58.1l-1.09.53v3.73H46.38l-.53,1.06-1.07,1.86-2.17-1.06-1.07-.53-1.07.53L38.3,65.28l-1.07-1.86-.56-1.06H32.89V58.63l-1.07-.53L29.94,57,31,54.9l.53-1.06L31,52.75l-1.07-2.09,1.88-1.08,1.07-.53V45.32h3.78l.56-1.06,1.07-1.87,2.17,1.06,1.07.53,1.07-.53,2.17-1.06,1.07,1.87.53,1.06h3.78v3.73l1.09.53,1.84,1.08L52,52.75l-.51,1.09ZM8.62,37.33V35.18H33.43v2.15ZM20.5,44.79H8.62V42.65H20.5Zm35.57,5.32-3.77-2.4V43.2H47.73l-2.42-3.76-3.24,1.87V0H8.62L0,8.52V53.28H28.86l.26.56L27,57.57,30.75,60V64.5h4.57l2.44,3.73,3.78-2.14,3.77,2.14,2.42-3.73H52.3V60l3.77-2.39-2.16-3.73Zm-8.62-1.32a1,1,0,0,0-1.6,0l-5.94,5.83-2.68-2.4a1,1,0,0,0-1.63,0l-.82.53a1.78,1.78,0,0,0,0,1.62L37.48,57l2.43,2.12L42.07,57l6.2-6.13a1.16,1.16,0,0,0,0-1.33ZM8.69,20.22V18.08H33.5v2.14Zm-.14-7.8V10.28H33.36v2.14Zm25.18,16.2h-25V26.48h25Z"/></svg>