<svg xmlns="http://www.w3.org/2000/svg" viewBox="0 0 155.6 37.75"><defs><style>.a{fill:#fff;}</style></defs><title>paypal</title><path class="a" d="M119.83,8.44h-8.56a1.19,1.19,0,0,0-1.17,1l-3.46,21.93a.71.71,0,0,0,.7.83h4.39a.85.85,0,0,0,.83-.7l1-6.22a1.19,1.19,0,0,1,1.17-1h2.71c5.63,0,8.89-2.72,9.74-8.13.38-2.36,0-4.22-1.1-5.52S122.69,8.44,119.83,8.44Zm1,8c-.47,3.08-2.82,3.08-5.09,3.08h-1.29l.91-5.74a.71.71,0,0,1,.7-.6h.59c1.55,0,3,0,3.76.88A2.85,2.85,0,0,1,120.82,16.45Z"/><path class="a" d="M58.81,8.44H50.25a1.19,1.19,0,0,0-1.17,1L45.62,31.38a.71.71,0,0,0,.7.83h4.09a1.19,1.19,0,0,0,1.17-1l.93-5.91a1.19,1.19,0,0,1,1.18-1h2.7c5.64,0,8.89-2.72,9.74-8.13.39-2.36,0-4.22-1.09-5.52S61.67,8.44,58.81,8.44Zm1,8c-.46,3.08-2.81,3.08-5.08,3.08H53.42l.91-5.74a.71.71,0,0,1,.7-.6h.59c1.55,0,3,0,3.76.88A2.85,2.85,0,0,1,59.79,16.45Z"/><path class="a" d="M84.38,16.36h-4.1a.7.7,0,0,0-.7.6L79.4,18.1l-.29-.41C78.22,16.4,76.25,16,74.27,16a9.42,9.42,0,0,0-9.14,8.24,7.73,7.73,0,0,0,1.52,6.3,6.42,6.42,0,0,0,5.16,2.08,7.82,7.82,0,0,0,5.67-2.35l-.18,1.14a.71.71,0,0,0,.7.83h3.69a1.19,1.19,0,0,0,1.18-1l2.21-14A.71.71,0,0,0,84.38,16.36Zm-5.71,8A4.58,4.58,0,0,1,74,28.24a3.49,3.49,0,0,1-2.75-1.1,3.52,3.52,0,0,1-.64-2.88,4.59,4.59,0,0,1,4.59-3.94A3.43,3.43,0,0,1,78,21.43,3.53,3.53,0,0,1,78.67,24.33Z"/><path class="a" d="M145.4,16.36h-4.1a.7.7,0,0,0-.7.6l-.18,1.14-.29-.41c-.88-1.29-2.86-1.72-4.84-1.72a9.42,9.42,0,0,0-9.14,8.24,7.76,7.76,0,0,0,1.52,6.3,6.42,6.42,0,0,0,5.16,2.08,7.86,7.86,0,0,0,5.68-2.35l-.19,1.14a.72.72,0,0,0,.71.83h3.69a1.19,1.19,0,0,0,1.17-1l2.22-14A.72.72,0,0,0,145.4,16.36Zm-5.71,8a4.56,4.56,0,0,1-4.62,3.91,3.18,3.18,0,0,1-3.4-4,4.59,4.59,0,0,1,4.6-3.94A3.46,3.46,0,0,1,139,21.43,3.57,3.57,0,0,1,139.69,24.33Z"/><path class="a" d="M106.2,16.36h-4.12a1.17,1.17,0,0,0-1,.52l-5.68,8.36L93,17.2a1.18,1.18,0,0,0-1.14-.84H87.82a.71.71,0,0,0-.67.94l4.53,13.31-4.26,6A.71.71,0,0,0,88,37.75h4.11a1.19,1.19,0,0,0,1-.51l13.69-19.76A.71.71,0,0,0,106.2,16.36Z"/><path class="a" d="M150.23,9l-3.51,22.34a.71.71,0,0,0,.7.83H151a1.19,1.19,0,0,0,1.18-1l3.46-21.94a.71.71,0,0,0-.7-.83h-4A.71.71,0,0,0,150.23,9Z"/><path class="a" d="M28.83,9.59c.46-2.94,0-4.93-1.59-6.74C25.49.85,22.33,0,18.29,0H6.56A1.68,1.68,0,0,0,4.9,1.42L0,32.4a1,1,0,0,0,1,1.16H8.25l-.5,3.17a.88.88,0,0,0,.87,1h6.11a1.46,1.46,0,0,0,1.45-1.24l.06-.31,1.15-7.29.07-.4a1.46,1.46,0,0,1,1.45-1.24h.92c5.91,0,10.54-2.41,11.9-9.36.56-2.9.27-5.33-1.23-7a5.87,5.87,0,0,0-1.67-1.29h0"/><path class="a" d="M28.83,9.59c.46-2.94,0-4.93-1.59-6.74C25.49.85,22.33,0,18.29,0H6.56A1.68,1.68,0,0,0,4.9,1.42L0,32.4a1,1,0,0,0,1,1.16H8.25L10.07,22l-.06.36A1.68,1.68,0,0,1,11.67,21h3.44c6.76,0,12.06-2.75,13.6-10.69.05-.24.09-.46.12-.69"/><path class="a" d="M12,9.63a1.47,1.47,0,0,1,.81-1.1,1.5,1.5,0,0,1,.64-.14h9.19a19.22,19.22,0,0,1,3,.22c.26,0,.52.09.77.15s.5.12.73.19l.35.1a8.66,8.66,0,0,1,1.27.54c.46-2.94,0-4.93-1.59-6.74C25.49.85,22.33,0,18.29,0H6.56A1.68,1.68,0,0,0,4.9,1.42L0,32.4a1,1,0,0,0,1,1.16H8.25L10.07,22Z"/></svg>