<svg xmlns="http://www.w3.org/2000/svg" viewBox="0 0 57 69.14"><defs><style>.a{fill:#fff;fill-rule:evenodd;}</style></defs><title>person</title><polyline class="a" points="52.57 46.39 52.57 46.39 52.43 45.84 52.25 45.32 52.05 44.8 51.81 44.3 51.55 43.82 51.27 43.35 50.95 42.91 50.61 42.48 50.24 42.08 49.86 41.69 49.45 41.32 49.02 40.97 48.57 40.64 48.1 40.35 47.61 40.06 47.1 39.8 36.18 35.18 36.17 35.38 36.11 35.7 35.87 36.66 35.41 37.96 35.09 38.71 34.69 39.52 34.22 40.35 33.66 41.2 33.02 42.07 32.29 42.93 31.46 43.78 30.53 44.59 29.48 45.36 28.32 46.07 27.23 45.36 26.25 44.59 25.35 43.78 24.56 42.93 23.86 42.07 23.25 41.2 22.73 40.35 22.27 39.52 21.58 37.96 21.13 36.66 20.89 35.7 20.84 35.38 20.83 35.18 9.9 39.8 9.4 40.06 8.9 40.35 8.44 40.64 7.99 40.97 7.55 41.32 7.15 41.69 6.75 42.08 6.39 42.48 6.05 42.91 5.74 43.35 5.45 43.82 5.19 44.3 4.95 44.8 4.75 45.32 4.58 45.84 4.44 46.39 0 69.14 9.9 69.14 12.63 55.3 15.36 69.14 41.64 69.14 44.37 55.3 47.1 69.14 57 69.14 52.57 46.39"/><polyline class="a" points="23.19 28.3 23.19 28.3 22.83 27.78 22.5 27.23 22.21 26.66 21.94 26.07 21.71 25.46 21.51 24.85 21.34 24.21 21.2 23.59 20.95 23.57 20.71 23.52 20.49 23.45 20.27 23.35 20.05 23.23 19.86 23.08 19.67 22.92 19.49 22.73 19.33 22.54 19.17 22.34 19.03 22.11 18.9 21.87 18.79 21.64 18.69 21.39 18.61 21.14 18.54 20.89 18.21 18.87 18.21 18.61 18.23 18.38 18.28 18.15 18.33 17.93 18.41 17.71 18.49 17.52 18.59 17.32 18.7 17.14 18.84 16.98 18.98 16.81 19.15 16.67 19.33 16.54 19.52 16.43 19.73 16.33 19.96 16.24 20.2 16.18 20.2 14.15 20.2 13.63 20.27 12.91 20.33 12.48 20.42 12.01 20.56 11.53 20.73 11.03 20.97 10.53 21.25 10.02 21.59 9.51 22.02 9.03 22.51 8.57 23.09 8.14 23.75 7.75 24.52 7.41 24.56 8.28 24.69 9.13 24.91 9.96 25.21 10.76 25.58 11.53 26.02 12.25 26.52 12.93 27.09 13.56 27.7 14.13 28.38 14.65 29.09 15.09 29.84 15.47 30.63 15.77 31.45 15.99 32.29 16.12 33.15 16.18 35.13 16.18 35.33 16.19 35.52 16.22 35.7 16.27 35.87 16.35 36.05 16.44 36.21 16.54 36.37 16.67 36.52 16.8 36.64 16.95 36.77 17.12 36.88 17.28 36.96 17.45 37.04 17.63 37.09 17.82 37.12 18 37.13 18.19 37.1 19.59 36.96 21.18 36.7 22.9 36.51 23.77 36.26 24.64 35.97 25.5 35.62 26.34 35.22 27.15 34.75 27.91 34.21 28.62 33.6 29.26 32.92 29.83 32.15 30.32 39.46 30.32 39.82 29.59 40.16 28.82 40.77 27.12 41.28 25.29 41.7 23.38 42.03 21.45 42.27 19.57 42.41 17.8 42.45 16.18 42.39 14.46 42.23 12.86 41.98 11.37 41.62 9.98 41.16 8.7 40.61 7.55 39.97 6.49 39.25 5.55 38.45 4.72 37.57 4 36.61 3.4 35.58 2.9 34.49 2.51 33.33 2.23 32.1 2.07 30.82 2.02 29.16 0 27.91 0.05 26.63 0.2 25.36 0.47 24.08 0.85 22.84 1.34 21.63 1.95 20.47 2.69 19.37 3.54 18.35 4.52 17.43 5.62 16.61 6.86 15.91 8.24 15.33 9.76 14.91 11.41 14.64 13.21 14.56 15.16 14.58 16.06 14.65 17 14.78 17.96 14.97 18.92 15.22 19.89 15.54 20.86 15.92 21.82 16.38 22.75 16.92 23.64 17.53 24.5 18.23 25.31 19.03 26.06 19.93 26.75 20.9 27.35 21.99 27.88 23.19 28.3"/></svg>