<?xml version="1.0" encoding="utf-8"?>
<!-- Generator: Adobe Illustrator 23.0.2, SVG Export Plug-In . SVG Version: 6.00 Build 0)  -->
<svg version="1.1" id="Layer_1" xmlns="http://www.w3.org/2000/svg" xmlns:xlink="http://www.w3.org/1999/xlink" x="0px" y="0px"
	 viewBox="0 0 39.7 39.9" style="enable-background:new 0 0 39.7 39.9;" xml:space="preserve">
<style type="text/css">
	.st0{opacity:0.51;}
</style>
<title>quote</title>
<path class="st0" d="M0,19c0-5.2,1.2-9.4,3.6-12.5C6,3.4,9.3,1.1,13,0v6.6c-1.6,1.1-2.9,2.4-4.1,3.9c-1.3,1.6-2,4.2-1.9,7.8v6h6
	v15.6H0V19z M26.8,19c0-5.2,1.2-9.4,3.6-12.5C32.8,3.4,36,1.1,39.7,0v6.6c-1.6,1.1-2.9,2.4-4.1,3.9c-1.3,1.6-2,4.3-2,7.8v6h6v15.6
	h-13L26.8,19z"/>
</svg>
