<?xml version="1.0" encoding="utf-8"?>
<!-- Generator: Adobe Illustrator 23.0.2, SVG Export Plug-In . SVG Version: 6.00 Build 0)  -->
<svg version="1.1" id="Layer_1" xmlns="http://www.w3.org/2000/svg" xmlns:xlink="http://www.w3.org/1999/xlink" x="0px" y="0px"
	 viewBox="0 0 1684.1 952.8" style="enable-background:new 0 0 1684.1 952.8;" xml:space="preserve">
<style type="text/css">
	.st0{clip-path:url(#SVGID_2_);}
	.st1{fill:#EEEFEF;}
	.st2{fill:#7B9CA2;}
	.st3{fill:none;}
	.st4{fill-rule:evenodd;clip-rule:evenodd;fill:#FFFFFF;}
	.st5{fill:#CBCECD;}
	.st6{fill:none;stroke:#CBCECD;stroke-width:1.7;stroke-miterlimit:10;}
	.st7{opacity:0.2;fill:#4E5052;enable-background:new    ;}
	.st8{fill:#265E72;}
	.st9{fill:#478B91;}
	.st10{fill:#AB5326;}
	.st11{fill:#8A341E;}
	.st12{fill:#D8C6B2;}
	.st13{fill:#FFFFFF;}
	.st14{fill:#929598;}
	.st15{fill:#65676A;}
	.st16{fill:#343535;}
	.st17{fill:#1D703A;}
	.st18{fill:#014F35;}
	.st19{fill:#5D0101;}
	.st20{fill:#3A9044;}
	.st21{fill:#6BAD6B;}
	.st22{opacity:0.3;fill:#4E5052;enable-background:new    ;}
	.st23{fill:#F19020;}
	.st24{clip-path:url(#SVGID_4_);}
	.st25{opacity:0.5;fill:#7E7F80;enable-background:new    ;}
	.st26{clip-path:url(#SVGID_6_);}
	.st27{fill:#B82025;}
	.st28{fill:#801113;}
	.st29{fill:#1A1A1A;}
	.st30{opacity:0.6;fill:#4E5052;enable-background:new    ;}
	.st31{opacity:0.8;fill:#7E7F80;enable-background:new    ;}
	.st32{fill:#409AAE;}
	.st33{fill:#00758F;}
	.st34{fill:#D81F26;}
	.st35{fill:#00758F;stroke:#901A1D;stroke-width:2.26;stroke-miterlimit:10;}
	.st36{fill:#409AAE;stroke:#901A1D;stroke-width:2.26;stroke-miterlimit:10;}
	.st37{fill:#EC1C24;}
	.st38{fill:#00758F;stroke:#EC1E24;stroke-width:2.26;stroke-miterlimit:10;}
	.st39{fill:#409AAE;stroke:#EC1E24;stroke-width:2.26;stroke-miterlimit:10;}
	.st40{fill:#F6B159;}
	.st41{fill:#4E5052;}
	.st42{fill:#7E7F80;}
	.st43{fill:#A6A9AB;}
	.st44{fill:#E8E9E8;}
	.st45{fill:#FDD29D;}
	.st46{fill:#CD7328;}
	.st47{fill:#9A1B1F;}
	.st48{clip-path:url(#SVGID_8_);}
	.st49{clip-path:url(#SVGID_10_);}
	.st50{clip-path:url(#SVGID_12_);}
	.st51{clip-path:url(#SVGID_14_);}
	.st52{fill:#03596F;}
	.st53{clip-path:url(#SVGID_16_);}
	.st54{clip-path:url(#SVGID_18_);}
	.st55{fill:#592439;}
	.st56{clip-path:url(#SVGID_20_);}
	.st57{fill:#78253F;}
	.st58{clip-path:url(#SVGID_22_);}
	.st59{clip-path:url(#SVGID_24_);}
	.st60{clip-path:url(#SVGID_26_);}
	.st61{clip-path:url(#SVGID_28_);}
	.st62{fill:#F9FCFF;}
	.st63{fill:#0E321F;}
	.st64{fill:#1E5623;}
	.st65{fill:#77180B;}
	.st66{fill:#3F0005;}
	.st67{fill:#143825;}
</style>
<title>resources-footer-bg</title>
<g>
	<defs>
		<rect id="SVGID_1_" x="4.6" y="-597.2" width="1679.4" height="1550.1"/>
	</defs>
	<clipPath id="SVGID_2_">
		<use xlink:href="#SVGID_1_"  style="overflow:visible;"/>
	</clipPath>
	<g class="st0">
		<rect y="-938.3" class="st1" width="1685.8" height="1866"/>
		<rect x="1415.1" y="645.1" class="st2" width="40.9" height="261.8"/>
		<rect x="1006.3" y="278.8" class="st3" width="691.3" height="734.6"/>
		<path class="st4" d="M88.1,538.3c10-31.1,33.8-30.4,44.5-5.5c0.9-35.9,41.2-65.9,70-31.8c35.7-85.6,115.2-38.9,111.2-5.5
			c26.7-24,64.2,1,52.3,34c12.4-19.7,43.9-14.8,46.7,9.9L88.1,538.3z"/>
		<path class="st5" d="M1667.6,495.5V339.3h-18.4v-10.8l-67.6-1.2v9.4l-16.1-0.5l-3.8,245.9l-13.6,1.2l-15.6-131.6v-82.3l-10.5-3.5
			l-9.2-65.5l-7.2,64.8l-10.6,4.2l0.7,83.8l-9.9,115h-4v-4.5h-13.8v6.1h-4.6V425.7h-18.4v-6.1h-20.2l-3.3-30.3h-2.6v36.4h-7.6v-34.9
			h-2.3l-4,28.8h-21.3v6.1H1364l2.6,88.5l-3.3,179.9h-210.1v21.2h-12.3v6.1h-10.7v12.1h-9.2V726h-4.6v9.1h-10.8v-4.6h-6.1v6.1h-18.4
			v-18.2h-25.8c1,0.9-20.3-1.2-20.3-1.2v79.1l-2.3-6.2H1008l-1.7,9v15.5h-5.8v21.2h-37.9v-77.4h-28V725h-33.8
			c0-0.3,0.2,18.6,0.4,44.8h-85.8v-76.3h-31.9v62.3h-5.8v7.1h-38v87.4h-23.2v-23.2h-13.7v-13.3H682V682.1h-41v15.3h-5.5v94.4h-33.9
			v23.7h-17.9v27.6h-9.4V726.5h-0.5v-0.7h-12.2v-20.5h-89.8v20.5h-19.2v178.7h-8V904h0.4v-51h-24.2v51h0.9v0.4h-35.7v0.3h-0.8v54.4
			h649.9v21.8l670.9,32.6v-518H1667.6z"/>
		<line class="st6" x1="-204.2" y1="760.4" x2="-204.2" y2="828.4"/>
		<path class="st6" d="M352.8,640.1c0,0,7.6,131.1-152,146c0,0-131,17.4-159.6-146"/>
		<path class="st6" d="M38.7,640.1c0,0,7.6,131.1-152,146c0,0-131,17.4-159.6-146"/>
		<path class="st6" d="M827.3,786.1c0,0-131,17.4-159.6-146"/>
		<path class="st6" d="M665.2,640.1c0,0,7.6,131.1-152,146c0,0-131,17.4-159.6-146"/>
		<line class="st6" x1="-181.9" y1="774.5" x2="-181.9" y2="828.4"/>
		<line class="st6" x1="-159.5" y1="782.8" x2="-159.5" y2="829.3"/>
		<line class="st6" x1="-137.2" y1="786.1" x2="-137.2" y2="827.6"/>
		<line class="st6" x1="-114.9" y1="786.1" x2="-114.9" y2="826.8"/>
		<line class="st6" x1="-92.5" y1="782.8" x2="-92.5" y2="825.1"/>
		<line class="st6" x1="-70.2" y1="778.7" x2="-70.2" y2="830.1"/>
		<line class="st6" x1="-2.8" y1="742.2" x2="-3.3" y2="828.4"/>
		<line class="st6" x1="-25.6" y1="762.1" x2="-25.6" y2="828.4"/>
		<line class="st6" x1="-47.9" y1="773.7" x2="-47.9" y2="830.9"/>
		<line class="st6" x1="19.4" y1="710.6" x2="19.4" y2="825.1"/>
		<line class="st6" x1="63.9" y1="709" x2="63.9" y2="827.6"/>
		<line class="st6" x1="86.2" y1="743" x2="86.2" y2="826.8"/>
		<line class="st6" x1="108.5" y1="760.4" x2="108.5" y2="828.4"/>
		<line class="st6" x1="130.8" y1="774.5" x2="130.8" y2="828.4"/>
		<line class="st6" x1="153.2" y1="782.8" x2="153.2" y2="829.3"/>
		<line class="st6" x1="175.5" y1="786.1" x2="175.5" y2="827.6"/>
		<line class="st6" x1="197.8" y1="786.1" x2="197.8" y2="826.8"/>
		<line class="st6" x1="220.2" y1="782.8" x2="220.2" y2="825.1"/>
		<line class="st6" x1="242.5" y1="778.7" x2="242.5" y2="830.1"/>
		<line class="st6" x1="331.8" y1="716.4" x2="331.8" y2="830.1"/>
		<line class="st6" x1="309.9" y1="742.2" x2="309.5" y2="828.4"/>
		<line class="st6" x1="287.1" y1="762.1" x2="287.1" y2="828.4"/>
		<line class="st6" x1="264.8" y1="773.7" x2="264.8" y2="830.9"/>
		<line class="st6" x1="376.3" y1="709" x2="376.3" y2="827.6"/>
		<line class="st6" x1="398.6" y1="743" x2="398.6" y2="826.8"/>
		<line class="st6" x1="420.9" y1="760.4" x2="420.9" y2="828.4"/>
		<line class="st6" x1="443.3" y1="774.5" x2="443.3" y2="828.4"/>
		<line class="st6" x1="465.6" y1="782.8" x2="465.6" y2="829.3"/>
		<line class="st6" x1="487.9" y1="786.1" x2="487.9" y2="827.6"/>
		<line class="st6" x1="510.3" y1="786.1" x2="510.3" y2="826.8"/>
		<line class="st6" x1="532.6" y1="782.8" x2="532.6" y2="825.1"/>
		<line class="st6" x1="554.9" y1="778.7" x2="554.9" y2="830.1"/>
		<line class="st6" x1="644.2" y1="716.4" x2="644.2" y2="830.1"/>
		<line class="st6" x1="622.4" y1="743" x2="621.9" y2="828.4"/>
		<line class="st6" x1="599.6" y1="762.1" x2="599.6" y2="828.4"/>
		<line class="st6" x1="577.2" y1="773.7" x2="577.2" y2="830.9"/>
		<line class="st6" x1="688.7" y1="709" x2="688.7" y2="827.6"/>
		<line class="st6" x1="711.1" y1="743" x2="711.1" y2="826.8"/>
		<line class="st6" x1="733.4" y1="760.4" x2="733.4" y2="828.4"/>
		<line class="st6" x1="755.7" y1="774.5" x2="755.7" y2="828.4"/>
		<line class="st6" x1="778" y1="782.8" x2="778" y2="829.3"/>
		<line class="st6" x1="800.4" y1="786.1" x2="800.4" y2="827.6"/>
		<line class="st6" x1="822.7" y1="786.1" x2="822.7" y2="826.8"/>
		<polygon class="st5" points="817.7,820.6 671.9,820.6 671.9,639.3 659.3,639.3 659.3,820.6 359.5,820.6 359.5,639.3 346.9,639.3 
			346.9,820.6 47.9,820.6 47.9,639.3 35.3,639.3 35.3,820.6 -200.7,820.6 -200.7,834.6 35.3,834.6 35.3,930.3 47.9,930.3 
			47.9,834.6 215.2,834.6 215.2,840.1 209.1,840.1 209.1,843.7 209.1,852.7 218.7,852.7 228.6,852.7 228.6,843.7 228.6,840.1 
			222.5,840.1 222.5,834.6 346.9,834.6 346.9,930.3 359.5,930.3 359.5,834.6 659.3,834.6 659.3,930.3 671.9,930.3 671.9,834.6 
			817.7,834.6 		"/>
		<path class="st7" d="M1648.8,563.6H1589v139.8h-45.2v-96.6h-40.9v96.6h-35v20.2h-10.2v7.2h-10.2v11.5h-8.8v-7.2h-5.8v8.7h-10.2
			v-4.3h-5.8v5.8h-16.1v-17.3h-26.9c1,0.9-19.8-1.2-19.8-1.2v161.1h299.2V703.4h-4.4L1648.8,563.6z"/>
		<rect x="-267" y="847.6" class="st8" width="1952.8" height="117.6"/>
		<rect x="-267" y="847.6" class="st9" width="1952.8" height="9.3"/>
		<polygon class="st10" points="1557.9,755.4 1583,783.9 1611.8,783.2 1586.5,755.4 		"/>
		<polygon class="st11" points="1583.9,811.1 1583.2,784 1609.2,783.6 1609.9,825.2 1583.6,818.9 		"/>
		<polygon class="st12" points="1557.7,755.4 1532.1,784.2 1532.9,810.1 1583.7,819 1583.3,784.2 		"/>
		<polygon class="st13" points="1539.8,785.6 1558.1,765 1576.2,785.8 		"/>
		<polygon class="st14" points="1543.3,785.7 1560.2,767.3 1558.1,764.9 1539.2,785.8 		"/>
		<rect x="1563.5" y="791" class="st15" width="14.9" height="26.1"/>
		<rect x="1547.6" y="791" class="st15" width="6.2" height="20.9"/>
		<polygon class="st15" points="1552.9,785.6 1552.9,773.6 1563.3,773.6 1563.8,785.8 		"/>
		<polygon class="st16" points="1555.5,785.6 1555.5,777.1 1563,777.1 1563.2,785.8 		"/>
		<path class="st17" d="M1552.9,827.2c0,0,43.6-43.1,92.5-43.1s59.2,8.7,74,17c15.6,8.7,54.2,47,54.2,47l-54.2-1.3L1552.9,827.2z"/>
		<path class="st18" d="M930.3,935c0,0,185.9-174.4,304.7-145.6c19.2,4.6,95.8,21.8,95.8,21.8l-68.4,23.8l-115,18.6L930.3,935z"/>
		<rect x="1208.6" y="773.6" class="st11" width="18.5" height="62.6"/>
		<rect x="1217.4" y="773.6" class="st19" width="9.7" height="62.6"/>
		<path class="st20" d="M1170.4,736.4c0,0-60.3-3.9-45.8-65.4c0,0,11.2-34.4,45.3-35.6c0,0,10.5-35.6,47.8-29.8c0,0,21,0,33.4,21.4
			c0,0,68.1-6.4,63,54.3c0,0-2.6,44-53.1,45.3c0,0,0.7,46-43.5,47.2C1217.2,774,1175,773.3,1170.4,736.4z"/>
		<path class="st21" d="M1170,635.4c-34.1,1.3-45.3,35.6-45.3,35.6c-14.5,61.5,45.8,65.4,45.8,65.4c4.1,33.6,39.5,37.1,45.8,37.4
			V605.5C1180.2,600.7,1170,635.4,1170,635.4z"/>
		<rect x="1604.8" y="777.9" class="st11" width="7.9" height="27.8"/>
		<rect x="1608.4" y="777.9" class="st19" width="4.4" height="27.8"/>
		<path class="st18" d="M1587.6,761.1c0,0-26.5-1.7-20.2-28.8c0,0,4.9-15.2,20-15.7c0,0,4.6-15.7,21.1-13.1c6.2,0.4,11.7,4,14.7,9.4
			c0,0,30.1-2.9,27.7,24c0,0-1.2,19.4-23.4,20c0,0,0.3,20.2-19.2,20.8C1608.2,777.7,1589.7,777.4,1587.6,761.1z"/>
		<path class="st20" d="M1586.9,716.6c-15.1,0.6-20,15.7-20,15.7c-6.3,27.1,20.2,28.8,20.2,28.8c1.8,14.8,17.5,16.3,20.2,16.6v-74.2
			C1591.5,701.4,1586.9,716.6,1586.9,716.6z"/>
		<path class="st20" d="M815.9,958.9c0,0,442.8-150.1,495.5-151.2s170.3-6.6,170.3-6.6s216.9,24.8,235.1,30s25,75.6,25,75.6
			l17.1,82.2l-580.4,14.9L815.9,958.9z"/>
		<path class="st5" d="M1287.6,808.3c-8.2-6.8,213.6-3.9,213.6-3.9s185.2,36.1,263.1,186.1l-109.6,3.9l-327.5,3.9
			C1327.1,998.4,1344.3,855.4,1287.6,808.3z"/>
		<path class="st22" d="M1394.3,810.1c0,0,64.2,78,57.9,190.8l18.5-1.2C1470.6,999.7,1472.3,881.9,1394.3,810.1z"/>
		<path class="st22" d="M1422,808.3c0,0,21.7,10.2,48.6,39.8c32.3,35.5,43.9,90.1,44.8,147.5l18.5-1.2
			C1533.8,994.6,1535.8,854.5,1422,808.3z"/>
		<path class="st22" d="M1442.6,801.4c0,0,52.5,14,79.4,43.6c32.3,35.5,57,88,57.9,145.5l18.5-1.2
			C1598.4,989.4,1588.8,835.8,1442.6,801.4z"/>
		<path class="st22" d="M1142,852.5c0,0,143.7-36.7,281.6-32.6c123.4,3.6,245.7-1.6,293.1,11.1c0,0-133.6-14.1-249.6-30
			C1319.7,780.9,1262.4,820.6,1142,852.5z"/>
		<path class="st23" d="M1531,650.1h-44.6c-1.8,0-3.2,1.4-3.2,3.2v117.9c0,1.8,1.5,3.2,3.2,3.2h44.6c1.8,0,3.2-1.4,3.2-3.2V653.3
			c0.1-1.7-1.2-3.1-2.9-3.2C1531.2,650.1,1531.1,650.1,1531,650.1z M1523.2,767.5h-29.5c-1.8,0-3.2-1.4-3.2-3.2c0,0,0,0,0,0V659.4
			c0-1.8,1.5-3.2,3.2-3.2h29.5c1.8,0,3.2,1.4,3.2,3.2v104.9C1526.4,766.1,1525,767.5,1523.2,767.5z"/>
		<g>
			<defs>
				<path id="SVGID_3_" d="M1531,650.1h-44.6c-1.8,0-3.2,1.4-3.2,3.2v117.9c0,1.8,1.5,3.2,3.2,3.2h44.6c1.8,0,3.2-1.4,3.2-3.2V653.3
					c0.1-1.7-1.2-3.1-2.9-3.2C1531.2,650.1,1531.1,650.1,1531,650.1z M1523.2,767.5h-29.5c-1.8,0-3.2-1.4-3.2-3.2c0,0,0,0,0,0V659.4
					c0-1.8,1.5-3.2,3.2-3.2h29.5c1.8,0,3.2,1.4,3.2,3.2v104.9C1526.4,766.1,1525,767.5,1523.2,767.5z"/>
			</defs>
			<clipPath id="SVGID_4_">
				<use xlink:href="#SVGID_3_"  style="overflow:visible;"/>
			</clipPath>
			<g class="st24">
				<rect x="1531.7" y="645.7" class="st25" width="7.9" height="129.6"/>
			</g>
		</g>
		<g>
			<defs>
				<path id="SVGID_5_" d="M1531,650.1h-44.6c-1.8,0-3.2,1.4-3.2,3.2v117.9c0,1.8,1.5,3.2,3.2,3.2h44.6c1.8,0,3.2-1.4,3.2-3.2V653.3
					c0.1-1.7-1.2-3.1-2.9-3.2C1531.2,650.1,1531.1,650.1,1531,650.1z M1523.2,767.5h-29.5c-1.8,0-3.2-1.4-3.2-3.2c0,0,0,0,0,0V659.4
					c0-1.8,1.5-3.2,3.2-3.2h29.5c1.8,0,3.2,1.4,3.2,3.2v104.9C1526.4,766.1,1525,767.5,1523.2,767.5z"/>
			</defs>
			<clipPath id="SVGID_6_">
				<use xlink:href="#SVGID_5_"  style="overflow:visible;"/>
			</clipPath>
			<g class="st26">
				<rect x="1479.8" y="653.6" class="st25" width="47.6" height="116.5"/>
			</g>
		</g>
		<path class="st27" d="M1357.2,779.6l-68.9,29c0,0-11.2-0.7-5.1-10l77-31.7L1357.2,779.6z"/>
		<polygon class="st28" points="1311.4,806.8 1355.6,788.2 1356,794.4 1486.9,792.2 1520.6,778.8 1357.2,779.5 1291.3,806.5 
			1303.1,806.7 		"/>
		<polygon class="st29" points="1485.8,788.8 1486.9,792.9 1477.8,807.5 1309.5,807.5 1360.9,785.1 		"/>
		<path class="st15" d="M1492.2,811.9H1381c-5.8,0-10.4-4.7-10.5-10.5v-7c0-5.8,4.7-10.4,10.5-10.4h111.2c5.8,0,10.4,4.7,10.5,10.4
			v7C1502.7,807.2,1498,811.9,1492.2,811.9z"/>
		<path class="st30" d="M1389.5,796.3c-1.4-4.7,0.6-9.6,4.7-12.2h-9.5c-7.7-0.6-14.5,5.1-15.1,12.8c-0.6,7.7,5.1,14.5,12.8,15.1
			c0.7,0.1,1.4,0.1,2.1,0h104.2c5.3,0,10.2-3,12.5-7.8h-100.9C1395.2,804,1390.8,800.9,1389.5,796.3z"/>
		<ellipse class="st16" cx="1438.4" cy="797.9" rx="6.2" ry="6.1"/>
		<path class="st31" d="M1502.1,794.3c-1.7-6.2-7.4-10.4-13.8-10.3h-6.2c7.7,0,13.9,6.2,13.9,13.9s-6.2,13.9-13.9,13.9l0,0h6.3
			c7.7,0.2,14-5.9,14.2-13.6C1502.6,796.9,1502.4,795.6,1502.1,794.3z"/>
		<path class="st32" d="M1416.4,638v56.4l44.2,0.8l-1.5-55.4C1459.1,639.9,1446.7,629.1,1416.4,638z"/>
		<path class="st33" d="M1459.1,639.7c0,0-12.5-10.8-42.7-1.8v56.5"/>
		<polygon class="st34" points="1357.4,634.5 1356.7,779.7 1520.3,778.9 1519.9,632.6 1357.5,631.6 		"/>
		<polygon class="st23" points="1357.5,702.3 1521.2,702.6 1520.4,632.6 1358.2,631.6 		"/>
		<path class="st35" d="M1365.7,637.6V694l44.2,0.8l-1.5-55.3C1408.6,639.4,1396,628.6,1365.7,637.6z"/>
		<path class="st36" d="M1408.6,639.7c0,0-12.5-10.8-42.7-1.8v56.5"/>
		<path class="st35" d="M1415.9,637.6V694l44.2,0.8l-1.5-55.3C1458.7,639.4,1446.2,628.6,1415.9,637.6z"/>
		<path class="st36" d="M1458.7,639.7c0,0-12.5-10.8-42.7-1.8v56.5"/>
		<path class="st35" d="M1467.9,637.6V694l44.2,0.8l-1.5-55.3C1510.7,639.4,1498.2,628.6,1467.9,637.6z"/>
		<path class="st36" d="M1510.7,639.7c0,0-12.5-10.8-42.7-1.8v56.5"/>
		<rect x="1364.4" y="705.7" class="st27" width="45.7" height="60"/>
		<rect x="1415.5" y="705.7" class="st34" width="44.9" height="60"/>
		<rect x="1464.9" y="705.7" class="st37" width="48.4" height="60"/>
		<rect x="1366.2" y="768.3" class="st27" width="88.9" height="7"/>
		<rect x="1458.7" y="768.3" class="st27" width="55.5" height="5.2"/>
		<path class="st38" d="M1365.7,637.6V694l44.2,0.8l-1.5-55.3C1408.6,639.4,1396,628.6,1365.7,637.6z"/>
		<path class="st39" d="M1408.6,639.7c0,0-12.5-10.8-42.7-1.8v56.5"/>
		<path class="st38" d="M1415.9,637.6V694l44.2,0.8l-1.5-55.3C1458.7,639.4,1446.2,628.6,1415.9,637.6z"/>
		<path class="st39" d="M1458.7,639.7c0,0-12.5-10.8-42.7-1.8v56.5"/>
		<path class="st38" d="M1467.9,637.6V694l44.2,0.8l-1.5-55.3C1510.7,639.4,1498.2,628.6,1467.9,637.6z"/>
		<path class="st39" d="M1510.7,639.7c0,0-12.5-10.8-42.7-1.8v56.5"/>
		<path class="st10" d="M1392.7,725.6c-2.5,8.8,8.6,11.4,14.6,12.1c2.1,0.2,3.7,1.9,3.9,4l0,0c0,0-2.4,0.2-5.6,0.2
			c-5.9-0.1-14.3-1.2-15.7-6.6C1389.8,735.3,1393.4,723.2,1392.7,725.6z"/>
		<path class="st23" d="M1390.4,737.3c0,0,1.2-20.2,47.1-17.9c0,0,13.6-9.2-0.6-9c0,0-27-2.4-41.9,9.7
			C1389.7,724.4,1387.5,731.2,1390.4,737.3L1390.4,737.3z"/>
		<path class="st40" d="M1409.1,738.4c0,0,5.5,3.2,0.8,9.9c-6.7,9.2-40.7,8.4-40.7,8.4l0.3-6.9c0,0,43.6,0.8,39.2-6
			c-2.8-4.3-5-2-5-2L1409.1,738.4z"/>
		<path class="st10" d="M1481.5,725.6c2.5,8.8-8.6,11.4-14.6,12.1c-2.1,0.2-3.7,1.9-3.9,4l0,0c0,0,2.4,0.2,5.6,0.2
			c5.9-0.1,14.3-1.2,15.7-6.6C1484.3,735.3,1480.8,723.2,1481.5,725.6z"/>
		<path class="st23" d="M1483.8,737.3c0,0-1.2-20.2-47.1-17.9c0,0-13.6-9.2,0.6-9c0,0,27-2.4,41.9,9.7
			C1484.4,724.4,1486.6,731.2,1483.8,737.3L1483.8,737.3z"/>
		<path class="st40" d="M1465,738.4c0,0-5.5,3.2-0.8,9.9c6.7,9.2,40.7,8.4,40.7,8.4l-0.3-6.9c0,0-43.6,0.8-39.2-6
			c2.8-4.3,5.1-2,5.1-2L1465,738.4z"/>
		<ellipse class="st23" cx="1437.1" cy="743.5" rx="19.8" ry="19.5"/>
		<ellipse class="st40" cx="1437.1" cy="743.5" rx="16.3" ry="16.1"/>
		<ellipse class="st41" cx="1437.5" cy="743.2" rx="14.1" ry="13.9"/>
		<ellipse class="st42" cx="1437.5" cy="743.2" rx="12.3" ry="12.2"/>
		<ellipse class="st14" cx="1437.1" cy="743.5" rx="10.1" ry="10"/>
		<ellipse class="st43" cx="1437.1" cy="743.5" rx="8.4" ry="8.3"/>
		<ellipse class="st44" cx="1437.5" cy="743.2" rx="6.2" ry="6.1"/>
		<polygon class="st27" points="1357.4,631 1284.3,703.3 1283.9,798.7 1360,766.9 		"/>
		<rect x="1357.8" y="633" class="st25" width="162.7" height="14.8"/>
		<ellipse class="st40" cx="1395.7" cy="592.3" rx="15.4" ry="15.2"/>
		<ellipse class="st45" cx="1395.2" cy="592.7" rx="13.2" ry="13.1"/>
		<path class="st46" d="M1309.1,655.5l44.8-47.7c0,0,20.4-15.7,57.9-15.2c0,0,53.9-1.7,63.5,18.5l-0.6,10.1l-109.5,7.8l-50.6,34.8
			C1314.8,663.9,1305.7,665,1309.1,655.5z"/>
		<path class="st27" d="M1309.1,657.7l46.5-47.1c0,0,4.7,2.1,6.1,4.5c1.5,2.9,3.6,14,3.6,14l-50.6,34.8
			C1314.8,663.9,1305.7,667.2,1309.1,657.7z"/>
		<path class="st34" d="M1354.1,611.2c0.7-0.7,1.4-1.3,2.2-1.8c2.5-2,7.7-5.3,16.8-8.6c13.8-5,52.5-9.1,80.2-0.8
			c1.2,0.3,12.9,3.3,19,11.3c1.5,1.8,0,11.9,0,11.9l-117,0.6L1354.1,611.2z"/>
		<path class="st47" d="M1310.4,662.5l42.6-43.8l7.3-6.2c0,0,45.4-26.1,104.4-0.2v9.9l-111.2,1.8l-39.3,40.7L1310.4,662.5z"/>
		<g>
			<defs>
				<path id="SVGID_7_" d="M1310.5,661.3l42.2-42.3l7.4-6.2c0,0,44.2-26.9,102.4-2.5c1.3,0.6,2.2,1.8,2.3,3.2l-0.2,7.8l-111.2,3
					l-40.9,41.8L1310.5,661.3z"/>
			</defs>
			<clipPath id="SVGID_8_">
				<use xlink:href="#SVGID_7_"  style="overflow:visible;"/>
			</clipPath>
			<g class="st48">
				<path class="st10" d="M1362.5,621.3c0,0,22.8-11.7,43.1-11.3c0,0,22.8-3.9,48.3,8.4s9.7,8.4,9.7,8.4l-111.2,6.2L1362.5,621.3z"
					/>
				<g>
					<defs>
						<path id="SVGID_9_" d="M1362.5,621.3c0,0,22.2-12.3,43.1-11.3c12.2,0.7,22.8-3.9,48.3,8.4s9.7,8.4,9.7,8.4l-111.2,6.2
							L1362.5,621.3z"/>
					</defs>
					<clipPath id="SVGID_10_">
						<use xlink:href="#SVGID_9_"  style="overflow:visible;"/>
					</clipPath>
					<g class="st49">
						<rect x="1387.3" y="605.8" class="st33" width="17.6" height="18.3"/>
					</g>
				</g>
				<g>
					<defs>
						<path id="SVGID_11_" d="M1362.5,621.3c0,0,22.2-12.3,43.1-11.3c12.2,0.7,22.8-3.9,48.3,8.4s9.7,8.4,9.7,8.4l-111.2,6.2
							L1362.5,621.3z"/>
					</defs>
					<clipPath id="SVGID_12_">
						<use xlink:href="#SVGID_11_"  style="overflow:visible;"/>
					</clipPath>
					<g class="st50">
						<rect x="1413.7" y="605.8" class="st33" width="17.6" height="18.3"/>
					</g>
				</g>
				<g>
					<defs>
						<path id="SVGID_13_" d="M1362.5,621.3c0,0,22.2-12.3,43.1-11.3c12.2,0.7,22.8-3.9,48.3,8.4s9.7,8.4,9.7,8.4l-111.2,6.2
							L1362.5,621.3z"/>
					</defs>
					<clipPath id="SVGID_14_">
						<use xlink:href="#SVGID_13_"  style="overflow:visible;"/>
					</clipPath>
					<g class="st51">
						<polyline class="st52" points="1387.3,624 1404.9,624 1404.9,605.8 						"/>
					</g>
				</g>
				<g>
					<defs>
						<path id="SVGID_15_" d="M1362.5,621.3c0,0,22.2-12.3,43.1-11.3c12.2,0.7,22.8-3.9,48.3,8.4s9.7,8.4,9.7,8.4l-111.2,6.2
							L1362.5,621.3z"/>
					</defs>
					<clipPath id="SVGID_16_">
						<use xlink:href="#SVGID_15_"  style="overflow:visible;"/>
					</clipPath>
					<g class="st53">
						<polyline class="st52" points="1413.7,624 1431.3,624 1431.3,605.8 						"/>
					</g>
				</g>
				<g>
					<defs>
						<path id="SVGID_17_" d="M1310.5,661.3l42.2-42.3l7.4-6.2c0,0,44.2-26.9,102.4-2.5c1.3,0.6,2.2,1.8,2.3,3.2l-0.2,7.8l-111.2,3
							l-40.9,41.8L1310.5,661.3z"/>
					</defs>
					<clipPath id="SVGID_18_">
						<use xlink:href="#SVGID_17_"  style="overflow:visible;"/>
					</clipPath>
					<g class="st54">
						<path class="st55" d="M1360.1,609v9c0,0,27.8-14.7,51.7-14.6c15.6,0.1,34,3.3,57.9,13.4l-5.6-11.3l-51.1-8.4L1360.1,609z"/>
					</g>
				</g>
				<g>
					<defs>
						<path id="SVGID_19_" d="M1310.5,661.3l42.2-42.3l7.4-6.2c0,0,44.2-26.9,102.4-2.5c1.3,0.6,2.2,1.8,2.3,3.2l-0.2,7.8l-111.2,3
							l-40.9,41.8L1310.5,661.3z"/>
					</defs>
					<clipPath id="SVGID_20_">
						<use xlink:href="#SVGID_19_"  style="overflow:visible;"/>
					</clipPath>
					<g class="st56">
						<polygon class="st57" points="1354.1,617 1355.3,623.9 1311.4,667.7 1306.4,664.2 						"/>
					</g>
				</g>
			</g>
		</g>
		<g>
			<defs>
				<path id="SVGID_21_" d="M1310.5,661.3l42.2-42.3l7.4-6.2c0,0,44.2-26.9,102.4-2.5c1.3,0.6,2.2,1.8,2.3,3.2l-0.2,7.8l-111.2,3
					l-40.9,41.8L1310.5,661.3z"/>
			</defs>
			<clipPath id="SVGID_22_">
				<use xlink:href="#SVGID_21_"  style="overflow:visible;"/>
			</clipPath>
			<g class="st58">
				<polygon class="st41" points="1281.6,708.5 1276.2,706.5 1356.9,627.8 1358.2,634.7 				"/>
			</g>
		</g>
		<g>
			<defs>
				<path id="SVGID_23_" d="M1310.5,661.3l42.2-42.3l7.4-6.2c0,0,44.2-26.9,102.4-2.5c1.3,0.6,2.2,1.8,2.3,3.2l-0.2,7.8l-111.2,3
					l-40.9,41.8L1310.5,661.3z"/>
			</defs>
			<clipPath id="SVGID_24_">
				<use xlink:href="#SVGID_23_"  style="overflow:visible;"/>
			</clipPath>
			<g class="st59">
				<polygon class="st15" points="1526.1,628.4 1522.3,634.5 1357.8,635.4 1356.9,628.4 				"/>
			</g>
		</g>
		<g>
			<defs>
				<path id="SVGID_25_" d="M1310.5,661.3l42.2-42.3l7.4-6.2c0,0,44.2-26.9,102.4-2.5c1.3,0.6,2.2,1.8,2.3,3.2l-0.2,7.8l-111.2,3
					l-40.9,41.8L1310.5,661.3z"/>
			</defs>
			<clipPath id="SVGID_26_">
				<use xlink:href="#SVGID_25_"  style="overflow:visible;"/>
			</clipPath>
			<g class="st60">
				<circle class="st40" cx="1522.4" cy="616.6" r="4.8"/>
			</g>
		</g>
		<g>
			<defs>
				<path id="SVGID_27_" d="M1310.5,661.3l42.2-42.3l7.4-6.2c0,0,44.2-26.9,102.4-2.5c1.3,0.6,2.2,1.8,2.3,3.2l-0.2,7.8l-111.2,3
					l-40.9,41.8L1310.5,661.3z"/>
			</defs>
			<clipPath id="SVGID_28_">
				<use xlink:href="#SVGID_27_"  style="overflow:visible;"/>
			</clipPath>
			<g class="st61">
				<polygon class="st10" points="1353.9,622.6 1275.3,700.2 1276.2,706.5 1356.9,627.8 				"/>
			</g>
		</g>
		<polygon class="st27" points="1291,703.3 1329.2,665.9 1328.1,743.2 1290.4,764 		"/>
		<polygon class="st38" points="1292.4,704.8 1298.8,698.7 1299.4,754.2 1292.6,758.1 		"/>
		<polygon class="st38" points="1300.4,695.6 1306.8,689.4 1307.1,751.1 1300.6,754.9 		"/>
		<polygon class="st38" points="1309.5,687.5 1314.9,681.8 1316.3,745.4 1308.5,750.1 		"/>
		<polygon class="st38" points="1316.8,678.7 1322.6,672.1 1323.5,741.3 1316.4,745.8 		"/>
		<polygon class="st16" points="1354.8,642.1 1356.2,767.9 1329.2,779.6 1329.7,665.3 		"/>
		<polygon class="st47" points="1290.7,764.6 1289.2,796.5 1329.2,779.7 1328.7,743.5 		"/>
		<polygon class="st38" points="1293.4,767.3 1293.8,783.3 1294,793.7 1326.1,779.7 1325.3,749.2 		"/>
		<polygon class="st29" points="1354.8,653.6 1356.2,768.7 1339.7,775.8 1340.3,668.6 		"/>
		<polygon class="st32" points="1293.4,767.3 1293.8,783.3 1294,793.7 1325.3,749.2 		"/>
		<polygon class="st32" points="1293.9,704.6 1297.8,700.8 1294,756.9 		"/>
		<polygon class="st32" points="1301.5,696.5 1305.4,692.9 1301.9,752 		"/>
		<polygon class="st32" points="1310.7,688 1313.5,684.9 1309.9,747.9 		"/>
		<polygon class="st32" points="1318,680.3 1321,676.8 1317.8,741.8 		"/>
		<circle class="st40" cx="1357" cy="616.6" r="4.9"/>
		<circle class="st45" cx="1358.2" cy="616.2" r="2.6"/>
		<circle class="st62" cx="1359.6" cy="615.8" r="1.3"/>
		<circle class="st40" cx="1522.7" cy="616.4" r="4.9"/>
		<circle class="st45" cx="1523.8" cy="616.2" r="2.6"/>
		<circle class="st62" cx="1525.1" cy="615.8" r="1.3"/>
		<rect x="1655.8" y="805.8" class="st11" width="12.3" height="42.6"/>
		<rect x="1662" y="805.8" class="st19" width="6.2" height="42.6"/>
		<path class="st20" d="M1630.3,780.6c0,0-40.8-2.6-31-44.2c0,0,7.6-23.2,30.6-24.1c0,0,7.1-24.1,32.4-20.1c0,0,14.1,0,22.6,14.5
			c0,0,46.1-4.4,42.5,36.8c0,0-1.7,29.8-35.8,30.7c0,0,0.5,31-29.5,32C1662,806,1633.4,805.6,1630.3,780.6z"/>
		<path class="st21" d="M1629.8,712.4c-23.1,0.9-30.6,24.1-30.6,24.1c-9.8,41.6,31,44.2,31,44.2c2.9,22.8,26.8,25.2,31,25.4V692.3
			C1636.7,688.8,1629.8,712.4,1629.8,712.4z"/>
		<polygon class="st42" points="1524.8,627.7 1521,633 1356.5,633 1355.9,627.7 		"/>
		<polygon class="st46" points="1355.9,627.7 1279.9,700.8 1279,695.5 1354.5,621.6 		"/>
		<polygon class="st41" points="1279.9,700.8 1284.5,702.9 1356.5,633 1355.9,627.7 		"/>
		<path class="st23" d="M1355.7,621.5h170.4c1.6,0,3,1.3,3,3v0.2c0,1.6-1.3,3-3,3h-170.4c-1.6,0-3-1.3-3-3v-0.2
			C1352.7,622.8,1354.1,621.5,1355.7,621.5z"/>
		<path class="st63" d="M-79.3,899.2c0,0-20.9,2.7,52.3-18.9S117,945.1,117,945.1l-259,67.4L-79.3,899.2z"/>
		<path class="st64" d="M-102.8,1007.1c0,0,238-142.9,293-134.8S404.8,964,404.8,964L93.4,1098.7l-206.7,5.4L-102.8,1007.1z"/>
		<rect x="127.2" y="928.9" class="st65" width="6.3" height="21.9"/>
		<rect x="130.2" y="928.9" class="st66" width="3.3" height="21.9"/>
		<path class="st67" d="M114,915.8c0,0-20.8-1.4-15.8-22.9c0,0,3.9-12,15.6-12.4c0,0,3.6-12.4,16.5-10.4c4.9,0.3,9.2,3.2,11.5,7.5
			c0,0,23.5-2.3,21.7,19c0,0-0.9,15.4-18.3,15.8c0,0,0.2,16.1-15,16.5C130.3,928.9,115.7,928.7,114,915.8"/>
		<path class="st64" d="M113.8,880.5c-11.8,0.4-15.6,12.4-15.6,12.4c-5,21.5,15.8,22.8,15.8,22.8c1.4,11.7,13.6,13,15.8,13.1V870
			C117.4,868.4,113.8,880.5,113.8,880.5"/>
		<rect x="206" y="889" class="st65" width="5.8" height="19.9"/>
		<rect x="208.8" y="889" class="st66" width="3" height="19.9"/>
		<path class="st67" d="M194.1,877.1c0,0-18.9-1.2-14.4-20.8c0,0,3.5-10.9,14.2-11.3c0,0,3.3-11.3,15-9.5c4.4,0.3,8.4,2.9,10.5,6.8
			c0,0,21.4-2.1,19.8,17.3c0,0-0.8,14-16.7,14.4c0,0,0.2,14.6-13.7,15C208.8,889,195.5,888.8,194.1,877.1"/>
		<path class="st64" d="M193.9,845c-10.7,0.4-14.2,11.3-14.2,11.3c-4.5,19.5,14.4,20.8,14.4,20.8c1.3,10.7,12.4,11.8,14.4,11.9
			v-53.5C197.1,834,193.9,845,193.9,845"/>
		<rect x="13.3" y="909" class="st65" width="5.1" height="17.6"/>
		<rect x="15.7" y="909" class="st66" width="2.6" height="17.6"/>
		<path class="st67" d="M2.7,898.5c0,0-16.7-1.1-12.7-18.3c0,0,3.1-9.6,12.5-10c0,0,2.9-10,13.3-8.3c3.9,0.3,7.4,2.5,9.3,6
			c0,0,18.9-1.8,17.4,15.3c0,0-0.7,12.3-14.7,12.7c0,0,0.2,12.9-12.1,13.3C15.7,909,4,908.8,2.7,898.5"/>
		<path class="st64" d="M2.6,870.1c-9.4,0.4-12.5,10-12.5,10c-4,17.3,12.7,18.3,12.7,18.3c1.1,9.4,11,10.4,12.7,10.5v-47.3
			C5.4,860.4,2.5,870.1,2.6,870.1"/>
		<path class="st13" d="M1196.1,154.1c4-9.5,15.2-16.4,28.5-16.4c4.5,0,9,0.8,13.2,2.4c8-14.2,25.9-24.1,46.6-24.1
			c4.9,0,9.7,0.6,14.4,1.7c10.2-16,30.9-27,54.9-27c27.1,0,50.1,14,58.3,33.5c9.3-5.4,19.9-8.2,30.7-8.2c23.6,0,43.4,12.8,49.3,30.1
			c5.4-4,11.9-6.1,18.5-6c11.5,0,21.2,5.7,25.1,13.8L1196.1,154.1z"/>
		<path class="st13" d="M1288.3,521.2L1288.3,521.2c0-0.1,0-0.2,0-0.2c-0.3-16.2-16.2-29.2-35.7-29.2c-7.8-0.1-15.4,2.1-22,6.3
			c-3.4-21.4-21.1-37.6-42.4-37.6c-22.5,0-40.9,18.1-42.8,41.1c-0.1,0.4-0.3,0.8-0.4,1.2c-12-8.7-28.7-6-37.4,6
			c-2.8,3.8-4.5,8.3-5,13h168.3c0-0.1,4.4-0.2,8.9-0.3h8.6V521.2z"/>
	</g>
</g>
</svg>
