<?xml version="1.0" encoding="utf-8"?>
<!-- Generator: Adobe Illustrator 23.0.2, SVG Export Plug-In . SVG Version: 6.00 Build 0)  -->
<svg version="1.1" id="Layer_1" xmlns="http://www.w3.org/2000/svg" xmlns:xlink="http://www.w3.org/1999/xlink" x="0px" y="0px"
	 viewBox="0 0 1671.6 952.8" style="enable-background:new 0 0 1671.6 952.8;" xml:space="preserve">
<style type="text/css">
	.st0{clip-path:url(#SVGID_2_);}
	.st1{fill:#EEEFEF;}
	.st2{fill:#7B9CA2;}
	.st3{fill:none;}
	.st4{fill-rule:evenodd;clip-rule:evenodd;fill:#FFFFFF;}
	.st5{fill:#CBCECD;}
	.st6{fill:none;stroke:#CBCECD;stroke-width:1.7;stroke-miterlimit:10;}
	.st7{opacity:0.2;fill:#4E5052;enable-background:new    ;}
	.st8{fill:#265E72;}
	.st9{fill:#478B91;}
	.st10{fill:#AB5326;}
	.st11{fill:#8A341E;}
	.st12{fill:#D8C6B2;}
	.st13{fill:#FFFFFF;}
	.st14{fill:#929598;}
	.st15{fill:#65676A;}
	.st16{fill:#343535;}
	.st17{fill:#1D703A;}
	.st18{fill:#014F35;}
	.st19{fill:#5D0101;}
	.st20{fill:#3A9044;}
	.st21{fill:#6BAD6B;}
	.st22{opacity:0.3;fill:#4E5052;enable-background:new    ;}
	.st23{fill:#F19020;}
	.st24{clip-path:url(#SVGID_4_);}
	.st25{opacity:0.5;fill:#7E7F80;enable-background:new    ;}
	.st26{clip-path:url(#SVGID_6_);}
	.st27{fill:#B82025;}
	.st28{fill:#801113;}
	.st29{fill:#1A1A1A;}
	.st30{opacity:0.6;fill:#4E5052;enable-background:new    ;}
	.st31{opacity:0.8;fill:#7E7F80;enable-background:new    ;}
	.st32{fill:#409AAE;}
	.st33{fill:#00758F;}
	.st34{fill:#D81F26;}
	.st35{fill:#00758F;stroke:#901A1D;stroke-width:2.26;stroke-miterlimit:10;}
	.st36{fill:#409AAE;stroke:#901A1D;stroke-width:2.26;stroke-miterlimit:10;}
	.st37{fill:#EC1C24;}
	.st38{fill:#00758F;stroke:#EC1E24;stroke-width:2.26;stroke-miterlimit:10;}
	.st39{fill:#409AAE;stroke:#EC1E24;stroke-width:2.26;stroke-miterlimit:10;}
	.st40{fill:#F6B159;}
	.st41{fill:#4E5052;}
	.st42{fill:#7E7F80;}
	.st43{fill:#A6A9AB;}
	.st44{fill:#E8E9E8;}
	.st45{fill:#FDD29D;}
	.st46{fill:#CD7328;}
	.st47{fill:#9A1B1F;}
	.st48{clip-path:url(#SVGID_8_);}
	.st49{clip-path:url(#SVGID_10_);}
	.st50{clip-path:url(#SVGID_12_);}
	.st51{clip-path:url(#SVGID_14_);}
	.st52{fill:#03596F;}
	.st53{clip-path:url(#SVGID_16_);}
	.st54{clip-path:url(#SVGID_18_);}
	.st55{fill:#592439;}
	.st56{clip-path:url(#SVGID_20_);}
	.st57{fill:#78253F;}
	.st58{clip-path:url(#SVGID_22_);}
	.st59{clip-path:url(#SVGID_24_);}
	.st60{clip-path:url(#SVGID_26_);}
	.st61{clip-path:url(#SVGID_28_);}
	.st62{fill:#F9FCFF;}
	.st63{fill:#0E321F;}
	.st64{fill:#1E5623;}
	.st65{fill:#77180B;}
	.st66{fill:#3F0005;}
	.st67{fill:#143825;}
</style>
<title>resources-footer-bg</title>
<g>
	<g>
		<defs>
			<rect id="SVGID_1_" x="-7.9" y="-597.2" width="1679.4" height="1550.1"/>
		</defs>
		<clipPath id="SVGID_2_">
			<use xlink:href="#SVGID_1_"  style="overflow:visible;"/>
		</clipPath>
		<g class="st0">
			<rect x="-12.5" y="-938.3" class="st1" width="1685.8" height="1866"/>
			<rect x="1402.6" y="645.1" class="st2" width="40.9" height="261.8"/>
			<rect x="993.8" y="278.8" class="st3" width="691.3" height="734.6"/>
			<path class="st4" d="M75.6,538.3c10-31.1,33.8-30.4,44.5-5.5c0.9-35.9,41.2-65.9,70-31.8c35.7-85.6,115.2-38.9,111.2-5.5
				c26.7-24,64.2,1,52.3,34c12.4-19.7,43.9-14.8,46.7,9.9L75.6,538.3z"/>
			<path class="st5" d="M1655.1,495.5V339.3h-18.4v-10.8l-67.6-1.2v9.4l-16.1-0.5l-3.8,245.9l-13.6,1.2L1520,451.7v-82.3l-10.5-3.5
				l-9.2-65.5l-7.2,64.8l-10.6,4.2l0.7,83.8l-9.9,115h-4v-4.5h-13.8v6.1h-4.6V425.7h-18.4v-6.1h-20.2l-3.3-30.3h-2.6v36.4h-7.6
				v-34.9h-2.3l-4,28.8h-21.3v6.1h-19.7l2.6,88.5l-3.3,179.9h-210.1v21.2h-12.3v6.1h-10.7v12.1h-9.2V726h-4.6v9.1h-10.8v-4.6h-6.1
				v6.1h-18.4v-18.2h-25.8c1,0.9-20.3-1.2-20.3-1.2v79.1l-2.3-6.2h-24.7l-1.7,9v15.5H988v21.2h-37.9v-77.4h-28V725h-33.8
				c0-0.3,0.2,18.6,0.4,44.8h-85.8v-76.3H771v62.3h-5.8v7.1h-38v87.4H704v-23.2h-13.7v-13.3h-20.8V682.1h-41v15.3H623v94.4h-33.9
				v23.7h-17.9v27.6h-9.4V726.5h-0.5v-0.7h-12.2v-20.5h-89.8v20.5h-19.2v178.7h-8V904h0.4v-51h-24.2v51h0.9v0.4h-35.7v0.3h-0.8v54.4
				h649.9v21.8l670.9,32.6v-518H1655.1z"/>
			<line class="st6" x1="-216.7" y1="760.4" x2="-216.7" y2="828.4"/>
			<path class="st6" d="M340.3,640.1c0,0,7.6,131.1-152,146c0,0-131,17.4-159.6-146"/>
			<path class="st6" d="M26.2,640.1c0,0,7.6,131.1-152,146c0,0-131,17.4-159.6-146"/>
			<path class="st6" d="M814.8,786.1c0,0-131,17.4-159.6-146"/>
			<path class="st6" d="M652.7,640.1c0,0,7.6,131.1-152,146c0,0-131,17.4-159.6-146"/>
			<line class="st6" x1="-194.4" y1="774.5" x2="-194.4" y2="828.4"/>
			<line class="st6" x1="-172" y1="782.8" x2="-172" y2="829.3"/>
			<line class="st6" x1="-149.7" y1="786.1" x2="-149.7" y2="827.6"/>
			<line class="st6" x1="-127.4" y1="786.1" x2="-127.4" y2="826.8"/>
			<line class="st6" x1="-105" y1="782.8" x2="-105" y2="825.1"/>
			<line class="st6" x1="-82.7" y1="778.7" x2="-82.7" y2="830.1"/>
			<line class="st6" x1="-15.3" y1="742.2" x2="-15.8" y2="828.4"/>
			<line class="st6" x1="-38.1" y1="762.1" x2="-38.1" y2="828.4"/>
			<line class="st6" x1="-60.4" y1="773.7" x2="-60.4" y2="830.9"/>
			<line class="st6" x1="6.9" y1="710.6" x2="6.9" y2="825.1"/>
			<line class="st6" x1="51.4" y1="709" x2="51.4" y2="827.6"/>
			<line class="st6" x1="73.7" y1="743" x2="73.7" y2="826.8"/>
			<line class="st6" x1="96" y1="760.4" x2="96" y2="828.4"/>
			<line class="st6" x1="118.3" y1="774.5" x2="118.3" y2="828.4"/>
			<line class="st6" x1="140.7" y1="782.8" x2="140.7" y2="829.3"/>
			<line class="st6" x1="163" y1="786.1" x2="163" y2="827.6"/>
			<line class="st6" x1="185.3" y1="786.1" x2="185.3" y2="826.8"/>
			<line class="st6" x1="207.7" y1="782.8" x2="207.7" y2="825.1"/>
			<line class="st6" x1="230" y1="778.7" x2="230" y2="830.1"/>
			<line class="st6" x1="319.3" y1="716.4" x2="319.3" y2="830.1"/>
			<line class="st6" x1="297.4" y1="742.2" x2="297" y2="828.4"/>
			<line class="st6" x1="274.6" y1="762.1" x2="274.6" y2="828.4"/>
			<line class="st6" x1="252.3" y1="773.7" x2="252.3" y2="830.9"/>
			<line class="st6" x1="363.8" y1="709" x2="363.8" y2="827.6"/>
			<line class="st6" x1="386.1" y1="743" x2="386.1" y2="826.8"/>
			<line class="st6" x1="408.4" y1="760.4" x2="408.4" y2="828.4"/>
			<line class="st6" x1="430.8" y1="774.5" x2="430.8" y2="828.4"/>
			<line class="st6" x1="453.1" y1="782.8" x2="453.1" y2="829.3"/>
			<line class="st6" x1="475.4" y1="786.1" x2="475.4" y2="827.6"/>
			<line class="st6" x1="497.8" y1="786.1" x2="497.8" y2="826.8"/>
			<line class="st6" x1="520.1" y1="782.8" x2="520.1" y2="825.1"/>
			<line class="st6" x1="542.4" y1="778.7" x2="542.4" y2="830.1"/>
			<line class="st6" x1="631.7" y1="716.4" x2="631.7" y2="830.1"/>
			<line class="st6" x1="609.9" y1="743" x2="609.4" y2="828.4"/>
			<line class="st6" x1="587.1" y1="762.1" x2="587.1" y2="828.4"/>
			<line class="st6" x1="564.7" y1="773.7" x2="564.7" y2="830.9"/>
			<line class="st6" x1="676.2" y1="709" x2="676.2" y2="827.6"/>
			<line class="st6" x1="698.6" y1="743" x2="698.6" y2="826.8"/>
			<line class="st6" x1="720.9" y1="760.4" x2="720.9" y2="828.4"/>
			<line class="st6" x1="743.2" y1="774.5" x2="743.2" y2="828.4"/>
			<line class="st6" x1="765.5" y1="782.8" x2="765.5" y2="829.3"/>
			<line class="st6" x1="787.9" y1="786.1" x2="787.9" y2="827.6"/>
			<line class="st6" x1="810.2" y1="786.1" x2="810.2" y2="826.8"/>
			<polygon class="st5" points="805.2,820.6 659.4,820.6 659.4,639.3 646.8,639.3 646.8,820.6 347,820.6 347,639.3 334.4,639.3 
				334.4,820.6 35.4,820.6 35.4,639.3 22.8,639.3 22.8,820.6 -213.2,820.6 -213.2,834.6 22.8,834.6 22.8,930.3 35.4,930.3 
				35.4,834.6 202.7,834.6 202.7,840.1 196.6,840.1 196.6,843.7 196.6,852.7 206.2,852.7 216.1,852.7 216.1,843.7 216.1,840.1 
				210,840.1 210,834.6 334.4,834.6 334.4,930.3 347,930.3 347,834.6 646.8,834.6 646.8,930.3 659.4,930.3 659.4,834.6 805.2,834.6 
							"/>
			<path class="st7" d="M1636.3,563.6h-59.8v139.8h-45.2v-96.6h-40.9v96.6h-35v20.2h-10.2v7.2H1435v11.5h-8.8v-7.2h-5.8v8.7h-10.2
				v-4.3h-5.8v5.8h-16.1V728h-26.9c1,0.9-19.8-1.2-19.8-1.2v161.1h299.2V703.4h-4.4L1636.3,563.6z"/>
			<rect x="-279.5" y="847.6" class="st8" width="1952.8" height="117.6"/>
			<rect x="-279.5" y="847.6" class="st9" width="1952.8" height="9.3"/>
			<polygon class="st10" points="1545.4,755.4 1570.5,783.9 1599.3,783.2 1574,755.4 			"/>
			<polygon class="st11" points="1571.4,811.1 1570.7,784 1596.7,783.6 1597.4,825.2 1571.1,818.9 			"/>
			<polygon class="st12" points="1545.2,755.4 1519.6,784.2 1520.4,810.1 1571.2,819 1570.8,784.2 			"/>
			<polygon class="st13" points="1527.3,785.6 1545.6,765 1563.7,785.8 			"/>
			<polygon class="st14" points="1530.8,785.7 1547.7,767.3 1545.6,764.9 1526.7,785.8 			"/>
			<rect x="1551" y="791" class="st15" width="14.9" height="26.1"/>
			<rect x="1535.1" y="791" class="st15" width="6.2" height="20.9"/>
			<polygon class="st15" points="1540.4,785.6 1540.4,773.6 1550.8,773.6 1551.3,785.8 			"/>
			<polygon class="st16" points="1543,785.6 1543,777.1 1550.5,777.1 1550.7,785.8 			"/>
			<path class="st17" d="M1540.4,827.2c0,0,43.6-43.1,92.5-43.1s59.2,8.7,74,17c15.6,8.7,54.2,47,54.2,47l-54.2-1.3L1540.4,827.2z"
				/>
			<path class="st18" d="M917.8,935c0,0,185.9-174.4,304.7-145.6c19.2,4.6,95.8,21.8,95.8,21.8l-68.4,23.8l-115,18.6L917.8,935z"/>
			<rect x="1196.1" y="773.6" class="st11" width="18.5" height="62.6"/>
			<rect x="1204.9" y="773.6" class="st19" width="9.7" height="62.6"/>
			<path class="st20" d="M1157.9,736.4c0,0-60.3-3.9-45.8-65.4c0,0,11.2-34.4,45.3-35.6c0,0,10.5-35.6,47.8-29.8c0,0,21,0,33.4,21.4
				c0,0,68.1-6.4,63,54.3c0,0-2.6,44-53.1,45.3c0,0,0.7,46-43.5,47.2C1204.7,774,1162.5,773.3,1157.9,736.4z"/>
			<path class="st21" d="M1157.5,635.4c-34.1,1.3-45.3,35.6-45.3,35.6c-14.5,61.5,45.8,65.4,45.8,65.4c4.1,33.6,39.5,37.1,45.8,37.4
				V605.5C1167.7,600.7,1157.5,635.4,1157.5,635.4z"/>
			<rect x="1592.3" y="777.9" class="st11" width="7.9" height="27.8"/>
			<rect x="1595.9" y="777.9" class="st19" width="4.4" height="27.8"/>
			<path class="st18" d="M1575.1,761.1c0,0-26.5-1.7-20.2-28.8c0,0,4.9-15.2,20-15.7c0,0,4.6-15.7,21.1-13.1
				c6.2,0.4,11.7,4,14.7,9.4c0,0,30.1-2.9,27.7,24c0,0-1.2,19.4-23.4,20c0,0,0.3,20.2-19.2,20.8
				C1595.7,777.7,1577.2,777.4,1575.1,761.1z"/>
			<path class="st20" d="M1574.4,716.6c-15.1,0.6-20,15.7-20,15.7c-6.3,27.1,20.2,28.8,20.2,28.8c1.8,14.8,17.5,16.3,20.2,16.6
				v-74.2C1579,701.4,1574.4,716.6,1574.4,716.6z"/>
			<path class="st20" d="M803.4,958.9c0,0,442.8-150.1,495.5-151.2s170.3-6.6,170.3-6.6s216.9,24.8,235.1,30s25,75.6,25,75.6
				l17.1,82.2l-580.4,14.9L803.4,958.9z"/>
			<path class="st5" d="M1275.1,808.3c-8.2-6.8,213.6-3.9,213.6-3.9s185.2,36.1,263.1,186.1l-109.6,3.9l-327.5,3.9
				C1314.6,998.4,1331.8,855.4,1275.1,808.3z"/>
			<path class="st22" d="M1381.8,810.1c0,0,64.2,78,57.9,190.8l18.5-1.2C1458.1,999.7,1459.8,881.9,1381.8,810.1z"/>
			<path class="st22" d="M1409.5,808.3c0,0,21.7,10.2,48.6,39.8c32.3,35.5,43.9,90.1,44.8,147.5l18.5-1.2
				C1521.3,994.6,1523.3,854.5,1409.5,808.3z"/>
			<path class="st22" d="M1430.1,801.4c0,0,52.5,14,79.4,43.6c32.3,35.5,57,88,57.9,145.5l18.5-1.2
				C1585.9,989.4,1576.3,835.8,1430.1,801.4z"/>
			<path class="st22" d="M1129.5,852.5c0,0,143.7-36.7,281.6-32.6c123.4,3.6,245.7-1.6,293.1,11.1c0,0-133.6-14.1-249.6-30
				C1307.2,780.9,1249.9,820.6,1129.5,852.5z"/>
			<path class="st23" d="M1518.5,650.1h-44.6c-1.8,0-3.2,1.4-3.2,3.2v117.9c0,1.8,1.5,3.2,3.2,3.2h44.6c1.8,0,3.2-1.4,3.2-3.2V653.3
				c0.1-1.7-1.2-3.1-2.9-3.2C1518.7,650.1,1518.6,650.1,1518.5,650.1z M1510.7,767.5h-29.5c-1.8,0-3.2-1.4-3.2-3.2l0,0V659.4
				c0-1.8,1.5-3.2,3.2-3.2h29.5c1.8,0,3.2,1.4,3.2,3.2v104.9C1513.9,766.1,1512.5,767.5,1510.7,767.5z"/>
			<g>
				<g>
					<defs>
						<path id="SVGID_3_" d="M1518.5,650.1h-44.6c-1.8,0-3.2,1.4-3.2,3.2v117.9c0,1.8,1.5,3.2,3.2,3.2h44.6c1.8,0,3.2-1.4,3.2-3.2
							V653.3c0.1-1.7-1.2-3.1-2.9-3.2C1518.7,650.1,1518.6,650.1,1518.5,650.1z M1510.7,767.5h-29.5c-1.8,0-3.2-1.4-3.2-3.2l0,0
							V659.4c0-1.8,1.5-3.2,3.2-3.2h29.5c1.8,0,3.2,1.4,3.2,3.2v104.9C1513.9,766.1,1512.5,767.5,1510.7,767.5z"/>
					</defs>
					<clipPath id="SVGID_4_">
						<use xlink:href="#SVGID_3_"  style="overflow:visible;"/>
					</clipPath>
					<g class="st24">
						<rect x="1519.2" y="645.7" class="st25" width="7.9" height="129.6"/>
					</g>
				</g>
			</g>
			<g>
				<g>
					<defs>
						<path id="SVGID_5_" d="M1518.5,650.1h-44.6c-1.8,0-3.2,1.4-3.2,3.2v117.9c0,1.8,1.5,3.2,3.2,3.2h44.6c1.8,0,3.2-1.4,3.2-3.2
							V653.3c0.1-1.7-1.2-3.1-2.9-3.2C1518.7,650.1,1518.6,650.1,1518.5,650.1z M1510.7,767.5h-29.5c-1.8,0-3.2-1.4-3.2-3.2l0,0
							V659.4c0-1.8,1.5-3.2,3.2-3.2h29.5c1.8,0,3.2,1.4,3.2,3.2v104.9C1513.9,766.1,1512.5,767.5,1510.7,767.5z"/>
					</defs>
					<clipPath id="SVGID_6_">
						<use xlink:href="#SVGID_5_"  style="overflow:visible;"/>
					</clipPath>
					<g class="st26">
						<rect x="1467.3" y="653.6" class="st25" width="47.6" height="116.5"/>
					</g>
				</g>
			</g>
			<path class="st27" d="M1344.7,779.6l-68.9,29c0,0-11.2-0.7-5.1-10l77-31.7L1344.7,779.6z"/>
			<polygon class="st28" points="1298.9,806.8 1343.1,788.2 1343.5,794.4 1474.4,792.2 1508.1,778.8 1344.7,779.5 1278.8,806.5 
				1290.6,806.7 			"/>
			<polygon class="st29" points="1473.3,788.8 1474.4,792.9 1465.3,807.5 1297,807.5 1348.4,785.1 			"/>
			<path class="st15" d="M1479.7,811.9h-111.2c-5.8,0-10.4-4.7-10.5-10.5v-7c0-5.8,4.7-10.4,10.5-10.4h111.2
				c5.8,0,10.4,4.7,10.5,10.4v7C1490.2,807.2,1485.5,811.9,1479.7,811.9z"/>
			<path class="st30" d="M1377,796.3c-1.4-4.7,0.6-9.6,4.7-12.2h-9.5c-7.7-0.6-14.5,5.1-15.1,12.8s5.1,14.5,12.8,15.1
				c0.7,0.1,1.4,0.1,2.1,0h104.2c5.3,0,10.2-3,12.5-7.8h-100.9C1382.7,804,1378.3,800.9,1377,796.3z"/>
			<ellipse class="st16" cx="1425.9" cy="797.9" rx="6.2" ry="6.1"/>
			<path class="st31" d="M1489.6,794.3c-1.7-6.2-7.4-10.4-13.8-10.3h-6.2c7.7,0,13.9,6.2,13.9,13.9s-6.2,13.9-13.9,13.9l0,0h6.3
				c7.7,0.2,14-5.9,14.2-13.6C1490.1,796.9,1489.9,795.6,1489.6,794.3z"/>
			<path class="st32" d="M1403.9,638v56.4l44.2,0.8l-1.5-55.4C1446.6,639.9,1434.2,629.1,1403.9,638z"/>
			<path class="st33" d="M1446.6,639.7c0,0-12.5-10.8-42.7-1.8v56.5"/>
			<polygon class="st34" points="1344.9,634.5 1344.2,779.7 1507.8,778.9 1507.4,632.6 1345,631.6 			"/>
			<polygon class="st23" points="1345,702.3 1508.7,702.6 1507.9,632.6 1345.7,631.6 			"/>
			<path class="st35" d="M1353.2,637.6V694l44.2,0.8l-1.5-55.3C1396.1,639.4,1383.5,628.6,1353.2,637.6z"/>
			<path class="st36" d="M1396.1,639.7c0,0-12.5-10.8-42.7-1.8v56.5"/>
			<path class="st35" d="M1403.4,637.6V694l44.2,0.8l-1.5-55.3C1446.2,639.4,1433.7,628.6,1403.4,637.6z"/>
			<path class="st36" d="M1446.2,639.7c0,0-12.5-10.8-42.7-1.8v56.5"/>
			<path class="st35" d="M1455.4,637.6V694l44.2,0.8l-1.5-55.3C1498.2,639.4,1485.7,628.6,1455.4,637.6z"/>
			<path class="st36" d="M1498.2,639.7c0,0-12.5-10.8-42.7-1.8v56.5"/>
			<rect x="1351.9" y="705.7" class="st27" width="45.7" height="60"/>
			<rect x="1403" y="705.7" class="st34" width="44.9" height="60"/>
			<rect x="1452.4" y="705.7" class="st37" width="48.4" height="60"/>
			<rect x="1353.7" y="768.3" class="st27" width="88.9" height="7"/>
			<rect x="1446.2" y="768.3" class="st27" width="55.5" height="5.2"/>
			<path class="st38" d="M1353.2,637.6V694l44.2,0.8l-1.5-55.3C1396.1,639.4,1383.5,628.6,1353.2,637.6z"/>
			<path class="st39" d="M1396.1,639.7c0,0-12.5-10.8-42.7-1.8v56.5"/>
			<path class="st38" d="M1403.4,637.6V694l44.2,0.8l-1.5-55.3C1446.2,639.4,1433.7,628.6,1403.4,637.6z"/>
			<path class="st39" d="M1446.2,639.7c0,0-12.5-10.8-42.7-1.8v56.5"/>
			<path class="st38" d="M1455.4,637.6V694l44.2,0.8l-1.5-55.3C1498.2,639.4,1485.7,628.6,1455.4,637.6z"/>
			<path class="st39" d="M1498.2,639.7c0,0-12.5-10.8-42.7-1.8v56.5"/>
			<path class="st10" d="M1380.2,725.6c-2.5,8.8,8.6,11.4,14.6,12.1c2.1,0.2,3.7,1.9,3.9,4l0,0c0,0-2.4,0.2-5.6,0.2
				c-5.9-0.1-14.3-1.2-15.7-6.6C1377.3,735.3,1380.9,723.2,1380.2,725.6z"/>
			<path class="st23" d="M1377.9,737.3c0,0,1.2-20.2,47.1-17.9c0,0,13.6-9.2-0.6-9c0,0-27-2.4-41.9,9.7
				C1377.2,724.4,1375,731.2,1377.9,737.3L1377.9,737.3z"/>
			<path class="st40" d="M1396.6,738.4c0,0,5.5,3.2,0.8,9.9c-6.7,9.2-40.7,8.4-40.7,8.4l0.3-6.9c0,0,43.6,0.8,39.2-6
				c-2.8-4.3-5-2-5-2L1396.6,738.4z"/>
			<path class="st10" d="M1469,725.6c2.5,8.8-8.6,11.4-14.6,12.1c-2.1,0.2-3.7,1.9-3.9,4l0,0c0,0,2.4,0.2,5.6,0.2
				c5.9-0.1,14.3-1.2,15.7-6.6C1471.8,735.3,1468.3,723.2,1469,725.6z"/>
			<path class="st23" d="M1471.3,737.3c0,0-1.2-20.2-47.1-17.9c0,0-13.6-9.2,0.6-9c0,0,27-2.4,41.9,9.7
				C1471.9,724.4,1474.1,731.2,1471.3,737.3L1471.3,737.3z"/>
			<path class="st40" d="M1452.5,738.4c0,0-5.5,3.2-0.8,9.9c6.7,9.2,40.7,8.4,40.7,8.4l-0.3-6.9c0,0-43.6,0.8-39.2-6
				c2.8-4.3,5.1-2,5.1-2L1452.5,738.4z"/>
			<ellipse class="st23" cx="1424.6" cy="743.5" rx="19.8" ry="19.5"/>
			<ellipse class="st40" cx="1424.6" cy="743.5" rx="16.3" ry="16.1"/>
			<ellipse class="st41" cx="1425" cy="743.2" rx="14.1" ry="13.9"/>
			<ellipse class="st42" cx="1425" cy="743.2" rx="12.3" ry="12.2"/>
			<ellipse class="st14" cx="1424.6" cy="743.5" rx="10.1" ry="10"/>
			<ellipse class="st43" cx="1424.6" cy="743.5" rx="8.4" ry="8.3"/>
			<ellipse class="st44" cx="1425" cy="743.2" rx="6.2" ry="6.1"/>
			<polygon class="st27" points="1344.9,631 1271.8,703.3 1271.4,798.7 1347.5,766.9 			"/>
			<rect x="1345.3" y="633" class="st25" width="162.7" height="14.8"/>
			<ellipse class="st40" cx="1383.2" cy="592.3" rx="15.4" ry="15.2"/>
			<ellipse class="st45" cx="1382.7" cy="592.7" rx="13.2" ry="13.1"/>
			<path class="st46" d="M1296.6,655.5l44.8-47.7c0,0,20.4-15.7,57.9-15.2c0,0,53.9-1.7,63.5,18.5l-0.6,10.1l-109.5,7.8l-50.6,34.8
				C1302.3,663.9,1293.2,665,1296.6,655.5z"/>
			<path class="st27" d="M1296.6,657.7l46.5-47.1c0,0,4.7,2.1,6.1,4.5c1.5,2.9,3.6,14,3.6,14l-50.6,34.8
				C1302.3,663.9,1293.2,667.2,1296.6,657.7z"/>
			<path class="st34" d="M1341.6,611.2c0.7-0.7,1.4-1.3,2.2-1.8c2.5-2,7.7-5.3,16.8-8.6c13.8-5,52.5-9.1,80.2-0.8
				c1.2,0.3,12.9,3.3,19,11.3c1.5,1.8,0,11.9,0,11.9l-117,0.6L1341.6,611.2z"/>
			<path class="st47" d="M1297.9,662.5l42.6-43.8l7.3-6.2c0,0,45.4-26.1,104.4-0.2v9.9L1341,624l-39.3,40.7L1297.9,662.5z"/>
			<g>
				<g>
					<defs>
						<path id="SVGID_7_" d="M1298,661.3l42.2-42.3l7.4-6.2c0,0,44.2-26.9,102.4-2.5c1.3,0.6,2.2,1.8,2.3,3.2l-0.2,7.8l-111.2,3
							l-40.9,41.8L1298,661.3z"/>
					</defs>
					<clipPath id="SVGID_8_">
						<use xlink:href="#SVGID_7_"  style="overflow:visible;"/>
					</clipPath>
					<g class="st48">
						<path class="st10" d="M1350,621.3c0,0,22.8-11.7,43.1-11.3c0,0,22.8-3.9,48.3,8.4s9.7,8.4,9.7,8.4l-111.2,6.2L1350,621.3z"/>
						<g>
							<g>
								<defs>
									<path id="SVGID_9_" d="M1350,621.3c0,0,22.2-12.3,43.1-11.3c12.2,0.7,22.8-3.9,48.3,8.4s9.7,8.4,9.7,8.4l-111.2,6.2
										L1350,621.3z"/>
								</defs>
								<clipPath id="SVGID_10_">
									<use xlink:href="#SVGID_9_"  style="overflow:visible;"/>
								</clipPath>
								<g class="st49">
									<rect x="1374.8" y="605.8" class="st33" width="17.6" height="18.3"/>
								</g>
							</g>
						</g>
						<g>
							<g>
								<defs>
									<path id="SVGID_11_" d="M1350,621.3c0,0,22.2-12.3,43.1-11.3c12.2,0.7,22.8-3.9,48.3,8.4s9.7,8.4,9.7,8.4l-111.2,6.2
										L1350,621.3z"/>
								</defs>
								<clipPath id="SVGID_12_">
									<use xlink:href="#SVGID_11_"  style="overflow:visible;"/>
								</clipPath>
								<g class="st50">
									<rect x="1401.2" y="605.8" class="st33" width="17.6" height="18.3"/>
								</g>
							</g>
						</g>
						<g>
							<g>
								<defs>
									<path id="SVGID_13_" d="M1350,621.3c0,0,22.2-12.3,43.1-11.3c12.2,0.7,22.8-3.9,48.3,8.4s9.7,8.4,9.7,8.4l-111.2,6.2
										L1350,621.3z"/>
								</defs>
								<clipPath id="SVGID_14_">
									<use xlink:href="#SVGID_13_"  style="overflow:visible;"/>
								</clipPath>
								<g class="st51">
									<polyline class="st52" points="1374.8,624 1392.4,624 1392.4,605.8 									"/>
								</g>
							</g>
						</g>
						<g>
							<g>
								<defs>
									<path id="SVGID_15_" d="M1350,621.3c0,0,22.2-12.3,43.1-11.3c12.2,0.7,22.8-3.9,48.3,8.4s9.7,8.4,9.7,8.4l-111.2,6.2
										L1350,621.3z"/>
								</defs>
								<clipPath id="SVGID_16_">
									<use xlink:href="#SVGID_15_"  style="overflow:visible;"/>
								</clipPath>
								<g class="st53">
									<polyline class="st52" points="1401.2,624 1418.8,624 1418.8,605.8 									"/>
								</g>
							</g>
						</g>
						<g>
							<g>
								<defs>
									<path id="SVGID_17_" d="M1298,661.3l42.2-42.3l7.4-6.2c0,0,44.2-26.9,102.4-2.5c1.3,0.6,2.2,1.8,2.3,3.2l-0.2,7.8l-111.2,3
										l-40.9,41.8L1298,661.3z"/>
								</defs>
								<clipPath id="SVGID_18_">
									<use xlink:href="#SVGID_17_"  style="overflow:visible;"/>
								</clipPath>
								<g class="st54">
									<path class="st55" d="M1347.6,609v9c0,0,27.8-14.7,51.7-14.6c15.6,0.1,34,3.3,57.9,13.4l-5.6-11.3l-51.1-8.4L1347.6,609z"
										/>
								</g>
							</g>
						</g>
						<g>
							<g>
								<defs>
									<path id="SVGID_19_" d="M1298,661.3l42.2-42.3l7.4-6.2c0,0,44.2-26.9,102.4-2.5c1.3,0.6,2.2,1.8,2.3,3.2l-0.2,7.8l-111.2,3
										l-40.9,41.8L1298,661.3z"/>
								</defs>
								<clipPath id="SVGID_20_">
									<use xlink:href="#SVGID_19_"  style="overflow:visible;"/>
								</clipPath>
								<g class="st56">
									<polygon class="st57" points="1341.6,617 1342.8,623.9 1298.9,667.7 1293.9,664.2 									"/>
								</g>
							</g>
						</g>
					</g>
				</g>
			</g>
			<g>
				<g>
					<defs>
						<path id="SVGID_21_" d="M1298,661.3l42.2-42.3l7.4-6.2c0,0,44.2-26.9,102.4-2.5c1.3,0.6,2.2,1.8,2.3,3.2l-0.2,7.8l-111.2,3
							l-40.9,41.8L1298,661.3z"/>
					</defs>
					<clipPath id="SVGID_22_">
						<use xlink:href="#SVGID_21_"  style="overflow:visible;"/>
					</clipPath>
					<g class="st58">
						<polygon class="st41" points="1269.1,708.5 1263.7,706.5 1344.4,627.8 1345.7,634.7 						"/>
					</g>
				</g>
			</g>
			<g>
				<g>
					<defs>
						<path id="SVGID_23_" d="M1298,661.3l42.2-42.3l7.4-6.2c0,0,44.2-26.9,102.4-2.5c1.3,0.6,2.2,1.8,2.3,3.2l-0.2,7.8l-111.2,3
							l-40.9,41.8L1298,661.3z"/>
					</defs>
					<clipPath id="SVGID_24_">
						<use xlink:href="#SVGID_23_"  style="overflow:visible;"/>
					</clipPath>
					<g class="st59">
						<polygon class="st15" points="1513.6,628.4 1509.8,634.5 1345.3,635.4 1344.4,628.4 						"/>
					</g>
				</g>
			</g>
			<g>
				<g>
					<defs>
						<path id="SVGID_25_" d="M1298,661.3l42.2-42.3l7.4-6.2c0,0,44.2-26.9,102.4-2.5c1.3,0.6,2.2,1.8,2.3,3.2l-0.2,7.8l-111.2,3
							l-40.9,41.8L1298,661.3z"/>
					</defs>
					<clipPath id="SVGID_26_">
						<use xlink:href="#SVGID_25_"  style="overflow:visible;"/>
					</clipPath>
					<g class="st60">
						<circle class="st40" cx="1509.9" cy="616.6" r="4.8"/>
					</g>
				</g>
			</g>
			<g>
				<g>
					<defs>
						<path id="SVGID_27_" d="M1298,661.3l42.2-42.3l7.4-6.2c0,0,44.2-26.9,102.4-2.5c1.3,0.6,2.2,1.8,2.3,3.2l-0.2,7.8l-111.2,3
							l-40.9,41.8L1298,661.3z"/>
					</defs>
					<clipPath id="SVGID_28_">
						<use xlink:href="#SVGID_27_"  style="overflow:visible;"/>
					</clipPath>
					<g class="st61">
						<polygon class="st10" points="1341.4,622.6 1262.8,700.2 1263.7,706.5 1344.4,627.8 						"/>
					</g>
				</g>
			</g>
			<polygon class="st27" points="1278.5,703.3 1316.7,665.9 1315.6,743.2 1277.9,764 			"/>
			<polygon class="st38" points="1279.9,704.8 1286.3,698.7 1286.9,754.2 1280.1,758.1 			"/>
			<polygon class="st38" points="1287.9,695.6 1294.3,689.4 1294.6,751.1 1288.1,754.9 			"/>
			<polygon class="st38" points="1297,687.5 1302.4,681.8 1303.8,745.4 1296,750.1 			"/>
			<polygon class="st38" points="1304.3,678.7 1310.1,672.1 1311,741.3 1303.9,745.8 			"/>
			<polygon class="st16" points="1342.3,642.1 1343.7,767.9 1316.7,779.6 1317.2,665.3 			"/>
			<polygon class="st47" points="1278.2,764.6 1276.7,796.5 1316.7,779.7 1316.2,743.5 			"/>
			<polygon class="st38" points="1280.9,767.3 1281.3,783.3 1281.5,793.7 1313.6,779.7 1312.8,749.2 			"/>
			<polygon class="st29" points="1342.3,653.6 1343.7,768.7 1327.2,775.8 1327.8,668.6 			"/>
			<polygon class="st32" points="1280.9,767.3 1281.3,783.3 1281.5,793.7 1312.8,749.2 			"/>
			<polygon class="st32" points="1281.4,704.6 1285.3,700.8 1281.5,756.9 			"/>
			<polygon class="st32" points="1289,696.5 1292.9,692.9 1289.4,752 			"/>
			<polygon class="st32" points="1298.2,688 1301,684.9 1297.4,747.9 			"/>
			<polygon class="st32" points="1305.5,680.3 1308.5,676.8 1305.3,741.8 			"/>
			<circle class="st40" cx="1344.5" cy="616.6" r="4.9"/>
			<circle class="st45" cx="1345.7" cy="616.2" r="2.6"/>
			<circle class="st62" cx="1347.1" cy="615.8" r="1.3"/>
			<circle class="st40" cx="1510.2" cy="616.4" r="4.9"/>
			<circle class="st45" cx="1511.3" cy="616.2" r="2.6"/>
			<circle class="st62" cx="1512.6" cy="615.8" r="1.3"/>
			<rect x="1643.3" y="805.8" class="st11" width="12.3" height="42.6"/>
			<rect x="1649.5" y="805.8" class="st19" width="6.2" height="42.6"/>
			<path class="st20" d="M1617.8,780.6c0,0-40.8-2.6-31-44.2c0,0,7.6-23.2,30.6-24.1c0,0,7.1-24.1,32.4-20.1c0,0,14.1,0,22.6,14.5
				c0,0,46.1-4.4,42.5,36.8c0,0-1.7,29.8-35.8,30.7c0,0,0.5,31-29.5,32C1649.5,806,1620.9,805.6,1617.8,780.6z"/>
			<path class="st21" d="M1617.3,712.4c-23.1,0.9-30.6,24.1-30.6,24.1c-9.8,41.6,31,44.2,31,44.2c2.9,22.8,26.8,25.2,31,25.4V692.3
				C1624.2,688.8,1617.3,712.4,1617.3,712.4z"/>
			<polygon class="st42" points="1512.3,627.7 1508.5,633 1344,633 1343.4,627.7 			"/>
			<polygon class="st46" points="1343.4,627.7 1267.4,700.8 1266.5,695.5 1342,621.6 			"/>
			<polygon class="st41" points="1267.4,700.8 1272,702.9 1344,633 1343.4,627.7 			"/>
			<path class="st23" d="M1343.2,621.5h170.4c1.6,0,3,1.3,3,3v0.2c0,1.6-1.3,3-3,3h-170.4c-1.6,0-3-1.3-3-3v-0.2
				C1340.2,622.8,1341.6,621.5,1343.2,621.5z"/>
			<path class="st63" d="M-91.8,899.2c0,0-20.9,2.7,52.3-18.9s144,64.8,144,64.8l-259,67.4L-91.8,899.2z"/>
			<path class="st64" d="M-115.3,1007.1c0,0,238-142.9,293-134.8S392.3,964,392.3,964L80.9,1098.7l-206.7,5.4L-115.3,1007.1z"/>
			<rect x="114.7" y="928.9" class="st65" width="6.3" height="21.9"/>
			<rect x="117.7" y="928.9" class="st66" width="3.3" height="21.9"/>
			<path class="st67" d="M101.5,915.8c0,0-20.8-1.4-15.8-22.9c0,0,3.9-12,15.6-12.4c0,0,3.6-12.4,16.5-10.4
				c4.9,0.3,9.2,3.2,11.5,7.5c0,0,23.5-2.3,21.7,19c0,0-0.9,15.4-18.3,15.8c0,0,0.2,16.1-15,16.5
				C117.8,928.9,103.2,928.7,101.5,915.8"/>
			<path class="st64" d="M101.3,880.5c-11.8,0.4-15.6,12.4-15.6,12.4c-5,21.5,15.8,22.8,15.8,22.8c1.4,11.7,13.6,13,15.8,13.1V870
				C104.9,868.4,101.3,880.5,101.3,880.5"/>
			<rect x="193.5" y="889" class="st65" width="5.8" height="19.9"/>
			<rect x="196.3" y="889" class="st66" width="3" height="19.9"/>
			<path class="st67" d="M181.6,877.1c0,0-18.9-1.2-14.4-20.8c0,0,3.5-10.9,14.2-11.3c0,0,3.3-11.3,15-9.5c4.4,0.3,8.4,2.9,10.5,6.8
				c0,0,21.4-2.1,19.8,17.3c0,0-0.8,14-16.7,14.4c0,0,0.2,14.6-13.7,15C196.3,889,183,888.8,181.6,877.1"/>
			<path class="st64" d="M181.4,845c-10.7,0.4-14.2,11.3-14.2,11.3c-4.5,19.5,14.4,20.8,14.4,20.8c1.3,10.7,12.4,11.8,14.4,11.9
				v-53.5C184.6,834,181.4,845,181.4,845"/>
			<rect x="0.8" y="909" class="st65" width="5.1" height="17.6"/>
			<rect x="3.2" y="909" class="st66" width="2.6" height="17.6"/>
			<path class="st67" d="M-9.8,898.5c0,0-16.7-1.1-12.7-18.3c0,0,3.1-9.6,12.5-10c0,0,2.9-10,13.3-8.3c3.9,0.3,7.4,2.5,9.3,6
				c0,0,18.9-1.8,17.4,15.3c0,0-0.7,12.3-14.7,12.7c0,0,0.2,12.9-12.1,13.3C3.2,909-8.5,908.8-9.8,898.5"/>
			<path class="st64" d="M-9.9,870.1c-9.4,0.4-12.5,10-12.5,10c-4,17.3,12.7,18.3,12.7,18.3c1.1,9.4,11,10.4,12.7,10.5v-47.3
				C-7.1,860.4-10,870.1-9.9,870.1"/>
			<path class="st13" d="M1183.6,154.1c4-9.5,15.2-16.4,28.5-16.4c4.5,0,9,0.8,13.2,2.4c8-14.2,25.9-24.1,46.6-24.1
				c4.9,0,9.7,0.6,14.4,1.7c10.2-16,30.9-27,54.9-27c27.1,0,50.1,14,58.3,33.5c9.3-5.4,19.9-8.2,30.7-8.2
				c23.6,0,43.4,12.8,49.3,30.1c5.4-4,11.9-6.1,18.5-6c11.5,0,21.2,5.7,25.1,13.8L1183.6,154.1z"/>
			<path class="st13" d="M1275.8,521.2L1275.8,521.2c0-0.1,0-0.2,0-0.2c-0.3-16.2-16.2-29.2-35.7-29.2c-7.8-0.1-15.4,2.1-22,6.3
				c-3.4-21.4-21.1-37.6-42.4-37.6c-22.5,0-40.9,18.1-42.8,41.1c-0.1,0.4-0.3,0.8-0.4,1.2c-12-8.7-28.7-6-37.4,6
				c-2.8,3.8-4.5,8.3-5,13h168.3c0-0.1,4.4-0.2,8.9-0.3h8.6L1275.8,521.2L1275.8,521.2z"/>
		</g>
	</g>
</g>
</svg>
