<?xml version="1.0" encoding="utf-8"?>
<!-- Generator: Adobe Illustrator 23.0.2, SVG Export Plug-In . SVG Version: 6.00 Build 0)  -->
<svg version="1.1" id="Layer_1" xmlns="http://www.w3.org/2000/svg" xmlns:xlink="http://www.w3.org/1999/xlink" x="0px" y="0px"
	 viewBox="0 0 1675.7 796.7" style="enable-background:new 0 0 1675.7 796.7;" xml:space="preserve">
<g>
	<defs>
		<rect id="SVGID_15_" width="1678.8" height="801.1"/>
	</defs>
	<clipPath id="SVGID_1_">
		<use xlink:href="#SVGID_15_"  style="overflow:visible;"/>
	</clipPath>
	<rect x="-114.7" y="-93.2" style="clip-path:url(#SVGID_1_);fill:#BEE6EE;" width="1857.4" height="928.7"/>
	<g style="opacity:0.3;clip-path:url(#SVGID_1_);">
		<g>
			<defs>
				<rect id="SVGID_17_" x="-46.3" y="196.8" width="2212.8" height="943.9"/>
			</defs>
			<clipPath id="SVGID_2_">
				<use xlink:href="#SVGID_17_"  style="overflow:visible;"/>
			</clipPath>
			<g style="clip-path:url(#SVGID_2_);">
				<defs>
					<rect id="SVGID_19_" x="-46.3" y="196.8" width="2212.8" height="943.9"/>
				</defs>
				<clipPath id="SVGID_3_">
					<use xlink:href="#SVGID_19_"  style="overflow:visible;"/>
				</clipPath>
				<path style="opacity:0.23;clip-path:url(#SVGID_3_);fill:#01758F;" d="M2166.5,1127.6l-4.2-156.7l0.6-608.5l-26.2,0l0-23.4
					l-78.6-14.3l0.1-52.8l-27.1,0l0,19.3l-31.8,0l0-13.2l-21.5,0l0,13.2l-11.2,0l0,37.6l-114.2-0.1l0,38.6l-43.1,0l0,41.7l-13.1,0
					l0.1-70.1l-41.2,0l-56.2,25.3l0-12.2l-26.2,0l-0.5-23.8l-24.9,0l-3.2-51.5l-2.4,52l-20.6,0l0,27.4l-7.5,0l0,35.6l-12.2,0l0-24.4
					l-39.3,0l0,29.5l-36.5,0l0.2-173.6l-16.8,0.1l0.1-16.8l-54.3-0.1l-0.3,16.1l-15.8,0.4l-0.2,226.6l-46.2,0l0.3-10.2l-50.5-0.1
					l0,30.5l-34.6,0l0.1-108.7l-16.8,0l0-8.1l-20.6,0l0.1,7.3l-40.4-0.3l-0.1,120l-30.9,0l-35.3-282.6l-18.9,220.5l-10.3,0l0-14.2
					l-17.8,0l0,13.2l-24.3,0l0,30.5l-14,0l-0.2,7.6l-15.6,0l-2.9-68.6l-21.5-7.1l0-32.5l-16.8-16.3l-3.7-65l-4.7,66.1l-15,15.2
					l0,34.6l-16.2,7.6l-1.2,40l-7,0.2l-0.9-18.3l-11.2,0c0.6-0.6,0.5,68.8,0,165l-34.4-1l-1-3.5l-22.3,0l0,4.7l-18.2,0l-0.1,63.1
					l-37.5,0l0.1-135.1L793,503l-2.2,123.3l-47.6,0l0.2-193.7l-93.7-0.2l-0.9,301.1l-46.9-0.2l0.2-156.4l-96.4-0.1l-0.2,156.1
					l-36.1-0.2l0.1-91.7l-56.2-0.1l-0.1,91.5l-24.1-0.1l0.1-87.4l-140.5-0.1l-0.1,86.8l-20.1-0.1l0-30.6l-24.1,0l-0.1,149.5
					l-245.7-1.2l-0.1,78.8l-4.9,130l1004.5-29.4c-0.5,67.3-0.8,112-0.8,112L2166.5,1127.6z"/>
			</g>
		</g>
	</g>
	<rect x="-114.7" y="-93.2" style="clip-path:url(#SVGID_1_);fill:none;" width="1857.4" height="928.7"/>
	<polygon style="clip-path:url(#SVGID_1_);fill:#363335;" points="994.7,835.5 1742.8,835.5 1742.8,613.7 	"/>
	<polygon style="clip-path:url(#SVGID_1_);fill:#E3E4DC;" points="1443.6,637.6 984,817.5 984,835.5 1019.7,835.5 1733.8,626.7 
		1731.8,609.4 	"/>
	<path style="clip-path:url(#SVGID_1_);fill:#E3E4DC;" d="M1353.8,454.1l-0.8,77.2l-83.9-99.4c1.1-1.3,1.8-2.9,1.8-4.7
		c0-3-1.8-5.5-4.4-6.5l-1-18.1c1.1-0.6,1.8-1.7,1.8-3c0-1.5-0.9-2.7-2.2-3.2l-1.1-18.6l-1.2,18.5c-1.4,0.4-2.4,1.7-2.4,3.3
		c0,1.4,0.8,2.6,2,3.1l-1.2,18c-2.6,1-4.4,3.6-4.4,6.5c0,1.7,0.6,3.3,1.6,4.5l-83.8,99.2c0,1.1-0.4-21.8-0.4-21.8h-6.1l1.9,267.2
		l4.3,0.3l-0.1-5.1h3.1l0.4-5h3.4l0.1-4.7l52.6-0.3l125.7-37.4v-270H1353.8z"/>
	<path style="clip-path:url(#SVGID_1_);fill:#60A754;" d="M1346.8,650.5v-5.1h-3.6v5.1h-6.6v-5.1h-3.6v5.1h-6.6v-5.1h-3.6v5.1h-6.6
		v-5.1h-3.6v5.1h-6.6v-5.1h-3.6v5.1h-6.6v-5.1h-3.6v5.1h-6.6v-5.1h-3.6v5.1h-6.6v-5.1h-3.6v5.1h-6.6v-5.1h-3.6v5.1h-6.6v-5.1h-3.6
		v5.1h-6.6v-5.1h-3.6v5.1h-6.6v-5.1h-3.6v5.1h-6.6v-5.1h-3.6v5.1h-6.6v-5.1h-3.6v5.1h-6.6v-5.1h-3.6v5.1h-6.6v-5.1h-3.6v5.1h-6.6
		v-5.1h-3.6v5.4l-6.1,6.6c-0.8,0-0.1,114.1-0.1,114.1h3.1l0.4-5h3.4v-5.7l52.7,0.8l119.3-34.9v-76.1H1346.8z"/>
	<polygon style="clip-path:url(#SVGID_1_);fill:#22572B;" points="1346.8,650.5 1346.8,645.4 1343.3,645.4 1343.3,650.5 
		1336.7,650.5 1336.7,645.4 1333.1,645.4 1333.1,650.5 1326.5,650.5 1326.5,645.4 1322.9,645.4 1322.9,650.5 1316.3,650.5 
		1316.3,645.4 1312.8,645.4 1312.8,650.5 1306.2,650.5 1306.2,645.4 1302.6,645.4 1302.6,650.5 1296,650.5 1296,645.4 1292.4,645.4 
		1292.4,650.5 1285.8,650.5 1285.8,645.4 1282.2,645.4 1282.2,650.5 1275.6,650.5 1275.6,645.4 1272.1,645.4 1272.1,650.5 
		1265.5,650.5 1265.5,645.4 1261.9,645.4 1261.9,650.5 1255.3,650.5 1255.3,645.4 1251.7,645.4 1251.7,650.5 1316.3,737.4 
		1353.2,726.6 1353.2,650.5 	"/>
	<path style="clip-path:url(#SVGID_1_);fill:#60A754;" d="M1346.8,544.1v-5.9h-3.6v5.9h-6.6v-5.9h-3.6v5.9h-6.6v-5.9h-3.6v5.9h-6.6
		v-5.9h-3.6v5.9h-6.6v-5.9h-3.6v5.9h-6.6v-5.9h-3.6v5.9h-6.6v-5.9h-3.6v5.9h-6.6v-5.9h-3.6v5.9h-6.6v-5.9h-3.6v5.9h-6.6v-5.9h-3.6
		v5.9h-6.6v-5.9h-3.6v5.9h-6.6v-5.9h-3.6v5.9h-6.6v-5.9h-3.6v5.9h-6.6v-5.9h-3.6v5.9h-6.6v-5.9h-3.6v5.9h-6.6v-5.9h-3.6v5.9h-6.6
		v-5.9h-3.6v5.9h-5.9c-0.4-0.4,0,81.5,0,81.5l10.4,13h168.3v-94.5H1346.8z"/>
	<path style="clip-path:url(#SVGID_1_);fill:#22572B;" d="M1346.8,544.1v-5.9h-3.6v5.9h-6.6v-5.9h-3.6v5.9h-6.6v-5.9h-3.6v5.9h-6.6
		v-5.9h-3.6v5.9h-6.6v-5.9h-3.6v5.9h-6.6v-5.9h-3.6v5.9h-6.6v-5.9h-3.6v5.9h-6.6v-5.9h-3.6v5.9h-6.6v-5.9h-3.6v5.9h-6.6v-5.9h-3.6
		v5.9h-6.6v-5.9h-3.6v5.9h-6.6v-5.9h-3.6v5.9h-6.6v-5.9h-3.6v5.9h-6.6v-5.9h-3.6v5.9h-6.6v-5.9h-3.6v5.9h-6.6v-5.9h-3.6v5.9h-6.6
		v-5.9h-3.6v5.9h-5.9c-0.4-0.4,70.5,94.5,70.5,94.5h108.2v-94.5H1346.8z"/>
	<path style="clip-path:url(#SVGID_1_);fill:#FFFFFF;" d="M1172.2,496.2l-0.1-2c1.3-0.5,2.2-1.8,2.2-3.3c0-1.7-1.1-3-2.6-3.5
		l-1.7-27.6l-0.8,27.8c-1.2,0.6-2.1,1.8-2.1,3.3c0,1.4,0.8,2.6,1.9,3.2l-0.1,2.2c-3.2,0.8-5.5,3.6-5.5,7c0,4,3.3,7.3,7.3,7.3
		c4,0,7.3-3.3,7.3-7.3C1177.9,499.9,1175.5,496.9,1172.2,496.2"/>
	<path style="clip-path:url(#SVGID_1_);fill:#FFFFFF;" d="M1358.6,442.4l-0.1-2c1.3-0.5,2.2-1.8,2.2-3.3c0-1.7-1.1-3-2.6-3.5
		l-1.7-27.7l-0.8,27.8c-1.2,0.6-2.1,1.8-2.1,3.3c0,1.4,0.8,2.6,1.9,3.2l-0.1,2.2c-3.2,0.8-5.5,3.6-5.5,7c0,4,3.2,7.3,7.3,7.3
		c4,0,7.3-3.3,7.3-7.3C1364.3,446,1361.9,443.1,1358.6,442.4"/>
	<polygon style="clip-path:url(#SVGID_1_);fill:#103220;" points="1194.4,518.6 1256.3,443 1270.4,442.6 1332.7,519 1332.7,531.6 
		1194.4,531.6 	"/>
	<rect x="1242.4" y="478.6" style="clip-path:url(#SVGID_1_);fill:#E3E4DC;" width="41.3" height="40.9"/>
	<rect x="1246.6" y="482.1" style="clip-path:url(#SVGID_1_);fill:#676462;" width="14.5" height="15.3"/>
	<rect x="1250" y="485.7" style="clip-path:url(#SVGID_1_);fill:#363335;" width="11.1" height="11.7"/>
	<rect x="1264.9" y="482.1" style="clip-path:url(#SVGID_1_);fill:#676462;" width="14.5" height="15.3"/>
	<rect x="1264.9" y="485.7" style="clip-path:url(#SVGID_1_);fill:#363335;" width="11.1" height="11.7"/>
	<rect x="1246.6" y="500.7" style="clip-path:url(#SVGID_1_);fill:#676462;" width="14.5" height="15.3"/>
	<rect x="1250" y="504.3" style="clip-path:url(#SVGID_1_);fill:#363335;" width="11.1" height="11.7"/>
	<rect x="1264.9" y="500.7" style="clip-path:url(#SVGID_1_);fill:#676462;" width="14.5" height="15.3"/>
	<rect x="1264.9" y="504.3" style="clip-path:url(#SVGID_1_);fill:#363335;" width="11.1" height="11.7"/>
	<polygon style="clip-path:url(#SVGID_1_);fill:#E3E4DC;" points="1237.4,471.6 1237.4,466 1232.7,471.6 	"/>
	<polygon style="clip-path:url(#SVGID_1_);fill:#E3E4DC;" points="1290.5,467 1290.5,471.6 1294.3,471.6 	"/>
	<polygon style="clip-path:url(#SVGID_1_);fill:#E3E4DC;" points="1242.2,460.2 1237.5,465.9 1241,465.9 1241,471.6 1247.3,471.6 
		1247.3,465.9 1250.9,465.9 1250.9,471.6 1257.2,471.6 1257.2,465.9 1260.8,465.9 1260.8,471.6 1267.1,471.6 1267.1,465.9 
		1270.7,465.9 1270.7,471.6 1277,471.6 1277,465.9 1280.6,465.9 1280.6,471.6 1286.9,471.6 1286.9,465.9 1289.6,465.9 1284.9,460.2 
			"/>
	<rect x="1187.4" y="562.2" style="clip-path:url(#SVGID_1_);fill:#E3E4DC;" width="46.1" height="5.9"/>
	<rect x="1187.4" y="600.3" style="clip-path:url(#SVGID_1_);fill:#E3E4DC;" width="46.1" height="5.9"/>
	<rect x="1189.8" y="564.2" style="clip-path:url(#SVGID_1_);fill:#E3E4DC;" width="41.3" height="40.9"/>
	<rect x="1194" y="567.7" style="clip-path:url(#SVGID_1_);fill:#676462;" width="14.5" height="15.3"/>
	<rect x="1197.4" y="571.3" style="clip-path:url(#SVGID_1_);fill:#363335;" width="11.1" height="11.7"/>
	<rect x="1212.3" y="567.7" style="clip-path:url(#SVGID_1_);fill:#676462;" width="14.5" height="15.3"/>
	<rect x="1212.3" y="571.3" style="clip-path:url(#SVGID_1_);fill:#363335;" width="11.1" height="11.7"/>
	<rect x="1194" y="586.2" style="clip-path:url(#SVGID_1_);fill:#676462;" width="14.5" height="15.3"/>
	<rect x="1197.4" y="589.9" style="clip-path:url(#SVGID_1_);fill:#363335;" width="11.1" height="11.7"/>
	<rect x="1212.3" y="586.2" style="clip-path:url(#SVGID_1_);fill:#676462;" width="14.5" height="15.3"/>
	<rect x="1212.3" y="589.9" style="clip-path:url(#SVGID_1_);fill:#363335;" width="11.1" height="11.7"/>
	<rect x="1256.1" y="562.2" style="clip-path:url(#SVGID_1_);fill:#E3E4DC;" width="46.1" height="5.9"/>
	<rect x="1256.1" y="600.3" style="clip-path:url(#SVGID_1_);fill:#E3E4DC;" width="46.1" height="5.9"/>
	<rect x="1258.5" y="564.2" style="clip-path:url(#SVGID_1_);fill:#E3E4DC;" width="41.3" height="40.9"/>
	<rect x="1262.7" y="567.7" style="clip-path:url(#SVGID_1_);fill:#676462;" width="14.5" height="15.3"/>
	<rect x="1266.2" y="571.3" style="clip-path:url(#SVGID_1_);fill:#363335;" width="11.1" height="11.7"/>
	<rect x="1281.1" y="567.7" style="clip-path:url(#SVGID_1_);fill:#676462;" width="14.5" height="15.3"/>
	<rect x="1281.1" y="571.3" style="clip-path:url(#SVGID_1_);fill:#363335;" width="11.1" height="11.7"/>
	<rect x="1262.7" y="586.2" style="clip-path:url(#SVGID_1_);fill:#676462;" width="14.5" height="15.3"/>
	<rect x="1266.2" y="589.9" style="clip-path:url(#SVGID_1_);fill:#363335;" width="11.1" height="11.7"/>
	<rect x="1281.1" y="586.2" style="clip-path:url(#SVGID_1_);fill:#676462;" width="14.5" height="15.3"/>
	<rect x="1281.1" y="589.9" style="clip-path:url(#SVGID_1_);fill:#363335;" width="11.1" height="11.7"/>
	<rect x="1297.4" y="562.2" style="clip-path:url(#SVGID_1_);fill:#E3E4DC;" width="43.3" height="5.9"/>
	<rect x="1297.1" y="600.3" style="clip-path:url(#SVGID_1_);fill:#E3E4DC;" width="43.6" height="5.9"/>
	<rect x="1297" y="564.2" style="clip-path:url(#SVGID_1_);fill:#E3E4DC;" width="41.3" height="40.9"/>
	<rect x="1301.2" y="567.7" style="clip-path:url(#SVGID_1_);fill:#676462;" width="14.5" height="15.3"/>
	<rect x="1304.6" y="571.3" style="clip-path:url(#SVGID_1_);fill:#363335;" width="11.1" height="11.7"/>
	<rect x="1319.5" y="567.7" style="clip-path:url(#SVGID_1_);fill:#676462;" width="14.5" height="15.3"/>
	<rect x="1319.5" y="571.3" style="clip-path:url(#SVGID_1_);fill:#363335;" width="11.1" height="11.7"/>
	<rect x="1301.2" y="586.2" style="clip-path:url(#SVGID_1_);fill:#676462;" width="14.5" height="15.3"/>
	<rect x="1304.6" y="589.9" style="clip-path:url(#SVGID_1_);fill:#363335;" width="11.1" height="11.7"/>
	<rect x="1319.5" y="586.2" style="clip-path:url(#SVGID_1_);fill:#676462;" width="14.5" height="15.3"/>
	<rect x="1319.5" y="589.9" style="clip-path:url(#SVGID_1_);fill:#363335;" width="11.1" height="11.7"/>
	<polygon style="clip-path:url(#SVGID_1_);fill:#E3E4DC;" points="1231.2,755.7 1231.2,676.2 1234,676.2 1234,671.4 1186.9,671.4 
		1186.9,676.2 1189.7,676.2 1189.7,755.7 1186.9,755.7 1186.9,761.8 1234.8,761.8 1234.8,755.7 	"/>
	<rect x="1194.8" y="678.8" style="clip-path:url(#SVGID_1_);fill:#676462;" width="30.8" height="76.6"/>
	<rect x="1198.9" y="684.1" style="clip-path:url(#SVGID_1_);fill:#1D1A1C;" width="26.7" height="71.3"/>
	<rect x="1256.1" y="671.1" style="clip-path:url(#SVGID_1_);fill:#E3E4DC;" width="46.1" height="5.9"/>
	<rect x="1256.1" y="709.3" style="clip-path:url(#SVGID_1_);fill:#E3E4DC;" width="46.1" height="5.9"/>
	<rect x="1258.5" y="673.1" style="clip-path:url(#SVGID_1_);fill:#E3E4DC;" width="41.3" height="40.9"/>
	<rect x="1262.7" y="676.6" style="clip-path:url(#SVGID_1_);fill:#676462;" width="14.5" height="15.3"/>
	<rect x="1266.2" y="680.3" style="clip-path:url(#SVGID_1_);fill:#363335;" width="11.1" height="11.7"/>
	<rect x="1281.1" y="676.6" style="clip-path:url(#SVGID_1_);fill:#676462;" width="14.5" height="15.3"/>
	<rect x="1281.1" y="680.3" style="clip-path:url(#SVGID_1_);fill:#363335;" width="11.1" height="11.7"/>
	<rect x="1262.7" y="695.2" style="clip-path:url(#SVGID_1_);fill:#676462;" width="14.5" height="15.3"/>
	<rect x="1266.2" y="698.8" style="clip-path:url(#SVGID_1_);fill:#363335;" width="11.1" height="11.7"/>
	<rect x="1281.1" y="695.2" style="clip-path:url(#SVGID_1_);fill:#676462;" width="14.5" height="15.3"/>
	<rect x="1281.1" y="698.8" style="clip-path:url(#SVGID_1_);fill:#363335;" width="11.1" height="11.7"/>
	<rect x="1297.4" y="671.1" style="clip-path:url(#SVGID_1_);fill:#E3E4DC;" width="43.3" height="5.9"/>
	<rect x="1297.1" y="709.3" style="clip-path:url(#SVGID_1_);fill:#E3E4DC;" width="43.6" height="5.9"/>
	<rect x="1297" y="673.1" style="clip-path:url(#SVGID_1_);fill:#E3E4DC;" width="41.3" height="40.9"/>
	<rect x="1301.2" y="676.6" style="clip-path:url(#SVGID_1_);fill:#676462;" width="14.5" height="15.3"/>
	<rect x="1304.6" y="680.3" style="clip-path:url(#SVGID_1_);fill:#363335;" width="11.1" height="11.7"/>
	<rect x="1319.5" y="676.6" style="clip-path:url(#SVGID_1_);fill:#676462;" width="14.5" height="15.3"/>
	<rect x="1319.5" y="680.3" style="clip-path:url(#SVGID_1_);fill:#363335;" width="11.1" height="11.7"/>
	<rect x="1301.2" y="695.2" style="clip-path:url(#SVGID_1_);fill:#676462;" width="14.5" height="15.3"/>
	<rect x="1304.6" y="698.8" style="clip-path:url(#SVGID_1_);fill:#363335;" width="11.1" height="11.7"/>
	<rect x="1319.5" y="695.2" style="clip-path:url(#SVGID_1_);fill:#676462;" width="14.5" height="15.3"/>
	<rect x="1319.5" y="698.8" style="clip-path:url(#SVGID_1_);fill:#363335;" width="11.1" height="11.7"/>
	<rect x="1256.1" y="711.7" style="clip-path:url(#SVGID_1_);fill:#E3E4DC;" width="7.1" height="9"/>
	<rect x="1333.6" y="711.7" style="clip-path:url(#SVGID_1_);fill:#E3E4DC;" width="7.1" height="9"/>
	<rect x="1265.8" y="711.7" style="clip-path:url(#SVGID_1_);fill:#E3E4DC;" width="7.1" height="9"/>
	<rect x="1275.5" y="711.7" style="clip-path:url(#SVGID_1_);fill:#E3E4DC;" width="7.1" height="9"/>
	<rect x="1285.2" y="711.7" style="clip-path:url(#SVGID_1_);fill:#E3E4DC;" width="7.1" height="9"/>
	<rect x="1294.9" y="711.7" style="clip-path:url(#SVGID_1_);fill:#E3E4DC;" width="7.1" height="9"/>
	<rect x="1304.5" y="711.7" style="clip-path:url(#SVGID_1_);fill:#E3E4DC;" width="7.1" height="9"/>
	<rect x="1314.2" y="711.7" style="clip-path:url(#SVGID_1_);fill:#E3E4DC;" width="7.1" height="9"/>
	<rect x="1323.9" y="711.7" style="clip-path:url(#SVGID_1_);fill:#E3E4DC;" width="7.1" height="9"/>
	<path style="clip-path:url(#SVGID_1_);fill:#E3E4DC;" d="M1540.4,401.6l-0.8,77.2l-83.8-99.5c1.1-1.3,1.8-2.9,1.8-4.7
		c0-3-1.8-5.5-4.4-6.5l-1-18.1c1.1-0.6,1.8-1.7,1.8-3c0-1.5-0.9-2.7-2.2-3.2l-1-18.6l-1.2,18.5c-1.4,0.4-2.4,1.7-2.4,3.3
		c0,1.4,0.8,2.6,2,3.1l-1.2,18c-2.6,1-4.4,3.6-4.4,6.5c0,1.7,0.6,3.3,1.6,4.5l-83.9,99.1c0,1.1-0.4-21.8-0.4-21.8l-6.1,0l1.6,267.2
		l4.3,0.3l-0.1-5.1l3.1,0l0.4-5l3.4,0l0.1-4.7l52.6-0.2l125.7-37.3l0.3-270L1540.4,401.6z"/>
	<path style="clip-path:url(#SVGID_1_);fill:#F9A23E;" d="M1533.2,598.1l0-5.1l-3.6,0l0,5.1l-6.6,0l0-5.1l-3.6,0l0,5.1l-6.6,0l0-5.1
		l-3.6,0l0,5.1l-6.6,0l0-5.1l-3.6,0l0,5.1l-6.6,0l0-5.1l-3.6,0l0,5.1l-6.6,0l0-5.1l-3.6,0l0,5.1l-6.6,0l0-5.1l-3.6,0l0,5.1l-6.6,0
		l0-5.1l-3.6,0l0,5.1l-6.6,0l0-5.1l-3.6,0l0,5.1l-6.6,0l0-5.1l-3.6,0l0,5.1l-6.6,0l0-5.1l-3.6,0l0,5.1l-6.6,0l0-5.1l-3.6,0l0,5.1
		l-6.6,0l0-5.1l-3.6,0l0,5.1l-6.6,0l0-5.1l-3.6,0l0,5.1l-6.6,0l0-5.1l-3.6,0l0,5.1l-6.6,0l0-5.1l-3.6,0l0,5.1l-6.6,0l0-5.1l-3.6,0
		l0,5.4l-6.1,6.6c-0.8,0-0.2,114.1-0.2,114.1l3.1,0l0.4-5l3.4,0l0-5.7l52.7,0.8l119.3-34.8l0.1-76.1L1533.2,598.1z"/>
	<polygon style="clip-path:url(#SVGID_1_);fill:#C95A28;" points="1533.2,598.1 1533.2,593 1529.7,593 1529.7,598.1 1523.1,598.1 
		1523.1,593 1519.5,593 1519.5,598.1 1512.9,598.1 1512.9,593 1509.3,593 1509.3,598 1502.7,598 1502.7,592.9 1499.2,592.9 
		1499.2,598 1492.6,598 1492.6,592.9 1489,592.9 1489,598 1482.4,598 1482.4,592.9 1478.8,592.9 1478.8,598 1472.2,598 
		1472.2,592.9 1468.7,592.9 1468.6,598 1462,598 1462.1,592.9 1458.5,592.9 1458.5,598 1451.9,598 1451.9,592.9 1448.3,592.9 
		1448.3,598 1441.7,598 1441.7,592.9 1438.1,592.9 1438.1,598 1502.6,685 1539.5,674.2 1539.6,598.1 	"/>
	<path style="clip-path:url(#SVGID_1_);fill:#F9A23E;" d="M1533.3,491.6l0-5.9l-3.6,0l0,5.9l-6.6,0l0-5.9l-3.6,0l0,5.9l-6.6,0l0-5.9
		l-3.6,0l0,5.9l-6.6,0l0-5.9l-3.6,0l0,5.9l-6.6,0l0-5.9l-3.6,0l0,5.9l-6.6,0l0-5.9l-3.6,0l0,5.9l-6.6,0l0-5.9l-3.6,0l0,5.9l-6.6,0
		l0-5.9l-3.6,0l0,5.9l-6.6,0l0-5.9l-3.6,0l0,5.9l-6.6,0l0-5.9l-3.6,0l0,5.9l-6.6,0l0-5.9l-3.6,0l0,5.9l-6.6,0l0-5.9l-3.6,0l0,5.9
		l-6.6,0l0-5.9l-3.6,0l0,5.9l-6.6,0l0-5.9l-3.6,0l0,5.9l-6.6,0l0-5.9l-3.6,0l0,5.9l-6.6,0l0-5.9l-3.6,0l0,5.9l-6.6,0l0-5.9l-3.6,0
		l0,5.9l-5.9,0c-0.4-0.4-0.1,81.5-0.1,81.5l10.4,13l168.3,0.2l0.1-94.5L1533.3,491.6z"/>
	<path style="clip-path:url(#SVGID_1_);fill:#C95A28;" d="M1533.3,491.6l0-5.9l-3.6,0l0,5.9l-6.6,0l0-5.9l-3.6,0l0,5.9l-6.6,0l0-5.9
		l-3.6,0l0,5.9l-6.6,0l0-5.9l-3.6,0l0,5.9l-6.6,0l0-5.9l-3.6,0l0,5.9l-6.6,0l0-5.9l-3.6,0l0,5.9l-6.6,0l0-5.9l-3.6,0l0,5.9l-6.6,0
		l0-5.9l-3.6,0l0,5.9l-6.6,0l0-5.9l-3.6,0l0,5.9l-6.6,0l0-5.9l-3.6,0l0,5.9l-6.6,0l0-5.9l-3.6,0l0,5.9l-6.6,0l0-5.9l-3.6,0l0,5.9
		l-6.6,0l0-5.9l-3.6,0l0,5.9l-6.6,0l0-5.9l-3.6,0l0,5.9l-6.6,0l0-5.9l-3.6,0l0,5.9l-6.6,0l0-5.9l-3.6,0l0,5.9l-6.6,0l0-5.9l-3.6,0
		l0,5.9l-5.9,0c-0.4-0.4,70.4,94.5,70.4,94.5l108.2,0.1l0.1-94.5L1533.3,491.6z"/>
	<path style="clip-path:url(#SVGID_1_);fill:#E3E4DC;" d="M1358.9,442.8l-0.1-2c1.3-0.5,2.2-1.8,2.2-3.3c0-1.7-1.1-3-2.6-3.5
		l-1.7-27.6l-0.8,27.8c-1.2,0.6-2.1,1.8-2.1,3.3c0,1.4,0.8,2.6,1.9,3.2l-0.1,2.2c-3.2,0.8-5.5,3.6-5.5,7c0,4,3.2,7.3,7.3,7.3
		c4,0,7.3-3.3,7.3-7.3C1364.6,446.4,1362.1,443.5,1358.9,442.8"/>
	<path style="clip-path:url(#SVGID_1_);fill:#FFFFFF;" d="M1545.2,390l-0.1-2c1.3-0.5,2.2-1.8,2.2-3.3c0-1.7-1.1-3-2.6-3.5
		l-1.7-27.7l-0.8,27.8c-1.2,0.6-2.1,1.8-2.1,3.3c0,1.4,0.8,2.6,1.9,3.2l-0.1,2.2c-3.2,0.8-5.5,3.6-5.5,7c0,4,3.2,7.3,7.2,7.3
		c4,0,7.3-3.2,7.3-7.3C1550.9,393.6,1548.5,390.7,1545.2,390"/>
	<polygon style="clip-path:url(#SVGID_1_);fill:#9F3721;" points="1381.1,465.2 1450.3,381.9 1519.3,465.6 1519.3,478.2 
		1381.1,478.2 	"/>
	
		<rect x="1429.1" y="425.9" transform="matrix(1.010056e-03 -1 1 1.010056e-03 1001.5693 1895.6093)" style="clip-path:url(#SVGID_1_);fill:#E3E4DC;" width="40.9" height="41.3"/>
	<rect x="1433.2" y="428.7" style="clip-path:url(#SVGID_1_);fill:#676462;" width="14.5" height="15.3"/>
	<rect x="1436.6" y="432.3" style="clip-path:url(#SVGID_1_);fill:#363335;" width="11.1" height="11.7"/>
	<rect x="1451.5" y="428.7" style="clip-path:url(#SVGID_1_);fill:#676462;" width="14.5" height="15.3"/>
	<rect x="1451.5" y="432.3" style="clip-path:url(#SVGID_1_);fill:#363335;" width="11.1" height="11.7"/>
	<rect x="1433.2" y="447.3" style="clip-path:url(#SVGID_1_);fill:#676462;" width="14.5" height="15.3"/>
	<rect x="1436.6" y="450.9" style="clip-path:url(#SVGID_1_);fill:#363335;" width="11.1" height="11.7"/>
	<rect x="1451.5" y="447.3" style="clip-path:url(#SVGID_1_);fill:#676462;" width="14.5" height="15.3"/>
	<rect x="1451.5" y="450.9" style="clip-path:url(#SVGID_1_);fill:#363335;" width="11.1" height="11.7"/>
	<rect x="1374" y="508.7" style="clip-path:url(#SVGID_1_);fill:#E3E4DC;" width="46.1" height="5.9"/>
	<rect x="1374" y="546.9" style="clip-path:url(#SVGID_1_);fill:#E3E4DC;" width="46.1" height="5.9"/>
	<rect x="1376.4" y="510.7" style="clip-path:url(#SVGID_1_);fill:#E3E4DC;" width="41.3" height="40.9"/>
	<rect x="1380.6" y="514.2" style="clip-path:url(#SVGID_1_);fill:#676462;" width="14.5" height="15.3"/>
	<rect x="1384.1" y="517.9" style="clip-path:url(#SVGID_1_);fill:#363335;" width="11.1" height="11.7"/>
	<rect x="1399" y="514.2" style="clip-path:url(#SVGID_1_);fill:#676462;" width="14.5" height="15.3"/>
	<rect x="1399" y="517.9" style="clip-path:url(#SVGID_1_);fill:#363335;" width="11.1" height="11.7"/>
	<rect x="1380.6" y="532.8" style="clip-path:url(#SVGID_1_);fill:#676462;" width="14.5" height="15.3"/>
	<rect x="1384.1" y="536.5" style="clip-path:url(#SVGID_1_);fill:#363335;" width="11.1" height="11.7"/>
	<rect x="1399" y="532.8" style="clip-path:url(#SVGID_1_);fill:#676462;" width="14.5" height="15.3"/>
	<rect x="1399" y="536.5" style="clip-path:url(#SVGID_1_);fill:#363335;" width="11.1" height="11.7"/>
	<rect x="1442.8" y="508.7" style="clip-path:url(#SVGID_1_);fill:#E3E4DC;" width="46.1" height="5.9"/>
	<rect x="1442.8" y="546.9" style="clip-path:url(#SVGID_1_);fill:#E3E4DC;" width="46.1" height="5.9"/>
	<rect x="1445.2" y="510.7" style="clip-path:url(#SVGID_1_);fill:#E3E4DC;" width="41.3" height="40.9"/>
	<rect x="1449.4" y="514.2" style="clip-path:url(#SVGID_1_);fill:#676462;" width="14.5" height="15.3"/>
	<rect x="1452.8" y="517.9" style="clip-path:url(#SVGID_1_);fill:#363335;" width="11.1" height="11.7"/>
	<rect x="1467.7" y="514.2" style="clip-path:url(#SVGID_1_);fill:#676462;" width="14.5" height="15.3"/>
	<rect x="1467.7" y="517.9" style="clip-path:url(#SVGID_1_);fill:#363335;" width="11.1" height="11.7"/>
	<rect x="1449.4" y="532.8" style="clip-path:url(#SVGID_1_);fill:#676462;" width="14.5" height="15.3"/>
	<rect x="1452.8" y="536.5" style="clip-path:url(#SVGID_1_);fill:#363335;" width="11.1" height="11.7"/>
	<rect x="1467.7" y="532.8" style="clip-path:url(#SVGID_1_);fill:#676462;" width="14.5" height="15.3"/>
	<rect x="1467.7" y="536.5" style="clip-path:url(#SVGID_1_);fill:#363335;" width="11.1" height="11.7"/>
	<rect x="1484" y="508.7" style="clip-path:url(#SVGID_1_);fill:#E3E4DC;" width="43.3" height="5.9"/>
	<rect x="1483.7" y="546.9" style="clip-path:url(#SVGID_1_);fill:#E3E4DC;" width="43.6" height="5.9"/>
	<rect x="1483.6" y="510.7" style="clip-path:url(#SVGID_1_);fill:#E3E4DC;" width="41.3" height="40.9"/>
	<rect x="1487.8" y="514.2" style="clip-path:url(#SVGID_1_);fill:#676462;" width="14.5" height="15.3"/>
	<rect x="1491.3" y="517.9" style="clip-path:url(#SVGID_1_);fill:#363335;" width="11.1" height="11.7"/>
	<rect x="1506.2" y="514.2" style="clip-path:url(#SVGID_1_);fill:#676462;" width="14.5" height="15.3"/>
	<rect x="1506.2" y="517.9" style="clip-path:url(#SVGID_1_);fill:#363335;" width="11.1" height="11.7"/>
	<rect x="1487.8" y="532.8" style="clip-path:url(#SVGID_1_);fill:#676462;" width="14.5" height="15.3"/>
	<rect x="1491.3" y="536.5" style="clip-path:url(#SVGID_1_);fill:#363335;" width="11.1" height="11.7"/>
	<rect x="1506.2" y="532.8" style="clip-path:url(#SVGID_1_);fill:#676462;" width="14.5" height="15.3"/>
	<rect x="1506.2" y="536.5" style="clip-path:url(#SVGID_1_);fill:#363335;" width="11.1" height="11.7"/>
	<polygon style="clip-path:url(#SVGID_1_);fill:#E3E4DC;" points="1417.9,702.3 1417.9,622.8 1420.7,622.8 1420.7,618 1373.6,618 
		1373.6,622.8 1376.4,622.8 1376.4,702.3 1373.6,702.3 1373.6,708.4 1421.4,708.4 1421.4,702.3 	"/>
	<rect x="1381.5" y="625.4" style="clip-path:url(#SVGID_1_);fill:#676462;" width="30.8" height="76.6"/>
	<rect x="1385.5" y="630.7" style="clip-path:url(#SVGID_1_);fill:#1D1A1C;" width="26.7" height="71.3"/>
	<rect x="1442.8" y="617.7" style="clip-path:url(#SVGID_1_);fill:#E3E4DC;" width="46.1" height="5.9"/>
	<rect x="1442.8" y="655.9" style="clip-path:url(#SVGID_1_);fill:#E3E4DC;" width="46.1" height="5.9"/>
	<rect x="1445.2" y="619.7" style="clip-path:url(#SVGID_1_);fill:#E3E4DC;" width="41.3" height="40.9"/>
	<rect x="1449.4" y="623.2" style="clip-path:url(#SVGID_1_);fill:#676462;" width="14.5" height="15.3"/>
	<rect x="1452.8" y="626.8" style="clip-path:url(#SVGID_1_);fill:#363335;" width="11.1" height="11.7"/>
	<rect x="1467.7" y="623.2" style="clip-path:url(#SVGID_1_);fill:#676462;" width="14.5" height="15.3"/>
	<rect x="1467.7" y="626.8" style="clip-path:url(#SVGID_1_);fill:#363335;" width="11.1" height="11.7"/>
	<rect x="1449.4" y="641.8" style="clip-path:url(#SVGID_1_);fill:#676462;" width="14.5" height="15.3"/>
	<rect x="1452.8" y="645.4" style="clip-path:url(#SVGID_1_);fill:#363335;" width="11.1" height="11.7"/>
	<rect x="1467.7" y="641.8" style="clip-path:url(#SVGID_1_);fill:#676462;" width="14.5" height="15.3"/>
	<rect x="1467.7" y="645.4" style="clip-path:url(#SVGID_1_);fill:#363335;" width="11.1" height="11.7"/>
	<rect x="1484" y="617.7" style="clip-path:url(#SVGID_1_);fill:#E3E4DC;" width="43.3" height="5.9"/>
	<rect x="1483.7" y="655.9" style="clip-path:url(#SVGID_1_);fill:#E3E4DC;" width="43.6" height="5.9"/>
	<rect x="1483.6" y="619.7" style="clip-path:url(#SVGID_1_);fill:#E3E4DC;" width="41.3" height="40.9"/>
	<rect x="1487.8" y="623.2" style="clip-path:url(#SVGID_1_);fill:#676462;" width="14.5" height="15.3"/>
	<rect x="1491.3" y="626.8" style="clip-path:url(#SVGID_1_);fill:#363335;" width="11.1" height="11.7"/>
	<rect x="1506.2" y="623.2" style="clip-path:url(#SVGID_1_);fill:#676462;" width="14.5" height="15.3"/>
	<rect x="1506.2" y="626.8" style="clip-path:url(#SVGID_1_);fill:#363335;" width="11.1" height="11.7"/>
	<rect x="1487.8" y="641.8" style="clip-path:url(#SVGID_1_);fill:#676462;" width="14.5" height="15.3"/>
	<rect x="1491.3" y="645.4" style="clip-path:url(#SVGID_1_);fill:#363335;" width="11.1" height="11.7"/>
	<rect x="1506.2" y="641.8" style="clip-path:url(#SVGID_1_);fill:#676462;" width="14.5" height="15.3"/>
	<rect x="1506.2" y="645.4" style="clip-path:url(#SVGID_1_);fill:#363335;" width="11.1" height="11.7"/>
	<rect x="1442.8" y="658.3" style="clip-path:url(#SVGID_1_);fill:#E3E4DC;" width="7.1" height="9"/>
	<rect x="1520.2" y="658.3" style="clip-path:url(#SVGID_1_);fill:#E3E4DC;" width="7.1" height="9"/>
	<rect x="1452.4" y="658.3" style="clip-path:url(#SVGID_1_);fill:#E3E4DC;" width="7.1" height="9"/>
	<rect x="1462.1" y="658.3" style="clip-path:url(#SVGID_1_);fill:#E3E4DC;" width="7.1" height="9"/>
	<rect x="1471.8" y="658.3" style="clip-path:url(#SVGID_1_);fill:#E3E4DC;" width="7.1" height="9"/>
	<rect x="1481.5" y="658.3" style="clip-path:url(#SVGID_1_);fill:#E3E4DC;" width="7.1" height="9"/>
	<rect x="1491.2" y="658.3" style="clip-path:url(#SVGID_1_);fill:#E3E4DC;" width="7.1" height="9"/>
	<rect x="1500.9" y="658.3" style="clip-path:url(#SVGID_1_);fill:#E3E4DC;" width="7.1" height="9"/>
	<rect x="1510.5" y="658.3" style="clip-path:url(#SVGID_1_);fill:#E3E4DC;" width="7.1" height="9"/>
	<path style="clip-path:url(#SVGID_1_);fill:#E3E4DC;" d="M1727.1,348.2l-0.8,77.2l-83.8-99.5c1.1-1.3,1.8-2.9,1.8-4.7
		c0-3-1.8-5.5-4.4-6.5l-1-18.1c1.1-0.6,1.8-1.7,1.8-3c0-1.5-0.9-2.7-2.2-3.2l-1-18.6l-1.2,18.5c-1.4,0.4-2.4,1.7-2.4,3.3
		c0,1.4,0.8,2.6,2,3.1l-1.2,18c-2.6,1-4.4,3.6-4.4,6.5c0,1.7,0.6,3.3,1.6,4.5l-83.9,99.1c0,1.1-0.4-21.8-0.4-21.8l-6.1,0l1.6,267.2
		l4.3,0.3l-0.1-5.1l3.1,0l0.4-5l3.4,0l0.1-4.7l52.6-0.2l125.7-37.3l0.3-270L1727.1,348.2z"/>
	<path style="clip-path:url(#SVGID_1_);fill:#295F73;" d="M1719.9,544.6l0-5.1l-3.6,0l0,5.1l-6.6,0l0-5.1l-3.6,0l0,5.1l-6.6,0l0-5.1
		l-3.6,0l0,5.1l-6.6,0l0-5.1l-3.6,0l0,5.1l-6.6,0l0-5.1l-3.6,0l0,5.1l-6.6,0l0-5.1l-3.6,0l0,5.1l-6.6,0l0-5.1l-3.6,0l0,5.1l-6.6,0
		l0-5.1l-3.6,0l0,5.1l-6.6,0l0-5.1l-3.6,0l0,5.1l-6.6,0l0-5.1l-3.6,0l0,5.1l-6.6,0l0-5.1l-3.6,0l0,5.1l-6.6,0l0-5.1l-3.6,0l0,5.1
		l-6.6,0l0-5.1l-3.6,0l0,5.1l-6.6,0l0-5.1l-3.6,0l0,5.1l-6.6,0l0-5.1l-3.6,0l0,5.1l-6.6,0l0-5.1l-3.6,0l0,5.1l-6.6,0l0-5.1l-3.6,0
		l0,5.4l-6.1,6.6c-0.8,0-0.2,114.1-0.2,114.1l3.1,0l0.4-5l3.4,0l0-5.7l52.7,0.8l119.3-34.8l0.1-76.1L1719.9,544.6z"/>
	<polygon style="clip-path:url(#SVGID_1_);fill:#173E52;" points="1719.9,544.6 1719.9,539.5 1716.3,539.5 1716.3,544.6 
		1709.7,544.6 1709.7,539.5 1706.1,539.5 1706.1,544.6 1699.5,544.6 1699.5,539.5 1696,539.5 1696,544.6 1689.4,544.6 1689.4,539.5 
		1685.8,539.5 1685.8,544.6 1679.2,544.6 1679.2,539.5 1675.6,539.5 1675.6,544.6 1669,544.5 1669,539.5 1665.5,539.4 1665.5,544.5 
		1658.8,544.5 1658.9,539.4 1655.3,539.4 1655.3,544.5 1648.7,544.5 1648.7,539.4 1645.1,539.4 1645.1,544.5 1638.5,544.5 
		1638.5,539.4 1634.9,539.4 1634.9,544.5 1628.3,544.5 1628.3,539.4 1624.8,539.4 1624.8,544.5 1689.2,631.5 1726.2,620.7 
		1726.2,544.6 	"/>
	<path style="clip-path:url(#SVGID_1_);fill:#295F73;" d="M1720,438.2l0-5.9l-3.6,0l0,5.9l-6.6,0l0-5.9l-3.6,0l0,5.9l-6.6,0l0-5.9
		l-3.6,0l0,5.9l-6.6,0l0-5.9l-3.6,0l0,5.9l-6.6,0l0-5.9l-3.6,0l0,5.9l-6.6,0l0-5.9l-3.6,0l0,5.9l-6.6,0l0-5.9l-3.6,0l0,5.9l-6.6,0
		l0-5.9l-3.6,0l0,5.9l-6.6,0l0-5.9l-3.6,0l0,5.9l-6.6,0l0-5.9l-3.6,0l0,5.9l-6.6,0l0-5.9l-3.6,0l0,5.9l-6.6,0l0-5.9l-3.6,0l0,5.9
		l-6.6,0l0-5.9l-3.6,0l0,5.9l-6.6,0l0-5.9l-3.6,0l0,5.9l-6.6,0l0-5.9l-3.6,0l0,5.9l-6.6,0l0-5.9l-3.6,0l0,5.9l-6.6,0l0-5.9l-3.6,0
		l0,5.9l-5.9,0c-0.4-0.4-0.1,81.5-0.1,81.5l10.4,13l168.3,0.2l0.1-94.5L1720,438.2z"/>
	<path style="clip-path:url(#SVGID_1_);fill:#173E52;" d="M1720,438.2l0-5.9l-3.6,0l0,5.9l-6.6,0l0-5.9l-3.6,0l0,5.9l-6.6,0l0-5.9
		l-3.6,0l0,5.9l-6.6,0l0-5.9l-3.6,0l0,5.9l-6.6,0l0-5.9l-3.6,0l0,5.9l-6.6,0l0-5.9l-3.6,0l0,5.9l-6.6,0l0-5.9l-3.6,0l0,5.9l-6.6,0
		l0-5.9l-3.6,0l0,5.9l-6.6,0l0-5.9l-3.6,0l0,5.9l-6.6,0l0-5.9l-3.6,0l0,5.9l-6.6,0l0-5.9l-3.6,0l0,5.9l-6.6,0l0-5.9l-3.6,0l0,5.9
		l-6.6,0l0-5.9l-3.6,0l0,5.9l-6.6,0l0-5.9l-3.6,0l0,5.9l-6.6,0l0-5.9l-3.6,0l0,5.9l-6.6,0l0-5.9l-3.6,0l0,5.9l-6.6,0l0-5.9l-3.6,0
		l0,5.9l-5.9,0c-0.4-0.4,70.4,94.5,70.4,94.5l108.2,0.1l0.1-94.5L1720,438.2z"/>
	<path style="clip-path:url(#SVGID_1_);fill:#E3E4DC;" d="M1545.4,390.2l-0.1-2c1.3-0.5,2.2-1.8,2.2-3.3c0-1.7-1.1-3-2.6-3.5
		l-1.7-27.7l-0.8,27.8c-1.2,0.6-2.1,1.8-2.1,3.3c0,1.4,0.8,2.6,1.9,3.2l-0.1,2.2c-3.2,0.8-5.5,3.6-5.5,7c0,4,3.2,7.3,7.2,7.3
		c4,0,7.3-3.2,7.3-7.3C1551.1,393.8,1548.7,390.9,1545.4,390.2"/>
	<path style="clip-path:url(#SVGID_1_);fill:#E3E4DC;" d="M1731.8,335.3l-0.1-2c1.3-0.5,2.2-1.8,2.2-3.3c0-1.7-1.1-3-2.6-3.5
		l-1.7-27.7l-0.8,27.8c-1.2,0.6-2.1,1.8-2.1,3.3c0,1.4,0.8,2.6,1.9,3.2l-0.1,2.2c-3.2,0.8-5.5,3.6-5.5,7c0,4,3.2,7.3,7.3,7.3
		c4,0,7.3-3.3,7.3-7.3C1737.6,338.9,1735.1,336,1731.8,335.3"/>
	<polygon style="clip-path:url(#SVGID_1_);fill:#0C1F30;" points="1567.6,412.5 1629.6,337 1643.7,336.6 1705.9,413.1 1705.9,425.7 
		1567.6,425.5 	"/>
	
		<rect x="1615.7" y="372.4" transform="matrix(1.010056e-03 -1 1 1.010056e-03 1241.4883 2028.8217)" style="clip-path:url(#SVGID_1_);fill:#E3E4DC;" width="40.9" height="41.3"/>
	
		<rect x="1619.4" y="376.5" transform="matrix(1.095137e-03 -1 1 1.095137e-03 1241.5042 2010.339)" style="clip-path:url(#SVGID_1_);fill:#676462;" width="15.3" height="14.5"/>
	
		<rect x="1622.9" y="380" transform="matrix(1.077220e-03 -1 1 1.077220e-03 1241.4366 2013.8723)" style="clip-path:url(#SVGID_1_);fill:#363335;" width="11.7" height="11.1"/>
	<rect x="1638.1" y="376.1" style="clip-path:url(#SVGID_1_);fill:#676462;" width="14.5" height="15.3"/>
	<rect x="1638.1" y="379.7" style="clip-path:url(#SVGID_1_);fill:#363335;" width="11.1" height="11.7"/>
	
		<rect x="1619.4" y="395.1" transform="matrix(1.095283e-03 -1 1 1.095283e-03 1222.8975 2028.8862)" style="clip-path:url(#SVGID_1_);fill:#676462;" width="15.3" height="14.5"/>
	
		<rect x="1622.9" y="398.6" transform="matrix(1.077220e-03 -1 1 1.077220e-03 1222.83 2032.4196)" style="clip-path:url(#SVGID_1_);fill:#363335;" width="11.7" height="11.1"/>
	
		<rect x="1637.7" y="395.1" transform="matrix(1.093187e-03 -1 1 1.093187e-03 1241.1948 2047.2386)" style="clip-path:url(#SVGID_1_);fill:#676462;" width="15.3" height="14.5"/>
	
		<rect x="1637.8" y="398.6" transform="matrix(1.074474e-03 -1 1 1.074474e-03 1237.7004 2047.3333)" style="clip-path:url(#SVGID_1_);fill:#363335;" width="11.7" height="11.1"/>
	<polygon style="clip-path:url(#SVGID_1_);fill:#E3E4DC;" points="1610.6,364.6 1610.6,358.9 1606,364.6 	"/>
	<polygon style="clip-path:url(#SVGID_1_);fill:#E3E4DC;" points="1663.7,360 1663.7,364.6 1667.5,364.6 	"/>
	<polygon style="clip-path:url(#SVGID_1_);fill:#E3E4DC;" points="1615.4,353.1 1610.7,358.8 1614.2,358.8 1614.2,364.6 
		1620.5,364.6 1620.5,358.8 1624.1,358.8 1624.1,364.6 1630.4,364.6 1630.4,358.8 1634,358.8 1634,364.6 1640.3,364.6 1640.3,358.8 
		1643.9,358.8 1643.9,364.6 1650.2,364.6 1650.2,358.8 1653.8,358.8 1653.8,364.6 1660.1,364.6 1660.1,358.8 1662.8,358.8 
		1658.1,353.1 	"/>
	<rect x="1560.5" y="456.1" style="clip-path:url(#SVGID_1_);fill:#E3E4DC;" width="46.1" height="5.9"/>
	<rect x="1560.4" y="494.3" style="clip-path:url(#SVGID_1_);fill:#E3E4DC;" width="46.1" height="5.9"/>
	
		<rect x="1563.1" y="457.9" transform="matrix(1.010056e-03 -1 1 1.010056e-03 1103.3716 2061.5696)" style="clip-path:url(#SVGID_1_);fill:#E3E4DC;" width="40.9" height="41.3"/>
	
		<rect x="1566.7" y="462" transform="matrix(1.095283e-03 -1 1 1.095283e-03 1103.3929 2043.0798)" style="clip-path:url(#SVGID_1_);fill:#676462;" width="15.3" height="14.5"/>
	
		<rect x="1570.2" y="465.5" transform="matrix(1.077220e-03 -1 1 1.077220e-03 1103.3235 2046.6139)" style="clip-path:url(#SVGID_1_);fill:#363335;" width="11.7" height="11.1"/>
	<rect x="1585.4" y="461.6" style="clip-path:url(#SVGID_1_);fill:#676462;" width="14.5" height="15.3"/>
	<rect x="1585.4" y="465.2" style="clip-path:url(#SVGID_1_);fill:#363335;" width="11.1" height="11.7"/>
	
		<rect x="1566.7" y="480.6" transform="matrix(1.095137e-03 -1 1 1.095137e-03 1084.7878 2061.6287)" style="clip-path:url(#SVGID_1_);fill:#676462;" width="15.3" height="14.5"/>
	
		<rect x="1570.2" y="484.1" transform="matrix(1.077220e-03 -1 1 1.077220e-03 1084.7191 2065.1636)" style="clip-path:url(#SVGID_1_);fill:#363335;" width="11.7" height="11.1"/>
	
		<rect x="1585" y="480.6" transform="matrix(1.093041e-03 -1 1 1.093041e-03 1103.0839 2079.9805)" style="clip-path:url(#SVGID_1_);fill:#676462;" width="15.3" height="14.5"/>
	
		<rect x="1585.1" y="484.1" transform="matrix(1.074474e-03 -1 1 1.074474e-03 1099.5875 2080.0754)" style="clip-path:url(#SVGID_1_);fill:#363335;" width="11.7" height="11.1"/>
	<rect x="1629.2" y="456.2" style="clip-path:url(#SVGID_1_);fill:#E3E4DC;" width="46.1" height="5.9"/>
	<rect x="1629.2" y="494.4" style="clip-path:url(#SVGID_1_);fill:#E3E4DC;" width="46.1" height="5.9"/>
	
		<rect x="1631.8" y="458" transform="matrix(1.010056e-03 -1 1 1.010056e-03 1171.9821 2130.3884)" style="clip-path:url(#SVGID_1_);fill:#E3E4DC;" width="40.9" height="41.3"/>
	<rect x="1635.8" y="461.7" style="clip-path:url(#SVGID_1_);fill:#676462;" width="14.5" height="15.3"/>
	<rect x="1639.3" y="465.3" style="clip-path:url(#SVGID_1_);fill:#363335;" width="11.1" height="11.7"/>
	
		<rect x="1653.8" y="462.1" transform="matrix(1.093041e-03 -1 1 1.093041e-03 1190.2954 2130.25)" style="clip-path:url(#SVGID_1_);fill:#676462;" width="15.3" height="14.5"/>
	
		<rect x="1653.9" y="465.6" transform="matrix(1.074474e-03 -1 1 1.074474e-03 1186.801 2130.3452)" style="clip-path:url(#SVGID_1_);fill:#363335;" width="11.7" height="11.1"/>
	
		<rect x="1635.4" y="480.6" transform="matrix(1.095137e-03 -1 1 1.095137e-03 1153.3918 2130.447)" style="clip-path:url(#SVGID_1_);fill:#676462;" width="15.3" height="14.5"/>
	
		<rect x="1639" y="484.2" transform="matrix(1.077220e-03 -1 1 1.077220e-03 1153.3245 2133.9827)" style="clip-path:url(#SVGID_1_);fill:#363335;" width="11.7" height="11.1"/>
	<rect x="1654.2" y="480.3" style="clip-path:url(#SVGID_1_);fill:#676462;" width="14.5" height="15.3"/>
	
		<rect x="1653.9" y="484.2" transform="matrix(1.074474e-03 -1 1 1.074474e-03 1168.193 2148.8943)" style="clip-path:url(#SVGID_1_);fill:#363335;" width="11.7" height="11.1"/>
	<rect x="1670.5" y="456.2" style="clip-path:url(#SVGID_1_);fill:#E3E4DC;" width="43.3" height="5.9"/>
	<rect x="1670.2" y="494.4" style="clip-path:url(#SVGID_1_);fill:#E3E4DC;" width="43.6" height="5.9"/>
	
		<rect x="1670.3" y="458" transform="matrix(1.010056e-03 -1 1 1.010056e-03 1210.3541 2168.8767)" style="clip-path:url(#SVGID_1_);fill:#E3E4DC;" width="40.9" height="41.3"/>
	<rect x="1674.3" y="461.7" style="clip-path:url(#SVGID_1_);fill:#676462;" width="14.5" height="15.3"/>
	<rect x="1677.7" y="465.3" style="clip-path:url(#SVGID_1_);fill:#363335;" width="11.1" height="11.7"/>
	
		<rect x="1692.2" y="462.1" transform="matrix(1.093041e-03 -1 1 1.093041e-03 1228.6637 2168.7375)" style="clip-path:url(#SVGID_1_);fill:#676462;" width="15.3" height="14.5"/>
	
		<rect x="1692.3" y="465.6" transform="matrix(1.074474e-03 -1 1 1.074474e-03 1225.1692 2168.8323)" style="clip-path:url(#SVGID_1_);fill:#363335;" width="11.7" height="11.1"/>
	
		<rect x="1673.9" y="480.7" transform="matrix(1.095137e-03 -1 1 1.095137e-03 1191.7593 2168.9343)" style="clip-path:url(#SVGID_1_);fill:#676462;" width="15.3" height="14.5"/>
	
		<rect x="1677.4" y="484.2" transform="matrix(1.077220e-03 -1 1 1.077220e-03 1191.6927 2172.4695)" style="clip-path:url(#SVGID_1_);fill:#363335;" width="11.7" height="11.1"/>
	<rect x="1692.6" y="480.3" style="clip-path:url(#SVGID_1_);fill:#676462;" width="14.5" height="15.3"/>
	
		<rect x="1692.3" y="484.2" transform="matrix(1.074287e-03 -1 1 1.074287e-03 1206.5627 2187.3826)" style="clip-path:url(#SVGID_1_);fill:#363335;" width="11.7" height="11.1"/>
	<polygon style="clip-path:url(#SVGID_1_);fill:#E3E4DC;" points="1604.2,649.6 1604.2,570.2 1607,570.2 1607,565.4 1559.9,565.3 
		1559.9,570.2 1562.7,570.2 1562.7,649.6 1559.8,649.6 1559.8,655.7 1607.7,655.8 1607.7,649.6 	"/>
	
		<rect x="1544.9" y="595.6" transform="matrix(1.030454e-03 -1 1 1.030454e-03 970.5131 2193.6013)" style="clip-path:url(#SVGID_1_);fill:#676462;" width="76.6" height="30.8"/>
	
		<rect x="1549.6" y="600.4" transform="matrix(1.039108e-03 -1 1 1.039108e-03 969.8558 2198.3027)" style="clip-path:url(#SVGID_1_);fill:#1D1A1C;" width="71.3" height="26.7"/>
	<rect x="1629.1" y="565.2" style="clip-path:url(#SVGID_1_);fill:#E3E4DC;" width="46.1" height="5.9"/>
	<rect x="1629.1" y="603.3" style="clip-path:url(#SVGID_1_);fill:#E3E4DC;" width="46.1" height="5.9"/>
	
		<rect x="1631.7" y="567" transform="matrix(1.010056e-03 -1 1 1.010056e-03 1062.8932 2239.1501)" style="clip-path:url(#SVGID_1_);fill:#E3E4DC;" width="40.9" height="41.3"/>
	
		<rect x="1635.4" y="571" transform="matrix(1.094094e-03 -1 1 1.094094e-03 1062.9097 2220.6506)" style="clip-path:url(#SVGID_1_);fill:#676462;" width="15.3" height="14.5"/>
	
		<rect x="1638.9" y="574.6" transform="matrix(1.075853e-03 -1 1 1.075853e-03 1062.8428 2224.1875)" style="clip-path:url(#SVGID_1_);fill:#363335;" width="11.7" height="11.1"/>
	<rect x="1654.1" y="570.7" style="clip-path:url(#SVGID_1_);fill:#676462;" width="14.5" height="15.3"/>
	<rect x="1654.1" y="574.3" style="clip-path:url(#SVGID_1_);fill:#363335;" width="11.1" height="11.7"/>
	<rect x="1635.7" y="589.2" style="clip-path:url(#SVGID_1_);fill:#676462;" width="14.5" height="15.3"/>
	
		<rect x="1638.9" y="593.2" transform="matrix(1.075853e-03 -1 1 1.075853e-03 1044.2363 2242.7354)" style="clip-path:url(#SVGID_1_);fill:#363335;" width="11.7" height="11.1"/>
	
		<rect x="1653.7" y="589.6" transform="matrix(1.093041e-03 -1 1 1.093041e-03 1062.598 2257.5498)" style="clip-path:url(#SVGID_1_);fill:#676462;" width="15.3" height="14.5"/>
	
		<rect x="1653.8" y="593.2" transform="matrix(1.074287e-03 -1 1 1.074287e-03 1059.1044 2257.6479)" style="clip-path:url(#SVGID_1_);fill:#363335;" width="11.7" height="11.1"/>
	
		<rect x="1689.1" y="546.5" transform="matrix(1.008016e-03 -1 1 1.008016e-03 1122.1938 2259.5686)" style="clip-path:url(#SVGID_1_);fill:#E3E4DC;" width="5.9" height="43.3"/>
	
		<rect x="1688.9" y="584.5" transform="matrix(1.001709e-03 -1 1 1.001709e-03 1083.8298 2297.5476)" style="clip-path:url(#SVGID_1_);fill:#E3E4DC;" width="5.9" height="43.6"/>
	
		<rect x="1670.2" y="567" transform="matrix(1.010056e-03 -1 1 1.010056e-03 1101.2637 2277.6372)" style="clip-path:url(#SVGID_1_);fill:#E3E4DC;" width="40.9" height="41.3"/>
	
		<rect x="1673.8" y="571.1" transform="matrix(1.094094e-03 -1 1 1.094094e-03 1101.2771 2259.1379)" style="clip-path:url(#SVGID_1_);fill:#676462;" width="15.3" height="14.5"/>
	
		<rect x="1677.3" y="574.6" transform="matrix(1.075853e-03 -1 1 1.075853e-03 1101.2108 2262.6746)" style="clip-path:url(#SVGID_1_);fill:#363335;" width="11.7" height="11.1"/>
	<rect x="1692.5" y="570.7" style="clip-path:url(#SVGID_1_);fill:#676462;" width="14.5" height="15.3"/>
	<rect x="1692.5" y="574.3" style="clip-path:url(#SVGID_1_);fill:#363335;" width="11.1" height="11.7"/>
	<rect x="1674.2" y="589.3" style="clip-path:url(#SVGID_1_);fill:#676462;" width="14.5" height="15.3"/>
	
		<rect x="1677.3" y="593.2" transform="matrix(1.075853e-03 -1 1 1.075853e-03 1082.6049 2281.2227)" style="clip-path:url(#SVGID_1_);fill:#363335;" width="11.7" height="11.1"/>
	
		<rect x="1692.1" y="589.7" transform="matrix(1.093187e-03 -1 1 1.093187e-03 1100.9661 2296.0383)" style="clip-path:url(#SVGID_1_);fill:#676462;" width="15.3" height="14.5"/>
	
		<rect x="1692.2" y="593.2" transform="matrix(1.074474e-03 -1 1 1.074474e-03 1097.4729 2296.1357)" style="clip-path:url(#SVGID_1_);fill:#363335;" width="11.7" height="11.1"/>
	
		<rect x="1628.1" y="606.7" transform="matrix(1.124504e-03 -1 1 1.124504e-03 1020.5174 2242.1978)" style="clip-path:url(#SVGID_1_);fill:#E3E4DC;" width="9" height="7.1"/>
	
		<rect x="1705.6" y="606.8" transform="matrix(1.098766e-03 -1 1 1.098766e-03 1097.8676 2319.761)" style="clip-path:url(#SVGID_1_);fill:#E3E4DC;" width="9" height="7.1"/>
	
		<rect x="1637.8" y="606.7" transform="matrix(1.124813e-03 -1 1 1.124813e-03 1030.1808 2251.8918)" style="clip-path:url(#SVGID_1_);fill:#E3E4DC;" width="9" height="7.1"/>
	
		<rect x="1647.5" y="606.8" transform="matrix(1.124813e-03 -1 1 1.124813e-03 1039.8438 2261.585)" style="clip-path:url(#SVGID_1_);fill:#E3E4DC;" width="9" height="7.1"/>
	
		<rect x="1657.2" y="606.8" transform="matrix(1.124813e-03 -1 1 1.124813e-03 1049.5066 2271.2781)" style="clip-path:url(#SVGID_1_);fill:#E3E4DC;" width="9" height="7.1"/>
	
		<rect x="1666.8" y="606.8" transform="matrix(1.124504e-03 -1 1 1.124504e-03 1059.1702 2280.9722)" style="clip-path:url(#SVGID_1_);fill:#E3E4DC;" width="9" height="7.1"/>
	
		<rect x="1676.5" y="606.8" transform="matrix(1.124813e-03 -1 1 1.124813e-03 1068.8334 2290.6655)" style="clip-path:url(#SVGID_1_);fill:#E3E4DC;" width="9" height="7.1"/>
	
		<rect x="1686.2" y="606.8" transform="matrix(1.124813e-03 -1 1 1.124813e-03 1078.4963 2300.3589)" style="clip-path:url(#SVGID_1_);fill:#E3E4DC;" width="9" height="7.1"/>
	
		<rect x="1695.9" y="606.8" transform="matrix(1.124813e-03 -1 1 1.124813e-03 1088.1595 2310.0525)" style="clip-path:url(#SVGID_1_);fill:#E3E4DC;" width="9" height="7.1"/>
	<path style="clip-path:url(#SVGID_1_);fill:#E3E4DC;" d="M1167.7,507.9l-0.8,77.2l-83.9-99.4c1.1-1.3,1.8-2.9,1.8-4.7
		c0-3-1.8-5.5-4.4-6.5l-1-18.1c1.1-0.6,1.8-1.7,1.8-3c0-1.5-0.9-2.7-2.2-3.2l-1.1-18.6l-1.2,18.5c-1.4,0.4-2.4,1.7-2.4,3.3
		c0,1.4,0.8,2.6,2,3.1l-1.2,18c-2.6,1-4.4,3.6-4.4,6.6c0,1.7,0.6,3.3,1.6,4.5l-83.8,99.2c0,1.1-0.4-21.8-0.4-21.8h-6.1l1.9,267.2
		l4.3,0.3l-0.1-5.1h3.1l0.4-5h3.4l0.1-4.7l52.6-0.3l125.7-37.4v-270H1167.7z"/>
	<path style="clip-path:url(#SVGID_1_);fill:#A33F5F;" d="M1160.7,704.4v-5.1h-3.6v5.1h-6.6v-5.1h-3.6v5.1h-6.6v-5.1h-3.6v5.1h-6.6
		v-5.1h-3.6v5.1h-6.6v-5.1h-3.6v5.1h-6.6v-5.1h-3.6v5.1h-6.6v-5.1h-3.6v5.1h-6.6v-5.1h-3.6v5.1h-6.6v-5.1h-3.6v5.1h-6.6v-5.1h-3.6
		v5.1h-6.6v-5.1h-3.6v5.1h-6.6v-5.1h-3.6v5.1h-6.6v-5.1h-3.6v5.1h-6.6v-5.1h-3.6v5.1h-6.6v-5.1h-3.6v5.1h-6.6v-5.1h-3.6v5.1H998
		v-5.1h-3.6v5.4l-6.1,6.6c-0.8,0-0.1,114.1-0.1,114.1h3.1l0.4-5h3.4v-5.7l52.7,0.8l119.3-34.9v-76.1H1160.7z"/>
	<polygon style="clip-path:url(#SVGID_1_);fill:#821433;" points="1160.7,704.4 1160.7,699.3 1157.1,699.3 1157.1,704.4 
		1150.5,704.4 1150.5,699.3 1147,699.3 1147,704.4 1140.4,704.4 1140.4,699.3 1136.8,699.3 1136.8,704.4 1130.2,704.4 1130.2,699.3 
		1126.6,699.3 1126.6,704.4 1120,704.4 1120,699.3 1116.5,699.3 1116.5,704.4 1109.8,704.4 1109.8,699.3 1106.3,699.3 1106.3,704.4 
		1099.7,704.4 1099.7,699.3 1096.1,699.3 1096.1,704.4 1089.5,704.4 1089.5,699.3 1085.9,699.3 1085.9,704.4 1079.3,704.4 
		1079.3,699.3 1075.8,699.3 1075.8,704.4 1069.2,704.4 1069.2,699.3 1065.6,699.3 1065.6,704.4 1130.2,791.3 1167.1,780.5 
		1167.1,704.4 	"/>
	<path style="clip-path:url(#SVGID_1_);fill:#A33F5F;" d="M1160.7,597.9v-5.9h-3.6v5.9h-6.6v-5.9h-3.6v5.9h-6.6v-5.9h-3.6v5.9h-6.6
		v-5.9h-3.6v5.9h-6.6v-5.9h-3.6v5.9h-6.6v-5.9h-3.6v5.9h-6.6v-5.9h-3.6v5.9h-6.6v-5.9h-3.6v5.9h-6.6v-5.9h-3.6v5.9h-6.6v-5.9h-3.6
		v5.9h-6.6v-5.9h-3.6v5.9h-6.6v-5.9h-3.6v5.9h-6.6v-5.9h-3.6v5.9h-6.6v-5.9h-3.6v5.9h-6.6v-5.9h-3.6v5.9h-6.6v-5.9h-3.6v5.9H998
		v-5.9h-3.6v5.9h-5.9c-0.4-0.4,0,81.5,0,81.5l10.4,13h168.3v-94.5H1160.7z"/>
	<path style="clip-path:url(#SVGID_1_);fill:#821433;" d="M1160.7,597.9v-5.9h-3.6v5.9h-6.6v-5.9h-3.6v5.9h-6.6v-5.9h-3.6v5.9h-6.6
		v-5.9h-3.6v5.9h-6.6v-5.9h-3.6v5.9h-6.6v-5.9h-3.6v5.9h-6.6v-5.9h-3.6v5.9h-6.6v-5.9h-3.6v5.9h-6.6v-5.9h-3.6v5.9h-6.6v-5.9h-3.6
		v5.9h-6.6v-5.9h-3.6v5.9h-6.6v-5.9h-3.6v5.9h-6.6v-5.9h-3.6v5.9h-6.6v-5.9h-3.6v5.9h-6.6v-5.9h-3.6v5.9h-6.6v-5.9h-3.6v5.9H998
		v-5.9h-3.6v5.9h-5.9c-0.4-0.4,70.5,94.5,70.5,94.5h108.2v-94.5H1160.7z"/>
	<path style="clip-path:url(#SVGID_1_);fill:#E3E4DC;" d="M986.1,550.1l-0.1-2c1.3-0.5,2.2-1.8,2.2-3.3c0-1.7-1.1-3-2.6-3.5
		l-1.7-27.6l-0.8,27.8c-1.2,0.6-2.1,1.8-2.1,3.3c0,1.4,0.8,2.6,1.9,3.2l-0.1,2.2c-3.2,0.8-5.5,3.6-5.5,7c0,4,3.3,7.3,7.3,7.3
		c4,0,7.3-3.3,7.3-7.3C991.8,553.7,989.4,550.8,986.1,550.1"/>
	<path style="clip-path:url(#SVGID_1_);fill:#E3E4DC;" d="M1172.5,496.2l-0.1-2c1.3-0.5,2.2-1.8,2.2-3.3c0-1.7-1.1-3-2.6-3.5
		l-1.7-27.6l-0.8,27.8c-1.2,0.6-2.1,1.8-2.1,3.3c0,1.4,0.8,2.6,1.9,3.2l-0.1,2.2c-3.2,0.8-5.5,3.6-5.5,7c0,4,3.2,7.3,7.3,7.3
		c4,0,7.3-3.3,7.3-7.3C1178.2,499.9,1175.7,496.9,1172.5,496.2"/>
	<polygon style="clip-path:url(#SVGID_1_);fill:#600D2B;" points="1008.3,572.5 1077.6,488.2 1146.6,572.8 1146.6,585.5 
		1008.3,585.5 	"/>
	<rect x="1056.2" y="532.5" style="clip-path:url(#SVGID_1_);fill:#E3E4DC;" width="41.3" height="40.9"/>
	<rect x="1060.4" y="536" style="clip-path:url(#SVGID_1_);fill:#676462;" width="14.5" height="15.3"/>
	<rect x="1063.9" y="539.6" style="clip-path:url(#SVGID_1_);fill:#363335;" width="11.1" height="11.7"/>
	<rect x="1078.8" y="536" style="clip-path:url(#SVGID_1_);fill:#676462;" width="14.5" height="15.3"/>
	<rect x="1078.8" y="539.6" style="clip-path:url(#SVGID_1_);fill:#363335;" width="11.1" height="11.7"/>
	<rect x="1060.4" y="554.5" style="clip-path:url(#SVGID_1_);fill:#676462;" width="14.5" height="15.3"/>
	<rect x="1063.9" y="558.2" style="clip-path:url(#SVGID_1_);fill:#363335;" width="11.1" height="11.7"/>
	<rect x="1078.8" y="554.5" style="clip-path:url(#SVGID_1_);fill:#676462;" width="14.5" height="15.3"/>
	<rect x="1078.8" y="558.2" style="clip-path:url(#SVGID_1_);fill:#363335;" width="11.1" height="11.7"/>
	<polygon style="clip-path:url(#SVGID_1_);fill:#E3E4DC;" points="1051.3,525.5 1051.3,519.8 1046.6,525.5 	"/>
	<polygon style="clip-path:url(#SVGID_1_);fill:#E3E4DC;" points="1104.4,520.9 1104.4,525.5 1108.1,525.5 	"/>
	<polyline style="clip-path:url(#SVGID_1_);fill:#E3E4DC;" points="1048.9,525.5 1061.2,525.5 1064.8,525.5 1071.1,525.5 
		1074.7,525.5 1080.9,525.5 1084.6,525.5 1090.8,525.5 1094.5,525.5 1100.7,525.5 1107.9,525.3 1098.7,514 1056.1,514 1051.3,519.8 
			"/>
	<rect x="1001.2" y="616" style="clip-path:url(#SVGID_1_);fill:#E3E4DC;" width="46.1" height="5.9"/>
	<rect x="1001.2" y="654.2" style="clip-path:url(#SVGID_1_);fill:#E3E4DC;" width="46.1" height="5.9"/>
	<rect x="1003.7" y="618" style="clip-path:url(#SVGID_1_);fill:#E3E4DC;" width="41.3" height="40.9"/>
	<rect x="1007.9" y="621.5" style="clip-path:url(#SVGID_1_);fill:#676462;" width="14.5" height="15.3"/>
	<rect x="1011.3" y="625.1" style="clip-path:url(#SVGID_1_);fill:#363335;" width="11.1" height="11.7"/>
	<rect x="1026.2" y="621.5" style="clip-path:url(#SVGID_1_);fill:#676462;" width="14.5" height="15.3"/>
	<rect x="1026.2" y="625.1" style="clip-path:url(#SVGID_1_);fill:#363335;" width="11.1" height="11.7"/>
	<rect x="1007.9" y="640.1" style="clip-path:url(#SVGID_1_);fill:#676462;" width="14.5" height="15.3"/>
	<rect x="1011.3" y="643.7" style="clip-path:url(#SVGID_1_);fill:#363335;" width="11.1" height="11.7"/>
	<rect x="1026.2" y="640.1" style="clip-path:url(#SVGID_1_);fill:#676462;" width="14.5" height="15.3"/>
	<rect x="1026.2" y="643.7" style="clip-path:url(#SVGID_1_);fill:#363335;" width="11.1" height="11.7"/>
	<rect x="1070" y="616" style="clip-path:url(#SVGID_1_);fill:#E3E4DC;" width="46.1" height="5.9"/>
	<rect x="1070" y="654.2" style="clip-path:url(#SVGID_1_);fill:#E3E4DC;" width="46.1" height="5.9"/>
	<rect x="1072.4" y="618" style="clip-path:url(#SVGID_1_);fill:#E3E4DC;" width="41.3" height="40.9"/>
	<rect x="1076.6" y="621.5" style="clip-path:url(#SVGID_1_);fill:#676462;" width="14.5" height="15.3"/>
	<rect x="1080" y="625.1" style="clip-path:url(#SVGID_1_);fill:#363335;" width="11.1" height="11.7"/>
	<rect x="1094.9" y="621.5" style="clip-path:url(#SVGID_1_);fill:#676462;" width="14.5" height="15.3"/>
	<rect x="1094.9" y="625.1" style="clip-path:url(#SVGID_1_);fill:#363335;" width="11.1" height="11.7"/>
	<rect x="1076.6" y="640.1" style="clip-path:url(#SVGID_1_);fill:#676462;" width="14.5" height="15.3"/>
	<rect x="1080" y="643.7" style="clip-path:url(#SVGID_1_);fill:#363335;" width="11.1" height="11.7"/>
	<rect x="1094.9" y="640.1" style="clip-path:url(#SVGID_1_);fill:#676462;" width="14.5" height="15.3"/>
	<rect x="1094.9" y="643.7" style="clip-path:url(#SVGID_1_);fill:#363335;" width="11.1" height="11.7"/>
	<rect x="1111.2" y="616" style="clip-path:url(#SVGID_1_);fill:#E3E4DC;" width="43.3" height="5.9"/>
	<rect x="1110.9" y="654.2" style="clip-path:url(#SVGID_1_);fill:#E3E4DC;" width="43.6" height="5.9"/>
	<rect x="1110.8" y="618" style="clip-path:url(#SVGID_1_);fill:#E3E4DC;" width="41.3" height="40.9"/>
	<rect x="1115.1" y="621.5" style="clip-path:url(#SVGID_1_);fill:#676462;" width="14.5" height="15.3"/>
	<rect x="1118.5" y="625.1" style="clip-path:url(#SVGID_1_);fill:#363335;" width="11.1" height="11.7"/>
	<rect x="1133.4" y="621.5" style="clip-path:url(#SVGID_1_);fill:#676462;" width="14.5" height="15.3"/>
	<rect x="1133.4" y="625.1" style="clip-path:url(#SVGID_1_);fill:#363335;" width="11.1" height="11.7"/>
	<rect x="1115.1" y="640.1" style="clip-path:url(#SVGID_1_);fill:#676462;" width="14.5" height="15.3"/>
	<rect x="1118.5" y="643.7" style="clip-path:url(#SVGID_1_);fill:#363335;" width="11.1" height="11.7"/>
	<rect x="1133.4" y="640.1" style="clip-path:url(#SVGID_1_);fill:#676462;" width="14.5" height="15.3"/>
	<rect x="1133.4" y="643.7" style="clip-path:url(#SVGID_1_);fill:#363335;" width="11.1" height="11.7"/>
	<polygon style="clip-path:url(#SVGID_1_);fill:#E3E4DC;" points="1045.1,809.5 1045.1,730.1 1047.9,730.1 1047.9,725.2 
		1000.8,725.2 1000.8,730.1 1003.6,730.1 1003.6,809.5 1000.8,809.5 1000.8,815.6 1048.7,815.6 1048.7,809.5 	"/>
	<rect x="1008.7" y="732.6" style="clip-path:url(#SVGID_1_);fill:#676462;" width="30.8" height="76.6"/>
	<rect x="1012.8" y="738" style="clip-path:url(#SVGID_1_);fill:#1D1A1C;" width="26.7" height="71.3"/>
	<rect x="1070" y="725" style="clip-path:url(#SVGID_1_);fill:#E3E4DC;" width="46.1" height="5.9"/>
	<rect x="1070" y="763.2" style="clip-path:url(#SVGID_1_);fill:#E3E4DC;" width="46.1" height="5.9"/>
	<rect x="1072.4" y="727" style="clip-path:url(#SVGID_1_);fill:#E3E4DC;" width="41.3" height="40.9"/>
	<rect x="1076.6" y="730.5" style="clip-path:url(#SVGID_1_);fill:#676462;" width="14.5" height="15.3"/>
	<rect x="1080" y="734.1" style="clip-path:url(#SVGID_1_);fill:#363335;" width="11.1" height="11.7"/>
	<rect x="1094.9" y="730.5" style="clip-path:url(#SVGID_1_);fill:#676462;" width="14.5" height="15.3"/>
	<rect x="1094.9" y="734.1" style="clip-path:url(#SVGID_1_);fill:#363335;" width="11.1" height="11.7"/>
	<rect x="1076.6" y="749.1" style="clip-path:url(#SVGID_1_);fill:#676462;" width="14.5" height="15.3"/>
	<rect x="1080" y="752.7" style="clip-path:url(#SVGID_1_);fill:#363335;" width="11.1" height="11.7"/>
	<rect x="1094.9" y="749.1" style="clip-path:url(#SVGID_1_);fill:#676462;" width="14.5" height="15.3"/>
	<rect x="1094.9" y="752.7" style="clip-path:url(#SVGID_1_);fill:#363335;" width="11.1" height="11.7"/>
	<rect x="1111.2" y="725" style="clip-path:url(#SVGID_1_);fill:#E3E4DC;" width="43.3" height="5.9"/>
	<rect x="1110.9" y="763.2" style="clip-path:url(#SVGID_1_);fill:#E3E4DC;" width="43.6" height="5.9"/>
	<rect x="1110.8" y="727" style="clip-path:url(#SVGID_1_);fill:#E3E4DC;" width="41.3" height="40.9"/>
	<rect x="1115.1" y="730.5" style="clip-path:url(#SVGID_1_);fill:#676462;" width="14.5" height="15.3"/>
	<rect x="1118.5" y="734.1" style="clip-path:url(#SVGID_1_);fill:#363335;" width="11.1" height="11.7"/>
	<rect x="1133.4" y="730.5" style="clip-path:url(#SVGID_1_);fill:#676462;" width="14.5" height="15.3"/>
	<rect x="1133.4" y="734.1" style="clip-path:url(#SVGID_1_);fill:#363335;" width="11.1" height="11.7"/>
	<rect x="1115.1" y="749.1" style="clip-path:url(#SVGID_1_);fill:#676462;" width="14.5" height="15.3"/>
	<rect x="1118.5" y="752.7" style="clip-path:url(#SVGID_1_);fill:#363335;" width="11.1" height="11.7"/>
	<rect x="1133.4" y="749.1" style="clip-path:url(#SVGID_1_);fill:#676462;" width="14.5" height="15.3"/>
	<rect x="1133.4" y="752.7" style="clip-path:url(#SVGID_1_);fill:#363335;" width="11.1" height="11.7"/>
	<rect x="1070" y="765.6" style="clip-path:url(#SVGID_1_);fill:#E3E4DC;" width="7.1" height="9"/>
	<rect x="1147.5" y="765.6" style="clip-path:url(#SVGID_1_);fill:#E3E4DC;" width="7.1" height="9"/>
	<rect x="1079.7" y="765.6" style="clip-path:url(#SVGID_1_);fill:#E3E4DC;" width="7.1" height="9"/>
	<rect x="1089.4" y="765.6" style="clip-path:url(#SVGID_1_);fill:#E3E4DC;" width="7.1" height="9"/>
	<rect x="1099" y="765.6" style="clip-path:url(#SVGID_1_);fill:#E3E4DC;" width="7.1" height="9"/>
	<rect x="1108.7" y="765.6" style="clip-path:url(#SVGID_1_);fill:#E3E4DC;" width="7.1" height="9"/>
	<rect x="1118.4" y="765.6" style="clip-path:url(#SVGID_1_);fill:#E3E4DC;" width="7.1" height="9"/>
	<rect x="1128.1" y="765.6" style="clip-path:url(#SVGID_1_);fill:#E3E4DC;" width="7.1" height="9"/>
	<rect x="1137.8" y="765.6" style="clip-path:url(#SVGID_1_);fill:#E3E4DC;" width="7.1" height="9"/>
	<polygon style="clip-path:url(#SVGID_1_);fill:#FFFFFF;" points="1437.3,405.2 1449.2,389.5 1462.2,404.8 	"/>
	<polygon style="clip-path:url(#SVGID_1_);fill:#E3E4DC;" points="1063,510.8 1077.6,492.4 1092.6,510.8 	"/>
	<polygon style="clip-path:url(#SVGID_1_);fill:#676462;" points="1285,761.5 1290.9,780.9 1408.5,744.2 1405.6,721.8 	"/>
	<polygon style="clip-path:url(#SVGID_1_);fill:#676462;" points="1513.8,693.7 1518.2,713.6 1617.7,684.7 1634.5,654.1 	"/>
	<polygon style="clip-path:url(#SVGID_1_);fill:#676462;" points="1723.8,634.6 1729.2,652.7 1846.9,616.1 1863.7,585.6 	"/>
	<polygon style="clip-path:url(#SVGID_1_);fill:#3A803D;" points="1828.1,586.6 1825.1,605.4 911.7,879.5 902.5,858.1 	"/>
	<rect x="1354.8" y="704" style="clip-path:url(#SVGID_1_);fill:#761C14;" width="10.3" height="29.2"/>
	<rect x="1359.8" y="704" style="clip-path:url(#SVGID_1_);fill:#391214;" width="5.3" height="29.2"/>
	<path style="clip-path:url(#SVGID_1_);fill:#60A754;" d="M1360.1,599v112.4c0,0-28.5,5.5-30.2-34.6c0,0-1.1-41.2,21.3-70
		C1351.2,606.7,1356.2,598.4,1360.1,599"/>
	<path style="clip-path:url(#SVGID_1_);fill:#3A803D;" d="M1360.3,599v112.4c0,0,28.5,5.5,30.2-34.6c0,0,1.1-41.2-21.3-70
		C1369.2,606.7,1364.2,598.4,1360.3,599"/>
	<rect x="1732.7" y="590.6" style="clip-path:url(#SVGID_1_);fill:#761C14;" width="10.3" height="29.2"/>
	
		<rect x="1725.8" y="602.5" transform="matrix(1.112129e-03 -1 1 1.112129e-03 1133.2401 2344.8137)" style="clip-path:url(#SVGID_1_);fill:#391214;" width="29.2" height="5.4"/>
	<path style="clip-path:url(#SVGID_1_);fill:#60A754;" d="M1738.1,485.6l-0.1,112.4c0,0-28.5,5.5-30.1-34.6c0,0-1.1-41.2,21.4-70
		C1729.2,493.3,1734.2,485,1738.1,485.6"/>
	<path style="clip-path:url(#SVGID_1_);fill:#3A803D;" d="M1738.3,485.6l-0.1,112.4c0,0,28.5,5.6,30.2-34.6c0,0,1.1-41.2-21.2-70
		C1747.2,493.3,1742.2,485,1738.3,485.6"/>
	<polygon style="clip-path:url(#SVGID_1_);fill:#1D1A1C;" points="897.9,896.3 1801.1,620.7 1791.6,964.4 971.2,931.5 	"/>
	<path style="clip-path:url(#SVGID_1_);fill:#163925;" d="M919.4,880.5c0,0-84-5.6-63.8-92.3c0,0,15.6-48.4,63-50.2
		c0,0,14.7-50.2,66.7-41.9c0,0,29.2,0,46.5,30.2c0,0,95-9,87.6,76.8c0,0-3.7,62.1-74,63.8c0,0,0.8,64.8-60.8,66.6
		C984.6,933.5,925.7,932.6,919.4,880.5"/>
	<path style="clip-path:url(#SVGID_1_);fill:#22572B;" d="M918.6,738.1c-47.5,1.8-63,50.2-63,50.2c-20.2,86.7,63.8,92.3,63.8,92.3
		c5.8,47.4,55,52.4,63.9,53l0.2-237.5C933,689.1,918.6,738.1,918.6,738.1"/>
	<rect x="233.3" y="846.5" style="clip-path:url(#SVGID_1_);fill:#761C14;" width="13.8" height="38.9"/>
	<rect x="240" y="846.5" style="clip-path:url(#SVGID_1_);fill:#391214;" width="7.1" height="38.9"/>
	<path style="clip-path:url(#SVGID_1_);fill:#60A754;" d="M240.3,706.3v150c0,0-38.1,7.4-40.3-46.2c0,0-1.5-55.1,28.5-93.5
		C228.5,716.6,235.2,705.6,240.3,706.3"/>
	<path style="clip-path:url(#SVGID_1_);fill:#3A803D;" d="M240.7,706.3v150c0,0,38.1,7.4,40.3-46.2c0,0,1.5-55.1-28.5-93.5
		C252.5,716.6,245.9,705.6,240.7,706.3"/>
	<rect x="154.1" y="806.1" style="clip-path:url(#SVGID_1_);fill:#761C14;" width="13.8" height="51"/>
	<rect x="160.8" y="806.1" style="clip-path:url(#SVGID_1_);fill:#391214;" width="7.1" height="51"/>
	<path style="clip-path:url(#SVGID_1_);fill:#60A754;" d="M161.1,622.5V819c0,0-38.1,9.7-40.3-60.5c0,0-1.5-72.1,28.5-122.5
		C149.3,636.1,155.9,621.6,161.1,622.5"/>
	<path style="clip-path:url(#SVGID_1_);fill:#3A803D;" d="M161.5,622.5V819c0,0,38.1,9.7,40.3-60.5c0,0,1.5-72.1-28.5-122.5
		C173.3,636.1,166.7,621.6,161.5,622.5"/>
	<path style="clip-path:url(#SVGID_1_);fill:#60A754;" d="M93.2,745.9v150c0,0-38.1,7.4-40.3-46.2c0,0-1.5-55.1,28.5-93.5
		C81.4,756.2,88.1,745.2,93.2,745.9"/>
	<path style="clip-path:url(#SVGID_1_);fill:#3A803D;" d="M93.6,745.9v150c0,0,38.1,7.4,40.3-46.2c0,0,1.5-55.1-28.5-93.5
		C105.4,756.2,98.8,745.2,93.6,745.9"/>
	<rect x="-114.7" y="-93.2" style="clip-path:url(#SVGID_1_);fill:none;" width="1857.4" height="928.7"/>
	<g style="opacity:0.9;clip-path:url(#SVGID_1_);">
		<g>
			<defs>
				<rect id="SVGID_21_" x="441" y="302.1" width="188.2" height="51.1"/>
			</defs>
			<clipPath id="SVGID_4_">
				<use xlink:href="#SVGID_21_"  style="overflow:visible;"/>
			</clipPath>
			<g style="clip-path:url(#SVGID_4_);">
				<defs>
					<rect id="SVGID_23_" x="441" y="302.1" width="188.2" height="51.1"/>
				</defs>
				<clipPath id="SVGID_5_">
					<use xlink:href="#SVGID_23_"  style="overflow:visible;"/>
				</clipPath>
				<path style="clip-path:url(#SVGID_5_);fill-rule:evenodd;clip-rule:evenodd;fill:#FFFFFF;" d="M441,352.5
					c5.8-18.3,19.6-17.8,25.8-3.2c0.5-21.1,23.9-38.7,40.6-18.7c20.7-50.3,66.8-22.8,64.4-3.2c15.5-14.1,37.2,0.6,30.3,20
					c7.2-11.5,25.5-8.7,27.1,5.8L441,352.5z"/>
			</g>
		</g>
	</g>
	<g style="opacity:0.9;clip-path:url(#SVGID_1_);">
		<g>
			<defs>
				<rect id="SVGID_25_" x="911.7" y="-61.4" width="188.2" height="51.1"/>
			</defs>
			<clipPath id="SVGID_6_">
				<use xlink:href="#SVGID_25_"  style="overflow:visible;"/>
			</clipPath>
			<g style="clip-path:url(#SVGID_6_);">
				<defs>
					<rect id="SVGID_27_" x="911.7" y="-61.4" width="188.2" height="51.1"/>
				</defs>
				<clipPath id="SVGID_7_">
					<use xlink:href="#SVGID_27_"  style="overflow:visible;"/>
				</clipPath>
				<path style="clip-path:url(#SVGID_7_);fill-rule:evenodd;clip-rule:evenodd;fill:#FFFFFF;" d="M911.7-10.9
					c5.8-18.3,19.6-17.8,25.8-3.2c0.5-21.1,23.9-38.7,40.6-18.7c20.7-50.3,66.8-22.8,64.5-3.2c15.5-14.1,37.2,0.6,30.3,20
					c7.2-11.5,25.5-8.7,27.1,5.8L911.7-10.9z"/>
			</g>
		</g>
	</g>
	<rect x="-114.7" y="-93.2" style="clip-path:url(#SVGID_1_);fill:none;" width="1857.4" height="928.7"/>
	<rect x="-114.7" y="-93.2" style="clip-path:url(#SVGID_1_);fill:none;" width="1857.4" height="928.7"/>
	<rect x="-114.7" y="-93.2" style="clip-path:url(#SVGID_1_);fill:none;" width="1857.4" height="928.7"/>
	<rect x="-114.7" y="-93.2" style="clip-path:url(#SVGID_1_);fill:none;" width="1857.4" height="928.7"/>
	<rect x="-114.7" y="-93.2" style="clip-path:url(#SVGID_1_);fill:none;" width="1857.4" height="928.7"/>
	<rect x="-114.7" y="-93.2" style="clip-path:url(#SVGID_1_);fill:none;" width="1857.4" height="928.7"/>
	<rect x="-114.7" y="-93.2" style="clip-path:url(#SVGID_1_);fill:none;" width="1857.4" height="928.7"/>
	<rect x="-114.7" y="-93.2" style="clip-path:url(#SVGID_1_);fill:none;" width="1857.4" height="928.7"/>
	<rect x="-114.7" y="-93.2" style="clip-path:url(#SVGID_1_);fill:none;" width="1857.4" height="928.7"/>
	<rect x="-114.7" y="-93.2" style="clip-path:url(#SVGID_1_);fill:none;" width="1857.4" height="928.7"/>
	<rect x="-114.7" y="-93.2" style="clip-path:url(#SVGID_1_);fill:none;" width="1857.4" height="928.7"/>
	<rect x="-114.7" y="-93.2" style="clip-path:url(#SVGID_1_);fill:none;" width="1857.4" height="928.7"/>
</g>
</svg>
