<?xml version="1.0" encoding="utf-8"?>
<!-- Generator: Adobe Illustrator 23.0.2, SVG Export Plug-In . SVG Version: 6.00 Build 0)  -->
<svg version="1.1" id="Layer_1" xmlns="http://www.w3.org/2000/svg" xmlns:xlink="http://www.w3.org/1999/xlink" x="0px" y="0px"
	 viewBox="0 0 140 24.4" style="enable-background:new 0 0 140 24.4;" xml:space="preserve">
<style type="text/css">
	.st0{fill-rule:evenodd;clip-rule:evenodd;fill:#FFFFFF;}
</style>
<title>Logo</title>
<g id="Artwork">
	<path class="st0" d="M137.8,19.7c-1.2,0-2.1,1-2.1,2.2c0,1.2,1,2.1,2.2,2.1c1.2,0,2.1-1,2.1-2.1C140,20.7,139,19.7,137.8,19.7
		L137.8,19.7L137.8,19.7z M137.8,23.7c-1,0-1.9-0.8-1.9-1.9c0-1,0.8-1.9,1.9-1.9c1,0,1.9,0.8,1.9,1.9
		C139.7,22.9,138.9,23.7,137.8,23.7L137.8,23.7z"/>
	<path class="st0" d="M138.9,21.3c0-0.2-0.1-0.4-0.3-0.5c-0.2-0.1-0.4-0.1-0.6-0.1h-1V23h0.3v-1.1h0.5l0.7,1.1h0.4l-0.7-1.1l0,0
		C138.6,21.9,139,21.7,138.9,21.3L138.9,21.3z M137.8,21.7h-0.4v-0.9h0.7c0.3,0,0.6,0,0.6,0.4S138.1,21.7,137.8,21.7L137.8,21.7z"/>
	<path class="st0" d="M125.3,9.8l4.4-4.7l0,0c0.2-0.2,0.3-0.5,0.4-0.8c0-0.3-0.3-0.5-1.2-0.5h-1.1V0.9h11.9v2.9h-1.6
		c-1.8,0-2.1,0.3-4.7,3.4l0,0l-6.9,7.5v4.5l0,0c0,1.2,0.6,1.6,2.3,1.6h2.6v2.8h-16.7v-2.8h2.6c1.7,0,2.3-0.4,2.3-1.6l0,0v-4.5
		l-8.1-9l0,0c-1.3-1.6-1.2-1.9-4.9-1.9l0,0V0.9h15.1v2.9h-1.1c-1.1,0-1.6,0.2-1.6,0.6s0.3,0.6,0.6,0.9l0,0l4.1,4.5l0,0
		c0.3,0.4,1,0.5,1.4,0.2C125.2,9.9,125.3,9.9,125.3,9.8z"/>
	<path class="st0" d="M24.1,0.9h3.6v8.2h-3.4C24.1,7.5,23,6.8,22.1,6c-1.7-1.6-5.3-2.9-8.4-2.9c-4,0-7.3,1.2-7.3,3
		c0,5,22.7,1,22.7,10.5c0,5-4.9,7.7-13.6,7.7c-3.6-0.1-7.1-0.9-10.3-2.4c-0.8-0.5-1.2,0.5-1.4,1.6H0.1v-8.4h3.4
		c0.8,2.2,1.8,2.6,2.7,3.5c1.6,1.5,5.5,2.6,9.1,2.6c5.4,0,7.2-1.2,7.2-2.9s-1.8-2.1-7.7-3l0,0l-5-0.8l0,0C4.1,13.6,0,12.3,0,7.8
		c0-4.7,5.2-7.6,13.4-7.6c3.2-0.2,6.3,0.5,9.2,2C23.4,2.7,24.1,2.7,24.1,0.9L24.1,0.9z"/>
	<path class="st0" d="M95.1,14.6l0.1-9.1l0,0c0-1.2-0.6-1.6-2.4-1.6h-2.1V1.1H104v2.8h-1.7c-1.8,0-2.4,0.4-2.4,1.6l0,0v18.4h-5.2
		l-16.8-16v11.6l0,0c0,1.2,0.6,1.6,2.4,1.6h2.3v2.8H68.7v-2.8H71c1.8,0,2.4-0.4,2.4-1.6l0,0V5.5l0,0c0-1.2-0.6-1.6-2.4-1.6h-2.3V1.1
		h11.9L95.1,14.6z"/>
	<path class="st0" d="M50.6,0C40,0,33.4,4.7,33.4,12.2s6.5,12,16.9,12c11,0,17.4-4.6,17.4-12.4C67.7,4.8,60.8,0,50.6,0z M50.4,21.3
		c-5.9,0-9.2-3.4-9.2-9.2s3.5-9.1,9.5-9.1c5.8,0,9.1,3.4,9.1,9.3S56.4,21.3,50.4,21.3L50.4,21.3z"/>
</g>
</svg>
