<?xml version="1.0" encoding="utf-8"?>
<!-- Generator: Adobe Illustrator 23.0.2, SVG Export Plug-In . SVG Version: 6.00 Build 0)  -->
<svg version="1.1" id="Layer_1" xmlns="http://www.w3.org/2000/svg" xmlns:xlink="http://www.w3.org/1999/xlink" x="0px" y="0px"
	 viewBox="0 0 177.6 43.7" style="enable-background:new 0 0 177.6 43.7;" xml:space="preserve">
<style type="text/css">
	.st0{fill:#FFFFFF;}
	.st1{fill:#231F20;}
</style>
<title>Logo</title>
<g id="Artwork">
	<circle class="st0" cx="21.9" cy="21.9" r="21.8"/>
	<path class="st0" d="M133.6,24L133.6,24c0,3.7-2.1,5.6-5.9,5.6s-5.8-2-5.8-5.6v-6.5h4.2v6.3c0,1.8,0.5,2.5,1.6,2.5s1.7-0.7,1.7-2.7
		v-6.1h4.2L133.6,24z"/>
	<polygon class="st0" points="73.1,20.5 73.1,20.5 73.1,29.4 68.9,29.4 68.9,20.5 65.3,20.5 65.3,17.5 76.7,17.5 76.7,20.5 	"/>
	<path class="st0" d="M83.9,20.2L83.9,20.2l-1,4H85L83.9,20.2z M86.6,29.4L86.6,29.4l-0.7-2.2h-4l-0.8,2.2h-4.3l4.3-11.9h5.4
		l4.3,11.9H86.6z"/>
	<path class="st0" d="M147.4,28.4L147.4,28.4l-1.3-3c-0.8,0.7-1.8,1-2.8,1.1c-1.6,0-2.8-1.3-2.8-2.9c0-0.1,0-0.1,0-0.2
		c0-1.7,1-3.1,2.7-3.1c1,0.1,2,0.5,2.8,1.2l1.2-3c-1.5-0.8-3.1-1.2-4.8-1.1c-3.3-0.2-6.1,2.4-6.3,5.7c0,0.1,0,0.2,0,0.4
		c0,3.8,2.6,6.2,6.4,6.2C144.3,29.7,145.9,29.3,147.4,28.4z"/>
	<polygon class="st0" points="156.9,29.4 156.9,29.4 154.2,25.1 154.2,29.4 150.1,29.4 150.1,17.5 154.2,17.5 154.2,21.9 
		156.8,17.5 161.4,17.5 157.5,23.4 161.9,29.4 	"/>
	<path class="st0" d="M58.2,29.6L58.2,29.6c2.7,0,5.5-1,5.5-4c0-2.7-2.3-3.5-4.2-3.9c-1.4-0.3-2-0.4-2-1c0-0.7,1-0.8,1.4-0.8
		c1.2,0.1,2.4,0.4,3.4,1.1l1.1-2.7c-1.5-0.7-3.2-1.1-4.8-1.1c-2.8,0-5,1.3-5,4c0,2.2,1.7,3.1,3.5,3.5c1.3,0.3,2.1,0.4,2.1,1
		s-0.6,0.8-1.2,0.8c-1.3,0-2.5-0.5-3.4-1.3L53.2,28C54.6,29,56.4,29.6,58.2,29.6z"/>
	<path class="st0" d="M168.2,29.6L168.2,29.6c2.7,0,5.5-1,5.5-4c0-2.7-2.3-3.5-4.1-3.9c-1.4-0.3-2-0.4-2-1c0-0.7,0.9-0.8,1.4-0.8
		c1.2,0.1,2.4,0.4,3.4,1.1l1.1-2.7c-1.5-0.7-3.2-1.1-4.8-1.1c-2.8,0-5,1.3-5,4c0,2.2,1.7,3.1,3.6,3.5c1.3,0.3,2.1,0.4,2.1,1
		s-0.6,0.8-1.2,0.8c-1.3,0-2.5-0.5-3.5-1.3l-1.3,2.6C164.7,29,166.4,29.6,168.2,29.6z"/>
	<path class="st0" d="M174.9,18.7L174.9,18.7L174.9,18.7c0-0.8,0.6-1.4,1.4-1.4c0,0,0,0,0,0c0.7,0,1.3,0.6,1.3,1.3c0,0,0,0,0,0
		c0,0.8-0.6,1.4-1.4,1.4S174.9,19.5,174.9,18.7z M177.4,18.7L177.4,18.7c0-0.6-0.5-1.2-1.1-1.2c0,0,0,0-0.1,0
		c-0.7,0-1.2,0.5-1.2,1.2c0,0,0,0,0,0l0,0c0,0.7,0.5,1.2,1.2,1.2l0,0C176.9,19.9,177.4,19.4,177.4,18.7
		C177.4,18.8,177.4,18.7,177.4,18.7L177.4,18.7z M175.7,18h0.6c0.2,0,0.3,0.1,0.4,0.1c0.1,0.1,0.1,0.2,0.1,0.3l0,0
		c0,0.2-0.2,0.4-0.4,0.4l0.4,0.6h-0.2l-0.4-0.5h-0.4v0.5h-0.2V18z M176.3,18.7L176.3,18.7c0.2,0,0.3-0.1,0.3-0.2s-0.1-0.2-0.3-0.2
		h-0.4v0.5H176.3z"/>
	<path class="st0" d="M102.1,25L102.1,25c1.4-0.5,2.3-1.9,2.2-3.4c0-2.8-1.9-4.1-4.6-4.1h-6.4v11.8h4.1v-3.5h1l2.1,3.5h4.4L102.1,25
		z M100.2,21.6L100.2,21.6c0,0.7-0.4,1.2-1.1,1.3c-0.1,0-0.1,0-0.2,0h-1.4v-2.5h1.5c0.6-0.1,1.2,0.4,1.3,1
		C100.2,21.4,100.2,21.5,100.2,21.6L100.2,21.6z"/>
	<path class="st0" d="M116.5,23.3L116.5,23.3c1.3-0.1,2.4-1.3,2.3-2.6c0-2-1.5-3.2-4.2-3.2h-6.8v11.9h6.5c3.1,0,4.7-1.1,4.7-3.4
		C119.1,24.6,118,23.4,116.5,23.3C116.6,23.3,116.5,23.3,116.5,23.3z M111.9,20.1h1.5c0.8,0,1.3,0.3,1.3,1l0,0c0,0.7-0.5,1-1.3,1
		h-1.5V20.1z M114.8,25.7L114.8,25.7c0,0.7-0.5,1.1-1.4,1.1h-1.5v-2.2h1.5C114.3,24.6,114.8,25,114.8,25.7L114.8,25.7z"/>
	<path class="st1" d="M24.1,9.4L24.1,9.4c-1.5-0.3-2.9-0.3-4.4,0c-0.1,0-0.1-0.1-0.1-0.1l2.3-1.7c0,0,2.2,1.7,2.3,1.7
		S24.2,9.5,24.1,9.4z M20.3,20.3L20.3,20.3c-0.1,0-0.1,0.1-0.1,0.1c0.5,0.4,0.8,1.1,1.7,1.1s1.3-0.8,1.7-1.1c0-0.1-0.1-0.1-0.1-0.1
		c-0.5,0.1-1.1,0.2-1.6,0.1C21.3,20.4,20.8,20.4,20.3,20.3z M21.9,18.9L21.9,18.9c-0.3,0-0.3-0.1-0.5-0.1c-0.2,0-0.4,0.1-0.6,0.3
		c0,0.1,0,0.1,0.1,0.2c0.4,0.1,0.6,0.3,1,0.3s0.6-0.2,1-0.3c0-0.1,0.1-0.1,0.1-0.2c-0.2-0.2-0.4-0.2-0.6-0.3
		C22.2,18.8,22.1,18.9,21.9,18.9z M43.7,23L43.7,23c0,0.5-0.1,1-0.1,1.6c-2.5,0.4-3.4-1.8-5.9-1.7c0.1,0.5,0.2,1.1,0.3,1.7
		c2.1,0,3,2,5.3,1.7c-0.1,0.6-0.3,1.2-0.4,1.8c-1.8,0.2-2.5-1.6-4.6-1.6c0,0.3,0,0.6,0,0.9s0,0.3,0,0.5c1.8,0,2.4,1.7,4.1,1.6
		c-0.2,0.6-0.4,1.2-0.7,1.7c-1.2-0.1-1.7-1.7-3.6-1.5c-0.1,0.4-0.1,0.8-0.2,1.2c1.6-0.1,2,1.4,3.2,1.5c-0.3,0.5-0.6,1.1-1,1.6
		c-0.7-0.4-1.3-1.5-2.6-1.6c0.1-0.4,0.2-0.8,0.4-1.3c-1.3,0-2.6-0.6-3.6-1.5c0.4-2.1-2.9-4.2-2.9-5.7s0.8-2.6,0.8-4.8
		c-0.1-1.7-0.8-3.4-2-4.7c-0.2-0.2-0.5-0.4-0.8-0.6c1.2,1.3,1.9,3.1,2,4.9c0,2.1-1,3.2-1,5.1s2.8,3.6,2.8,5.6
		c-0.1,1.1-0.5,2.2-1.1,3.1c1,1.1,2.5,1.8,4,2c0.3,0,0.6-0.1,0.7-0.4l0.3-0.7c1.2,0,1.7,1.1,2.3,1.5c-0.3,0.5-0.7,0.9-1.1,1.4
		c-0.5-0.7-1.1-1.2-1.8-1.5c-0.2,0.3-0.3,0.6-0.5,0.9c0.7,0.3,1.2,0.8,1.6,1.4c-0.4,0.4-0.8,0.8-1.3,1.2c-0.3-0.5-0.7-1-1.2-1.3
		c-0.2,0.2-0.4,0.5-0.5,0.7c0.4,0.3,0.8,0.7,1,1.2c-0.5,0.4-1,0.8-1.6,1.2c-0.3-2.2-3.3-3.7-2.5-6.3c-0.4,0.5-0.6,1.1-0.6,1.7
		c0,1.9,2,3.3,2.1,5.2c-0.4,0.2-0.8,0.5-1.3,0.7c-0.1-2-2.2-4.3-2.2-5.9c0-1.9,2.4-3.7,2.4-5.9s-2.8-3.7-2.8-5.7s1.2-3,1.2-5.5
		c0-1.8-0.8-3.6-2.2-4.8c-0.2-0.2-0.5-0.4-0.8-0.5c1.3,1.3,2,3.1,2,5c0,2.3-1.4,3.6-1.4,5.9s2.8,3.5,2.8,5.7s-2.6,3.9-2.6,6.1
		c0,2,2.3,4,2.3,6.3c-0.5,0.2-1,0.4-1.5,0.6c0.3-2.4-2.3-4.8-2.3-6.8c0-2.1,2.7-4,2.7-6.2s-2.7-3.4-2.7-5.7s1.7-3.6,1.7-6.2
		c0-2-0.9-3.8-2.5-5l-0.1-0.1c-0.1-0.1-0.2,0-0.1,0.1c1.1,1.3,1.6,2.9,1.6,4.5c0,2.4-1.9,4.3-1.9,6.6c0,2.7,2.6,3.5,2.6,5.7
		s-2.8,4-2.8,6.4c0,2.2,2.6,4.6,2.2,7.2c-0.5,0.1-1.1,0.2-1.6,0.3c0.5-3.2-2.1-5.4-2.1-7.5c0-2.2,2.9-4.2,2.9-6.4s-2-2.7-2.3-4.8
		c0-0.3-0.3-0.5-0.6-0.5c0,0,0,0,0,0c-0.6,0.2-1.2,0.3-1.8,0.4c-0.6,0-1.2-0.2-1.8-0.4c-0.3,0-0.5,0.1-0.6,0.4c0,0,0,0,0,0
		c-0.3,2.1-2.3,2.8-2.3,4.8s2.8,4.2,2.8,6.4c0,2.1-2.6,4.3-2.1,7.5c-0.5-0.1-1.1-0.2-1.6-0.3c-0.4-2.5,2.2-5,2.2-7.2
		c0-2.4-2.8-4.1-2.8-6.4s2.6-3,2.6-5.7c0-2.3-1.9-4.2-1.9-6.6c0-1.7,0.5-3.3,1.6-4.5c0.1-0.1,0-0.2-0.2-0.1l-0.1,0.1
		c-1.6,1.2-2.5,3-2.5,5c0,2.6,1.7,3.9,1.7,6.2s-2.7,3.4-2.7,5.7s2.7,4.1,2.7,6.2c0,1.9-2.6,4.4-2.3,6.8c-0.5-0.2-1-0.4-1.5-0.6
		c0-2.4,2.3-4.3,2.3-6.3c0-2.2-2.6-4-2.6-6.1s2.8-3.4,2.8-5.7s-1.4-3.6-1.4-5.9c0-1.8,0.7-3.6,2-4.9c-0.3,0.1-0.5,0.3-0.8,0.5
		c-1.4,1.2-2.2,3-2.2,4.8c0,2.5,1.2,3.6,1.2,5.5s-2.8,3.5-2.8,5.7s2.4,4.1,2.4,5.9c0,1.7-2.1,3.9-2.2,5.9c-0.4-0.2-0.8-0.5-1.3-0.7
		c0.2-1.9,2.1-3.3,2.1-5.2c0-0.6-0.2-1.2-0.6-1.7c0.8,2.6-2.2,4.1-2.5,6.3c-0.6-0.4-1.1-0.8-1.6-1.2c0.2-0.5,0.6-0.9,1-1.2
		c-0.2-0.2-0.4-0.5-0.6-0.7c-0.5,0.3-0.9,0.8-1.2,1.3C7,37.9,6.5,37.5,6.1,37c0.4-0.5,0.9-1.2,1.6-1.4c-0.2-0.3-0.3-0.6-0.5-0.9
		c-0.7,0.3-1.4,0.8-1.8,1.5c-0.4-0.4-0.8-0.9-1.1-1.4c0.6-0.4,1.2-1.5,2.3-1.5c0.1,0.2,0.2,0.5,0.3,0.7c0.1,0.3,0.4,0.4,0.7,0.4
		c1.5-0.2,3-0.9,4-2c-0.6-0.9-1-2-1.1-3.1c0-2,2.8-3.7,2.8-5.6s-1-3-1-5.1c0.1-1.8,0.8-3.5,2-4.9c-0.3,0.2-0.5,0.4-0.8,0.6
		c-1.2,1.2-1.9,2.9-2,4.7c0,2.2,0.8,3.1,0.8,4.8s-3.2,3.6-2.9,5.7c-1,0.9-2.3,1.5-3.6,1.5c0.1,0.4,0.2,0.9,0.4,1.3
		c-1.3,0.1-1.9,1.2-2.6,1.6c-0.3-0.5-0.7-1-1-1.6c1.2-0.1,1.5-1.6,3.2-1.5c-0.1-0.4-0.2-0.8-0.2-1.2C3.7,29.4,3.3,31,2,31.1
		c-0.3-0.6-0.5-1.1-0.7-1.7c1.7,0.1,2.3-1.6,4.1-1.6c0-0.2,0-0.3,0-0.5s0-0.6,0-0.9c-2.1,0-2.8,1.8-4.6,1.6
		c-0.1-0.5-0.3-1.1-0.4-1.7c2.3,0.3,3.2-1.7,5.3-1.7c0.1-0.6,0.2-1.1,0.4-1.6c-2.5-0.1-3.4,2.1-5.9,1.7c-0.1-0.5-0.1-1-0.1-1.6
		c2.9,0.3,4-2,6.6-1.8c0.2-0.6,0.5-1.2,0.9-1.8C4.2,18.9,3,21.7,0,21.2C0.3,9.2,10.3-0.4,22.3-0.2c11.7,0.3,21.2,9.7,21.4,21.4
		c-3.1,0.4-4.2-2.3-7.5-1.8c0.3,0.6,0.6,1.2,0.9,1.8C39.8,21,40.8,23.4,43.7,23z M12.5,13.9L12.5,13.9c-1.7-0.7-3.7-0.5-5.2,0.6
		c-0.2-1.5-1.1-2.9-2.3-3.8c-0.1-0.1-0.2-0.1-0.3,0c0,0-0.1,0.1,0,0.2c0.2,3.3-1.7,6.1-4,8.6c2.4,0.7,4.5-2.4,7.6-1.3
		C9.4,16.5,10.8,15,12.5,13.9z M21.9,11.9L21.9,11.9c-1.8-0.1-3.5,0.9-4.2,2.6c0,0.1,0,0.2,0.1,0.1c0.4-0.2,0.8-0.2,1.2-0.2
		c0.8,0,1.5,0.3,2,0.8c0.2,0.7,0.2,1.4,0,2.1c-0.3-0.1-0.5-0.3-0.8-0.3s-0.6,0.2-1.1,0.2s-0.6-0.3-1-0.3s-0.5,0.5-0.5,1
		c0,2.3,2.1,5.4,4.3,5.4s4.3-3.1,4.3-5.4c0-0.5-0.1-0.9-0.5-1c-0.3,0.2-0.6,0.3-1,0.3c-0.6,0-0.7-0.2-1-0.2s-0.4,0.8-0.8,0.9
		c-0.3-0.8-0.3-1.8-0.1-2.6c0.5-0.6,1.2-0.9,2-0.8c0.4,0,0.8,0.1,1.2,0.2c0.1,0.1,0.2,0,0.1-0.1C25.4,12.8,23.7,11.8,21.9,11.9
		L21.9,11.9z M25.1,15.1L25.1,15.1c-0.5,0-1,0.2-1.4,0.6c0,0.1,0,0.3,0,0.4c0.9-0.3,1.7-0.3,2,0.1c0.2-0.1,0.3-0.3,0.3-0.5
		C26,15.4,25.7,15.1,25.1,15.1L25.1,15.1z M18,16.1L18,16.1c0.7-0.4,1.5-0.5,2.3-0.1c0-0.5-0.8-1-1.6-1c-0.6,0-0.9,0.2-0.9,0.5
		C17.7,15.8,17.8,16,18,16.1L18,16.1z M32,8.5L32,8.5c-1.5,0.1-3,0.6-4.1,1.6c0.5-1.3,1.1-2.5,1.9-3.7c-1.9,0.1-3.7,0.9-5,2.2
		l-1-2.6l2.2-1.9L23,4l-1.1-2.7L20.7,4l-2.9,0.2L20,6.1l-1,2.6c-1.3-1.3-3.1-2.1-5-2.2c0.8,1.1,1.4,2.4,1.9,3.7
		c-1.2-0.9-2.6-1.5-4.1-1.6c1,1.2,1.8,2.6,2.4,4c0,0.1,0.2,0.2,0.3,0.2c0,0,0.1,0,0.1,0c4.6-2.3,10-2.3,14.6,0
		c0.1,0.1,0.3,0.1,0.4-0.1c0,0,0-0.1,0-0.1C30.2,11.1,31,9.8,32,8.5z M35.5,18.2L35.5,18.2c3.1-1.1,5.2,2,7.6,1.3
		c-2.3-2.5-4.3-5.3-4-8.6c0-0.2-0.2-0.3-0.3-0.2c-1.2,0.9-2.1,2.3-2.3,3.8c-1.5-1-3.5-1.2-5.2-0.6C32.9,15.1,34.4,16.5,35.5,18.2z"
		/>
	<polygon class="st0" points="35.8,42.6 35.8,42.6 35.6,42.6 35.6,41.3 35.1,41.3 35.1,41.1 36.3,41.1 36.3,41.3 35.8,41.3 	"/>
	<polygon class="st0" points="37.4,42.3 37.4,42.3 37.8,41.1 38.2,41.1 38.2,42.6 38,42.6 38,41.3 37.4,42.6 37.3,42.6 36.8,41.3 
		36.8,42.6 36.5,42.6 36.5,41.1 36.9,41.1 	"/>
</g>
</svg>
