<?xml version="1.0" encoding="utf-8"?>
<!-- Generator: Adobe Illustrator 23.0.2, SVG Export Plug-In . SVG Version: 6.00 Build 0)  -->
<svg version="1.1" id="Layer_1" xmlns="http://www.w3.org/2000/svg" xmlns:xlink="http://www.w3.org/1999/xlink" x="0px" y="0px"
	 viewBox="0 0 1662.5 794.4" style="enable-background:new 0 0 1662.5 794.4;" xml:space="preserve">
<style type="text/css">
	.st0{clip-path:url(#SVGID_2_);}
	.st1{fill:#BDE6EE;}
	.st2{opacity:0.23;fill:#00758F;enable-background:new    ;}
	.st3{fill:#7FBAC7;}
	.st4{fill:#9E0A11;}
	.st5{fill:none;stroke:#9E0A11;stroke-width:5.28;stroke-miterlimit:10;}
	.st6{fill:#F80000;}
	.st7{fill:#6C2C45;}
	.st8{fill:none;stroke:#F80000;stroke-width:5.28;stroke-miterlimit:10;}
	.st9{fill:#0E321F;}
	.st10{fill:#1E5623;}
	.st11{fill:#77180B;}
	.st12{fill:#3F0005;}
	.st13{fill:#143825;}
</style>
<title>team-bg</title>
<g>
	<defs>
		<rect id="SVGID_1_" x="-14.8" width="1680.3" height="800.8"/>
	</defs>
	<clipPath id="SVGID_2_">
		<use xlink:href="#SVGID_1_"  style="overflow:visible;"/>
	</clipPath>
	<g class="st0">
		
			<rect x="323.5" y="-495" transform="matrix(1.919857e-03 -1 1 1.919857e-03 478.8586 1175.1119)" class="st1" width="1009.3" height="1685.4"/>
		<path class="st2" d="M-19.1,804.3c0,0,202.2-65.2,281-59.1c82,6.3,155.4,67.6,155.4,67.6s27.9,0.1,60.4-16.1
			c0,0,158-89.5,203.6-79.3c45.6,10.2,310.8,119.7,310.8,119.7v19.3l-1010.6-1.9L-19.1,804.3z"/>
		<path class="st3" d="M1001,702.8L1001,702.8 M1113.4,584.6l-10.6,122.3h-5.7V699h-9.9v7.3h-13.5v16.9h-7.8l-0.1,4.2h-8.6
			l-1.6-38.1l-11.9-4v-18l-9.3-9l-2-36.1l-2.7,36.7l-8.3,8.4v19.2l-9,4.2l-0.7,22.2l-3.9,0.1l-0.5-10.2h-6.2
			c0.3,0.3,0.2,38.6-0.1,91.5l-19.1-0.6l-0.6-2H969v2.6h-10.1l-0.1,35H938l0.1-75l-30.4-0.1l-1.3,68.4h-26.4l0.2-107.5l-52-0.2
			l-0.6,167.1l-26-0.2l0.2-86.8l-53.5-0.1l-0.2,86.6l-20-0.1l0.1-50.9l-31.2-0.1l-0.2,50.6l-13.4-0.1l0.1-48.5l-40.4-0.1l0.1-41.7
			h-28.6v16.3h-17v10.1h-11.6v-13.9h-7.7v-13.2h-15.5v25.5h-7.7v-18.6h-9.3v19.3H528v-13.9h-13.9v-13.2h-24.8v13.2l-26.3,0v4.7
			h-10.8v9.3H436v-21.7l-34.1-0.5v20.1l-53.4-0.1v8.5h-20.1v-16.3h-16.2V823h-22.4v-16.3h-12.4V823h-13.9l0-27.1h-14.7l0,27.1h-7.7
			l0.1-39.5h-20.1l-0.1,31.7H203v-9.3l-68.9-0.1v9.3h-10v6.2l-81.3-0.2v-15.5H21.2v15.5h-17v-15.5H-8.2v14.7h-8.5l-0.4,174
			l461.5,0.9l-2.5,66.6l557.3-15.8c-0.3,37.3-0.5,62.2-0.5,62.2l670.8-6.7l-2.3-87l0.6-337.6h-14.5v-13l-43.6-8l0.1-29.3h-15.1v10.7
			h-17.7V630h-11.9v7.3h-6.2v20.9l-63.4-0.1v21.4h-23.9v23.1h-7.3l0.1-38.9h-22.8l-31.2,14v-6.9h-14.5l-0.2-13.2h-13.8l-1.9-28.6
			l-1.3,28.8h-11.4V673h-4.2v19.7h-6.8v-13.5h-21.8v16.3h-20.3l0.2-96.3l-9.3,0.1l0.1-9.3l-30.1,0l-0.2,8.9l-8.8,0.2l-0.2,125.7
			h-25.6l0.2-5.6l-28-0.1V736h-19.2l0.1-60.3h-9.3v-4.5h-11.4l0.1,4l-22.4-0.2l-0.3,66.4h-17.1L1113.4,584.6"/>
		<path class="st4" d="M637.8,625.4c0-1.2,2.3-2.3,4.4-1.8l0,0c1.2,0.2,2.1,0.9,2.1,1.8l-0.1,78.4h-6.5L637.8,625.4z"/>
		<polygon class="st4" points="684.3,638.4 690.6,639.8 690.5,703.9 684.2,703.9 		"/>
		<polygon class="st4" points="898.3,623.8 902.7,623.3 902.6,706.1 896.1,706 896.2,623.8 		"/>
		<polygon class="st4" points="854.5,637.8 861,638 860.8,706 854.3,706 		"/>
		<polygon class="st4" points="814.6,644.8 821,645 820.9,705.9 814.5,705.9 		"/>
		<polygon class="st4" points="771.6,648.2 778.2,649.1 778.1,704.1 771.5,704.1 		"/>
		<polygon class="st4" points="727.6,645.5 734.1,646.4 734,704 727.5,704 		"/>
		<polygon class="st4" points="936.2,619.1 942.6,618.4 942.4,708.4 936,708.4 		"/>
		<polygon class="st4" points="977.8,596.6 984.3,595.8 984.1,708.5 977.6,708.5 		"/>
		<polygon class="st4" points="1020.1,577.2 1026.1,574.7 1025.9,708.6 1019.9,708.6 		"/>
		<polygon class="st4" points="1066.7,546.8 1072,543.1 1071.7,708.7 1066.4,708.7 		"/>
		<polygon class="st4" points="1111.3,516.2 1116.9,512.3 1116.6,708.7 1110.9,708.7 		"/>
		<polygon class="st4" points="1158.4,479.8 1164.6,474.6 1164.1,707.6 1158,708.8 		"/>
		<polygon class="st4" points="1205.2,435 1204.7,707.7 1198.5,708.9 1199,442.6 		"/>
		<path class="st5" d="M1289,343.6c0,0-333.7,439.7-698.9,262.9"/>
		<path class="st4" d="M597.7,613.4l25,10.4l24.6,8.3l35.2,6.2l-61.4-22.5l-24.6-11.5l-25.5-10.8l-42.6-20.9l-24.3-12.2L469.4,542
			l-51.5-31.3l-22-13.6l-18.1-12.5l-31.5-21.9L324.5,447l-25-20.7l-25.5-21l-27.7-24.2L226,361.5l-29.4-28.6v8.5l8.4,8.5l-0.7,356.3
			h5.3l0.6-351l11.2,11.2l22.7,21.3l4,3.5l-0.5,268.4h-9.7l-9.7,2.5l-5.1,17.8v19.2h24.5v4.3h5.3v-4.2l37.5,0.1v4.2h5.3v-4.2l38,0.1
			v4.2h5.3v-4.1l38,0.1v4.2h5.3v-4.2l29.9,0.1v-4.8l-3.2-4.8l-3.2-1.4l-16.9-0.6l-2.2-3.9l-4.6-2l0.4-185.5l1.6,1.1l35,22.3
			l-0.4,183.6h5.3l0.3-180.7l28.9,17.1l9.1,5.3l-0.3,142.8l-20.8,1.4l-3.2,6.2v3.7h24v5.3h5.3v-5.3l38,0.1v6.7h5.3v-6.7h6.2v-8.3
			l-6.2-1.6l0.2-118.2l6.3,3.4l20.9,10.8l10,4.9l-0.2,80.1h-4.8l-0.1,30.3h4.8v4.2h5.3V701l37.5-0.5v4.8h5.3v-4.8l31.5-0.3v-11.8
			l-7.4-2.1l-10.2-15.2h-13.9l0.1-58.1L597.7,613.4z M253.1,659.8l0.5-263.7l27.6,24.7l10.4,8.3l-0.4,230.7L253.1,659.8z
			 M334.3,659.8l-38-0.1l0.4-226.5l11.1,9l26.9,19.8l-0.4,198L334.3,659.8z M348.9,682.7l0.1-20.3l-3.4-2.5h-6l0.4-194.1l2.1,1.6
			l25.2,18l10.5,7.6l-0.4,189.4L348.9,682.7z M498,683.5l-30.5-0.1l0.3-134.6l8.3,4.8l29.7,15.6l-0.2,119.6L498,683.5z M553.7,671.1
			l0.2-77.5l17.6,8.5l19.9,8.7l-0.1,60.4L553.7,671.1z"/>
		<path class="st4" d="M60.6,190.5c3.7-5.8,14.7-23.2,14.7-23.2v10.8c0,0-5.1,10-12.6,21.3c-9.9,15.1-23.3,33.2-29.5,42
			c-0.7,0.9-1.4,1.9-2.3,3.2l-0.8,449.1h-7l0.8-439.8C17.7,262,10.6,270.9,6,276.2S-13.4,298-13.4,298v-10.6
			c0,0,14.6-16.7,19.4-22.5c6.9-8.3,19.8-25.1,26.1-33.8C39.5,221.1,53.5,200.8,60.6,190.5z"/>
		<polygon class="st4" points="52.8,676.1 66.4,676.2 66.3,693.9 32.9,693.9 32.9,684.6 44.9,684.6 		"/>
		<path class="st4" d="M165.3,149.5v11.8l-59.4-0.1v-11.8h-9.7v-11.8H84.9v11.8h-9.7l-0.3,136h-3.9l-0.3,143h-4.6L66,574.2h-6.2
			l-0.7,348.6l58.1,0.1l0.6-312.5l31.7,0.1l-0.6,312.6h25.4l0.9-494.6h3.3l0.5-279H165.3z M105.3,285.5l0.2-94.9l59.3,0.1l-0.2,94.9
			h-3.9v11.3l-52.5-0.1v-11.3L105.3,285.5L105.3,285.5z M152.8,574.3h-3.3v9.7l-31.7-0.1v-9.7h-5.1l0.3-106.2l40.2,0.1L152.8,574.3z
			 M153.1,428.5v11.1l-40-0.1v-11.1H108l0.2-103.9l52.5,0.1l-0.2,103.9L153.1,428.5z"/>
		<polygon class="st6" points="206.9,573.9 206.3,923 174.4,922.9 175,583.9 175,573.8 175.3,429.1 179.5,429.1 179.8,289.6 
			178.6,289.6 178.8,155.7 173,155.7 173,137.6 184.8,137.6 184.8,149.4 193.6,149.4 193.4,285 196.9,285 196.6,429.1 202.4,429.1 
			202.2,573.9 		"/>
		<path class="st6" d="M153.9,200.4c3-4.6,11.3-18.6,11.3-18.6v9c0,0-5.5,10.2-7.4,13.5c-6.4,10.4-20.1,29.9-27.7,39.9h0.2
			l-0.8,451.3h-7l0.8-442.3c-7.4,9.5-17,21.6-22.6,28.5c-3.9,4.8-9.7,11.6-15.9,18.6h1.6l-0.8,395.1h-7l0.7-388.9
			c-7.1,8.1-14,15.8-18.9,20.9c-4.4,4.5-10.8,10.9-17.5,17.4h1.1l-0.7,349.1h-6.2l0.6-344.2c-8.1,7.7-16.1,15.3-21.5,20.4
			c-3.4,3-9.9,8.8-15.9,14.1l-0.6,316.7h-7l0.6-310.5c-3.9,3.3-6.7,5.8-6.7,5.8v-8.5c0,0,20.1-17.3,26.6-23.2
			c10.4-9.7,30-29.9,39.7-40.1c8.3-8.8,24.9-26.4,32.8-35.5c8.8-10.4,25.8-31.6,33.9-42.4C128.3,235.1,145.6,212.2,153.9,200.4z"/>
		<path class="st6" d="M639.3,574.7c0,0-8.6-4.2-16.7-8.3l-0.3,135.3h-7l0.3-138.6c-1.4-0.7-2.6-1.4-3.7-2
			c-7.6-3.9-20.6-10.6-30.8-16.3l-0.3,157.5h-7l0.3-161.2c-0.9-0.5-1.8-1.1-2.5-1.4c-4.8-2.8-19.9-12.2-33.1-20.3l-0.3,182.1h-7
			l0.3-186.5c-7.2-4.4-13-8-14.8-9c-5.3-3.2-14.8-9.2-21.3-13.4l-0.4,210.1h-7l0.4-214.7c-10.2-6.9-25.5-17.3-35.9-24.9l-0.4,240.1
			h-7l0.5-245.4c-9.7-7.6-25.3-20.8-35.5-29.3l-0.5,271.6h-7l0.4-277.1h0.4c-9.8-8-25-20-35.9-29.1L366.8,700h-7l0.6-312.1
			c-8.8-7.9-24.8-24.9-33.2-33.2c-1-1-2.3-2.3-3.7-3.5l-0.6,347.7h-7l0.6-354h0.2c-4.6-4.4-9.3-9-12.3-12.2
			c-6.2-6.5-17.1-17.5-23-24.2l-0.7,386.4h-7l0.7-394.4c-5.5-6.5-12-14.6-15.6-18.9c-5.1-6-13.7-16-19.9-23.6L238,694.8h-7l0.8-446
			c-4.2-5.8-9.7-13.9-12.5-17.8c-7-9.7-25.8-40-25.8-40v-11.3c0,0,26.2,40.6,35.5,53.6c4.2,5.6,13,16.8,17.4,22.2
			c6.9,8.6,20.9,25.6,27.9,33.9c7.7,9,23.2,27,31.3,35.6c6.2,6.5,18.8,19.2,25.3,25.6c4.6,4.6,13.9,13.2,18.6,17.5
			c5.3,4.8,15.5,14.3,20.8,19.1c10.5,9.4,31.8,27.7,42.7,36.5c8.4,6.7,25.7,19.8,34.3,26.3c9.3,6.9,28.1,20.7,37.6,27.2
			c8.8,6,26.2,17.7,35.2,23.3c12.7,8,38,23.1,50.8,30.6c8.1,4.6,24.1,13.8,32.2,18.2c46.8,25.6,103.5,46.9,103.5,46.9L639.3,574.7z"
			/>
		<path class="st6" d="M142.4,705.4h6.9v-12.2l-163.4-0.3v13.2l14.8,16.4h-14.8v12.2l163.4,0.3v-22.5l-6.9,7.4v-14.6L142.4,705.4z
			 M124.4,722.8h-12.5V710L124.4,722.8z M102.7,722.8H90.2l12.5-12.8L102.7,722.8z M95,705.2l-13.8,13.6v-13.7L95,705.2z
			 M72.1,705.1v12.3L59.9,705L72.1,705.1z M64.5,722.7H51.1V709L64.5,722.7z M41.8,722.4H29.3l12.5-12.7L41.8,722.4z M33.9,705
			l-13.8,13.9V705L33.9,705z M10.9,705v13.2l-12.6-13.3L10.9,705z M133.7,719.3l-13.9-14.1h13.9L133.7,719.3z"/>
		
			<rect x="1152.9" y="550.3" transform="matrix(1.919872e-03 -1 1 1.919872e-03 754.2328 1857.4611)" class="st7" width="309.5" height="1.2"/>
		<path class="st4" d="M1637.9,647.9l17.3,7.3l11.6,4.3v-5.3l-12.7-4.6l-17.1-8l-17.8-7.6l-29.6-14.5l-16.9-8.5l-23.9-12.9
			l-35.9-21.7l-15.3-9.4l-12.7-8.7l-21.8-15.2l-15.1-11l-17.4-14.5L1413,503l-19.3-16.8l-14.1-13.6l-20.4-19.9v5.8l5.8,5.8
			l-0.5,247.5h3.7l0.4-243.8l7.9,7.9l15.7,14.8l2.8,2.5l-0.3,186.4h-6.7l-6.7,1.8l-3.6,12.5v13.4h16.9v3h3.7v-3l26.4,0v3h3.7v-3
			h26.4v3h3.7v-3l26.4,0.1v3h3.7v-3h20.8V704l-2.1-3.3l-2.1-1.1l-11.8-0.2l-1.6-2.8l-3.2-1.4l0.2-128.9l1.1,0.7l24.3,15.4
			l-0.3,128.1h3.2l0.2-125.4l20.1,12l6.3,3.7l-0.2,99.2l-14.4,1l-2.1,4.2v2.5h16.6v3.7h3.7v-3.7h26.4v4.9h3.7v-4.8h4.2v-5.8
			l-4.2-1.1l0.2-82.1l4.4,2.3l14.6,7.6l7,3.3l-0.1,55.7h-3.3v21h3.3v2.8h3.7v-3l26.1-0.3v3.3h3.7v-3.3l21.8-0.3v-8.3l-5.1-1.4
			l-7-10.6h-9.7l0.1-40.3L1637.9,647.9z M1425.2,679.5h-26.4l0.3-183l19.2,17.1l7.2,5.8l-0.3,160.3L1425.2,679.5z M1428.7,679.7
			l0.3-157.3l7.7,6.2l18.6,13.8l-0.3,137.4L1428.7,679.7z M1465,695.6v-14.1l-2.3-1.8h-4.1l0.3-134.7l1.6,1.1l17.4,12.5l7.4,5.3
			l-0.2,131.4L1465,695.6z M1568.9,695.8h-21.1l0.2-93.4l5.8,3.3l20.6,10.8l-0.2,83.1L1568.9,695.8z M1607.5,687.4l0.1-53.9l12.3,6
			l13.7,6l-0.1,41.9L1607.5,687.4z"/>
		<polyline class="st4" points="1244.5,394.9 1243.9,707 1239,707 1239.6,401.6 		"/>
		<polygon class="st4" points="1259.6,694.7 1269.1,694.8 1269.1,707.1 1245.9,707 1245.9,700.5 1254.2,700.5 		"/>
		<path class="st4" d="M1337.6,329.1v8.3l-41.2-0.1V329h-6.5v-8.3h-7.9v8.3h-6.7l-0.2,94.6h-2.7l-0.2,99.2h-3.2l-0.2,101.2h-4.2
			l-0.4,242l40.3,0.1l0.4-217h22l-0.4,217h17.6l0.6-343.3h2.3l0.4-193.8L1337.6,329.1z M1296.4,357.5l41.4,0.1l-0.1,65.9h-2.8v7.9
			l-36.6-0.1v-7.9h-1.9L1296.4,357.5z M1329.4,624.1h-2.3v6.7h-22v-6.7h-3.5l0.1-73.8l27.8,0.1L1329.4,624.1z M1329.5,522.8v7.6
			l-27.8,0v-7.6h-3.5l0.1-72.2l36.5,0.1l-0.1,72.2L1329.5,522.8z"/>
		<polygon class="st6" points="1366.7,623.6 1366.2,866.1 1344,866.1 1344.5,630.6 1344.5,623.6 1344.7,523.2 1347.8,523.2 
			1348,426.3 1347.1,426.3 1347.3,333.3 1343.1,333.3 1343.1,320.8 1351.4,320.8 1351.4,328.9 1357.5,328.9 1357.4,423.1 
			1359.6,423.1 1359.5,523.2 1363.5,523.2 1363.3,623.6 		"/>
		<path class="st6" d="M1329.8,364.3c2.1-3,7.9-12.8,7.9-12.8v6.3c0,0-3.7,7-5.1,9.3c-4.4,7-14,20.6-19.3,27.6h0.2l-0.6,313.4h-4.9
			l0.6-307.2c-5.1,6.7-11.8,15.1-15.7,19.9c-2.8,3.3-6.9,8.1-11.1,13h1.1l-0.5,274.2h-4.9l0.5-270c-4.8,5.5-9.7,10.9-13.1,14.4
			c-3,3.2-7.4,7.6-12.2,12.1h0.7l-0.4,242.5h-4.2l0.4-239c-5.6,5.3-11.3,10.5-15,14.1c-2.3,2.3-6.7,6.2-10.9,9.8l-0.4,219.6h-4.9
			l0.4-215.6c-2.7,2.5-4.6,4-4.6,4v-5.8c0,0,14.1-11.8,18.5-16c7.2-6.7,20.8-20.8,27.5-27.8c5.7-6,17.3-18.3,22.8-24.6
			c6.2-7.2,18-21.8,23.7-29.4C1312.2,388.5,1324.2,372.5,1329.8,364.3z"/>
		<path class="st6" d="M1667.3,619.1v5.3l-11.6-5.8l-0.2,93.9h-4.9l0.2-95.6c-0.9-0.3-1.8-0.8-2.6-1.2c-5.1-2.8-14.3-7.4-21.3-11.3
			l-0.2,104.3h-4.9l0.2-107.1c-0.6-0.3-1.2-0.7-1.8-1.1c-3.3-1.9-13.9-8.5-23-14.1l-0.2,122h-4.8l0.2-125.1
			c-5.1-3.2-9.2-5.7-10.4-6.4c-3.7-2.3-10.2-6.4-14.8-9.4l-0.3,140.5h-4.9l0.3-143.9c-7-4.8-17.8-12-25-17.3l-0.3,161h-4.8
			l0.3-164.7c-6.7-5.1-17.6-14.5-24.6-20.3l-0.3,184.9h-4.9l0.3-188.6h0.2c-6.9-5.7-17.4-13.9-25-20.3l-0.4,208.9h-4.8l0.4-213.1
			c-6-5.5-17.2-17.3-23-22.9c-0.9-0.8-1.8-1.6-2.6-2.5l-0.4,238.5h-4.3l0.4-242.9h0.2c-3.3-3.2-6.5-6.3-8.6-8.5
			c-4.2-4.4-12-12.2-16-16.8l-0.5,268.2h-4.9l0.5-273.9c-3.9-4.8-8.4-10.2-10.9-13.2c-3.7-4.2-9.7-11.1-13.9-16.4l-0.6,303.5h-4.9
			l0.6-309.6c-2.8-4.1-6.7-9.7-8.6-12.3c-4.9-6.7-17.9-27.9-17.9-27.9V350c0,0,18.1,28.2,24.6,37.2c2.8,4.1,9,11.6,12,15.5
			c4.7,6,14.4,17.6,19.3,23.5c5.3,6.2,16,18.7,21.6,24.7c4.2,4.6,13,13.4,17.6,17.8c3.2,3,9.7,9,12.8,12
			c3.7,3.3,10.7,10.1,14.4,13.2c7.4,6.5,22.2,19.2,29.7,25.4c5.8,4.8,17.8,14,23.8,18.4c6.5,4.8,19.5,14.3,26.2,18.9
			c6.2,4.2,18.3,12.4,24.4,16.3c8.6,5.5,26.4,16.1,35.2,21.2c5.6,3.4,16.7,9.7,22.3,12.7c6.3,3.2,25.3,12.4,25.3,12.4L1667.3,619.1z
			"/>
		<path class="st6" d="M1369.6,715v-8.5l-113.4-0.2v9.2l10.2,11.5h-10.2v8.5l113.4,0.2V720l-4.8,5.1v-10L1369.6,715z M1352.5,727.1
			h-8.8v-9L1352.5,727.1z M1337.4,727.1h-8.8l8.8-9L1337.4,727.1z M1331.9,714.9l-9.5,9.5v-9.5L1331.9,714.9z M1316.1,714.9v8.6
			l-8.4-8.6L1316.1,714.9z M1310.8,727.1h-9.3v-9.5L1310.8,727.1z M1294.9,727.1h-8.6l8.7-8.8L1294.9,727.1z M1289.5,714.9l-9.5,9.7
			v-9.7L1289.5,714.9z M1273.5,714.9v9.2l-8.6-9.2L1273.5,714.9z M1358.9,724.8l-9.7-9.7h9.7L1358.9,724.8z"/>
		
			<rect x="1394.5" y="702.5" transform="matrix(1.919872e-03 -1 1 1.919872e-03 690.1984 2099.9624)" class="st6" width="5.3" height="3.5"/>
		
			<rect x="1424" y="702.8" transform="matrix(1.919872e-03 -1 1 1.919872e-03 719.5925 2130.2249)" class="st6" width="6" height="3.7"/>
		
			<rect x="1454.4" y="702.5" transform="matrix(1.919872e-03 -1 1 1.919872e-03 749.9479 2160.0679)" class="st6" width="5.3" height="3.7"/>
		
			<rect x="1484.4" y="702.5" transform="matrix(1.919872e-03 -1 1 1.919872e-03 779.7877 2190.0452)" class="st6" width="5.3" height="3.7"/>
		
			<rect x="1514" y="702.1" transform="matrix(1.919872e-03 -1 1 1.919872e-03 809.2838 2218.646)" class="st6" width="4.2" height="3.7"/>
		
			<rect x="1543.3" y="703.1" transform="matrix(1.919872e-03 -1 1 1.919872e-03 838.4768 2249.6189)" class="st6" width="5.8" height="3.3"/>
		
			<rect x="1573.2" y="703" transform="matrix(1.919872e-03 -1 1 1.919872e-03 868.2317 2279.6914)" class="st6" width="6" height="3.7"/>
		
			<rect x="1603" y="703.2" transform="matrix(1.919872e-03 -1 1 1.919872e-03 897.9666 2309.4434)" class="st6" width="5.8" height="3.3"/>
		
			<rect x="1632.4" y="703.1" transform="matrix(1.919872e-03 -1 1 1.919872e-03 927.2716 2338.9048)" class="st6" width="5.8" height="3.7"/>
		<path class="st6" d="M1655.4,715.6h4.4v-8.5l-300.5-0.5v8.6h7.2l-7.2,7.6v12.9l300.5,0.6v-13l-0.2-2.1l-4.2,4.2v-9.5L1655.4,715.6
			z M1643.7,727.9h-9.3v-9.7L1643.7,727.9z M1628,727.9h-9l9-9.1V727.9z M1622.4,715.7l-9.5,9.5v-9.5L1622.4,715.7z M1606.6,715.7
			v8.6l-8.4-8.6L1606.6,715.7z M1601.3,727.8h-9.3v-9.7L1601.3,727.8z M1585.6,727.8h-9.3l9.4-9.5L1585.6,727.8z M1579.6,715.7
			l-9.5,9.5v-9.5L1579.6,715.7z M1563.7,715.7v8.6l-8.4-8.7L1563.7,715.7z M1558.4,727.8h-9.3v-9.7L1558.4,727.8z M1372.4,727.5
			h-9.3l9.3-9.1L1372.4,727.5z M1378.8,727.5v-9.7l9.3,9.7L1378.8,727.5z M1393.4,724l-8.4-8.7h8.5L1393.4,724z M1399.8,715.4h9.5
			l-9.5,9.5L1399.8,715.4z M1414.9,727.4h-8.8l8.8-9.2L1414.9,727.4z M1421.3,727.4v-9.7l9.3,9.7L1421.3,727.4z M1435.9,723.9
			l-8.4-8.7h8.5L1435.9,723.9z M1442.1,715.3h9.5l-9.5,9.5L1442.1,715.3z M1458.1,727.3h-9.7l9.7-9.8L1458.1,727.3z M1464.4,727.5
			v-9.7l9.3,9.7L1464.4,727.5z M1479,724l-8.4-8.7h8.4L1479,724z M1485.4,715.4h9.5l-9.5,9.5L1485.4,715.4z M1500.4,727.6h-8.6
			l8.7-9L1500.4,727.6z M1506.7,727.6v-9.7l9.3,9.7L1506.7,727.6z M1521.4,724.1l-8.4-8.7h8.4L1521.4,724.1z M1527.7,715.4h9.5
			l-9.5,9.5L1527.7,715.4z M1542.9,718.6v9h-8.8L1542.9,718.6z M1649.1,724.3l-8.4-8.6h8.5L1649.1,724.3z"/>
		<path class="st8" d="M1349.4,334.4c0,0-66.8,117.9-179,195.7c-59.4,41.3-138.6,80.6-224.4,90c-199.6,22-361.2-53.5-519.6-181
			S193.6,179.5,193.6,179.5"/>
		<polygon class="st6" points="659.1,577.2 665.6,579.7 665.3,701.2 658.8,701.2 		"/>
		<polygon class="st6" points="706.6,596.1 711.9,597.7 711.7,701.3 705.3,701.3 705.5,595.6 		"/>
		<polygon class="st6" points="917.4,621.2 923.9,620.7 923.7,703.4 917.2,703.4 		"/>
		
			<rect x="838.2" y="659.5" transform="matrix(1.919872e-03 -1 1 1.919872e-03 214.4439 1540.3429)" class="st6" width="81.4" height="6.5"/>
		
			<rect x="798.2" y="659.4" transform="matrix(1.919872e-03 -1 1 1.919872e-03 174.5942 1500.276)" class="st6" width="81.4" height="6.5"/>
		<polygon class="st6" points="792.8,617.3 799.4,618.2 799.2,701.5 792.7,701.4 		"/>
		<polygon class="st6" points="748.8,609.1 755.3,611 755.2,701.4 748.7,701.4 		"/>
		<polygon class="st6" points="957.3,617.7 963.7,617.2 963.5,705.8 957.2,705.8 		"/>
		<polygon class="st6" points="998.9,611.5 1005.5,609.2 1005.3,705.9 998.8,705.9 		"/>
		<polygon class="st6" points="1041.2,596.9 1047.2,595 1047,706 1041,706 		"/>
		<polygon class="st6" points="1087.4,577.8 1094.1,574.1 1093.9,706.1 1087.2,706 		"/>
		<polygon class="st6" points="1133.8,554.3 1139.8,551.8 1139.5,706.1 1133.5,706.1 		"/>
		<polygon class="st6" points="1179.5,525 1186.5,520.2 1186.2,706.2 1179.1,706.2 		"/>
		<path class="st6" d="M1239.5,706v-7.4h-4.9v8.3l-38.4-0.1v-6.3h-5.3v6.3l-36.6-0.1v-8.3h-5.3v8.3l-37.9-0.1v-8.1h-5.3v8.1
			l-38.1-0.4v-9.2h-5.3v9l-38-0.6v-7.2h-4v7.2l-32.9-0.4v-7.4h-5.3v7.4l-37.5-0.6v-6.9h-4.8v6.9l-37.9-0.6V699h-5.3v4.8l-38-0.6
			v-5.8h-4.9v5.8l-38.4-0.6v-3.9h-5.3v3.7l-12.9-0.2V702h-14.8l-8.8-0.2v-4.9h-5.3v4.8l-38-0.6v-4.4h-5.3v4.2l-38-0.6v-4.9h-5.4v4.9
			l-38-0.6v-3.3h-4.9v3.1l-41.7-0.6v-7h-5.3v6.9l-37.5-0.6v-6.5h-4.8v6.3l-37.9-0.6v-4.4h-5.3v4.4l-38-0.6v-5.5h-4.9v5.5l-38.4-0.6
			v-3.5h-5.3v3.3l-36.6-0.5V691h-5.3v4.4l-38-0.6v-3.9h-5.3v3.9l-38-0.6v-4.4h-5.3v4.4l-38.1-0.6v-2.8h-4.9v2.8l-41.4-0.6v12.3h10.4
			l-10.4,10.9v18.7l426.4,0.3v0.2l163.5,0.3v-0.3l156.2,0.1v0.5l88.6-0.5l218.8,0.1l-3.3-0.7h17.1v-15.5l-7.4,5.1v-10h7.4v-8.3
			l-34.7-0.1L1239.5,706z M225.5,723.1h-13.4l13.4-13L225.5,723.1z M234.5,723.1v-13.9l13.5,13.9L234.5,723.1z M255.7,717.9
			l-12.1-12.3h12.1L255.7,717.9z M264.9,705.8h13.7l-13.8,13.7L264.9,705.8z M286.7,723.2h-12.9l12.9-13L286.7,723.2z M295.7,723.2
			v-13.9l13.5,13.9L295.7,723.2z M316.8,718l-12.1-12.3h12.1L316.8,718z M325.9,705.9h13.7l-13.7,13.7V705.9z M348.8,723.3h-13.9
			l13.9-14.2L348.8,723.3z M358,723.3v-13.9l13.6,14L358,723.3z M379.1,718.1l-12.2-12.3h12.1L379.1,718.1z M388.3,706H402
			l-13.8,13.7L388.3,706z M409.7,723.4h-12.5l12.5-12.8L409.7,723.4z M418.9,723.4v-13.9l13.5,13.9L418.9,723.4z M440,718.2
			l-12.1-12.3h12.1L440,718.2z M449,706.1h13.7L449,719.8L449,706.1z M470.8,723.5h-12.7l12.7-13L470.8,723.5z M479.8,723.5v-13.9
			l13.5,13.9L479.8,723.5z M500.9,718.3L488.8,706H501L500.9,718.3z M510.1,706.2h13.7l-13.7,13.7L510.1,706.2z M532.5,723.5h-13.4
			l13.4-13.5L532.5,723.5z M541.6,723.7v-13.9l13.5,13.9L541.6,723.7z M562.6,718.5l-12.1-12.3h12.2L562.6,718.5z M571.8,706.3h13.7
			L571.8,720L571.8,706.3z M593.6,723.6h-12.9l12.9-13L593.6,723.6z M602.8,723.8v-13.9l13.5,13.9L602.8,723.8z M623.9,718.6
			l-12.1-12.4H624L623.9,718.6z M639.4,723.7l-6.3-3.7v-13.7l0,0v5.5l13.2,12.2L639.4,723.7z M657.9,721.8l-12.5-10.9h12.5
			L657.9,721.8z M667.3,710.9H681l-13.8,11.5L667.3,710.9z M688.9,724H678l10.9-9.2V724z M698.1,724.3v-10.2l12.1,10.3L698.1,724.3z
			 M719.2,721.2L707.1,711h12.2L719.2,721.2z M728.4,711h13.7l-13.8,11.4L728.4,711z M749.8,724.4h-11.3l11.3-9.5L749.8,724.4z
			 M759,724.6v-9.7l11.4,9.7L759,724.6z M780.8,722.7l-13.9-11.6h13.9V722.7z M789.5,723.1v-4.4l1.8,2.8L789.5,723.1z M804.8,722.1
			l-13.4-10.2h13.4L804.8,722.1z M814.8,712.1h14.8l-14.8,10.7L814.8,712.1z M838,725h-12.7l12.7-9.3L838,725z M847.9,725.2v-10.2
			l13.9,10.2L847.9,725.2z M870.6,721.5l-13-9.5h13V721.5z M880.3,712H895l-14.6,10.7L880.3,712z M903.6,725.4h-13l13-9.7
			L903.6,725.4z M913.5,725.6v-9.9l13.4,9.9L913.5,725.6z M936.9,723l-15-11h15V723z M953.5,725.9l-7.2-2.3v-11.3l0.5-0.5l19,14.1
			L953.5,725.9z M977.6,723.8l-12.5-9.5h12.5L977.6,723.8z M986.9,714.3h13.7l-13.7,10.2L986.9,714.3z M1008.6,726.1h-11.1l11.1-8.3
			L1008.6,726.1z M1017.9,726v-9l12.1,9.2L1017.9,726z M1038.9,723.4l-12.1-9h12.2L1038.9,723.4z M1047.9,714.4h13.7l-13.8,10
			L1047.9,714.4z M1069.6,726.4h-11.4l11.5-8.6L1069.6,726.4z M1078.7,726.4v-8.6l11.6,8.8L1078.7,726.4z M1100.6,724.7l-13.9-10.2
			h11.4v0.2l2.5,1.8L1100.6,724.7z M1124.9,722.9l-13.4-9h13.4L1124.9,722.9z M1134.9,713.9h14.8l-14.8,9.5L1134.9,713.9z
			 M1158.1,726.1h-13.4l13.4-8.8L1158.1,726.1z M1168.1,726.1v-9.5l14.4,9.5L1168.1,726.1z M1190.7,722.5l-13-8.5h13V722.5z
			 M1200.6,714h14.6l-14.6,9.5L1200.6,714z M1223.8,726h-13.6l13.6-8.6L1223.8,726z M1233.5,726.2v-8.8l13.5,8.8L1233.5,726.2z
			 M1257.1,714.1v9.7l-15-9.7L1257.1,714.1z"/>
		
			<rect x="1274.2" y="702.7" transform="matrix(1.919872e-03 -1 1 1.919872e-03 572.0164 1983.7374)" class="st6" width="11.1" height="5.3"/>
		
			<rect x="1317.3" y="701.1" transform="matrix(1.919872e-03 -1 1 1.919872e-03 616.8499 2024.97)" class="st6" width="11.1" height="4.8"/>
		
			<rect x="1359.7" y="700.9" transform="matrix(1.919872e-03 -1 1 1.919872e-03 659.0598 2067.4014)" class="st6" width="11.1" height="5.3"/>
		<path class="st9" d="M1740.7,701.8c0,0,29.8,3.8-74.5-26.9c-104.4-30.7-205,92.2-205,92.2l369,96L1740.7,701.8z"/>
		<path class="st10" d="M1774.2,855.5c0,0-339.2-203.6-417.5-192.1s-344,148.1-344,148.1l481.9,174.6l294.5,7.7L1774.2,855.5z"/>
		<rect x="1437.5" y="744.1" class="st11" width="9" height="31.2"/>
		<rect x="1437.5" y="744.1" class="st12" width="4.7" height="31.2"/>
		<path class="st13" d="M1465.3,725.4c0,0,29.7-1.9,22.6-32.6c0,0-5.5-17.1-22.2-17.7c0,0-5.2-17.7-23.5-14.8c0,0-10.3,0-16.4,10.6
			c0,0-33.5-3.2-30.9,27.1c0,0,1.3,21.9,26.1,22.6c0,0-0.3,22.9,21.4,23.5C1442.2,744.1,1463,743.8,1465.3,725.4"/>
		<path class="st10" d="M1465.6,675.2c16.8,0.7,22.2,17.7,22.2,17.7c7.1,30.6-22.6,32.5-22.6,32.5c-2.1,16.7-19.4,18.5-22.6,18.7
			v-83.9C1460.5,657.9,1465.6,675.2,1465.6,675.2"/>
		<rect x="1326" y="687.3" class="st11" width="8.2" height="28.3"/>
		<rect x="1326" y="687.3" class="st12" width="4.3" height="28.3"/>
		<path class="st13" d="M1351.2,670.3c0,0,27-1.8,20.5-29.6c0,0-5-15.5-20.2-16.1c0,0-4.7-16.1-21.4-13.5c0,0-9.4,0-14.9,9.7
			c0,0-30.5-2.9-28.1,24.6c0,0,1.2,19.9,23.7,20.5c0,0-0.3,20.8,19.5,21.4C1330.2,687.3,1349.1,687,1351.2,670.3"/>
		<path class="st10" d="M1351.5,624.6c15.2,0.6,20.2,16.1,20.2,16.1c6.4,27.8-20.5,29.6-20.5,29.6c-1.9,15.2-17.7,16.8-20.5,17V611
			C1346.9,608.8,1351.5,624.6,1351.5,624.6"/>
		<rect x="1601.6" y="715.7" class="st11" width="7.2" height="25"/>
		<rect x="1601.6" y="715.7" class="st12" width="3.8" height="25"/>
		<path class="st13" d="M1623.8,700.7c0,0,23.8-1.5,18.1-26.1c0,0-4.4-13.7-17.8-14.2c0,0-4.1-14.2-18.9-11.9
			c-5.6,0.4-10.5,3.6-13.2,8.5c0,0-26.9-2.6-24.8,21.7c0,0,1,17.6,20.9,18.1c0,0-0.3,18.4,17.2,18.9
			C1605.3,715.7,1622,715.5,1623.8,700.7"/>
		<path class="st10" d="M1624.1,660.4c13.4,0.5,17.8,14.2,17.8,14.2c5.7,24.6-18.1,26.1-18.1,26.1c-1.7,13.4-15.6,14.8-18.1,15
			v-67.3C1620.1,646.5,1624.1,660.4,1624.1,660.4"/>
	</g>
</g>
</svg>
