<svg xmlns="http://www.w3.org/2000/svg" xmlns:xlink="http://www.w3.org/1999/xlink" viewBox="0 0 1826.06 1039.09"><defs><style>.a,.u,.v{fill:none;}.b{clip-path:url(#a);}.c{fill:#eeefef;}.d{fill:#cbcecd;}.d,.o{opacity:0.5;}.e{fill:#00758f;}.f{fill:#3f9baf;}.g{fill:#004f35;}.h{fill:#1d703a;}.i{fill:#8a341e;}.j{fill:#5d0101;}.k{fill:#15553d;}.l{fill:#00586e;}.m{fill:#1a1b1b;}.n{fill:#8a331d;}.o,.z{fill:#fff;}.o,.p{isolation:isolate;}.p{opacity:0.3;}.q{fill:#343535;}.r{fill:#4e5052;}.s{fill:#65676a;}.t{fill:#e9eaea;}.u{stroke:#494949;stroke-width:2.83px;}.u,.v{stroke-miterlimit:10;}.v{stroke:#65676a;stroke-width:1.17px;}.w{fill:#ba0000;}.x{fill:#ad5219;}.y{fill:#cf7215;}.aa{fill:#f6b159;}.ab{fill:#cd7328;}</style><clipPath id="a"><rect class="a" x="110.36" y="38.98" width="1678.83" height="872.85"/></clipPath></defs><title>team-footer-bg</title><g class="b"><rect class="c" x="93.95" width="1700.61" height="994.24"/><path class="d" d="M108.71,973.7l2.14-75.43V605.1h12.68V593.8l37.86-6.87v-25.5h13.14v9.31h15.26v-6.41h10.39v6.41h5.34v18.17h55v18.63h20.77v20h6.26V593.8h19.85l27,12.21v-5.8h12.67l.31-11.45h11.91l1.52-24.89,1.07,25h9.93V602.2h3.66v17.1h5.8V607.54h18.94v14.2h17.56V538.07l8.09.15v-8.09H452l.15,7.78,7.64.16V647.24h22.29l-.15-4.88h24.28V657H523V604.64h8.1v-4H541v3.51l19.39-.15V661.9H575.2l17.1-136,9,106.28h4.88v-6.88h8.55v6.42H626.5v14.66h6.72l.15,3.66h7.48l1.38-33,10.38-3.36V597.77L660.7,590l1.84-31.3,2.29,31.76,7.17,7.33v16.64l7.79,3.67.61,19.24,3.36.15.46-8.86h5.34c-.3-.3-.3,33.14-.15,79.56l16.49-.46.46-1.68h10.69v2.29h8.85V738.7h18.48v-65H770.8l.91,59.4h22.91v-93.3h45L840,784.82l22.6-.15V709.39H909v75.12h17.41V740.38h27.18v44.13h11.61V742.37h67.64v41.84h9.62V769.55H1054v72.07l118.34-.46v38l2.29,62.61L690.78,927.13c.16,32.37.31,53.9.31,53.9Z"/><rect class="e" x="147.35" y="741.45" width="1678.71" height="268.59"/><rect class="f" x="147.35" y="741.45" width="1678.71" height="7.48"/><path class="g" d="M63.53,737.28S42.32,740,116.46,718.17s145.71,65.51,145.71,65.51L0,852Z"/><path class="h" d="M39.75,846.51S280.82,701.85,336.43,710,553.6,802.8,553.6,802.8L238.39,939.3,29.14,944.78Z"/><rect class="i" x="272.55" y="767.36" width="6.41" height="22.15"/><rect class="j" x="275.69" y="767.36" width="3.26" height="22.15"/><path class="k" d="M259.26,754.07s-21.1-1.4-16.09-23.08c0,0,3.85-12.12,15.85-12.59,0,0,3.62-12.59,16.67-10.49a14.33,14.33,0,0,1,11.66,7.58s23.78-2.34,22,19.23c0,0-.93,15.62-18.53,16.09,0,0,.23,16.2-15.27,16.67C275.69,767.36,260.89,767.13,259.26,754.07Z"/><path class="h" d="M259,718.4c-11.89.47-15.85,12.59-15.85,12.59-5,21.8,16.09,23.08,16.09,23.08,1.51,11.89,13.87,13.17,16.08,13.29V707.79C262.64,706,259,718.4,259,718.4Z"/><rect class="i" x="352.4" y="726.91" width="5.83" height="20.17"/><rect class="j" x="355.2" y="726.91" width="3.03" height="20.17"/><path class="k" d="M340.27,714.9s-19.11-1.28-14.57-21c0,0,3.5-11.07,14.34-11.42,0,0,3.38-11.43,15.16-9.56a13.09,13.09,0,0,1,10.6,6.87s21.69-2.09,20.05,17.49c0,0-.81,14.11-16.9,14.57,0,0,.23,14.81-13.87,15.16C355.2,726.91,341.79,726.79,340.27,714.9Z"/><path class="h" d="M340.16,682.38c-10.84.47-14.34,11.42-14.34,11.42-4.55,19.82,14.57,21,14.57,21,1.28,10.84,12.59,11.89,14.57,12v-54.2C343.42,671.19,340.16,682.38,340.16,682.38Z"/><rect class="i" x="157.26" y="747.19" width="5.13" height="17.84"/><rect class="j" x="159.7" y="747.19" width="2.68" height="17.84"/><path class="k" d="M146.53,736.47s-16.9-1.05-12.82-18.54c0,0,3.15-9.79,12.7-10.14,0,0,2.92-10.14,13.41-8.51a11.53,11.53,0,0,1,9.33,6.06s19.11-1.86,17.6,15.39c0,0-.7,12.47-14.92,12.82,0,0,.23,13.06-12.24,13.41C159.7,747.19,147.81,747,146.53,736.47Z"/><path class="h" d="M146.41,707.91c-9.55.35-12.7,10.14-12.7,10.14-4.08,17.49,12.82,18.53,12.82,18.53,1.17,9.56,11.08,10.5,12.82,10.61V699.4C149.33,698,146.41,707.91,146.41,707.91Z"/><path class="l" d="M834.54,871.92H651.06a1.3,1.3,0,0,1-1.29-1.28v-.81a1.31,1.31,0,0,1,1.29-1.29H834.42a1.31,1.31,0,0,1,1.29,1.29v.81A1.14,1.14,0,0,1,834.54,871.92Z"/><path class="l" d="M911.59,885.21H635.43a1.3,1.3,0,0,1-1.28-1.28v-.81a1.3,1.3,0,0,1,1.28-1.29H911.59a1.31,1.31,0,0,1,1.29,1.29v.81A1.17,1.17,0,0,1,911.59,885.21Z"/><path class="l" d="M803.3,894.89H619.81a1.29,1.29,0,0,1-1.28-1.28v-.82a1.29,1.29,0,0,1,1.28-1.28H803.18a1.29,1.29,0,0,1,1.28,1.28v.82A1.12,1.12,0,0,1,803.3,894.89Z"/><path class="l" d="M879.65,905.38H603.49a1.29,1.29,0,0,1-1.28-1.28v-.82a1.29,1.29,0,0,1,1.28-1.28H879.65a1.3,1.3,0,0,1,1.29,1.28v.82A1.3,1.3,0,0,1,879.65,905.38Z"/><path class="l" d="M858.79,914.24H582.63a1.29,1.29,0,0,1-1.28-1.28v-.82a1.29,1.29,0,0,1,1.28-1.28H858.79a1.29,1.29,0,0,1,1.28,1.28V913A1.29,1.29,0,0,1,858.79,914.24Z"/><path class="l" d="M741.52,925.43H558.15a1.29,1.29,0,0,1-1.28-1.28v-.82a1.29,1.29,0,0,1,1.28-1.28H741.52a1.29,1.29,0,0,1,1.28,1.28v.82A1.29,1.29,0,0,1,741.52,925.43Z"/><path class="l" d="M809.71,935.81H533.55a1.3,1.3,0,0,1-1.28-1.29v-.81a1.3,1.3,0,0,1,1.28-1.29H809.71a1.3,1.3,0,0,1,1.28,1.29v.81A1.3,1.3,0,0,1,809.71,935.81Z"/><rect class="m" x="649.31" y="807.93" width="8.98" height="63.65"/><rect class="m" x="635.32" y="809.91" width="8.98" height="74.84"/><rect class="m" x="619.81" y="815.97" width="9.33" height="77.87"/><rect class="m" x="602.68" y="820.98" width="10.37" height="82.88"/><rect class="m" x="582.39" y="826.11" width="12.94" height="86.03"/><rect class="m" x="559.08" y="831.12" width="14.34" height="91.86"/><rect class="m" x="533.78" y="835.2" width="14.69" height="99.2"/><rect class="m" x="507.91" y="842.2" width="17.25" height="107.95"/><rect class="m" x="479.11" y="849.31" width="18.3" height="108.41"/><rect class="m" x="448.45" y="856.42" width="19.35" height="126.6"/><rect class="m" x="416.63" y="864.46" width="21.57" height="136.39"/><rect class="m" x="383.87" y="877.64" width="17.02" height="146.53"/><rect x="649.31" y="807.93" width="8.98" height="63.65"/><rect x="635.32" y="809.91" width="8.98" height="74.84"/><rect x="619.81" y="815.97" width="9.33" height="77.87"/><rect x="602.68" y="820.98" width="10.37" height="82.88"/><rect x="582.39" y="826.11" width="9.44" height="86.03"/><rect x="559.08" y="831.12" width="8.98" height="91.86"/><rect x="533.78" y="835.2" width="7.46" height="99.2"/><rect x="507.91" y="842.2" width="8.39" height="107.95"/><rect x="479.11" y="849.31" width="6.99" height="108.41"/><rect x="448.45" y="856.42" width="6.99" height="126.6"/><rect x="416.63" y="864.46" width="5.01" height="136.39"/><rect class="m" x="383.87" y="877.64" width="17.02" height="146.53"/><rect x="108.18" y="818.77" width="9.91" height="63.53"/><rect x="151.78" y="814.8" width="15.85" height="58.52"/><rect x="196.42" y="804.9" width="12.94" height="55.6"/><rect x="262.87" y="796.97" width="11.89" height="52.57"/><rect x="296.68" y="796.04" width="9.91" height="49.66"/><rect x="323.37" y="789.97" width="10.96" height="48.61"/><rect x="351.23" y="787.99" width="8.98" height="43.6"/><rect x="373.03" y="784.03" width="6.99" height="39.63"/><rect x="392.85" y="785.08" width="8.98" height="36.72"/><rect x="413.71" y="778.08" width="7.93" height="41.62"/><rect x="430.5" y="776.1" width="6.99" height="41.62"/><rect x="448.45" y="776.1" width="5.95" height="35.67"/><rect x="462.33" y="774.12" width="7.93" height="34.74"/><polygon class="m" points="107.13 812.82 466.29 770.16 665.16 774.82 658.75 782.05 465.24 779.13 101.19 826.7 107.13 812.82"/><path class="m" d="M106.2,835.67l351.46-52.46c.47-.11,8-1.05,8.63-.93l196.07,4.78-3.49,7-192.23-2.79c5.36-.94-7.46.93-7.93.93L107.13,846.63Z"/><polygon class="m" points="106.2 853.51 470.25 794.99 665.16 800 664.23 805.95 468.27 802.91 99.2 869.36 106.2 853.51"/><polygon class="n" points="108.18 880.32 468.27 807.93 663.64 805.95 241.07 978.47 89.29 1039.09 108.18 880.32"/><path d="M425,678.18l14-12,12.82,11.65Z"/><rect x="424.56" y="677.6" width="27.63" height="2.33"/><rect x="437.96" y="661.05" width="1.98" height="5.95"/><rect x="432.13" y="694.97" width="12.47" height="2.56"/><rect x="437.38" y="696.72" width="1.98" height="86.85"/><rect x="434.93" y="777.27" width="6.88" height="12.82"/><rect x="433.07" y="788.93" width="10.49" height="22.73"/><polygon points="447.4 816.32 428.87 819.82 428.87 813.52 447.4 810.02 447.4 816.32"/><rect x="429.8" y="708.61" width="17.14" height="1.98"/><polygon class="o" points="427.59 679.58 433.88 695.2 443.21 694.97 449.15 679.82 427.59 679.58"/><circle cx="429.45" cy="709.77" r="1.98"/><circle cx="447.4" cy="709.42" r="1.98"/><path d="M104.68,686.34l19.94-17L142.92,686Z"/><rect x="104.1" y="685.53" width="39.4" height="3.26"/><rect x="123.1" y="662.1" width="2.8" height="8.51"/><rect x="114.82" y="710.36" width="17.84" height="3.61"/><rect x="122.28" y="712.8" width="2.8" height="123.68"/><rect x="118.9" y="827.51" width="9.79" height="18.3"/><polygon points="131.26 876.59 116.22 882.3 116.22 844.18 131.26 844.18 131.26 876.59"/><polygon points="136.74 883 108.53 887.78 108.53 878.8 136.74 874.02 136.74 883"/><rect x="111.44" y="729.82" width="24.36" height="2.8"/><polygon class="o" points="108.3 688.44 117.27 710.71 130.68 710.36 139.19 688.79 108.3 688.44"/><circle cx="110.98" cy="731.46" r="2.8"/><circle cx="136.51" cy="730.99" r="2.8"/><polygon class="p" points="104.22 881.25 468.27 802.91 658.28 807.93 46.16 968.56 104.22 881.25"/><polygon class="q" points="466.29 770.16 466.52 778.9 654.44 782.16 665.16 774.82 466.29 770.16"/><polygon class="q" points="467.22 795.57 466.87 803.38 659.57 806.41 665.04 800.58 467.22 795.57"/><polygon class="q" points="466.17 782.16 466.52 791.14 658.75 794.05 662.25 787.06 466.17 782.16"/><polygon class="r" points="287.93 525.94 291.43 528.27 280.47 543.89 275.93 539.35 287.93 525.94"/><polygon class="s" points="304.49 568.96 319.06 560.45 321.04 563.94 307.52 572.92 304.49 568.96"/><polygon class="s" points="310.78 606.26 328.5 608.12 328.38 612.79 309.85 612.79 310.78 606.26"/><polygon class="r" points="300.99 639.13 318.59 650.67 315.56 655.68 296.44 644.61 300.99 639.13"/><polygon class="q" points="275.93 659.65 285.37 680.63 280.94 683.31 269.4 664.19 275.93 659.65"/><polygon class="m" points="200.15 663.26 189.78 681.45 194.21 683.66 208.2 665.24 200.15 663.26"/><polygon class="m" points="154.57 645.19 168.56 632.14 172.64 638.66 157.72 649.04 154.57 645.19"/><polygon class="m" points="140.59 594.02 140.59 600.55 163.32 602.53 164.13 593.55 140.59 594.02"/><polygon class="m" points="155.27 552.05 158.77 545.99 176.26 558.46 170.78 565.58 155.27 552.05"/><polygon class="q" points="191.65 520.81 196.77 517.66 207.73 534.33 201.2 538.41 191.65 520.81"/><rect class="q" x="222.65" y="662.68" width="32.06" height="276.16"/><rect x="222.65" y="662.68" width="8.74" height="276.16"/><rect class="s" x="245.38" y="662.68" width="5.13" height="276.16"/><rect class="r" x="250.54" y="662.72" width="4.2" height="276.16"/><rect class="m" x="231.27" y="662.72" width="6.06" height="276.16"/><polygon class="q" points="254.71 539.35 222.65 539.35 222.65 468.59 255.41 468.59 254.71 539.35"/><rect x="222.65" y="469.52" width="8.74" height="69.83"/><polygon class="s" points="250.4 539.35 245.38 539.35 245.38 470.1 250.4 470.45 250.4 539.35"/><rect class="r" x="250.54" y="470.11" width="4.2" height="69.24"/><rect class="m" x="231.27" y="469.25" width="6.06" height="70.06"/><ellipse class="q" cx="233.84" cy="602.29" rx="73.44" ry="72.97"/><circle class="t" cx="242.59" cy="600.08" r="72.16"/><circle cx="286.3" cy="613.37" r="2.45"/><circle cx="202.25" cy="620.6" r="2.45"/><circle class="u" cx="242.59" cy="600.08" r="61.9"/><circle class="v" cx="242.59" cy="600.08" r="32.99"/><path class="w" d="M248.18,614.18c1.52-.11,3-.34,4.32-.46.46-.58.81-1.05,1.16-1.52a2.8,2.8,0,0,0,.58-.7c.12-.11,0-.23,0-.35l-3.84-.7c-.12,0-.35-.11-.47-.11a4.37,4.37,0,0,0-1.75-.47c-.35,0-.7-.35-1.16-.58-.12,0-.24-.12-.35-.12-.35.24-.7-.11-.94-.23a1.21,1.21,0,0,0-.58-.12,8.13,8.13,0,0,1-3.38.35c-.12,0-.23.12-.35.12s-.47.12-.7.12-.35,0-.35.11c-.46.35-.81.7-1.4.58-1.16,0-2,.82-3.14.82a13.63,13.63,0,0,0-2.1.23,5,5,0,0,0-.59.12c.12.23.24.35.35.58a11.35,11.35,0,0,1,1,1.4,1.34,1.34,0,0,0,1.05.7l2.68.35h.82c.12,0,.12,0,.23.12-.35.11-.7.35-1,.46a7.31,7.31,0,0,1-3.14.47,3.29,3.29,0,0,1-2.92-1.75l-.11-.11a2.87,2.87,0,0,1-1.4-2.22,1.28,1.28,0,0,1,.46-1.4.38.38,0,0,0,.12-.23c0-.35.35-.47.7-.58.93-.24,1.86-.35,2.8-.59a18.3,18.3,0,0,1,2.44-.23,5.3,5.3,0,0,1,1.29.23h.35a14.13,14.13,0,0,0-1.87-.93,1,1,0,0,0-.81.12c-2.1.58-4.08,1.05-6.18,1.63-.94.23-2,.35-2.92.58a.93.93,0,0,0-.58.23,10.53,10.53,0,0,1-3.15,1.29c-.11,0-.23.23-.23.35a1.78,1.78,0,0,0,.7,1.63.12.12,0,0,1,.12.12v.11a3.93,3.93,0,0,1-2.1-1.28,1.29,1.29,0,0,1,.58-2.1l4.2-1.75c.46-.23,1-.23,1.51-.46a.42.42,0,0,0,.35-.12c.47-.58,1.28-.47,2-.58s1.52-.24,2.33-.47,1.52-.35,2.34-.47c-.35-.23-.7-.46-.94-.58s-.7.12-1.05.12a12,12,0,0,1-4.08.11c-.46,0-.93-.11-1.39-.11h0c-.94-.7-2-.23-3-.7a7.3,7.3,0,0,1-2.21-1.63,1.43,1.43,0,0,0-.47-.35c-.23-.12-.35-.35-.58-.47s-.12-.12-.23-.12a7.1,7.1,0,0,1-3-2.56.7.7,0,0,1-.12-.47.43.43,0,0,0-.12-.35,10.44,10.44,0,0,1-1.28-3.14,5,5,0,0,1,.58-3.62,4.22,4.22,0,0,1-.11.7,4.47,4.47,0,0,0,.58,2.45c.35.82.82,1.63,1.17,2.33a.64.64,0,0,0,.58.35,3.43,3.43,0,0,1,1.51.58c.82.47,1.52.94,2.22,1.4a4.34,4.34,0,0,1,1.4,1.75,5.49,5.49,0,0,0,1.28,1.63c.12.12.58,0,.82-.11a16.78,16.78,0,0,0,2.09-.94c.12-.11.35-.11.47-.23a4.67,4.67,0,0,0-1.75-.81,6.52,6.52,0,0,1-3.38-2.1,1.24,1.24,0,0,1-.46-.94c0-.23-.35-.46-.59-.7a3.81,3.81,0,0,1-.46-1,5,5,0,0,1-.35-.82,2.58,2.58,0,0,1-.12-1.87c.12-.81.23-1.63.35-2.56,0-.12.12-.23.23-.47a5.17,5.17,0,0,1,.12-4.54c.12-.35.23-.82.82-.7l.11-.12a5.06,5.06,0,0,1,3.5-2.45,9.18,9.18,0,0,1,4,.12,18.66,18.66,0,0,0-5.71,2.8,10.08,10.08,0,0,1,.47,1.75,5.08,5.08,0,0,1,.11,1.86,13.12,13.12,0,0,1-.7,4.2,13.46,13.46,0,0,0-.58,2c-.12.35.12.7.12,1a7.46,7.46,0,0,1,1.63-.12,9.32,9.32,0,0,1,3.61.59c.24.11.35.23.59-.24a14.89,14.89,0,0,1,1.16-1.63,13,13,0,0,1-1.4-1.17,7.07,7.07,0,0,1-2-4v-1a2.9,2.9,0,0,1,.58-2.91c.35-.47.94-.7,1.17-1.28h.12c.7,0,.93-.7,1.4-1a11.1,11.1,0,0,1,3.73-1.87c1.28-.35,2.44-.7,3.61-1.05a3,3,0,0,1,2.45.24l.35.34a4.72,4.72,0,0,0-3.5.82v.12c.47-.12.93-.35,1.4-.47.23-.12.58-.12.82-.23a3.06,3.06,0,0,1,1-.12c.12,0,.12,0,.35.23-.23.12-.46.35-.7.47a33.77,33.77,0,0,0-4.89,2.8,24.14,24.14,0,0,1-2.92,1.86,11.74,11.74,0,0,1-1.86.7h-.23a7.92,7.92,0,0,1-.7.94,14.68,14.68,0,0,0,1.51,1l.7-.69a3.69,3.69,0,0,0,.23,2.21c.24-.23.47-.35.7-.58,0,.7-.35,1.28.35,1.75.12-.12.35-.12.59-.24-.12.24-.12.59-.24.82v.23h.24l2.44-.7a1.86,1.86,0,0,1,.82-.11,2.54,2.54,0,0,0-.35-.59c-.12-.23-.23-.7,0-.81a1,1,0,0,1,.82,0c.46.35.93.7.93,1.28.47,0,.93-.12,1.4-.12,1.28,0,2.45-.11,3.73-.11.23,0,.35-.12.46-.35a3.82,3.82,0,0,1,.94-.94c.23-.23.58-.11.81.12a.56.56,0,0,1,0,.82c-.11.11-.11.23-.23.35,1,0,2.1.23,3.15.23v-.12c.11.12.35.24.46.35.7-.35.59-1.05.7-1.63a2.45,2.45,0,0,0,.47.58c.58-.58.47-1.4.7-2.21a7.76,7.76,0,0,1,.47.7l1.74-.7c0-.12-.11-.23-.23-.35l-.23-.23c0-.59-.35-.59-.7-.7a7.59,7.59,0,0,1-1.52-1.17c-.93-.82-1.75-1.75-2.68-2.68a21,21,0,0,0-3.5-2.92,3.22,3.22,0,0,0-.69-.58.53.53,0,0,1,.34-.81,2.52,2.52,0,0,1,1.87,0c1,.46,2,.93,3,1.39a20,20,0,0,1,2.68,1.64,7.65,7.65,0,0,1,2.45,2.68c.12.11.35.11.35.35a2.4,2.4,0,0,1,.47.93,3.38,3.38,0,0,1,.58,3.15,2.53,2.53,0,0,1-.47.7c.24.46,0,.81-.23,1.16a7.35,7.35,0,0,1-2,2.57c.23.23.46.58.7.81s.23.12.35.24c1.16.11,2.33.11,3.61.23a.25.25,0,0,0,.23-.23,1.57,1.57,0,0,0,.24-1.4,18.17,18.17,0,0,0-.59-2.45,11.75,11.75,0,0,1-.11-3.5,19.64,19.64,0,0,1,.58-2.56c0-.24.23-.35.35-.58a18.07,18.07,0,0,0-5.6-3.39,9.3,9.3,0,0,1,5.37.82,3.91,3.91,0,0,1,1.75,1.87c.23.46.23.46.93.58.11.81.35,1.51.46,2.33a5.2,5.2,0,0,1-.46,2.33c0,.12-.12.35-.12.47,0,1.05.12,2.21.12,3.26a1.84,1.84,0,0,1-.47,1.52c-.23.35-.35.81-.58,1.16a7.3,7.3,0,0,1-.93,1,.59.59,0,0,1-.35.82c-.47.35-.94.81-1.4,1.16s-1.28.47-1.87.82c-.11,0-.11,0-.23.12a.11.11,0,0,1-.12.11c.24.12.35.12.47.24.7.11,1.51.35,2.21.46.12,0,.35.12.47.12.7.12.93-.12,1.28-.7.59-1.17.82-2.45,1.75-3.38a3,3,0,0,0,.58-.7c.59-.58,1.17-1.05,1.75-1.63a.88.88,0,0,1,.47-.24c.35,0,.58-.35.7-.7.23-1,.46-2.09.7-3.14a3,3,0,0,0-.24-2.45,3,3,0,0,1,1.05,2.1,8.59,8.59,0,0,1-.11,3.84,1.58,1.58,0,0,1-.24.7v.59a1.61,1.61,0,0,1-.23.81,6.2,6.2,0,0,1-2.21,2.68c-.12,0-.12.12-.12.24a.11.11,0,0,1-.12.11c-.58.7-1.05,1.4-1.63,2.1a4.38,4.38,0,0,1-3,1.4.42.42,0,0,0-.35.12,1.57,1.57,0,0,1-1.17.7,31.51,31.51,0,0,1-3.14.7,18.21,18.21,0,0,1-2.45,0,1.62,1.62,0,0,0-1.52.58c.82,0,1.52-.12,2.22-.12h.35c1-.11,2.21-.11,3.26-.23a.86.86,0,0,1,.47.12c.35,0,.58.11.93.11.93.12,1.87.24,2.92.35.81.12,1.63.12,2.33.24a3.82,3.82,0,0,1,1.28.35,1.4,1.4,0,0,1,.35,1.86,4.45,4.45,0,0,1-.93,1.17,2.47,2.47,0,0,1-.7.46c0-.11,0-.23.11-.23a1.6,1.6,0,0,0,.35-1.63v-.47h-.7a6.6,6.6,0,0,1-3-.47c-.23-.11-.58,0-.93,0H257c-.11.35-.46.12-.7.12s-.58-.12-.93-.12h-7c-.82.24-.7.12-.7,1.29a2.48,2.48,0,0,1,.93-.12h2.1a14.1,14.1,0,0,1,2.21.35c.7.12,1.4.35,2,.47,0,0,.12,0,.12.11.23.47.58,1,.82,1.52a2.12,2.12,0,0,1-.47,1.63c-.23.35-.47.82-.93.93l-.12.12a3.25,3.25,0,0,1-2.8,1.75,6,6,0,0,1-3.14-.47c.46.58.11.47-.24.23Zm-3.15-33c.12,0,.12.11.24.11s.46.12.7.23.35.24.58.35.7.35,1,.47.35.23.58.35a.12.12,0,0,1,.12-.12C247.25,581.78,246.32,581,245,581.2Zm3.39,1.51h0a3.2,3.2,0,0,0,.93,1.28l.11-.11A10.24,10.24,0,0,1,248.42,582.71Zm-10,.7h0a2.61,2.61,0,0,0-1.28.93l.11.12C237.57,584.11,238,583.76,238.39,583.41Z"/><circle class="a" cx="242.12" cy="599.15" r="37.07"/><polygon class="x" points="108.64 942.33 662.25 787.06 665.16 787.06 259.37 906.08 107.13 951.19 108.64 942.33"/><polygon class="y" points="107.13 901.18 663.64 775.17 106.43 906.08 107.13 901.18"/><polygon class="x" points="107.83 986.51 662.25 801.16 104.22 993.16 107.83 986.51"/><polygon points="111.09 902.12 665.16 774.82 665.16 782.75 105.15 927.88 111.09 902.12"/><polygon points="107.13 945.83 665.16 787.06 665.04 794.99 109.11 969.61 107.13 945.83"/><polygon points="108.18 990.48 665.04 800.58 665.16 809.33 108.18 1013.21 108.18 990.48"/><polygon points="108.18 1024.17 664.23 807.34 99.2 1038.04 108.18 1024.17"/><path class="z" d="M210.3,442.48s4.54-6.77,11.19-2.57a7.67,7.67,0,0,1,3.38,7.58l.58,5.13L244.57,464l-.93,5.48s-6.18,2-9.33,1.87-12.12.69-17.95-4.2c0,0-6-5.83-4.2-12.94s1.05-7.93,1.05-7.93Z"/><path class="aa" d="M204.12,444.69a6.89,6.89,0,0,1,3.73-1.75l2.45-.46,1.86,2.44Z"/><path class="ab" d="M213.09,446.32s-5.36.12-6.17-.58a4.56,4.56,0,0,0-1.17-.82h5.83Z"/><path class="m" d="M244.45,463.92s13.29,2.57,15.62,3.39a2.63,2.63,0,0,1,2,2.56l-28.32-1.17Z"/><path class="q" d="M250.51,467.31l-4-2.1-15.5,3.61C231.05,468.7,243.87,471.27,250.51,467.31Z"/><path class="r" d="M248,465.79l-22.62-13.17s-6.64-3.62-8.16,4.89c0,0-1.16,8.05,8.86,10.49C226,467.89,232.79,470.34,248,465.79Z"/><path class="s" d="M220,453.32s-1.75,5.36,2.57,8.16c0,0,7.34,7.11,21.8,2.44L225.22,452.5C225.33,452.62,223.35,450.75,220,453.32Z"/><circle class="s" cx="215.89" cy="442.48" r="0.82"/></g></svg>