<svg xmlns="http://www.w3.org/2000/svg" xmlns:xlink="http://www.w3.org/1999/xlink" viewBox="0 0 1849.18 1266.74"><defs><style>.a,.g,.j{fill:none;}.b{clip-path:url(#a);}.c{fill:#bde6ee;}.d{fill:#00758f;opacity:0.23;}.e{fill:#7fbac7;}.f{fill:#9e0a11;}.g{stroke:#9e0a11;stroke-width:5.28px;}.g,.j{stroke-miterlimit:10;}.h{fill:#f80000;}.i{fill:#6c2c45;}.j{stroke:#f80000;stroke-width:5.28px;}.k{fill:#0e321f;}.l{fill:#1e5623;}.m{fill:#77180b;}.n{fill:#3f0005;}.o{fill:#143825;}</style><clipPath id="a"><rect class="a" x="4.31" y="158.59" width="1680.33" height="800.8"/></clipPath></defs><title>team-bg</title><g class="b"><rect class="c" x="4.54" y="1.55" width="1685.35" height="1009.28" transform="translate(0.94 -1.56) rotate(0.11)"/><path class="d" d="M0,962.84s202.21-65.15,281-59.06c82,6.34,155.4,67.6,155.4,67.6s27.86.06,60.39-16.13c0,0,158-89.47,203.64-79.32s310.83,119.73,310.83,119.73l0,19.34L.68,1013.14Z"/><path class="e" d="M1020.06,861.35h0m112.38-118.2-10.61,122.34h-5.71v-7.9l-9.86,0,0,7.33-13.5,0,0,16.91h-7.79l-.13,4.22h-8.63l-1.57-38.06-11.93-4,0-18-9.33-9-2-36.09-2.67,36.65-8.32,8.44,0,19.17-9,4.19-.69,22.18-3.89.1-.5-10.15h-6.22c.31.35.21,38.63-.07,91.53l-19.07-.56-.56-2-12.36,0V953l-10.12,0-.06,35-20.8,0,.13-74.95-30.36-.06-1.25,68.41-26.42,0,.2-107.47-52-.16-.63,167.07-26-.15.16-86.78-53.46-.1-.16,86.59-20-.11.09-50.87-31.18-.06L716,1040l-13.37-.07.09-48.47-40.43-.08.08-41.73-28.63,0,0,16.25-17,0,0,10.06-11.6,0,0-13.92-7.74,0,0-13.15-15.48,0,0,25.53h-7.74l0-18.57-9.28,0,0,19.34-17.8,0,0-13.93-13.93,0,0-13.16-24.76,0,0,13.15-26.3-.05v4.65l-10.84,0v9.28l-16.25,0,0-21.66L420.94,953l0,20.12-53.39-.1,0,8.52-20.12,0,0-16.25-16.24,0,0,16.25-22.44,0,0-16.25-12.38,0,0,16.25-13.93,0,.05-27.09-14.7,0-.05,27.08H260l.07-39.47-20.11,0-.06,31.72-17.8,0,0-9.29-68.87-.12,0,9.28-10.05,0v6.19l-81.25-.15,0-15.47-21.67,0,0,15.47-17,0,0-15.47-12.38,0,0,14.71-8.51,0L2,1152.93l461.48.86-2.55,66.63,557.34-15.83c-.29,37.34-.5,62.15-.5,62.15l670.83-6.66-2.27-87,.62-337.6-14.54,0,0-13-43.61-8,.06-29.32-15.06,0,0,10.71-17.66,0v-7.33l-11.94,0v7.33h-6.23l0,20.86-63.36-.12,0,21.43-23.89,0,0,23.12h-7.26l.07-38.91-22.85,0-31.19,14V829.4l-14.54,0-.24-13.22-13.8,0L1399,787.54l-1.33,28.83-11.43,0,0,15.23h-4.16l0,19.74-6.75,0,0-13.53-21.82,0,0,16.35-20.25,0,.18-96.31-9.32.07.06-9.33-30.12-.05-.15,8.91-8.77.21-.23,125.74-25.62,0,.18-5.64-28-.05,0,16.92-19.22,0,.11-60.33-9.35,0v-4.51l-11.42,0,.06,4-22.4-.18L1169,900l-17.14,0-19.45-156.79"/><path class="f" d="M656.89,784c0-1.24,2.3-2.29,4.41-1.76h0c1.23.18,2.11.89,2.11,1.77l-.14,78.38h-6.52Z"/><polygon class="f" points="703.37 796.96 709.71 798.38 709.59 862.49 703.25 862.48 703.37 796.96"/><polygon class="f" points="917.4 782.38 921.8 781.86 921.65 864.65 915.13 864.63 915.28 782.38 917.4 782.38"/><polygon class="f" points="873.52 796.39 880.03 796.58 879.91 864.57 873.39 864.56 873.52 796.39"/><polygon class="f" points="833.7 803.37 840.04 803.55 839.92 864.5 833.58 864.48 833.7 803.37"/><polygon class="f" points="790.71 806.81 797.23 807.7 797.13 862.66 790.61 862.64 790.71 806.81"/><polygon class="f" points="746.68 804.09 753.2 804.98 753.09 862.58 746.58 862.56 746.68 804.09"/><polygon class="f" points="955.28 777.7 961.62 777.01 961.45 867.01 955.11 867 955.28 777.7"/><polygon class="f" points="996.88 755.23 1003.4 754.36 1003.2 867.09 996.68 867.08 996.88 755.23"/><polygon class="f" points="1039.19 735.76 1045.19 733.3 1044.94 867.16 1038.95 867.15 1039.19 735.76"/><polygon class="f" points="1085.75 705.37 1091.04 701.68 1090.73 867.25 1085.45 867.24 1085.75 705.37"/><polygon class="f" points="1130.37 674.81 1136.01 670.94 1135.65 867.33 1130.01 867.32 1130.37 674.81"/><polygon class="f" points="1177.46 638.43 1183.64 633.16 1183.21 866.19 1177.04 867.41 1177.46 638.43"/><polygon class="f" points="1224.22 593.61 1223.72 866.26 1217.55 867.48 1218.04 601.17 1224.22 593.61"/><path class="g" d="M1308.05,502.17S974.35,941.89,609.2,765.08"/><path class="f" d="M616.76,772l25,10.43,24.64,8.33L701.61,797l-61.43-22.48L615.54,763,590,752.19l-42.58-20.86-24.29-12.2-34.66-18.56L436.94,669.3l-22-13.6-18.12-12.54-31.49-21.9-21.81-15.72-25-20.65-25.51-21L265.27,539.7l-20.22-19.59-29.36-28.58,0,8.45,8.44,8.47-.66,356.32h5.29l.65-351L240.64,525l22.68,21.35,4,3.53-.49,268.43-9.69,0-9.69,2.45-5.14,17.78,0,19.2,24.49,0V862h5.28v-4.23l37.52.07v4.23h5.28v-4.23l38.05.07v4.23h5.28V858l38,.07v4.23h5.28v-4.23l29.94.06v-4.76l-3.16-4.76-3.17-1.42-16.91-.56L406,842.74l-4.58-2,.35-185.47,1.58,1.06,35,22.26L438,862.17h5.28l.34-180.71,28.85,17.13,9.15,5.31-.26,142.84-20.79,1.37-3.18,6.16V858l24,0v5.29h5.28V858l38,.07,0,6.7h5.29v-6.7h6.17v-8.27l-6.16-1.6.22-118.19,6.33,3.36,20.94,10.78,10,4.95-.15,80.14h-4.75l-.06,30.29h4.76v4.23h5.28V859.6l37.52-.46v4.76h5.28v-4.76l31.53-.29,0-11.8-7.39-2.13-10.19-15.17-13.91,0,.1-58.13ZM272.15,818.36l.49-263.67,27.61,24.71,10.37,8.29-.42,230.74Zm81.2,0-38-.07.41-226.51,11.08,9,26.92,19.77-.37,198Zm14.58,22.93L368,821l-3.35-2.47h-6l.35-194.1L361.1,626l25.16,18,10.55,7.59L396.46,841Zm149.18.8L486.64,842l.25-134.56,8.27,4.77,29.74,15.55-.22,119.6Zm55.68-12.4.15-77.5,17.59,8.49,19.89,8.66-.11,60.42Z"/><path class="f" d="M79.62,349.13c3.71-5.8,14.67-23.22,14.67-23.22l0,10.75s-5.13,10-12.55,21.29c-9.89,15.12-23.31,33.24-29.49,42-.71.88-1.41,1.93-2.3,3.16l-.82,449.14h-7l.81-439.8c-6.18,8.09-13.24,17.06-17.83,22.33S5.63,456.62,5.63,456.62V446.05s14.65-16.71,19.42-22.51c6.89-8.27,19.77-25.15,26.13-33.77C58.61,379.74,72.56,359.34,79.62,349.13Z"/><polygon class="f" points="71.86 834.72 85.42 834.75 85.39 852.54 51.92 852.48 51.94 843.14 63.92 843.16 71.86 834.72"/><path class="f" d="M184.32,308.11l0,11.8-59.36-.11,0-11.8h-9.69l0-11.81-11.27,0,0,11.8H94.32l-.25,136H90.19l-.26,143H85.35l-.27,145.83H78.92l-.65,348.57,58.13.11L137,769l31.71.06-.58,312.63,25.36,0,.92-494.58h3.34l.52-279Zm-60,136,.18-94.93,59.35.11-.17,94.93h-3.88l0,11.27-52.48-.1,0-11.27h-3Zm47.55,288.77h-3.34l0,9.69-31.7-.06v-9.69h-5.1L132,626.64l40.16.08Zm.27-145.83,0,11.09-40-.07,0-11.1h-5.11l.2-103.92,52.48.1-.19,103.92Z"/><polygon class="h" points="225.99 732.5 225.34 1081.59 193.47 1081.53 194.09 742.48 194.11 732.44 194.38 587.66 198.6 587.66 198.86 448.17 197.63 448.16 197.87 314.3 192.06 314.29 192.09 296.15 203.9 296.17 203.87 307.97 212.68 307.99 212.43 443.61 215.95 443.62 215.69 587.7 221.5 587.71 221.23 732.49 225.99 732.5"/><path class="h" d="M173,359c3-4.57,11.3-18.65,11.3-18.65v9s-5.48,10.2-7.43,13.55c-6.36,10.38-20.13,29.9-27.72,39.93h.17l-.83,451.25h-7l.81-442.27c-7.41,9.5-17,21.63-22.6,28.49-3.88,4.75-9.7,11.61-15.88,18.64h1.58L104.58,854h-7l.72-388.9c-7.06,8.08-14,15.82-18.89,20.92C75,490.56,68.61,496.89,61.9,503.4H63l-.65,349.09H56.15l.64-344.16c-8.12,7.73-16.06,15.29-21.53,20.39-3.35,3-9.88,8.79-15.88,14.06L18.8,859.46h-7l.57-310.53c-3.88,3.34-6.7,5.8-6.7,5.8l0-8.45S25.75,529,32.28,523.07c10.41-9.67,30-29.89,39.7-40.09,8.29-8.79,24.88-26.37,32.83-35.52,8.82-10.37,25.77-31.65,33.89-42.38C147.35,393.65,164.66,370.78,173,359Z"/><path class="h" d="M658.4,733.29s-8.63-4.24-16.72-8.31l-.25,135.28-7,0,.26-138.61c-1.41-.71-2.64-1.42-3.7-2-7.56-3.89-20.58-10.61-30.79-16.26l-.29,157.46h-7l.29-161.16c-.88-.53-1.76-1.06-2.46-1.42-4.75-2.82-19.88-12.19-33.08-20.31l-.33,182.12h-7l.35-186.53c-7.22-4.42-13-7.95-14.78-9-5.28-3.18-14.78-9.18-21.29-13.42l-.39,210.12h-7l.39-214.71c-10.2-6.88-25.5-17.3-35.88-24.9l-.44,240.07h-7.05l.45-245.35c-9.67-7.6-25.32-20.84-35.52-29.31l-.5,271.6h-7.05L422,581.56h.35c-9.84-7.95-25-19.95-35.87-29.13l-.57,306.12h-7l.57-312.11c-8.79-7.94-24.79-24.88-33.23-33.18-1.05-1-2.28-2.29-3.69-3.52l-.64,347.68h-7l.65-354h.17c-4.57-4.41-9.31-9-12.3-12.17-6.16-6.53-17.06-17.47-23-24.18l-.71,386.44h-7.05l.73-394.37c-5.45-6.52-11.95-14.64-15.64-18.87-5.1-6-13.71-16-19.86-23.64l-.81,436.81h-7l.82-446c-4.22-5.82-9.66-13.93-12.47-17.81-7-9.7-25.82-40-25.82-40l0-11.28s26.17,40.56,35.48,53.61c4.22,5.65,13,16.76,17.4,22.23,6.85,8.64,20.91,25.58,27.94,33.87,7.73,9,23.2,27,31.28,35.63,6.16,6.53,18.82,19.24,25.32,25.59,4.57,4.59,13.89,13.24,18.64,17.47,5.27,4.77,15.47,14.3,20.75,19.06,10.55,9.36,31.83,27.71,42.73,36.54,8.44,6.71,25.68,19.78,34.3,26.31,9.32,6.89,28.14,20.66,37.64,27.19,8.8,6,26.21,17.66,35.18,23.32,12.67,7.95,38,23.14,50.85,30.56,8.09,4.6,24.11,13.79,32.2,18.2,46.8,25.63,103.48,46.87,103.48,46.87Z"/><path class="h" d="M161.46,864h6.87l0-12.15L4.9,851.51l0,13.21,14.77,16.4-14.8,0,0,12.15,163.45.3,0-22.54-6.88,7.38,0-14.62Zm-18,17.4-12.51,0,0-12.86Zm-21.66,0-12.51,0,12.53-12.83Zm-7.72-17.62L100.31,877.4l0-13.74Zm-22.9-.05,0,12.33L79,863.62Zm-7.61,17.6-13.38,0,0-13.74ZM60.85,881l-12.5,0,12.53-12.66ZM53,863.57,39.2,877.46l0-13.91Zm-23.07,0,0,13.21L17.38,863.51ZM152.8,877.85l-13.89-14.12,13.92,0Z"/><rect class="i" x="1171.87" y="708.81" width="309.47" height="1.23" transform="translate(614.73 2034.72) rotate(-89.89)"/><path class="f" d="M1656.94,806.47l17.25,7.25,11.62,4.25v-5.28l-12.68-4.61-17.07-8-17.77-7.61L1608.73,778l-16.89-8.48-23.93-12.9L1532,734.9l-15.31-9.36-12.66-8.65-21.82-15.19-15.12-11-17.41-14.47-17.59-14.65-19.34-16.77-14.07-13.59-20.4-19.94v5.81l5.81,5.82-.46,247.47h3.7l.45-243.77,7.91,7.94,15.65,14.82,2.81,2.47-.34,186.35h-6.7l-6.69,1.75-3.55,12.5,0,13.39,16.91,0v3h3.7v-3l26.42.05v3h3.7v-3l26.42,0v3h3.7v-3l26.42.05v3h3.7v-3l20.79,0v-3.35l-2.11-3.35-2.11-1.06-11.8-.2-1.58-2.82-3.17-1.41.24-128.93,1.06.7,24.28,15.37L1533.18,869h3.17l.23-125.41,20.06,12,6.33,3.71-.18,99.16-14.45,1-2.12,4.23v2.46l16.56,0v3.7h3.7v-3.7l26.42,0V871h3.69v-4.76h4.23v-5.81l-4.22-1.07.15-82.07,4.4,2.29,14.6,7.61,7,3.35-.1,55.66h-3.35l0,21h3.35V870h3.7v-3l26.07-.3v3.35h3.7v-3.34l21.84-.32v-8.27l-5.1-1.42-7-10.58-9.69,0,.08-40.34Zm-212.65,31.66-26.42,0,.34-183,19.16,17.12,7.21,5.83-.29,160.28Zm3.52.19L1448.1,681l7.74,6.18L1474.48,701l-.25,137.39Zm36.26,15.92,0-14.1-2.28-1.76h-4.06l.25-134.74,1.59,1.06L1497,717.23l7.39,5.29-.24,131.4Zm103.91.19-21.13,0L1567,761l5.81,3.35,20.58,10.79-.15,83.13Zm38.59-8.39.1-53.89,12.32,6,13.73,6-.08,41.92Z"/><polyline class="f" points="1263.57 553.52 1263 865.63 1258.07 865.62 1258.63 560.2"/><polygon class="f" points="1278.69 853.33 1288.21 853.35 1288.18 865.67 1264.93 865.63 1264.95 859.12 1273.22 859.13 1278.69 853.33"/><path class="f" d="M1356.69,487.64v8.28l-41.22-.08,0-8.27-6.52,0,0-8.27-7.93,0,0,8.28h-6.69l-.17,94.58h-2.65l-.18,99.16h-3.17L1288,782.54h-4.22l-.45,242,40.34.07.4-217,22,0-.4,217,17.62,0,.63-343.29h2.29l.36-193.75Zm-41.27,28.46,41.4.08-.13,65.87h-2.81l0,7.93-36.63-.07V582h-1.94Zm33,266.55h-2.29v6.69l-22,0v-6.69h-3.52l.14-73.8,27.82.05Zm.19-101.28,0,7.58-27.83-.05,0-7.58h-3.53l.14-72.22,36.46.07-.14,72.21Z"/><polygon class="h" points="1385.74 782.19 1385.29 1024.73 1363.1 1024.69 1363.53 789.2 1363.55 782.15 1363.73 681.75 1366.9 681.76 1367.08 584.89 1366.2 584.88 1366.37 491.89 1362.14 491.88 1362.17 479.37 1370.45 479.39 1370.43 487.49 1376.6 487.5 1376.42 581.73 1378.71 581.74 1378.53 681.78 1382.58 681.79 1382.39 782.18 1385.74 782.19"/><path class="h" d="M1348.88,522.85c2.12-3,7.95-12.84,7.95-12.84v6.34s-3.72,7-5.13,9.33c-4.42,7-14,20.58-19.25,27.61h.18L1332,866.64h-4.93l.56-307.18c-5.12,6.68-11.83,15.13-15.71,19.87-2.82,3.35-6.88,8.09-11.12,13h1.06l-.51,274.24h-4.93l.5-270c-4.77,5.45-9.71,10.9-13.06,14.42-3,3.16-7.41,7.56-12.18,12.13h.71L1272,865.65h-4.23l.44-239c-5.64,5.28-11.29,10.55-15,14.07-2.3,2.28-6.71,6.15-10.94,9.84l-.41,219.64h-4.93l.4-215.59c-2.65,2.46-4.59,4-4.59,4V652.8s14.11-11.77,18.53-16c7.23-6.68,20.82-20.75,27.52-27.78,5.65-6,17.3-18.29,22.77-24.62,6.18-7.21,18-21.8,23.66-29.37C1331.22,547.13,1343.23,531.12,1348.88,522.85Z"/><path class="h" d="M1686.41,777.64v5.28l-11.62-5.83-.17,93.88h-4.93l.18-95.64a19.26,19.26,0,0,1-2.64-1.24c-5.11-2.83-14.26-7.42-21.29-11.31l-.2,104.27h-4.93l.2-107.09a14.93,14.93,0,0,1-1.76-1.06c-3.34-1.94-13.9-8.48-23-14.13L1616,866.81h-4.76l.23-125.06c-5.1-3.18-9.15-5.65-10.38-6.36-3.69-2.29-10.2-6.36-14.78-9.36L1586,866.58h-4.93l.27-143.9c-7-4.77-17.77-12-25-17.31l-.3,161h-4.75l.3-164.69c-6.68-5.12-17.59-14.47-24.62-20.3l-.34,184.94h-4.93l.34-188.64h.18c-6.86-5.65-17.41-13.94-25-20.3l-.39,208.9H1492l.39-213.12c-6-5.48-17.23-17.3-23-22.94-.92-.78-1.8-1.61-2.64-2.48l-.44,238.49H1462l.44-242.89h.18c-3.34-3.17-6.5-6.35-8.61-8.47-4.22-4.41-12-12.17-16-16.76l-.5,268.25h-4.93l.51-273.88c-3.87-4.77-8.44-10.24-10.9-13.23-3.69-4.24-9.67-11.12-13.88-16.41l-.56,303.48h-4.93l.57-309.64c-2.81-4.06-6.68-9.7-8.61-12.35-4.92-6.7-17.92-27.86-17.92-27.86l0-7.93s18.09,28.22,24.59,37.21c2.81,4.06,9,11.64,12,15.52,4.74,6,14.41,17.64,19.33,23.47,5.27,6.17,16,18.7,21.62,24.69,4.22,4.59,13,13.41,17.58,17.83,3.16,3,9.67,9,12.83,12,3.7,3.35,10.73,10.06,14.42,13.23,7.39,6.53,22.16,19.24,29.72,25.42,5.81,4.77,17.77,13.95,23.75,18.36,6.51,4.77,19.52,14.31,26.21,18.9,6.15,4.24,18.29,12.36,24.45,16.25,8.62,5.47,26.39,16.07,35.19,21.2,5.63,3.36,16.71,9.72,22.34,12.72,6.34,3.18,25.34,12.38,25.34,12.38Z"/><path class="h" d="M1388.71,873.61v-8.45L1275.29,865v9.16l10.19,11.46-10.21,0,0,8.46,113.43.21,0-15.68-4.77,5.1,0-10Zm-17.11,12.12h-8.81l0-9Zm-15.15,0h-8.8l8.82-9ZM1351,873.54l-9.53,9.49v-9.51Zm-15.86,0v8.63l-8.44-8.64Zm-5.3,12.15-9.34,0,0-9.51Zm-15.85,0-8.64,0,8.65-8.79Zm-5.44-12.17-9.53,9.67,0-9.68Zm-16,0,0,9.16-8.61-9.17Zm85.41,9.85-9.67-9.71,9.68,0Z"/><rect class="h" x="1413.42" y="860.98" width="5.28" height="3.52" transform="translate(550.71 2277.21) rotate(-89.89)"/><rect class="h" x="1442.92" y="861.3" width="5.99" height="3.7" transform="translate(580.1 2307.47) rotate(-89.89)"/><rect class="h" x="1473.39" y="861.01" width="5.28" height="3.7" transform="translate(610.46 2337.3) rotate(-89.89)"/><rect class="h" x="1503.34" y="861.06" width="5.28" height="3.7" transform="translate(640.29 2367.29) rotate(-89.89)"/><rect class="h" x="1532.93" y="860.59" width="4.23" height="3.7" transform="translate(669.78 2395.88) rotate(-89.89)"/><rect class="h" x="1562.25" y="861.61" width="5.81" height="3.35" transform="translate(698.99 2426.85) rotate(-89.89)"/><rect class="h" x="1592.11" y="861.58" width="5.99" height="3.7" transform="translate(728.73 2456.93) rotate(-89.89)"/><rect class="h" x="1621.96" y="861.72" width="5.81" height="3.35" transform="translate(758.48 2486.67) rotate(-89.89)"/><rect class="h" x="1651.38" y="861.6" width="5.81" height="3.7" transform="translate(787.78 2516.14) rotate(-89.89)"/><path class="h" d="M1674.43,874.14h4.4l0-8.46-300.49-.55v8.63h7.22l-7.23,7.56,0,12.86,300.48.55,0-13-.17-2.11-4.24,4.21,0-9.51Zm-11.65,12.31-9.33,0v-9.69Zm-15.67,0-9,0,9-9.14Zm-5.62-12.17-9.53,9.5,0-9.51Zm-15.85,0,0,8.63-8.43-8.64Zm-5.31,12.15-9.33,0,0-9.69Zm-15.67,0-9.34,0,9.36-9.49Zm-6-12.17-9.53,9.5,0-9.51Zm-15.85,0,0,8.64-8.43-8.65Zm-5.31,12.15-9.33,0,0-9.69Zm-186-.35h-9.34l9.35-9.14Zm6.34,0,0-9.69,9.31,9.7Zm14.62-3.5-8.44-8.65,8.46,0Zm6.36-8.62,9.51,0-9.53,9.49ZM1434,886h-8.8l8.82-9.15Zm6.35,0v-9.68l9.32,9.7Zm14.62-3.49-8.44-8.65,8.46,0Zm6.18-8.62,9.51,0-9.53,9.49Zm16,12-9.69,0,9.71-9.85Zm6.34.18,0-9.68,9.31,9.7Zm14.62-3.49-8.43-8.65,8.45,0Zm6.36-8.62,9.51,0-9.53,9.49Zm15,12.18-8.63,0,8.65-9Zm6.34,0,0-9.68,9.32,9.7Zm14.63-3.49-8.44-8.65,8.45,0Zm6.35-8.62,9.51,0-9.53,9.49Zm15.14,3.2v9l-8.81,0Zm106.2,5.65-8.44-8.64h8.46Z"/><path class="j" d="M1368.48,493s-66.79,117.88-179,195.7c-59.43,41.29-138.59,80.59-224.38,90-199.6,22-361.15-53.51-519.62-181S212.63,338.11,212.63,338.11"/><polygon class="h" points="678.12 735.8 684.63 738.27 684.41 859.81 677.89 859.79 678.12 735.8"/><polygon class="h" points="725.64 754.73 730.92 756.33 730.73 859.89 724.39 859.88 724.58 754.2 725.64 754.73"/><polygon class="h" points="936.43 779.78 942.94 779.26 942.79 862.04 936.27 862.03 936.43 779.78"/><rect class="h" x="857.18" y="818.02" width="81.37" height="6.52" transform="translate(74.94 1717.62) rotate(-89.89)"/><rect class="h" x="817.2" y="817.94" width="81.37" height="6.52" transform="translate(35.1 1677.57) rotate(-89.89)"/><polygon class="h" points="811.91 775.85 818.42 776.74 818.27 860.05 811.75 860.04 811.91 775.85"/><polygon class="h" points="767.89 767.67 774.4 769.62 774.24 859.97 767.72 859.96 767.89 767.67"/><polygon class="h" points="976.41 776.33 982.76 775.81 982.59 864.41 976.25 864.39 976.41 776.33"/><polygon class="h" points="1017.99 770.06 1024.52 767.79 1024.34 864.48 1017.82 864.47 1017.99 770.06"/><polygon class="h" points="1060.29 755.52 1066.29 753.6 1066.08 864.56 1060.09 864.55 1060.29 755.52"/><polygon class="h" points="1106.47 736.41 1113.17 732.72 1112.93 864.65 1106.24 864.63 1106.47 736.41"/><polygon class="h" points="1152.84 712.89 1158.84 710.44 1158.55 864.73 1152.56 864.72 1152.84 712.89"/><polygon class="h" points="1198.52 683.56 1205.57 678.82 1205.23 864.82 1198.18 864.8 1198.52 683.56"/><path class="h" d="M1258.6,864.56v-7.39h-4.93l0,8.28-38.4-.08,0-6.34H1210v6.34l-36.64-.06,0-8.28h-5.28l0,8.28-37.87-.07,0-8.1h-5.29v8.1l-38.05-.42,0-9.16h-5.28l0,9-38-.6v-7.22h-4V864l-32.94-.41v-7.4h-5.28v7.4l-37.52-.6v-6.87H959l0,6.86-37.86-.59V857.6h-5.29v4.76l-38-.6v-5.81h-4.93v5.81l-38.4-.6v-3.88h-5.29V861l-12.86-.2v-.17l-14.8,0-8.8-.19v-4.93h-5.29v4.75l-38-.6v-4.4h-5.29v4.23l-38-.6v-4.93H700.8v4.93l-38-.6v-3.35h-4.93V858l-41.74-.61v-7H610.8v6.86l-37.52-.59v-6.52h-4.75v6.34l-37.87-.6v-4.4h-5.29v4.4l-38.05-.59v-5.46H482.4v5.46l-38.4-.6v-3.53h-5.28v3.35L402.07,854v-4.4H396.8V854l-38-.6v-3.87h-5.28v3.87l-38-.6v-4.4h-5.29v4.4l-38.05-.59v-2.82h-4.94v2.82l-41.39-.61,0,12.33,10.39,0-10.41,10.9,0,18.67,426.42.26v.18l163.45.3v-.35l156.23.11v.53l88.6-.55,218.76.06-3.35-.71,17.09,0,0-15.5-7.41,5.09,0-10,7.4,0v-8.28l-34.7-.07Zm-1014,17.16-13.39,0,13.41-13Zm9,0,0-13.91,13.53,13.94Zm21.15-5.24-12.13-12.35,12.15,0Zm9.18-12.14,13.74,0-13.77,13.71Zm21.81,17.48-12.86,0,12.88-13Zm9,0,0-13.92,13.53,13.94Zm21.15-5.25-12.13-12.35,12.15,0ZM345,864.46l13.74,0L345,878.2Zm22.86,17.48-13.91,0,13.94-14.24Zm9.16,0,0-13.91L390.57,882Zm21.15-5.24L386,864.36l12.15,0Zm9.18-12.14,13.74,0-13.77,13.72Zm21.46,17.48-12.51,0,12.53-12.83Zm9.15,0,0-13.91,13.54,13.94Zm21.15-5.24L447,864.48l12.15,0Zm9-12.14,13.73,0-13.76,13.71Zm21.8,17.48-12.68,0,12.71-13Zm9,0,0-13.92,13.54,13.94ZM520,876.94l-12.13-12.35,12.15,0Zm9.18-12.14,13.74,0L529.2,878.54Zm22.34,17.31-13.39,0,13.42-13.54Zm9.16.19,0-13.92,13.54,13.94Zm21-5.25L569.56,864.7l12.15,0Zm9.18-12.13,13.74,0-13.77,13.72Zm21.81,17.3-12.86,0,12.88-13Zm9.16.19,0-13.91,13.54,13.94ZM643,877.17l-12.13-12.36,12.16,0Zm15.49,5.13-6.33-3.71,0-13.74h0v5.46l13.18,12.18Zm18.5-1.9-12.48-10.94,12.5,0Zm9.36-10.9,13.73,0L686.31,881ZM708,882.57l-10.92,0L708,873.41Zm9.15.37,0-10.22L729.28,883Zm21.15-3.13-12.14-10.24,12.16,0Zm9.17-10.2,13.74,0-13.76,11.43ZM768.91,883l-11.27,0,11.29-9.49Zm9.16.19v-9.69l11.44,9.71Zm21.84-1.9L786,869.68l13.91,0Zm8.63.37v-4.4l1.76,2.82Zm15.33-1L810.5,870.43l13.39,0Zm10-10,14.8,0L833.9,881.39Zm23.23,12.9-12.68,0,12.7-9.31Zm9.86.19,0-10.21,13.9,10.24Zm22.73-3.65-13-9.54,13,0Zm9.71-9.5,14.62,0-14.64,10.72ZM922.67,884l-13,0,13.05-9.66Zm9.86.2,0-9.87,13.37,9.89Zm23.44-2.6-15-11,15,0Zm16.55,2.85-7.22-2.31,0-11.27.53-.53,19,14.13Zm24.13-2.07-12.49-9.54,12.51,0Zm9.35-9.5,13.74,0L1006,883.12Zm21.65,11.85-11.1,0,11.11-8.25Zm9.33-.16,0-9,12.13,9.19Zm21-2.61-12.14-9,12.15,0Zm9-9,13.73,0-13.75,10Zm21.64,12-11.45,0,11.46-8.61Zm9.16,0v-8.63l11.61,8.83Zm21.84-1.72-13.9-10.24,11.45,0v.18l2.47,1.76Zm24.31-1.72-13.37-9,13.39,0Zm10.06-9,14.79,0-14.81,9.48Zm23.22,12.2-13.38,0,13.4-8.78Zm10,0,0-9.51,14.43,9.54Zm22.56-3.65-13-8.48,13,0Zm9.87-8.44,14.62,0-14.63,9.48Zm23.23,12-13.56,0L1242.9,876Zm9.69.19,0-8.8,13.54,8.83Zm23.62-12.11v9.69l-15-9.71Z"/><rect class="h" x="1293.21" y="861.2" width="11.1" height="5.28" transform="translate(432.52 2161) rotate(-89.89)"/><rect class="h" x="1336.27" y="859.61" width="11.1" height="4.76" transform="translate(477.36 2202.22) rotate(-89.89)"/><rect class="h" x="1378.64" y="859.42" width="11.1" height="5.28" transform="translate(519.57 2244.66) rotate(-89.89)"/><path class="k" d="M1759.72,860.44s29.82,3.84-74.54-26.9-205,92.21-205,92.21l369,96Z"/><path class="l" d="M1793.27,1014.11S1454.09,810.49,1375.82,822s-344,148.14-344,148.14l481.92,174.57,294.46,7.68Z"/><rect class="m" x="1456.61" y="902.72" width="9.02" height="31.18"/><rect class="n" x="1456.61" y="902.72" width="4.67" height="31.18"/><path class="o" d="M1484.33,884s29.65-1.94,22.55-32.56c0,0-5.47-17.08-22.23-17.72,0,0-5.16-17.73-23.53-14.83,0,0-10.31,0-16.44,10.64,0,0-33.51-3.22-30.94,27.07,0,0,1.29,21.92,26.11,22.56,0,0-.32,22.89,21.43,23.53,0,0,20.79-.32,23-18.69"/><path class="l" d="M1484.65,833.75c16.76.65,22.24,17.73,22.24,17.73,7.09,30.61-22.56,32.55-22.56,32.55-2.06,16.71-19.44,18.49-22.56,18.67V818.84c17.84-2.38,22.88,14.91,22.88,14.91"/><rect class="m" x="1345.05" y="845.87" width="8.21" height="28.35"/><rect class="n" x="1345.05" y="845.87" width="4.25" height="28.35"/><path class="o" d="M1370.25,828.87s27-1.76,20.52-29.6c0,0-5-15.53-20.22-16.12,0,0-4.69-16.11-21.4-13.48,0,0-9.37,0-14.94,9.68,0,0-30.48-2.94-28.14,24.61,0,0,1.18,19.93,23.74,20.52,0,0-.29,20.8,19.49,21.39,0,0,18.9-.29,21-17"/><path class="l" d="M1370.55,783.16c15.24.58,20.22,16.11,20.22,16.11,6.45,27.84-20.52,29.6-20.52,29.6-1.86,15.2-17.67,16.81-20.51,17V769.6c16.22-2.17,20.81,13.56,20.81,13.56"/><rect class="m" x="1620.66" y="874.33" width="7.24" height="25.02"/><rect class="n" x="1620.66" y="874.33" width="3.75" height="25.02"/><path class="o" d="M1642.91,859.33s23.79-1.55,18.1-26.12c0,0-4.4-13.71-17.85-14.23,0,0-4.13-14.22-18.88-11.89a16.28,16.28,0,0,0-13.19,8.53s-26.9-2.59-24.82,21.73c0,0,1,17.58,20.94,18.1,0,0-.25,18.36,17.2,18.88,0,0,16.68-.26,18.5-15"/><path class="l" d="M1643.16,819c13.45.52,17.85,14.23,17.85,14.23,5.69,24.57-18.1,26.12-18.1,26.12-1.65,13.41-15.6,14.83-18.11,15V807c14.32-1.91,18.36,12,18.36,12"/></g></svg>