<svg xmlns="http://www.w3.org/2000/svg" xmlns:xlink="http://www.w3.org/1999/xlink" viewBox="0 0 340.35 30"><defs><style>.cls-1{fill:none;}.cls-2{clip-path:url(#clip-path);}.cls-3{fill:#bde6ee;}.cls-4{fill:#fff;}</style><clipPath id="clip-path"><rect class="cls-1" x="-186.83" y="263.69" width="1680.31" height="792.14"/></clipPath></defs><title>WellsFargo</title><g id="Artwork"><g class="cls-2"><rect class="cls-3" x="-194.13" y="-492.5" width="1692.87" height="1517.31"/></g></g><g id="_16_column_grid" data-name="16 column grid"><path class="cls-4" d="M208.05,11.7a11.42,11.42,0,0,0-1.2-5.7c-.9-1.65-3-1.95-6.15-1.95h-7.2v8.4h2.25c3.6,0,4.05-.6,4.05-5.1h2.7v14.1h-2.7c-.15-4.8-.6-5.7-4.05-5.7h-2.1V23c0,2.25.3,2.7,2.85,2.7h3.3V28.8H182.4V25.65l1.65-.15c2.4,0,3.3-.15,3.3-2.55V6.3c0-2.25-.9-2.7-3.3-2.7H182.4V.45h28.95v11h-3.3Z"/><path class="cls-4" d="M273,21h-2.7c.15,3.3,0,4.5-1.65,4.65-.9,0-1.5-.75-1.65-2.4a6.05,6.05,0,0,0,0-1.65c-.3-3.9-.9-5.7-6-6.9,5.4-.75,8.55-3.3,8.55-7.35,0-4.5-3.3-6.75-10.5-6.75H239.7V3.75H242c2.4,0,2.7.15,2.7,2.7V23.1c0,2.1-1.2,2.7-2.85,2.7h-2.1c-1.65,0-2.4-.6-3.3-2.7L227.4.75h-6.9L211.05,23.1c-.9,1.95-1.5,2.7-3.75,2.7h-1.2V29h14.7V25.8h-3c-1.5,0-2.25-.15-2.25-.9a4.64,4.64,0,0,1,.3-1.2l1.5-3.45h11l1.2,3.3A13.8,13.8,0,0,1,230,24.9c0,.9-.75,1.2-2.4,1.2h-3v3.15h31.8V26.1h-2.7c-2.4,0-2.85-.15-2.85-2.7V16.05h2.85c5,0,6.45.9,6.6,5.7l.15,3.3C260.55,29,263.1,30,267,30c3.3,0,5.85-2.1,5.85-7.2H273A3.6,3.6,0,0,0,273,21Zm-54.15-4.35,4.2-10.8,4.35,10.8Zm38.4-4H251.1V4.05h6.15c4.05,0,5.85.9,5.85,4.2V8.4C263,11.1,261.15,12.6,257.25,12.6Z"/><path class="cls-4" d="M298.05,9.75c-1.35-4.2-4.2-6.15-8.85-6.15S281,7.35,281,14.55s3,11.1,8.25,11.25c3.9,0,7.2-1.95,7.2-5.1V19.05c0-1.95-.6-1.95-3.15-1.95h-1.5V13.8H305v3.3h-.9c-1.95,0-2.25-.15-2.25,2.25v9.3h-2.25l-1.5-2.25a16.23,16.23,0,0,1-9.6,3,12.9,12.9,0,0,1-9.75-4,15.41,15.41,0,0,1-4.35-11,14.83,14.83,0,0,1,4.2-10.65A14.33,14.33,0,0,1,288.6,0c3.15,0,6.9.9,9,3l1.5-3h2.25V9.45Z"/><path class="cls-4" d="M323.85,29.4c-9.3,0-16.65-5.85-16.65-14.7S314.55.15,323.85.15s16.5,5.85,16.5,14.7C340.2,23.55,333.15,29.4,323.85,29.4ZM333.3,15c0-10-6.75-11.4-9.6-11.4-5.4,0-9.6,3.9-9.6,11.4s4.2,11.25,9.6,11.25C326.55,26.25,333.3,24.9,333.3,15Z"/><path class="cls-4" d="M105,23.4c-.9,1.65-2.85,2.1-6.15,2.1H92v-19c0-2.25.6-2.7,3.3-2.7h2V.6h-17V3.75h1.5c2.4,0,3.75.15,3.75,2.7l.15,16.65c0,2.4-1.05,2.7-3.6,2.7H80.4V29h28.95V17.55h-3.3C106.2,20.25,105.9,22.05,105,23.4Z"/><path class="cls-4" d="M68.1,25.5h-9V15.75h2.1c3.45,0,4,.6,4.2,5.4h3.3V7.05H65.4c-.3,4.2-.75,5.4-4.35,5.4H59.1V4.05h7.95c5.7,0,7.2,1,7.35,7.5h3.15V.6h-42V3.75h2c1.65,0,2.4.45,2.4,1.2a7.08,7.08,0,0,1-.3,2.25L34.2,21.45h-.3c-2.55-7-5.85-15.3-5.85-15.3A3.73,3.73,0,0,1,27.9,5c0-.9.6-1.2,2-1.2h2.4V.6h-15V3.75H19.2c2.4,0,3.3,1.2,3.45,3.45L17.1,21.3h-.45C14,13.8,10.8,6,10.8,6a2.64,2.64,0,0,1-.15-.9q-.22-1.35,2.25-1.35h1.35V.6H0V3.75H.6c2.1,0,3.45,1.35,4.5,3.75l8.4,21.3h5.25L24.9,13.2l6.45,15.6h5.1L44.4,7.2c.9-2.7,1.8-3.45,4.05-3.45h.45c2.4,0,3.75.15,3.75,2.55V23c0,2.25-1.35,2.55-3.75,2.55l-1.65.15V28.8H78V17.55H74.85C74.4,23.1,73.05,25.5,68.1,25.5Z"/><path class="cls-4" d="M136.65,17.7c0,2.7-.3,4.35-1.2,5.85s-2.85,2.1-6.15,2.1h-6.9V6.6c0-2.25.6-2.7,3.3-2.7h2V.75h-17.1V3.9h1.8c2.4,0,3.6.15,3.6,2.7l.15,16.65c0,2.4-1,2.7-3.6,2.7h-.45V29.1H140V17.7Z"/><path class="cls-4" d="M168.75,20.7c0,6.45-5.1,8.85-12.6,8.85a18.76,18.76,0,0,1-9.9-3.45l-.9,3H142.5V17.85h3.3c.9,5.4,4.5,7.65,9.6,8,4.35.15,7.5-1.05,7.95-4.05.45-3.45-3.6-3.3-6.9-3.9l-4.8-.9c-7.2-1.2-9.6-3.3-9.6-8.1C141.9,3.75,146.4.3,152.7.3a16.62,16.62,0,0,1,10.05,3l1.5-2.25h2.55V11h-3.15c-.75-5.4-6.15-7.2-10.65-7-3.3.15-5.55,2.1-5.55,4.35,0,2.1,2.1,2.4,4.8,2.85l5.85,1.05c5.85.6,10.65,1.8,10.65,8.55Z"/></g></svg>