<?xml version="1.0" encoding="utf-8"?>
<!-- Generator: Adobe Illustrator 23.0.2, SVG Export Plug-In . SVG Version: 6.00 Build 0)  -->
<svg version="1.1" id="Layer_1" xmlns="http://www.w3.org/2000/svg" xmlns:xlink="http://www.w3.org/1999/xlink" x="0px" y="0px"
	 viewBox="0 0 1667.8 800.7" style="enable-background:new 0 0 1667.8 800.7;" xml:space="preserve">
<style type="text/css">
	.st0{clip-path:url(#SVGID_2_);}
	.st1{fill:#EEEFEF;}
	.st2{opacity:0.5;fill:#CBCECD;enable-background:new    ;}
	.st3{fill:#00758F;}
	.st4{fill:#3F9BAF;}
	.st5{fill:#004F35;}
	.st6{fill:#1D703A;}
	.st7{fill:#8A341E;}
	.st8{fill:#5D0101;}
	.st9{fill:#15553D;}
	.st10{fill:#00586E;}
	.st11{fill:#1A1B1B;}
	.st12{fill:#8A331D;}
	.st13{opacity:0.5;fill:#FFFFFF;enable-background:new    ;}
	.st14{opacity:0.3;enable-background:new    ;}
	.st15{fill:#343535;}
	.st16{fill:#4E5052;}
	.st17{fill:#65676A;}
	.st18{fill:#E9EAEA;}
	.st19{fill:none;stroke:#494949;stroke-width:2.83;stroke-miterlimit:10;}
	.st20{fill:none;stroke:#65676A;stroke-width:1.17;stroke-miterlimit:10;}
	.st21{fill:#BA0000;}
	.st22{fill:none;}
	.st23{fill:#AD5219;}
	.st24{fill:#CF7215;}
	.st25{fill:#FFFFFF;}
	.st26{fill:#F6B159;}
	.st27{fill:#CD7328;}
</style>
<title>team-footer-bg</title>
<g>
	<defs>
		<rect id="SVGID_1_" x="-5.6" y="-68.1" width="1678.8" height="872.8"/>
	</defs>
	<clipPath id="SVGID_2_">
		<use xlink:href="#SVGID_1_"  style="overflow:visible;"/>
	</clipPath>
	<g class="st0">
		<rect x="-22" y="-107.1" class="st1" width="1700.6" height="994.2"/>
		<path class="st2" d="M-7.2,866.6l2.1-75.4V498H7.6v-11.3l37.9-6.9v-25.5h13.1v9.3h15.3v-6.4h10.4v6.4h5.3v18.2h55v18.6h20.8v20
			h6.3v-33.7h19.9l27,12.2v-5.8h12.7l0.3-11.5h11.9l1.5-24.9l1.1,25h9.9v13.3h3.7v17.1h5.8v-11.8h18.9v14.2h17.6V431l8.1,0.2V423
			h26.1l0.1,7.8l7.6,0.2v109.2h22.3l-0.1-4.9h24.3v14.6h16.8v-52.4h8.1v-4h9.9v3.5l19.4-0.2v57.9h14.8l17.1-136l9,106.3h4.9v-6.9
			h8.5v6.4h11.8v14.7h6.7l0.2,3.7h7.5l1.4-33l10.4-3.4v-15.9l8.1-7.8l1.8-31.3l2.3,31.8l7.2,7.3v16.6l7.8,3.7l0.6,19.2l3.4,0.2
			l0.5-8.9h5.3c-0.3-0.3-0.3,33.1-0.2,79.6l16.5-0.5l0.5-1.7h10.7v2.3h8.8v30.4h18.5v-65h26.4l0.9,59.4h22.9v-93.3h45l0.4,145
			l22.6-0.2v-75.3h46.4v75.1h17.4v-44.1h27.2v44.1h11.6v-42.1h67.6v41.8h9.6v-14.7h11.5v72.1l118.3-0.5v38l2.3,62.6L574.9,820
			c0.2,32.4,0.3,53.9,0.3,53.9L-7.2,866.6z"/>
		<rect x="31.4" y="634.4" class="st3" width="1678.7" height="268.6"/>
		<rect x="31.4" y="634.4" class="st4" width="1678.7" height="7.5"/>
		<path class="st5" d="M-52.4,630.2c0,0-21.2,2.7,52.9-19.1s145.7,65.5,145.7,65.5l-262.2,68.3L-52.4,630.2z"/>
		<path class="st6" d="M-76.2,739.4c0,0,241.1-144.7,296.7-136.5s217.2,92.8,217.2,92.8L122.5,832.2l-209.3,5.5L-76.2,739.4z"/>
		<rect x="156.6" y="660.3" class="st7" width="6.4" height="22.2"/>
		<rect x="159.8" y="660.3" class="st8" width="3.3" height="22.2"/>
		<path class="st9" d="M143.3,647c0,0-21.1-1.4-16.1-23.1c0,0,3.8-12.1,15.8-12.6c0,0,3.6-12.6,16.7-10.5c4.9,0.3,9.3,3.2,11.7,7.6
			c0,0,23.8-2.3,22,19.2c0,0-0.9,15.6-18.5,16.1c0,0,0.2,16.2-15.3,16.7C159.8,660.3,145,660,143.3,647z"/>
		<path class="st6" d="M143.1,611.3c-11.9,0.5-15.8,12.6-15.8,12.6c-5,21.8,16.1,23.1,16.1,23.1c1.5,11.9,13.9,13.2,16.1,13.3v-59.6
			C146.7,598.9,143.1,611.3,143.1,611.3z"/>
		<rect x="236.5" y="619.8" class="st7" width="5.8" height="20.2"/>
		<rect x="239.3" y="619.8" class="st8" width="3" height="20.2"/>
		<path class="st9" d="M224.4,607.8c0,0-19.1-1.3-14.6-21c0,0,3.5-11.1,14.3-11.4c0,0,3.4-11.4,15.2-9.6c4.5,0.3,8.5,2.9,10.6,6.9
			c0,0,21.7-2.1,20.1,17.5c0,0-0.8,14.1-16.9,14.6c0,0,0.2,14.8-13.9,15.2C239.3,619.8,225.9,619.7,224.4,607.8z"/>
		<path class="st6" d="M224.2,575.3c-10.8,0.5-14.3,11.4-14.3,11.4c-4.5,19.8,14.6,21,14.6,21c1.3,10.8,12.6,11.9,14.6,12v-54.2
			C227.5,564.1,224.2,575.3,224.2,575.3z"/>
		<rect x="41.3" y="640.1" class="st7" width="5.1" height="17.8"/>
		<rect x="43.8" y="640.1" class="st8" width="2.7" height="17.8"/>
		<path class="st9" d="M30.6,629.4c0,0-16.9-1-12.8-18.5c0,0,3.1-9.8,12.7-10.1c0,0,2.9-10.1,13.4-8.5c3.9,0.3,7.5,2.6,9.3,6.1
			c0,0,19.1-1.9,17.6,15.4c0,0-0.7,12.5-14.9,12.8c0,0,0.2,13.1-12.2,13.4C43.8,640.1,31.9,639.9,30.6,629.4z"/>
		<path class="st6" d="M30.5,600.8c-9.6,0.3-12.7,10.1-12.7,10.1c-4.1,17.5,12.8,18.5,12.8,18.5c1.2,9.6,11.1,10.5,12.8,10.6v-47.8
			C33.4,590.9,30.5,600.8,30.5,600.8z"/>
		<path class="st10" d="M718.6,764.8H535.1c-0.7,0-1.3-0.6-1.3-1.3v-0.8c0-0.7,0.6-1.3,1.3-1.3h183.4c0.7,0,1.3,0.6,1.3,1.3v0.8
			c0.1,0.6-0.4,1.2-1,1.3C718.7,764.8,718.7,764.8,718.6,764.8z"/>
		<path class="st10" d="M795.7,778.1H519.5c-0.7,0-1.3-0.6-1.3-1.3V776c0-0.7,0.6-1.3,1.3-1.3h276.2c0.7,0,1.3,0.6,1.3,1.3v0.8
			c0.1,0.6-0.4,1.2-1,1.3C795.8,778.1,795.8,778.1,795.7,778.1z"/>
		<path class="st10" d="M687.4,787.8H503.9c-0.7,0-1.3-0.6-1.3-1.3v-0.8c0-0.7,0.6-1.3,1.3-1.3h183.4c0.7,0,1.3,0.6,1.3,1.3v0.8
			c0.1,0.6-0.3,1.2-0.9,1.3C687.5,787.8,687.5,787.8,687.4,787.8z"/>
		<path class="st10" d="M763.7,798.3H487.6c-0.7,0-1.3-0.6-1.3-1.3v-0.8c0-0.7,0.6-1.3,1.3-1.3h276.2c0.7,0,1.3,0.6,1.3,1.3v0.8
			C765,797.7,764.4,798.3,763.7,798.3z"/>
		<path class="st10" d="M742.9,807.2H466.7c-0.7,0-1.3-0.6-1.3-1.3v-0.8c0-0.7,0.6-1.3,1.3-1.3h276.2c0.7,0,1.3,0.6,1.3,1.3v0.9
			C744.1,806.6,743.6,807.1,742.9,807.2z"/>
		<path class="st10" d="M625.6,818.3H442.2c-0.7,0-1.3-0.6-1.3-1.3v-0.8c0-0.7,0.6-1.3,1.3-1.3h183.4c0.7,0,1.3,0.6,1.3,1.3v0.8
			C626.9,817.8,626.3,818.3,625.6,818.3z"/>
		<path class="st10" d="M693.8,828.7H417.6c-0.7,0-1.3-0.6-1.3-1.3v-0.8c0-0.7,0.6-1.3,1.3-1.3h276.2c0.7,0,1.3,0.6,1.3,1.3v0.8
			C695.1,828.1,694.5,828.7,693.8,828.7z"/>
		<rect x="533.4" y="700.8" class="st11" width="9" height="63.7"/>
		<rect x="519.4" y="702.8" class="st11" width="9" height="74.8"/>
		<rect x="503.9" y="708.9" class="st11" width="9.3" height="77.9"/>
		<rect x="486.8" y="713.9" class="st11" width="10.4" height="82.9"/>
		<rect x="466.5" y="719" class="st11" width="12.9" height="86"/>
		<rect x="443.2" y="724" class="st11" width="14.3" height="91.9"/>
		<rect x="417.9" y="728.1" class="st11" width="14.7" height="99.2"/>
		<rect x="392" y="735.1" class="st11" width="17.3" height="108"/>
		<rect x="363.2" y="742.2" class="st11" width="18.3" height="108.4"/>
		<rect x="332.5" y="749.3" class="st11" width="19.4" height="126.6"/>
		<rect x="300.7" y="757.4" class="st11" width="21.6" height="136.4"/>
		<rect x="268" y="770.6" class="st11" width="17" height="146.5"/>
		<rect x="533.4" y="700.8" width="9" height="63.7"/>
		<rect x="519.4" y="702.8" width="9" height="74.8"/>
		<rect x="503.9" y="708.9" width="9.3" height="77.9"/>
		<rect x="486.8" y="713.9" width="10.4" height="82.9"/>
		<rect x="466.5" y="719" width="9.4" height="86"/>
		<rect x="443.2" y="724" width="9" height="91.9"/>
		<rect x="417.9" y="728.1" width="7.5" height="99.2"/>
		<rect x="392" y="735.1" width="8.4" height="108"/>
		<rect x="363.2" y="742.2" width="7" height="108.4"/>
		<rect x="332.5" y="749.3" width="7" height="126.6"/>
		<rect x="300.7" y="757.4" width="5" height="136.4"/>
		<rect x="268" y="770.6" class="st11" width="17" height="146.5"/>
		<rect x="-7.7" y="711.7" width="9.9" height="63.5"/>
		<rect x="35.9" y="707.7" width="15.9" height="58.5"/>
		<rect x="80.5" y="697.8" width="12.9" height="55.6"/>
		<rect x="147" y="689.9" width="11.9" height="52.6"/>
		<rect x="180.8" y="689" width="9.9" height="49.7"/>
		<rect x="207.5" y="682.9" width="11" height="48.6"/>
		<rect x="235.3" y="680.9" width="9" height="43.6"/>
		<rect x="257.1" y="676.9" width="7" height="39.6"/>
		<rect x="276.9" y="678" width="9" height="36.7"/>
		<rect x="297.8" y="671" width="7.9" height="41.6"/>
		<rect x="314.6" y="669" width="7" height="41.6"/>
		<rect x="332.5" y="669" width="6" height="35.7"/>
		<rect x="346.4" y="667" width="7.9" height="34.7"/>
		<polygon class="st11" points="-8.8,705.7 350.4,663.1 549.2,667.7 542.8,675 349.3,672 -14.7,719.6 		"/>
		<path class="st11" d="M-9.7,728.6l351.5-52.5c0.5-0.1,8-1,8.6-0.9l196.1,4.8l-3.5,7l-192.2-2.8c5.4-0.9-7.5,0.9-7.9,0.9
			L-8.8,739.5L-9.7,728.6z"/>
		<polygon class="st11" points="-9.7,746.4 354.3,687.9 549.2,692.9 548.3,698.9 352.4,695.8 -16.7,762.3 		"/>
		<polygon class="st12" points="-7.7,773.2 352.4,700.8 547.7,698.9 125.2,871.4 -26.6,932 		"/>
		<path d="M309.1,571.1l14-12l12.8,11.7L309.1,571.1z"/>
		<rect x="308.6" y="570.5" width="27.6" height="2.3"/>
		<rect x="322" y="554" width="2" height="6"/>
		<rect x="316.2" y="587.9" width="12.5" height="2.6"/>
		<rect x="321.5" y="589.6" width="2" height="86.8"/>
		<rect x="319" y="670.2" width="6.9" height="12.8"/>
		<rect x="317.2" y="681.8" width="10.5" height="22.7"/>
		<polygon points="331.5,709.2 313,712.7 313,706.4 331.5,702.9 		"/>
		<rect x="313.9" y="601.5" width="17.1" height="2"/>
		<polygon class="st13" points="311.7,572.5 318,588.1 327.3,587.9 333.2,572.7 		"/>
		<circle cx="313.5" cy="602.7" r="2"/>
		<circle cx="331.5" cy="602.3" r="2"/>
		<path d="M-11.2,579.3l19.9-17L27,578.9L-11.2,579.3z"/>
		<rect x="-11.8" y="578.4" width="39.4" height="3.3"/>
		<rect x="7.2" y="555" width="2.8" height="8.5"/>
		<rect x="-1.1" y="603.3" width="17.8" height="3.6"/>
		<rect x="6.4" y="605.7" width="2.8" height="123.7"/>
		<rect x="3" y="720.4" width="9.8" height="18.3"/>
		<polygon points="15.3,769.5 0.3,775.2 0.3,737.1 15.3,737.1 		"/>
		<polygon points="20.8,775.9 -7.4,780.7 -7.4,771.7 20.8,766.9 		"/>
		<rect x="-4.5" y="622.7" width="24.4" height="2.8"/>
		<polygon class="st13" points="-7.6,581.4 1.4,603.6 14.8,603.3 23.3,581.7 		"/>
		<circle cx="-4.9" cy="624.4" r="2.8"/>
		<circle cx="20.6" cy="623.9" r="2.8"/>
		<polygon class="st14" points="-11.7,774.2 352.4,695.8 542.4,700.8 -69.8,861.5 		"/>
		<polygon class="st15" points="350.4,663.1 350.6,671.8 538.5,675.1 549.2,667.7 		"/>
		<polygon class="st15" points="351.3,688.5 351,696.3 543.7,699.3 549.1,693.5 		"/>
		<polygon class="st15" points="350.3,675.1 350.6,684.1 542.8,687 546.3,680 		"/>
		<polygon class="st16" points="172,418.9 175.5,421.2 164.6,436.8 160,432.3 		"/>
		<polygon class="st17" points="188.6,461.9 203.1,453.4 205.1,456.9 191.6,465.8 		"/>
		<polygon class="st17" points="194.9,499.2 212.6,501 212.5,505.7 193.9,505.7 		"/>
		<polygon class="st16" points="185.1,532 202.7,543.6 199.6,548.6 180.5,537.5 		"/>
		<polygon class="st15" points="160,552.6 169.5,573.5 165,576.2 153.5,557.1 		"/>
		<polygon class="st11" points="84.2,556.2 73.9,574.4 78.3,576.6 92.3,558.2 		"/>
		<polygon class="st11" points="38.7,538.1 52.6,525.1 56.7,531.6 41.8,542 		"/>
		<polygon class="st11" points="24.7,486.9 24.7,493.5 47.4,495.4 48.2,486.5 		"/>
		<polygon class="st11" points="39.4,445 42.9,438.9 60.3,451.4 54.9,458.5 		"/>
		<polygon class="st15" points="75.7,413.7 80.9,410.6 91.8,427.2 85.3,431.3 		"/>
		<rect x="106.7" y="555.6" class="st15" width="32.1" height="276.2"/>
		<rect x="106.7" y="555.6" width="8.7" height="276.2"/>
		<rect x="129.5" y="555.6" class="st17" width="5.1" height="276.2"/>
		<rect x="134.6" y="555.6" class="st16" width="4.2" height="276.2"/>
		<rect x="115.4" y="555.6" class="st11" width="6.1" height="276.2"/>
		<polygon class="st15" points="138.8,432.3 106.7,432.3 106.7,361.5 139.5,361.5 		"/>
		<rect x="106.7" y="362.4" width="8.7" height="69.8"/>
		<polygon class="st17" points="134.5,432.3 129.5,432.3 129.5,363 134.5,363.4 		"/>
		<rect x="134.6" y="363" class="st16" width="4.2" height="69.2"/>
		<rect x="115.4" y="362.2" class="st11" width="6.1" height="70.1"/>
		<ellipse class="st15" cx="117.9" cy="495.2" rx="73.4" ry="73"/>
		<circle class="st18" cx="126.7" cy="493" r="72.2"/>
		<circle cx="170.4" cy="506.3" r="2.5"/>
		<circle cx="86.3" cy="513.5" r="2.5"/>
		<circle class="st19" cx="126.7" cy="493" r="61.9"/>
		<circle class="st20" cx="126.7" cy="493" r="33"/>
		<path class="st21" d="M132.3,507.1c1.5-0.1,3-0.3,4.3-0.5c0.5-0.6,0.8-1,1.2-1.5c0.2-0.2,0.4-0.4,0.6-0.7c0.1-0.1,0-0.2,0-0.3
			l-3.8-0.7c-0.1,0-0.4-0.1-0.5-0.1c-0.5-0.3-1.1-0.4-1.8-0.5c-0.4,0-0.7-0.3-1.2-0.6c-0.1,0-0.2-0.1-0.4-0.1
			c-0.4,0.2-0.7-0.1-0.9-0.2c-0.2-0.1-0.4-0.1-0.6-0.1c-1.1,0.4-2.2,0.5-3.4,0.3c-0.1,0-0.2,0.1-0.4,0.1s-0.5,0.1-0.7,0.1
			s-0.4,0-0.4,0.1c-0.5,0.3-0.8,0.7-1.4,0.6c-1.2,0-2,0.8-3.1,0.8c-0.7,0-1.4,0.1-2.1,0.2c-0.2,0-0.4,0.1-0.6,0.1
			c0.1,0.2,0.2,0.3,0.4,0.6c0.4,0.4,0.7,0.9,1,1.4c0.2,0.4,0.6,0.7,1.1,0.7l2.7,0.3h0.8c0.1,0,0.1,0,0.2,0.1c-0.4,0.1-0.7,0.3-1,0.5
			c-1,0.4-2.1,0.5-3.1,0.5c-1.2,0-2.3-0.7-2.9-1.8l-0.1-0.1c-0.8-0.5-1.3-1.3-1.4-2.2c-0.2-0.5,0-1.1,0.5-1.4
			c0.1-0.1,0.1-0.1,0.1-0.2c0-0.3,0.4-0.5,0.7-0.6c0.9-0.2,1.9-0.3,2.8-0.6c0.8-0.1,1.6-0.2,2.4-0.2c0.4,0,0.9,0.1,1.3,0.2h0.4
			c-0.6-0.4-1.2-0.7-1.9-0.9c-0.3-0.1-0.6,0-0.8,0.1c-2.1,0.6-4.1,1-6.2,1.6c-0.9,0.2-2,0.3-2.9,0.6c-0.2,0-0.4,0.1-0.6,0.2
			c-1,0.6-2,1-3.1,1.3c-0.1,0-0.2,0.2-0.2,0.3c-0.1,0.6,0.2,1.2,0.7,1.6c0.1,0,0.1,0.1,0.1,0.1v0.1c-0.8-0.2-1.6-0.6-2.1-1.3
			c-0.5-0.5-0.4-1.3,0.1-1.8c0.1-0.1,0.3-0.2,0.5-0.3l4.2-1.8c0.5-0.2,1-0.2,1.5-0.5c0.1,0,0.3,0,0.4-0.1c0.5-0.6,1.3-0.5,2-0.6
			s1.5-0.2,2.3-0.5s1.5-0.3,2.3-0.5c-0.4-0.2-0.7-0.5-0.9-0.6s-0.7,0.1-1.1,0.1c-1.3,0.3-2.7,0.3-4.1,0.1c-0.5,0-0.9-0.1-1.4-0.1
			l0,0c-0.9-0.7-2-0.2-3-0.7c-0.8-0.4-1.6-1-2.2-1.6c-0.1-0.1-0.3-0.3-0.5-0.3c-0.2-0.1-0.4-0.3-0.6-0.5s-0.1-0.1-0.2-0.1
			c-1.2-0.6-2.3-1.4-3-2.6c-0.1-0.1-0.1-0.3-0.1-0.5c0-0.1,0-0.3-0.1-0.3c-0.6-1-1-2-1.3-3.1c-0.3-1.2-0.1-2.5,0.6-3.6
			c0,0.2-0.1,0.5-0.1,0.7c0,0.9,0.2,1.7,0.6,2.5c0.4,0.8,0.8,1.6,1.2,2.3c0.1,0.2,0.3,0.4,0.6,0.3c0.5,0.1,1.1,0.3,1.5,0.6
			c0.8,0.5,1.5,0.9,2.2,1.4c0.6,0.5,1.1,1.1,1.4,1.8c0.3,0.6,0.8,1.2,1.3,1.6c0.1,0.1,0.6,0,0.8-0.1c0.7-0.3,1.4-0.6,2.1-0.9
			c0.1-0.1,0.4-0.1,0.5-0.2c-0.5-0.4-1.1-0.7-1.8-0.8c-1.3-0.3-2.5-1.1-3.4-2.1c-0.3-0.2-0.5-0.6-0.5-0.9c0-0.2-0.4-0.5-0.6-0.7
			c-0.2-0.3-0.4-0.6-0.5-1c-0.1-0.3-0.3-0.5-0.4-0.8c-0.3-0.6-0.3-1.3-0.1-1.9c0.1-0.8,0.2-1.6,0.4-2.6c0-0.1,0.1-0.2,0.2-0.5
			c-0.7-1.5-0.6-3.1,0.1-4.5c0.1-0.3,0.2-0.8,0.8-0.7l0.1-0.1c0.7-1.3,2-2.2,3.5-2.5c1.3-0.3,2.7-0.2,4,0.1c-2,0.6-4,1.5-5.7,2.8
			c0.2,0.6,0.4,1.2,0.5,1.8c0.2,0.6,0.2,1.2,0.1,1.9c0,1.4-0.2,2.8-0.7,4.2c-0.2,0.7-0.4,1.3-0.6,2c-0.1,0.3,0.1,0.7,0.1,1
			c0.5-0.1,1.1-0.1,1.6-0.1c1.2,0,2.5,0.2,3.6,0.6c0.2,0.1,0.4,0.2,0.6-0.2c0.3-0.6,0.7-1.1,1.2-1.6c-0.5-0.4-1-0.7-1.4-1.2
			c-1.1-1.1-1.8-2.5-2-4v-1c-0.4-1-0.1-2.1,0.6-2.9c0.4-0.5,0.9-0.7,1.2-1.3h0.1c0.7,0,0.9-0.7,1.4-1c1.1-0.9,2.4-1.5,3.7-1.9
			c1.3-0.3,2.4-0.7,3.6-1c0.8-0.3,1.7-0.2,2.4,0.2l0.4,0.3c-1.2-0.2-2.5,0.1-3.5,0.8v0.1c0.5-0.1,0.9-0.3,1.4-0.5
			c0.2-0.1,0.6-0.1,0.8-0.2c0.3-0.1,0.7-0.1,1-0.1c0.1,0,0.1,0,0.4,0.2c-0.2,0.1-0.5,0.3-0.7,0.5c-1.7,0.8-3.3,1.7-4.9,2.8
			c-0.9,0.7-1.9,1.3-2.9,1.9c-0.6,0.3-1.2,0.5-1.9,0.7h-0.2c-0.2,0.3-0.4,0.6-0.7,0.9c0.5,0.4,1,0.7,1.5,1l0.7-0.7
			c-0.2,0.7-0.1,1.5,0.2,2.2c0.2-0.2,0.5-0.3,0.7-0.6c0,0.7-0.4,1.3,0.4,1.8c0.1-0.1,0.4-0.1,0.6-0.2c-0.1,0.2-0.1,0.6-0.2,0.8v0.2
			h0.2l2.4-0.7c0.3-0.1,0.5-0.1,0.8-0.1c-0.1-0.2-0.2-0.4-0.4-0.6c-0.1-0.2-0.2-0.7,0-0.8c0.3-0.1,0.6-0.1,0.8,0
			c0.5,0.3,0.9,0.7,0.9,1.3c0.5,0,0.9-0.1,1.4-0.1c1.3,0,2.4-0.1,3.7-0.1c0.2,0,0.4-0.1,0.5-0.3c0.3-0.4,0.6-0.7,0.9-0.9
			c0.2-0.2,0.6-0.1,0.8,0.1c0.2,0.2,0.2,0.6,0,0.8c0,0,0,0,0,0c-0.1,0.1-0.1,0.2-0.2,0.3c1,0,2.1,0.2,3.1,0.2v-0.1
			c0.1,0.1,0.4,0.2,0.5,0.3c0.7-0.3,0.6-1,0.7-1.6c0.1,0.2,0.3,0.4,0.5,0.6c0.6-0.6,0.5-1.4,0.7-2.2c0.2,0.2,0.3,0.5,0.5,0.7
			l1.7-0.7c0-0.1-0.1-0.2-0.2-0.3l-0.2-0.2c0-0.6-0.4-0.6-0.7-0.7c-0.6-0.3-1.1-0.7-1.5-1.2c-0.9-0.8-1.8-1.8-2.7-2.7
			c-1.1-1.1-2.2-2.1-3.5-2.9c-0.2-0.2-0.4-0.4-0.7-0.6c-0.2-0.2-0.1-0.6,0.2-0.7c0.1,0,0.1-0.1,0.2-0.1c0.6-0.2,1.3-0.2,1.9,0
			c1,0.5,2,0.9,3,1.4c0.9,0.5,1.8,1,2.7,1.6c1,0.7,1.9,1.6,2.4,2.7c0.1,0.1,0.4,0.1,0.4,0.3c0.2,0.3,0.4,0.6,0.5,0.9
			c0.7,0.9,0.9,2.1,0.6,3.2c-0.1,0.3-0.3,0.5-0.5,0.7c0.2,0.5,0,0.8-0.2,1.2c-0.5,1-1.1,1.9-2,2.6c0.2,0.2,0.5,0.6,0.7,0.8
			s0.2,0.1,0.4,0.2c1.2,0.1,2.3,0.1,3.6,0.2c0.1,0,0.2-0.1,0.2-0.2c0.3-0.4,0.4-0.9,0.2-1.4c-0.1-0.8-0.3-1.6-0.6-2.5
			c-0.2-1.2-0.2-2.3-0.1-3.5c0.1-0.9,0.3-1.7,0.6-2.6c0-0.2,0.2-0.3,0.4-0.6c-1.6-1.5-3.5-2.6-5.6-3.4c1.8-0.3,3.7,0,5.4,0.8
			c0.8,0.4,1.4,1.1,1.8,1.9c0.2,0.5,0.2,0.5,0.9,0.6c0.1,0.8,0.4,1.5,0.5,2.3c0,0.8-0.1,1.6-0.5,2.3c0,0.1-0.1,0.3-0.1,0.5
			c0,1,0.1,2.2,0.1,3.3c0.1,0.6-0.1,1.1-0.5,1.5c-0.2,0.3-0.4,0.8-0.6,1.2c-0.3,0.4-0.6,0.7-0.9,1c0.1,0.3,0,0.6-0.3,0.8
			c0,0-0.1,0-0.1,0c-0.5,0.3-0.9,0.8-1.4,1.2s-1.3,0.5-1.9,0.8c-0.1,0-0.1,0-0.2,0.1c0,0.1,0,0.1-0.1,0.1c0,0,0,0,0,0
			c0.2,0.1,0.3,0.1,0.5,0.2c0.7,0.1,1.5,0.3,2.2,0.5c0.1,0,0.4,0.1,0.5,0.1c0.7,0.1,0.9-0.1,1.3-0.7c0.6-1.2,0.8-2.5,1.8-3.4
			c0.2-0.2,0.4-0.4,0.6-0.7c0.6-0.6,1.2-1,1.8-1.6c0.1-0.1,0.3-0.2,0.5-0.2c0.4,0,0.6-0.3,0.7-0.7c0.2-1,0.5-2.1,0.7-3.1
			c0.3-0.8,0.2-1.7-0.2-2.5c0.6,0.5,1,1.3,1,2.1c0.3,1.3,0.2,2.6-0.1,3.8c0,0.2-0.1,0.5-0.2,0.7v0.6c0,0.3-0.1,0.6-0.2,0.8
			c-0.5,1.1-1.2,2-2.2,2.7c-0.1,0-0.1,0.1-0.1,0.2c0,0.1,0,0.1-0.1,0.1c0,0,0,0,0,0c-0.6,0.7-1,1.4-1.6,2.1c-0.8,0.8-1.9,1.3-3,1.4
			c-0.1,0-0.3,0-0.4,0.1c-0.3,0.4-0.7,0.7-1.2,0.7c-1,0.3-2.1,0.5-3.1,0.7c-0.8,0.1-1.6,0.1-2.4,0c-0.6-0.1-1.2,0.1-1.5,0.6
			c0.8,0,1.5-0.1,2.2-0.1h0.4c1-0.1,2.2-0.1,3.3-0.2c0.2,0,0.3,0,0.5,0.1c0.4,0,0.6,0.1,0.9,0.1c0.9,0.1,1.9,0.2,2.9,0.3
			c0.8,0.1,1.6,0.1,2.3,0.2c0.4,0,0.9,0.2,1.3,0.3c0.6,0.4,0.7,1.2,0.4,1.9c-0.2,0.4-0.6,0.8-0.9,1.2c-0.2,0.2-0.4,0.3-0.7,0.5
			c0-0.1,0-0.2,0.1-0.2c0.4-0.4,0.5-1.1,0.4-1.6v-0.5h-0.7c-1,0.1-2.1-0.1-3-0.5c-0.2-0.1-0.6,0-0.9,0h-1.9
			c-0.1,0.3-0.5,0.1-0.7,0.1s-0.6-0.1-0.9-0.1h-7c-0.8,0.2-0.7,0.1-0.7,1.3c0.3-0.1,0.6-0.1,0.9-0.1h2.1c0.7,0.1,1.5,0.2,2.2,0.3
			c0.7,0.1,1.4,0.3,2,0.5c0,0,0.1,0,0.1,0.1c0.2,0.5,0.6,1,0.8,1.5c0.1,0.6-0.1,1.2-0.5,1.6c-0.2,0.3-0.5,0.8-0.9,0.9l-0.1,0.1
			c-0.5,1-1.6,1.7-2.8,1.8c-1.1,0.1-2.2,0-3.1-0.5C132.9,507.4,132.6,507.3,132.3,507.1L132.3,507.1z M129.1,474.1
			c0.1,0,0.1,0.1,0.2,0.1s0.5,0.1,0.7,0.2s0.4,0.2,0.6,0.3s0.7,0.3,1,0.5s0.4,0.2,0.6,0.3c0-0.1,0.1-0.1,0.1-0.1
			C131.3,474.7,130.4,473.9,129.1,474.1L129.1,474.1z M132.5,475.6L132.5,475.6c0.2,0.5,0.5,0.9,0.9,1.3l0.1-0.1
			C133.2,476.4,132.8,476,132.5,475.6L132.5,475.6z M122.5,476.3L122.5,476.3c-0.5,0.2-1,0.5-1.3,0.9l0.1,0.1
			C121.7,477,122.1,476.7,122.5,476.3L122.5,476.3z"/>
		<circle class="st22" cx="126.2" cy="492.1" r="37.1"/>
		<polygon class="st23" points="-7.3,835.2 546.3,680 549.2,680 143.5,799 -8.8,844.1 		"/>
		<polygon class="st24" points="-8.8,794.1 547.7,668.1 -9.5,799 		"/>
		<polygon class="st23" points="-8.1,879.4 546.3,694.1 -11.7,886.1 		"/>
		<polygon points="-4.8,795 549.2,667.7 549.2,675.7 -10.8,820.8 		"/>
		<polygon points="-8.8,838.7 549.2,680 549.1,687.9 -6.8,862.5 		"/>
		<polygon points="-7.7,883.4 549.1,693.5 549.2,702.2 -7.7,906.1 		"/>
		<polygon points="-7.7,917.1 548.3,700.3 -16.7,931 		"/>
		<path class="st25" d="M94.4,335.4c0,0,4.5-6.8,11.2-2.6c2.5,1.6,3.8,4.6,3.4,7.6l0.6,5.1l19.1,11.4l-0.9,5.5c0,0-6.2,2-9.3,1.9
			s-12.1,0.7-17.9-4.2c0,0-6-5.8-4.2-12.9s1.1-7.9,1.1-7.9L94.4,335.4z"/>
		<path class="st26" d="M88.2,337.6c1-1,2.3-1.6,3.7-1.8l2.4-0.5l1.9,2.4L88.2,337.6z"/>
		<path class="st27" d="M97.2,339.2c0,0-5.4,0.1-6.2-0.6c-0.3-0.3-0.7-0.6-1.2-0.8h5.8L97.2,339.2z"/>
		<path class="st11" d="M128.5,356.8c0,0,13.3,2.6,15.6,3.4c1.2,0.3,2,1.3,2,2.6l-28.3-1.2L128.5,356.8z"/>
		<path class="st15" d="M134.6,360.2l-4-2.1l-15.5,3.6C115.1,361.6,128,364.2,134.6,360.2z"/>
		<path class="st16" d="M132.1,358.7l-22.6-13.2c0,0-6.6-3.6-8.2,4.9c0,0-1.2,8,8.9,10.5C110.1,360.8,116.9,363.3,132.1,358.7z"/>
		<path class="st17" d="M104.1,346.2c0,0-1.8,5.4,2.6,8.2c0,0,7.3,7.1,21.8,2.4l-19.2-11.4C109.4,345.5,107.4,343.7,104.1,346.2z"/>
		<circle class="st17" cx="100" cy="335.4" r="0.8"/>
	</g>
</g>
</svg>
